<svg xmlns="http://www.w3.org/2000/svg" viewBox="0 0 579.36 869.77"><defs><style>.cls-1{fill:none;}.cls-2{fill:#babcbe;}.cls-3{fill:#b0b0b0;}.cls-4{fill:#fff;}.cls-5{fill:#8c8d88;}.cls-5,.cls-6,.cls-7,.cls-8{fill-rule:evenodd;}.cls-6{fill:#fffffe;}.cls-7{fill:#b8612e;}.cls-8{fill:#e0712c;}</style></defs><title>Header Thing</title><g id="Layer_2" data-name="Layer 2"><g id="Layer_1-2" data-name="Layer 1"><path class="cls-1" d="M579.36,362.06H0V0H579.36ZM226.08,192.89a11.76,11.76,0,0,0,1.2.05,16.76,16.76,0,0,0,7.58-2.45c.53-.31,1-.64,1.59-.92a1,1,0,0,1,1.53.48c.38.75.79,1.48,1.17,2.23a21.1,21.1,0,0,0,13.75,11.15c3.13.84,6.28,1.61,9.39,2.49A113.33,113.33,0,0,1,274,209.44a89,89,0,0,1,29.76,19.87,39.1,39.1,0,0,1,10.54,18.74c2.86,11.78,6.68,23.28,10.49,34.78.26.78.53,1.54,1.52,1.5s1.29-.79,1.56-1.54a16.58,16.58,0,0,0,.72-2.4,169.24,169.24,0,0,1,8-27.27,37.94,37.94,0,0,1,4.08-8.78c2.29-3.24,4.59-6.48,7-9.6,5.87-7.46,13.19-13.29,21.1-18.44A123.24,123.24,0,0,1,386.25,207a31.31,31.31,0,0,0,8-5.17,49.74,49.74,0,0,0,11.14-14.55c.33-.65.62-1.32,1-1.94a1.87,1.87,0,0,1,3-.6,6.78,6.78,0,0,1,.75.67c2.68,2.45,5.35,4.91,8,7.35.38.35.82.64,1.24,1l.3-.2a7.61,7.61,0,0,0-.26-1.74c-1.45-3.58-1.29-7.31-1.14-11.06.22-5.53.52-11.06.46-16.58,0-3.84-.66-7.67-1-11.5a55.73,55.73,0,0,0-2.49-13.81c-.91-2.58-2-5.1-2.92-7.67-.74-2-.53-2.89,1.1-4.26,1.45-1.23,3-2.34,4.44-3.56,2.6-2.2,4.26-5.15,6.13-7.92a2,2,0,0,0,.14-.61,1.48,1.48,0,0,0-.39-.11A15.67,15.67,0,0,1,412,111.55c-1.33-1-2.61-2.1-3.93-3.12a2.94,2.94,0,0,1-1.14-3.12,6.32,6.32,0,0,1,.65-1.89c1.16-2.1,2.29-4.22,3.59-6.24,2.82-4.37,5.64-8.72,7.54-13.6,1-2.5,2-5,3-7.47A92.36,92.36,0,0,0,426,62.23c.1-.46.13-.94.23-1.7l-2.18,1.14c-1.54.78-3.06,1.61-4.64,2.32a14,14,0,0,1-7.5,1.27,10.74,10.74,0,0,1-1.78-.54A56.52,56.52,0,0,0,420,48.8l-2.65.56A48.75,48.75,0,0,1,410,50.78c-7.75.32-15.52.45-23.28.52a38.1,38.1,0,0,1-12.55-1.83c-5.5-1.87-11-3.74-16.34-6-7.33-3.14-14.49-6.7-21.74-10a20.4,20.4,0,0,1-6-3.86,14.06,14.06,0,0,0-1.74-1.3,3.45,3.45,0,0,0-3.91-.22c-2.22,1.16-4.48,2.27-6.8,3.24-6.9,2.87-13.85,5.64-20.75,8.51a166.6,166.6,0,0,0-19,8.8,114.2,114.2,0,0,1-15.63,7.66c-.73.28-1.44.6-2.15.93a90.1,90.1,0,0,1-22.14,7c-2.79.49-5.62,1.08-8.47.47-1.11-.23-2.18-.66-3.56-1.09,1.14,1.89,2.11,3.57,3.15,5.2s2,3.22,3.16,4.74,2.47,2.93,3.91,4.61c-5.51,1.53-10.12.46-14.42-3.57a21,21,0,0,0,0,2.7,25.7,25.7,0,0,0,4.05,10.72c2.36,3.6,4.76,7.17,7.26,10.67a22.12,22.12,0,0,0,3.61,3.94c2.55,2.17,5.25,4.16,7.88,6.24,1.53,1.21,3.11,2.37,4.56,3.68a6.07,6.07,0,0,1-.62,9.57c-1.72,1.15-3.38,2.38-5.13,3.48a24.9,24.9,0,0,1-10.92,4c-1.48.15-3,.14-4.59.21a9,9,0,0,0,.26,1.19,10.64,10.64,0,0,0,5,5.81,17.76,17.76,0,0,0,5.9,1.78c.52.08,1,.24,1.7.41-.47,1.43-.85,2.65-1.28,3.84a217,217,0,0,0-7.26,24.9c-1.85,8-3.94,16-5.91,24C226.21,192,226.18,192.34,226.08,192.89ZM49.78,277.11c-.56.31-1,.53-1.42.78A7.6,7.6,0,0,0,44.62,282c-1.8,5.68-.15,12.2,6.83,14.68A23.32,23.32,0,0,0,59,298c7.43.07,14.86.09,22.29,0a27.86,27.86,0,0,0,6-.73c5-1.15,8.85-4,9.49-9.47.57-4.86-.7-8.26-5-10.32a4.38,4.38,0,0,1-.66-.54,11,11,0,0,0,1.62-1.13,12.64,12.64,0,0,0,2.41-2.73A11.3,11.3,0,0,0,88,256.73a29.7,29.7,0,0,0-7.79-1c-6.09,0-12.18,0-18.27,0-1.95,0-3.91.16-5.85.34a18.46,18.46,0,0,0-3.12.59c-6.91,1.81-9.1,7-8.33,13.11a8.32,8.32,0,0,0,4.3,6.63A7.37,7.37,0,0,1,49.78,277.11ZM70.6,157.27v-.05c3.74,0,7.49.07,11.23,0a22.48,22.48,0,0,0,8.32-1.69c3.68-1.56,6.12-4.19,6.17-8.36q.14-11.29,0-22.6a7.68,7.68,0,0,0-3.55-6.34,17.46,17.46,0,0,0-3.86-1.94,25.41,25.41,0,0,0-8.56-1.32c-6.48,0-13,0-19.43,0a25.07,25.07,0,0,0-4.83.41,27.63,27.63,0,0,0-5.75,1.72,8.61,8.61,0,0,0-5.47,8.14q-.15,10.88,0,21.77a8.64,8.64,0,0,0,5,7.92,19.06,19.06,0,0,0,3.26,1.29,28.86,28.86,0,0,0,8.27,1.07C64.46,157.26,67.53,157.27,70.6,157.27Zm-18,64.25c0-2.64-.08-5,.05-7.33a3.53,3.53,0,0,1,1-2.16,5.58,5.58,0,0,1,2.57-1.46,28.76,28.76,0,0,1,5.62-.67c6.59-.08,13.18,0,19.78-.05a37.68,37.68,0,0,0,6-.37,27.12,27.12,0,0,0,6.1-1.66A9,9,0,0,0,99.57,199c0-.89,0-1.78,0-2.68a9.19,9.19,0,0,0-5.78-9,17.32,17.32,0,0,0-6.61-1.69c-4.51-.18-9-.21-13.56-.29a3.33,3.33,0,0,0-.83.07c-1.18.3-1.61,1.24-1.54,3.32,0,1.72.5,2.45,1.71,2.68a8.34,8.34,0,0,0,1.5.08c3.07,0,6.15-.06,9.22,0a21.85,21.85,0,0,1,4.63.61c2.72.69,3.73,2.17,3.74,5v1c0,2.64-1.08,4.21-3.64,4.9a20.12,20.12,0,0,1-4.63.65c-3.46.1-6.92,0-10.39.05-4.75,0-9.5,0-14.24.11a20,20,0,0,0-9.18,2.3,8.54,8.54,0,0,0-4.84,7.34c-.16,3.46-.13,6.93-.15,10.39,0,3,.82,3.86,3.85,3.85,15.82,0,31.63,0,47.44,0a5,5,0,0,0,1.5-.07,2.41,2.41,0,0,0,1.33-.86,4.61,4.61,0,0,0,.06-4.2c-.54-1.18-1.74-1-2.8-1-.44,0-.89,0-1.34,0H52.62ZM95.16,75.73v7.75c0,2.87.79,3.65,3.69,3.7h.5c2.69-.09,3.44-.86,3.47-3.58v-35c0-3.58-.74-4.29-4.36-4.14a6.44,6.44,0,0,0-1.32.16,2.26,2.26,0,0,0-1.94,2.21,15.64,15.64,0,0,0,0,1.68v21H52.71c0-.64-.08-1.19-.08-1.73V58c0-3.58,0-7.16,0-10.73,0-1.82-.65-2.58-2.43-2.79a12.18,12.18,0,0,0-2.83,0c-1.58.2-2.11.8-2.3,2.38a16.9,16.9,0,0,0-.09,2V71.36c0,3.83.54,4.37,4.34,4.37H95.16ZM229.45,306.31a11.77,11.77,0,0,0,2.09-2.26c1.64-3.15.78-7.86-3.55-9.1a17.08,17.08,0,0,0-4.6-.69c-6.25-.08-12.5,0-18.75,0-1.9,0-2.25.33-2.25,2.25q0,9.79,0,19.59c0,1.83.37,2.19,2.14,2.19,6.37,0,12.73.07,19.09,0a17.13,17.13,0,0,0,5.06-.93,5.71,5.71,0,0,0,3.91-5.52,5,5,0,0,0-2.92-5.19C229.58,306.54,229.53,306.41,229.45,306.31ZM473,299.59H459a13.2,13.2,0,0,0-5.55,1,5,5,0,0,0-3.21,4.84c0,2.29,0,4.58,0,6.87a4.77,4.77,0,0,0,3.32,4.91,17.28,17.28,0,0,0,4.87,1c3.51.14,7,.12,10.54,0a17.84,17.84,0,0,0,4.57-.87,4.88,4.88,0,0,0,3.57-4.93c.06-5.47,0-10.94,0-16.41,0-1.46-.64-2-2.06-2s-2,.52-2,2C473,297.13,473,298.23,473,299.59Zm-90.1,18.68v1.91c0,.62,0,1.23,0,1.85a1.73,1.73,0,0,0,1,1.79c1.77.74,3.15-.13,3.15-2.05,0-5.36,0-10.72,0-16.08a5,5,0,0,0-3.93-5.34,16.75,16.75,0,0,0-4.27-.72c-3.34-.11-6.69-.06-10,0a12.2,12.2,0,0,0-5.05,1,4.82,4.82,0,0,0-3.14,4.37c-.09,2.62-.1,5.25,0,7.87a4.84,4.84,0,0,0,3.29,4.43,13.5,13.5,0,0,0,5.4,1h13.62Zm-41.61,0H349a14.73,14.73,0,0,0,5.25-.91,5.45,5.45,0,0,0,3.79-4.85,13.7,13.7,0,0,0-.1-3,5.16,5.16,0,0,0-3.41-4.2,14.15,14.15,0,0,0-5.56-1c-2.79,0-5.58,0-8.38,0a22.33,22.33,0,0,1-3.16-.27,2.77,2.77,0,0,1-2.67-2.88c-.05-1.86.6-2.73,2.53-3.16a11.93,11.93,0,0,1,2.32-.23c1.28-.05,2.57,0,3.85-.05,1.07-.05,1.55-.66,1.54-1.77s-.47-1.66-1.61-1.67a40.45,40.45,0,0,0-5.51.12,19.57,19.57,0,0,0-4.47,1.25,4,4,0,0,0-2.42,2.65c-1.08,3.69-.51,7.68,4.43,8.87a24.92,24.92,0,0,0,4.79.61c3.29.1,6.59,0,9.88.11,2.92.12,3.73,1.09,3.66,3.94,0,1.49-.47,2.2-1.88,2.57a13.25,13.25,0,0,1-3.14.4c-5.13,0-10.27,0-15.4,0H332a1.32,1.32,0,0,0-1.37,1.21c-.3,1.46.29,2.24,1.8,2.25C335.35,318.28,338.31,318.27,341.26,318.27ZM198.08,270.56H217.4c.45,0,.9,0,1.34,0,1.18-.1,1.57-.47,1.62-1.68s0-2.46,0-3.69a4.83,4.83,0,0,0-3.77-5.08,17.43,17.43,0,0,0-4.43-.7c-3.29-.11-6.59-.05-9.88,0a13,13,0,0,0-5.07,1,4.93,4.93,0,0,0-3.33,4.59c-.08,2.51-.09,5,0,7.54a4.84,4.84,0,0,0,3.32,4.59,6.66,6.66,0,0,0,1.9.6q3.84.27,7.68.37c1.19,0,1.49-.34,1.52-1.48s-.29-1.6-1.53-1.65c-.73,0-1.45,0-2.18,0a30.41,30.41,0,0,1-3.83-.22C198.3,274.22,197.73,273.33,198.08,270.56Zm89.08,34.5h-1.77c-4.3,0-8.6,0-12.9,0a14.65,14.65,0,0,0-5.56,1,4.55,4.55,0,0,0-3.08,3.28,14.73,14.73,0,0,0-.18,3.81,4.5,4.5,0,0,0,3.23,4.09,16.27,16.27,0,0,0,4.55.95c4.07.12,8.15.13,12.22,0a15.67,15.67,0,0,0,4.7-1,4.42,4.42,0,0,0,3.06-4.21c.07-2.67.06-5.36,0-8a4.32,4.32,0,0,0-2.31-3.84,7.5,7.5,0,0,0-2.79-1.06c-2.37-.26-4.77-.34-7.16-.41-1.06,0-1.51.53-1.51,1.55s.44,1.54,1.51,1.57c1.5.06,3,0,4.52.1a10.1,10.1,0,0,1,2.59.57A1.2,1.2,0,0,1,287.16,305.06Zm156,0h-1.8c-4.3,0-8.6,0-12.9,0a14.67,14.67,0,0,0-5.56,1,4.85,4.85,0,0,0-3.33,4.23,15.71,15.71,0,0,0,0,3,4.39,4.39,0,0,0,3,3.88,15,15,0,0,0,4.53,1q6.36.21,12.73,0a13.69,13.69,0,0,0,4.51-1.07,4.52,4.52,0,0,0,3-4.44q0-3.76,0-7.54a4.54,4.54,0,0,0-2.57-4.2,7,7,0,0,0-2.49-.91c-2.38-.24-4.77-.34-7.16-.41-1.11,0-1.54.47-1.56,1.5s.43,1.59,1.62,1.63c1.45,0,2.91,0,4.35.08a10.74,10.74,0,0,1,2.45.48A1.43,1.43,0,0,1,443.15,305.06Zm-204.1,5.74h11.27c3,0,6,0,9,0,1.5,0,1.87-.42,1.91-1.9,0-1.18,0-2.35,0-3.52a4.82,4.82,0,0,0-3.66-5,15.41,15.41,0,0,0-4.1-.72c-3.57-.1-7.15-.13-10.71,0a16.55,16.55,0,0,0-4.56.9,4.77,4.77,0,0,0-3.46,4.66c-.07,2.51-.06,5,0,7.54a4.51,4.51,0,0,0,2.18,3.93,10,10,0,0,0,2.6,1.12c2.79.76,5.66.43,8.5.45a1.06,1.06,0,0,0,1.11-1c.28-1.46-.21-2.07-1.73-2.11-.39,0-.78,0-1.17,0-1.61-.08-3.24-.07-4.83-.28C239.57,314.57,238.29,313.42,239.05,310.8Zm-70.43-51.45c0-1.33,0-2.44,0-3.55-.06-1.5-.62-2-2.07-2s-2,.52-2,2c0,6.82,0,13.64,0,20.45a2.06,2.06,0,0,0,.09.83,2.1,2.1,0,0,0,.68.89,2.13,2.13,0,0,0,3.35-1.73c0-.39,0-.79,0-1.18V262.72a3.43,3.43,0,0,1,.66-.19c4.58,0,9.16,0,13.74.06a7,7,0,0,1,2,.36,2.47,2.47,0,0,1,1.92,2.61c0,.45,0,.9,0,1.34,0,3.13,0,6.26,0,9.39,0,1.39.46,1.89,1.73,1.94,1.45.06,2.29-.39,2.25-2.13-.08-3.51-.1-7,0-10.56a5.07,5.07,0,0,0-4-5.44,21.33,21.33,0,0,0-4.77-.72c-3.18-.11-6.37,0-9.55,0Zm130.1,51.59c.76.35,1.26.56,1.73.8,3.7,2,7.4,3.91,11.1,5.88a5.9,5.9,0,0,0,3.68.83c.67-.09,1.38-.26,1.56-1s-.41-1.21-1-1.56c-.29-.16-.6-.3-.89-.45l-11.2-5.69c-.43-.22-.83-.48-1.47-.85.66-.4,1.11-.7,1.59-.95l11.69-6.18c.53-.29,1.19-.58,1-1.35s-.85-.95-1.55-1a5.64,5.64,0,0,0-3.19.84q-5.67,3-11.38,6.05c-.47.25-1,.44-1.66.75v-3.4c0-2.46,0-4.91,0-7.37,0-.79,0-1.58-.89-2a2.09,2.09,0,0,0-3.24,1.9v19.6a9.1,9.1,0,0,0,0,1.17,1.52,1.52,0,0,0,1.46,1.55c1.65.29,2.6-.44,2.64-2.1S298.72,312.94,298.72,310.94Zm104.64,7.5v-.18c1.73,0,3.46,0,5.19,0a12.56,12.56,0,0,0,5.2-1.08,4.88,4.88,0,0,0,3.07-4.61q0-5.6,0-11.21c0-1.48-.62-2-2.06-2s-2,.56-2,2.21c0,3.35,0,6.7,0,10,0,2.21-.4,2.73-2.54,3.21a7.12,7.12,0,0,1-1.65.22c-3.4,0-6.81,0-10.21,0a7.69,7.69,0,0,1-1.65-.21c-2.07-.48-2.59-1.14-2.6-3.23,0-3.41,0-6.81,0-10.22,0-1.35-.47-2.06-2.19-2-1.35,0-1.86.55-1.88,2,0,3.63,0,7.26,0,10.88,0,.34.08.67.11,1a4.4,4.4,0,0,0,2.3,3.5,7.9,7.9,0,0,0,2.78,1.07C397.91,318.15,400.64,318.25,403.36,318.44ZM154.23,259.35c0-.73-.09-1.27-.1-1.82s0-1.34,0-2c-.1-1.17-.51-1.57-1.65-1.73-1.61-.22-2.36.43-2.39,2.11,0,1.1,0,2.19-.06,3.38-.75,0-1.3,0-1.85.09-.85.09-1.22.54-1.25,1.46s.37,1.57,1.24,1.66c.59.07,1.18.07,1.92.1v1.8c0,3.74,0,7.49,0,11.23a4.53,4.53,0,0,0,.06,1.33,1.9,1.9,0,0,0,.72,1,2.11,2.11,0,0,0,3.28-1.82c0-.45,0-.89,0-1.34,0-3.46,0-6.93,0-10.39,0-.59.07-1.18.11-1.91h2c1.57,0,3.13,0,4.69,0,1.06,0,1.38-.4,1.44-1.43.07-1.24-.33-1.68-1.65-1.71-.9,0-1.79,0-2.68,0Z"/><path class="cls-2" d="M226.08,192.89c.1-.55.13-.87.21-1.19,2-8,4.06-16,5.91-24a217,217,0,0,1,7.26-24.9c.43-1.19.81-2.41,1.28-3.84-.68-.17-1.18-.33-1.7-.41a17.76,17.76,0,0,1-5.9-1.78,10.64,10.64,0,0,1-5-5.81,9,9,0,0,1-.26-1.19c1.61-.07,3.11-.06,4.59-.21a24.9,24.9,0,0,0,10.92-4c1.75-1.1,3.41-2.33,5.13-3.48a6.07,6.07,0,0,0,.62-9.57c-1.45-1.31-3-2.47-4.56-3.68-2.63-2.08-5.33-4.07-7.88-6.24A22.12,22.12,0,0,1,233,98.61c-2.5-3.5-4.9-7.07-7.26-10.67a25.7,25.7,0,0,1-4.05-10.72,21,21,0,0,1,0-2.7c4.3,4,8.91,5.1,14.42,3.57-1.44-1.68-2.76-3.08-3.91-4.61s-2.15-3.13-3.16-4.74-2-3.31-3.15-5.2c1.38.43,2.45.86,3.56,1.09,2.85.61,5.68,0,8.47-.47a90.1,90.1,0,0,0,22.14-7c.71-.33,1.42-.65,2.15-.93a114.2,114.2,0,0,0,15.63-7.66,166.6,166.6,0,0,1,19-8.8c6.9-2.87,13.85-5.64,20.75-8.51,2.32-1,4.58-2.08,6.8-3.24a3.45,3.45,0,0,1,3.91.22,14.06,14.06,0,0,1,1.74,1.3,20.4,20.4,0,0,0,6,3.86c7.25,3.32,14.41,6.88,21.74,10,5.33,2.29,10.84,4.16,16.34,6a38.1,38.1,0,0,0,12.55,1.83c7.76-.07,15.53-.2,23.28-.52a48.75,48.75,0,0,0,7.38-1.42L420,48.8a56.52,56.52,0,0,1-9.89,15.92,10.74,10.74,0,0,0,1.78.54,14,14,0,0,0,7.5-1.27c1.58-.71,3.1-1.54,4.64-2.32l2.18-1.14c-.1.76-.13,1.24-.23,1.7a92.36,92.36,0,0,1-4.37,13.88c-1,2.5-2,5-3,7.47-1.9,4.88-4.72,9.23-7.54,13.6-1.3,2-2.43,4.14-3.59,6.24a6.32,6.32,0,0,0-.65,1.89,2.94,2.94,0,0,0,1.14,3.12c1.32,1,2.6,2.11,3.93,3.12a15.67,15.67,0,0,0,11.81,3.16,1.48,1.48,0,0,1,.39.11,2,2,0,0,1-.14.61c-1.87,2.77-3.53,5.72-6.13,7.92-1.45,1.22-3,2.33-4.44,3.56-1.63,1.37-1.84,2.26-1.1,4.26,1,2.57,2,5.09,2.92,7.67a55.73,55.73,0,0,1,2.49,13.81c.32,3.83.94,7.66,1,11.5.06,5.52-.24,11-.46,16.58-.15,3.75-.31,7.48,1.14,11.06a7.61,7.61,0,0,1,.26,1.74l-.3.2c-.42-.32-.86-.61-1.24-1-2.69-2.44-5.36-4.9-8-7.35a6.78,6.78,0,0,0-.75-.67,1.87,1.87,0,0,0-3,.6c-.38.62-.67,1.29-1,1.94a49.74,49.74,0,0,1-11.14,14.55,31.31,31.31,0,0,1-8,5.17,123.24,123.24,0,0,0-17.42,9.29c-7.91,5.15-15.23,11-21.1,18.44-2.45,3.12-4.75,6.36-7,9.6a37.94,37.94,0,0,0-4.08,8.78,169.24,169.24,0,0,0-8,27.27,16.58,16.58,0,0,1-.72,2.4c-.27.75-.63,1.5-1.56,1.54s-1.26-.72-1.52-1.5c-3.81-11.5-7.63-23-10.49-34.78a39.1,39.1,0,0,0-10.54-18.74A89,89,0,0,0,274,209.44a113.33,113.33,0,0,0-11.69-3.52c-3.11-.88-6.26-1.65-9.39-2.49a21.1,21.1,0,0,1-13.75-11.15c-.38-.75-.79-1.48-1.17-2.23a1,1,0,0,0-1.53-.48c-.54.28-1.06.61-1.59.92a16.76,16.76,0,0,1-7.58,2.45A11.76,11.76,0,0,1,226.08,192.89ZM418.78,70.23c-1,.28-1.5.41-2,.6-2.74,1-5.46,2-8.19,3-.72.27-1.41.69-2.06-.23-.18-.24-.84-.23-1.25-.18-1.22.13-2.43.37-3.65.5a1.91,1.91,0,0,1-1.22-.22,2.74,2.74,0,0,1-.65-3.94q3.86-6.09,7.68-12.19c.25-.4.43-.84.75-1.48-.68.07-1.05.12-1.42.14a39.58,39.58,0,0,1-6.5.34c-4.05-.42-8.07-1.13-12.07-1.89A22.85,22.85,0,0,1,383.48,53a14.6,14.6,0,0,0-7.56-.89,6.86,6.86,0,0,0-1.4.49,4.14,4.14,0,0,1-1.36.4c-4.47-.16-8.8-1.31-13.18-2.09-.15,0-.28-.18-.43-.25-1.26-.59-2.51-1.21-3.79-1.77a88.84,88.84,0,0,1-17.77-10c-2.69-2-5.37-4-8.1-6a18.7,18.7,0,0,0-3.06-1.71,4.6,4.6,0,0,0-4.9.46c-1.95,1.39-4,2.71-6,4-3.24,2-6.46,4-9.81,5.76-6.22,3.28-12.66,6.16-18.77,9.63C276.94,57,266.74,63.18,256.47,69.29a21.13,21.13,0,0,1-6.4,2.85c-1.25.26-2.54.38-3.81.56a3.07,3.07,0,0,0-2.18,1,27.75,27.75,0,0,0,6.6,4.26c2.37,1.19,4.84,2.19,7.4,3.33-2.37,2.41-5.33,3.56-8.31,4.75.85,2,3.1,2.46,4.21,4.38a38,38,0,0,0-4.64-1.2c-2.54-.33-5.11-.46-7.67-.64-1.72-.12-3.45-.19-5.18-.24a4.48,4.48,0,0,0-1.12.3l.62,1.18a51.45,51.45,0,0,0,8,10.86,28.21,28.21,0,0,0,5.32,4.31c2.51,1.66,5.43,2.31,8.16,3.44l1.68.69a44.2,44.2,0,0,1-3.3,10.84A21.62,21.62,0,0,1,247.35,130a4.24,4.24,0,0,0-.8.59,7.21,7.21,0,0,0-.67.89c3.14.77,6.22.72,9.3,1.49-.3.48-.45.78-.64,1-1.13,1.52-2.34,3-3.39,4.57a28.65,28.65,0,0,0-3.66,9.83q-3.36,15.3-6.65,30.6a11.87,11.87,0,0,0-.09,1.82c.38,0,.69.15.8,0,1.76-1.57,3.5-3.18,5.34-4.87-.06.65-.09,1.29-.19,1.92-.13.89-.33,1.76-.48,2.64-.69,4.12.25,7.62,3.69,10.29a20,20,0,0,0,6.42,3.54q10.17,3.06,20.37,6.08a10.94,10.94,0,0,0,1.71.21c.51-1.58-1.23-2.31-1.06-3.75,2.16,1.06,4.2,2.09,6.26,3.06a27.14,27.14,0,0,1,5.95,3.72c3,2.46,5.89,4.95,8.84,7.43.4.33.83.63,1.25.94l.33-.22c-.32-3-1.21-5.82-1.74-8.75s-1.22-5.87-1.89-9c.55.26.83.41,1.13.53s.69.27,1.35.52c-.23-1.17-.34-2.1-.61-3-1-3.47-2.14-6.93-3.19-10.4a38.12,38.12,0,0,0-6.95-13.08,13.69,13.69,0,0,0-9.29-5.44,11.18,11.18,0,0,1-1.62-.47c.32-.47.49-.75.69-1,4.29-5.43,8.55-10.9,12.9-16.28a89.56,89.56,0,0,1,6.72-7.69c2.39-2.36,4.58-4.87,6.88-7.29a95,95,0,0,0,8.87-11.75c2.27-3.29,4-6.93,6-10.41.29-.5.61-1,1-1.55.53.43.86.73,1.21,1s.73.47,1.26.8c1.56-2.88,2.46-6,4.11-9,.28.69.41,1,.56,1.4.74,1.68,1.38,3.42,2.27,5a3.51,3.51,0,0,0,3.32,2.18c.37,0,.88.45,1.13.82a19.66,19.66,0,0,1,1.19,2.22c.44.86.88,1.74,1.47,2.91l1.18-2.13L335,107.72a1.8,1.8,0,0,1,.17-.48c.85-1,1.08-2,0-3.08a2.06,2.06,0,0,1-.4-2.2c1.26-4,2.2-8.21,4.85-11.66a1.05,1.05,0,0,0,0-1.5,6.4,6.4,0,0,1-.49-.75l1.57-1.86-1.67-1.3c1-1,1.92-2,2.85-3a5.66,5.66,0,0,0,1.71-4.39c-.06-1.45,0-2.91-.05-4.36a1.27,1.27,0,0,1,1.26-1.45c.72-.1,1.46-.07,2.17-.2,1.71-.3,2-.79,1.38-2.41-.18-.52-.75-1,0-1.85a4.93,4.93,0,0,1,1.13,1,9.64,9.64,0,0,1,1,2.28,228.86,228.86,0,0,1,5.63,24c.15.92.33,1.83.52,2.88l1.39-.38a14.55,14.55,0,0,0-.12-1.58q-1.65-8.72-3.35-17.43a2.18,2.18,0,0,0-.64-1.25,3.55,3.55,0,0,1-1.31-3.06l.9-.27-1.31-6.24c1.18-.2,2.2-.41,3.24-.52.82-.09,1.2-.45,1.15-1.3a11.78,11.78,0,0,1,.1-1.36l4.37-.57v-.94c0-1-.94-2-.2-2.87a9.37,9.37,0,0,1,2.55-1.54c.08,0,.21,0,.44,0,1.65,2.64,3.68,5.1,4.75,8.16a29.56,29.56,0,0,0,1.4,3.22c1.54,3.17,3.13,6.31,4.64,9.48a73,73,0,0,1,5.59,14.33c.35,1.43.89,2.88-1.21,3.65l.18.3,5,1.1c.14-.77.21-1.47,1.1-1.55,2.22-.22,4.43-.47,6.65-.68a2,2,0,0,1,2.16,1.49c.27.73.5,1.48.72,2.23,1.35,4.61,2.91,9.16,3.56,13.94.73,5.42,1.43,10.84,2.16,16.26a1.75,1.75,0,0,1-.69,1.92c-.93.58-.9,1.29-.5,2.16s.72,1.64,1,2.47a10.17,10.17,0,0,1,.29,1.26c-.68-.31-1.13-.5-1.57-.72-1.79-.87-1.78-.85-2.81.93a26.36,26.36,0,0,1-1.78,2.63,5.79,5.79,0,0,1-1.17.87c.19-2.21.37-4.14.54-6.08l-.2,0c-.69,2.8-1.37,5.61-2,8.41l-.47.27a19,19,0,0,0-1.18-1.61,11.31,11.31,0,0,0-3.9-2.84c-1.31-.56-1.85-.46-2.81.58a10,10,0,0,0-.8,1.14,7.77,7.77,0,0,0-1.76-.89,1.89,1.89,0,0,1-1.5-1.39c-.78-2-1.59-4.05-2.4-6.07-.23-.56-.5-1.09-.81-1.78l-2.87,1.69,4,10.3-6.9,4.73c-1.33-1.38-1.33-1.38-2.86-.41s-3,1.9-4.54,2.87a13,13,0,0,0-1.15.88c1,1,1,1,1.84.45,1.25-.85,2.45-1.76,3.7-2.61s1.29-.82,2.32.3a2.86,2.86,0,0,0,.53.32c1.27-.95,2.55-1.92,3.85-2.88a14.91,14.91,0,0,1,4.78-2.71c.35-.1.87-.22,1.08,0,.94.79,1.53.19,2.14-.42.43-.44.83-.9,1.27-1.34a2.66,2.66,0,0,1,3.72-.55,3.25,3.25,0,0,1,1.47,1.94c.85,2.31,1.69,4.62,2.55,6.92a10.79,10.79,0,0,0,.69,1.09c.09-.85.1-1.33.2-1.79.53-2.52,1-5.1,3-6.92a10.27,10.27,0,0,0,3.08-4c0-.08.18-.12.41-.25.63.24,1.35.53,2.08.78a6.37,6.37,0,0,0,1.6.48,2,2,0,0,0,1.31-.4c.14-.12-.1-.8-.28-1.15-.39-.74-.94-1.4-1.28-2.16-1.16-2.59-1.06-2.76,1.47-4,1.13-.57,2.2-1.23,3.67-2.06-1-.36-1.62-.54-2.2-.78-2.3-1-3-3.33-1.42-5l-.65-2.58,7.46.47c-.5-.91-.81-1.48-1.13-2a21.34,21.34,0,0,1-2.91-7.26c-.31-2.2-.21-4.45-.3-6.68-.1-2.72.15-5.45-.69-8.13a3.09,3.09,0,0,1,1-3.63,4.72,4.72,0,0,0,.85-1A83,83,0,0,0,418,73.18,27.86,27.86,0,0,0,418.78,70.23ZM317.86,125.88c-.72,1.16-1.31,2-1.8,2.94a17.5,17.5,0,0,1-4.37,5.67c-2.57,2-5.12,4.16-7.87,6a80.38,80.38,0,0,0-20,18.43,10.66,10.66,0,0,0-1,1.38c-.46.85-.21,1.35.75,1.59.65.15,1.32.23,2,.36,4.62.93,8.22,3.18,10.54,7.47a50.46,50.46,0,0,1,5.35,13.49c1.8,8.57,3.65,17.14,5.23,25.75,4.32,23.48,10.63,46.45,17.21,69.36a7.15,7.15,0,0,0,1.68,3.18,3,3,0,0,0,2.41-2.34c.32-1.07.56-2.16.84-3.24,1.88-7.41,3.63-14.87,6.49-22a189.93,189.93,0,0,0,9.11-27.81c1.4-6,3.11-12,4.06-18.13,1.54-9.92,2.59-19.92,3.81-29.9A32.31,32.31,0,0,1,356,166a8.21,8.21,0,0,1,4.61-3.92q2.3-.78,4.57-1.64a7.26,7.26,0,0,0,1-.63c-4.07-4.58-8-9.09-12.35-13.17-1.88-1.76-3.72-3.56-5.42-5.49-4.38-5-8.68-10.06-13-15.1-.39-.46-.81-.89-1.36-1.5-.77,1-1.39,1.93-2.12,2.74a22.17,22.17,0,0,1-3.53,3.52c-3,2.11-6.14,1.48-8.37-1.44a15.6,15.6,0,0,1-1-1.54C318.72,127.28,318.4,126.76,317.86,125.88Zm53.26,38.27-.25.43c-1.11-.46-2.21-1-3.33-1.38-3.23-1.26-5.77-.61-7.9,2.06a28.05,28.05,0,0,0-5.79,12.13c-.45,2.24-.75,4.52-1,6.78q-1.51,11.88-3,23.76c-.24,2-.38,4-.45,6a3.61,3.61,0,0,0,2,3.53c.67-.77,1.33-1.45,1.89-2.21,1.15-1.57,2.2-3.22,3.36-4.8,1.77-2.43,3.56-4.86,5.42-7.23a25.51,25.51,0,0,1,2.49-2.38c.14,2.52-1.82,4.48-.67,6.86,2.11-1.12,4-2.22,6.05-3.19A16.64,16.64,0,0,0,377,198.1c.25-.4.57-.75.92-1.21.8.76,1.43,1.39,2.09,2,1.33,1.17,1.79,1.13,3.12,0,2.4-2.1,4.8-4.19,7.25-6.22s5-4.11,7.6-6.05,3.73-4.52,4.9-7.24a11.92,11.92,0,0,0,.46-1.78c.48-1.91,0-3.78-.21-5.65a2.69,2.69,0,0,1,.21-2.22,7.93,7.93,0,0,1,.58.91c.66,1.41,1.22,2.88,1.95,4.26a23,23,0,0,0,7.12,8.32c1.16.82,1.43.76,2.36-.33a7.29,7.29,0,0,0,1.67-4.3c.25-3.28.47-6.57.57-9.86.1-3.63.06-7.26.07-10.89,0-.67.14-1.43-.73-1.88-.15.4-.29.7-.38,1-1.16,4.25-2.26,8.52-3.48,12.75a16.08,16.08,0,0,0-.22,8.43c.08.33.1.68.15,1l-.32.19a26.41,26.41,0,0,1-2.29-2.58,22.46,22.46,0,0,1-4.07-12,13.73,13.73,0,0,0-4.46-9.79,6.68,6.68,0,0,0-1-.68l-1,1.43c-2.07,2.91-4.06,5.89-6.24,8.72a10.07,10.07,0,0,0-2,8.65,5.18,5.18,0,0,1,.2,2.29,20.37,20.37,0,0,1-6.23-10.82c-.52-2.91-1-5.84-1.45-8.76-.11-.68-.28-1.36-.42-2-1.1-.06-1.49.63-1.92,1.18-1.55,2-3.06,4-4.59,6-.32.41-.67.81-1,1.22l-.38-.16c.6-3.31,2.44-6.48,1.38-10.29-3.43,2.61-5.88,5.57-6.47,10.21a31.5,31.5,0,0,1-2.05-2.42c-.71-1.06-1.3-2.21-1.95-3.31a3.51,3.51,0,0,0-.67-1,.93.93,0,0,0-.86-.12,1,1,0,0,0-.27.84,2.23,2.23,0,0,0,.5.86c1.41,1.87,2.81,3.75,4.24,5.61C370.09,163,370.62,163.56,371.12,164.15ZM336.78,122a23.36,23.36,0,0,1,8.94,1.47c-.2.6-.34,1.07-.53,1.52-.6,1.5-1.17,3-1.86,4.48a1.68,1.68,0,0,0,.46,2.22,13,13,0,0,0,5.53,2.95,23,23,0,0,0,7.16.35,69.44,69.44,0,0,0,16.7-3.36,13.13,13.13,0,0,0,4.76-2.73c2.44-2.13,4.9-4.24,7.45-6.24a13.57,13.57,0,0,0,2.93-3.17c.84-1.22,1.71-2.42,2.66-3.76a12.69,12.69,0,0,1-1.57-.26c-1.52-.43-1.83-1.34-.69-2.37a7.6,7.6,0,0,0,1.88-2.92c.94-2.27,1.91-4.53,2.85-6.79.21-.5.37-1,.57-1.61a10.85,10.85,0,0,0-1.2-.46c-4.52-1.18-9.06-2.33-13.58-3.51a19.84,19.84,0,0,0-1.91-.58,65.1,65.1,0,0,0-14.7-.28A22.94,22.94,0,0,0,352,100.74a71,71,0,0,0-10,7.86,23.34,23.34,0,0,0-5.75,8.32A5.53,5.53,0,0,0,336.78,122Zm58,5.85a.68.68,0,0,0,.08-.21c0-.55,0-1.11,0-1.66-.06-3-.07-3-2.95-3.71l-3.3-.75-.09.35a9.67,9.67,0,0,0,1,.36c1,.21,2,.44,2.94.56a1.84,1.84,0,0,1,1.75,1.71C394.46,125.67,394.62,126.82,394.78,127.88Zm-.29,2.49h-.06v.94h.06Z"/><path class="cls-2" d="M49.78,277.11a7.37,7.37,0,0,0-.84-.67,8.32,8.32,0,0,1-4.3-6.63c-.77-6.1,1.42-11.3,8.33-13.11a18.46,18.46,0,0,1,3.12-.59c1.94-.18,3.9-.32,5.85-.34,6.09,0,12.18,0,18.27,0a29.7,29.7,0,0,1,7.79,1,11.3,11.3,0,0,1,7.15,16.39,12.64,12.64,0,0,1-2.41,2.73A11,11,0,0,1,91.12,277a4.38,4.38,0,0,0,.66.54c4.28,2.06,5.55,5.46,5,10.32-.64,5.47-4.44,8.32-9.49,9.47a27.86,27.86,0,0,1-6,.73c-7.43.08-14.86.06-22.29,0a23.32,23.32,0,0,1-7.56-1.33c-7-2.48-8.63-9-6.83-14.68a7.6,7.6,0,0,1,3.74-4.13C48.78,277.64,49.22,277.42,49.78,277.11Zm20.66,14.53v.16c3.35,0,6.7.08,10,0a31.27,31.27,0,0,0,5.62-.68,3.25,3.25,0,0,0,2.69-3.22c0-1.05,0-2.11,0-3.16a3.91,3.91,0,0,0-3.24-3.94,21.6,21.6,0,0,0-4.79-.67Q70.41,280,60,280.1a23.36,23.36,0,0,0-5.09.8,3.54,3.54,0,0,0-2.81,3.19,21.41,21.41,0,0,0,0,4.16,3,3,0,0,0,2.21,2.69,11.1,11.1,0,0,0,3.09.67C61.74,291.68,66.09,291.64,70.44,291.64Zm.11-29.47h0c-4.13,0-8.26,0-12.39,0a13.08,13.08,0,0,0-3.43.65,3.25,3.25,0,0,0-2.5,2.86,23.74,23.74,0,0,0,0,4.46,3,3,0,0,0,2.29,2.63,10.87,10.87,0,0,0,3.26.66q12.65.07,25.28,0a11.53,11.53,0,0,0,3.1-.62A3.27,3.27,0,0,0,88.65,270a18.76,18.76,0,0,0,0-4.17,3.3,3.3,0,0,0-2.46-2.9,14,14,0,0,0-3.59-.68C78.59,262.11,74.57,262.17,70.55,262.17Z"/><path class="cls-2" d="M70.6,157.27c-3.07,0-6.14,0-9.21,0a28.86,28.86,0,0,1-8.27-1.07,19.06,19.06,0,0,1-3.26-1.29,8.64,8.64,0,0,1-5-7.92q-.13-10.89,0-21.77a8.61,8.61,0,0,1,5.47-8.14,27.63,27.63,0,0,1,5.75-1.72,25.07,25.07,0,0,1,4.83-.41c6.47,0,12.95,0,19.43,0a25.41,25.41,0,0,1,8.56,1.32,17.46,17.46,0,0,1,3.86,1.94,7.68,7.68,0,0,1,3.55,6.34q.16,11.31,0,22.6c0,4.17-2.49,6.8-6.17,8.36a22.48,22.48,0,0,1-8.32,1.69c-3.74.1-7.49,0-11.23,0Zm.06-35.92h0c-3.64,0-7.27,0-10.9,0a11,11,0,0,0-4.85,1.15,4,4,0,0,0-2.45,3.86c0,6.53,0,13.07,0,19.6a3.89,3.89,0,0,0,2.14,3.54,9.29,9.29,0,0,0,4.63,1.29c7,.09,14,.18,20.94.12a18.53,18.53,0,0,0,5.41-.95c2.36-.77,3.11-2.09,3.11-4.56,0-6.26-.06-12.51,0-18.77a4.06,4.06,0,0,0-2.81-4.26,14.42,14.42,0,0,0-4.38-1C77.92,121.26,74.29,121.35,70.66,121.35Z"/><path class="cls-2" d="M52.62,221.52H95c.45,0,.9,0,1.34,0,1.06,0,2.26-.15,2.8,1a4.61,4.61,0,0,1-.06,4.2,2.41,2.41,0,0,1-1.33.86,5,5,0,0,1-1.5.07c-15.81,0-31.62,0-47.44,0-3,0-3.87-.85-3.85-3.85,0-3.46,0-6.93.15-10.39A8.54,8.54,0,0,1,50,206.12a20,20,0,0,1,9.18-2.3c4.74-.14,9.49-.09,14.24-.11,3.47,0,6.93,0,10.39-.05a20.12,20.12,0,0,0,4.63-.65c2.56-.69,3.63-2.26,3.64-4.9v-1c0-2.8-1-4.28-3.74-5a21.85,21.85,0,0,0-4.63-.61c-3.07-.09-6.15,0-9.22,0a8.34,8.34,0,0,1-1.5-.08c-1.21-.23-1.66-1-1.71-2.68-.07-2.08.36-3,1.54-3.32a3.33,3.33,0,0,1,.83-.07c4.52.08,9,.11,13.56.29a17.32,17.32,0,0,1,6.61,1.69,9.19,9.19,0,0,1,5.78,9c0,.9,0,1.79,0,2.68a9,9,0,0,1-5.78,8.81,27.12,27.12,0,0,1-6.1,1.66,37.68,37.68,0,0,1-6,.37c-6.6.05-13.19,0-19.78.05a28.76,28.76,0,0,0-5.62.67A5.58,5.58,0,0,0,53.71,212a3.53,3.53,0,0,0-1,2.16C52.54,216.53,52.62,218.88,52.62,221.52Z"/><path class="cls-3" d="M95.16,75.73H49.31c-3.8,0-4.34-.54-4.34-4.37V48.9a16.9,16.9,0,0,1,.09-2c.19-1.58.72-2.18,2.3-2.38a12.18,12.18,0,0,1,2.83,0c1.78.21,2.42,1,2.43,2.79,0,3.57,0,7.15,0,10.73v9.72c0,.54,0,1.09.08,1.73H95.16v-21a15.64,15.64,0,0,1,0-1.68,2.26,2.26,0,0,1,1.94-2.21,6.44,6.44,0,0,1,1.32-.16c3.62-.15,4.36.56,4.36,4.14v35c0,2.72-.78,3.49-3.47,3.58h-.5c-2.9-.05-3.68-.83-3.69-3.7Z"/><path class="cls-2" d="M229.45,306.31c.08.1.13.23.22.27a5,5,0,0,1,2.92,5.19,5.71,5.71,0,0,1-3.91,5.52,17.13,17.13,0,0,1-5.06.93c-6.36.11-12.72,0-19.09,0-1.77,0-2.14-.36-2.14-2.19q0-9.79,0-19.59c0-1.92.35-2.25,2.25-2.25,6.25,0,12.5-.05,18.75,0a17.08,17.08,0,0,1,4.6.69c4.33,1.24,5.19,5.95,3.55,9.1A11.77,11.77,0,0,1,229.45,306.31ZM207,308.09a19.33,19.33,0,0,0,.11,6.48,2.7,2.7,0,0,0,.48.09c5.46,0,10.93,0,16.39,0a9.77,9.77,0,0,0,2.15-.3,2,2,0,0,0,1.8-2.09,10.35,10.35,0,0,0,0-1.67,2.11,2.11,0,0,0-1.65-2.07,12,12,0,0,0-2.8-.38c-4.57,0-9.15,0-13.72,0Zm0-3.93a7.89,7.89,0,0,0,.85.12c5.31,0,10.61,0,15.92,0a12.17,12.17,0,0,0,2.32-.29,2.08,2.08,0,0,0,1.8-1.74,7.64,7.64,0,0,0,.06-1.51,2.32,2.32,0,0,0-2.23-2.62,14.8,14.8,0,0,0-2.66-.26c-4.91,0-9.83,0-14.74,0A12.91,12.91,0,0,0,207,298Z"/><path class="cls-2" d="M473,299.59c0-1.36,0-2.46,0-3.56,0-1.5.59-2,2-2s2.06.54,2.06,2c0,5.47.05,10.94,0,16.41a4.88,4.88,0,0,1-3.57,4.93,17.84,17.84,0,0,1-4.57.87c-3.51.12-7,.14-10.54,0a17.28,17.28,0,0,1-4.87-1,4.77,4.77,0,0,1-3.32-4.91c0-2.29,0-4.58,0-6.87a5,5,0,0,1,3.21-4.84,13.2,13.2,0,0,1,5.55-1h14Zm-.31,3.46a2.88,2.88,0,0,0-.64-.16c-4.24,0-8.48,0-12.72,0a11.9,11.9,0,0,0-3.27.58,2.16,2.16,0,0,0-1.61,2.27q0,3.18,0,6.36a2.15,2.15,0,0,0,1.36,2.11,5.23,5.23,0,0,0,1.92.52c3.95.05,7.9,0,11.85,0a4.68,4.68,0,0,0,1.46-.33A2.31,2.31,0,0,0,472.8,312c-.06-2.62,0-5.25,0-7.87A8.9,8.9,0,0,0,472.66,303.05Z"/><path class="cls-2" d="M382.87,318.27H369.25a13.5,13.5,0,0,1-5.4-1,4.84,4.84,0,0,1-3.29-4.43c-.1-2.62-.09-5.25,0-7.87a4.82,4.82,0,0,1,3.14-4.37,12.2,12.2,0,0,1,5.05-1c3.35,0,6.7-.08,10,0a16.75,16.75,0,0,1,4.27.72,5,5,0,0,1,3.93,5.34c0,5.36,0,10.72,0,16.08,0,1.92-1.38,2.79-3.15,2.05a1.73,1.73,0,0,1-1-1.79c0-.62,0-1.23,0-1.85Zm-.12-3.59c0-3.11.05-6.22-.05-9.33a2.33,2.33,0,0,0-1.05-1.56,4.46,4.46,0,0,0-2.18-.7c-3.34-.12-6.69-.18-10-.16a11,11,0,0,0-3.1.57,2.1,2.1,0,0,0-1.57,2.28c.05,2.06,0,4.12,0,6.19a2.18,2.18,0,0,0,1.76,2.48,4.74,4.74,0,0,0,1.62.34c4.68.07,9.36.11,14,.15C382.3,314.94,382.4,314.85,382.75,314.68Z"/><path class="cls-2" d="M341.26,318.27c-2.95,0-5.91,0-8.87,0-1.51,0-2.1-.79-1.8-2.25A1.32,1.32,0,0,1,332,314.8h1.34c5.13,0,10.27,0,15.4,0a13.25,13.25,0,0,0,3.14-.4c1.41-.37,1.84-1.08,1.88-2.57.07-2.85-.74-3.82-3.66-3.94-3.29-.14-6.59,0-9.88-.11a24.92,24.92,0,0,1-4.79-.61c-4.94-1.19-5.51-5.18-4.43-8.87a4,4,0,0,1,2.42-2.65,19.57,19.57,0,0,1,4.47-1.25,40.45,40.45,0,0,1,5.51-.12c1.14,0,1.6.55,1.61,1.67s-.47,1.72-1.54,1.77c-1.28.06-2.57,0-3.85.05a11.93,11.93,0,0,0-2.32.23c-1.93.43-2.58,1.3-2.53,3.16A2.77,2.77,0,0,0,337.4,304a22.33,22.33,0,0,0,3.16.27c2.8,0,5.59,0,8.38,0a14.15,14.15,0,0,1,5.56,1,5.16,5.16,0,0,1,3.41,4.2,13.7,13.7,0,0,1,.1,3,5.45,5.45,0,0,1-3.79,4.85,14.73,14.73,0,0,1-5.25.91Z"/><path class="cls-2" d="M198.08,270.56c-.35,2.77.22,3.66,2.69,4.08a30.41,30.41,0,0,0,3.83.22c.73,0,1.45,0,2.18,0,1.24.05,1.56.42,1.53,1.65S208,278,206.79,278q-3.84-.11-7.68-.37a6.66,6.66,0,0,1-1.9-.6,4.84,4.84,0,0,1-3.32-4.59c-.09-2.51-.08-5,0-7.54a4.93,4.93,0,0,1,3.33-4.59,13,13,0,0,1,5.07-1c3.29,0,6.59-.08,9.88,0a17.43,17.43,0,0,1,4.43.7,4.83,4.83,0,0,1,3.77,5.08c0,1.23,0,2.46,0,3.69s-.44,1.58-1.62,1.68c-.44,0-.89,0-1.34,0H198.08Zm.12-3.6c1.73.34,16.63.29,17.9-.06,0-.26.06-.53.06-.81,0-2.09-.55-2.82-2.59-3.18a4.58,4.58,0,0,0-.83-.09c-3.68,0-7.36,0-11,0a6.17,6.17,0,0,0-2.1.48,2.08,2.08,0,0,0-1.47,2.19C198.17,266,198.18,266.48,198.2,267Z"/><path class="cls-2" d="M287.16,305.06a1.2,1.2,0,0,0-.88-1.66,10.1,10.1,0,0,0-2.59-.57c-1.5-.1-3,0-4.52-.1-1.07,0-1.51-.53-1.51-1.57s.45-1.58,1.51-1.55c2.39.07,4.79.15,7.16.41a7.5,7.5,0,0,1,2.79,1.06,4.32,4.32,0,0,1,2.31,3.84c.06,2.67.07,5.36,0,8a4.42,4.42,0,0,1-3.06,4.21,15.67,15.67,0,0,1-4.7,1c-4.07.14-8.15.13-12.22,0a16.27,16.27,0,0,1-4.55-.95,4.5,4.5,0,0,1-3.23-4.09,14.73,14.73,0,0,1,.18-3.81,4.55,4.55,0,0,1,3.08-3.28,14.65,14.65,0,0,1,5.56-1c4.3,0,8.6,0,12.9,0Zm.11,3.32a6.57,6.57,0,0,0-.94-.16c-4.67,0-9.35,0-14,0a8.78,8.78,0,0,0-2.77.53A2.83,2.83,0,0,0,268,310a3.19,3.19,0,0,0,2.38,4.71,2.07,2.07,0,0,0,.49.07c4.45,0,8.9,0,13.35,0a3.65,3.65,0,0,0,2-.71,2.64,2.64,0,0,0,1-1.62A38.27,38.27,0,0,0,287.27,308.38Z"/><path class="cls-2" d="M443.15,305.06A1.43,1.43,0,0,0,442,303.3a10.74,10.74,0,0,0-2.45-.48c-1.44-.09-2.9,0-4.35-.08-1.19,0-1.64-.51-1.62-1.63s.45-1.54,1.56-1.5c2.39.07,4.78.17,7.16.41a7,7,0,0,1,2.49.91,4.54,4.54,0,0,1,2.57,4.2q0,3.78,0,7.54a4.52,4.52,0,0,1-3,4.44,13.69,13.69,0,0,1-4.51,1.07q-6.36.22-12.73,0a15,15,0,0,1-4.53-1,4.39,4.39,0,0,1-3-3.88,15.71,15.71,0,0,1,0-3,4.85,4.85,0,0,1,3.33-4.23,14.67,14.67,0,0,1,5.56-1c4.3,0,8.6,0,12.9,0Zm0,3.31a6.24,6.24,0,0,0-.93-.15c-4.68,0-9.36,0-14,0a8.67,8.67,0,0,0-2.76.54,2.83,2.83,0,0,0-1.5,1.21,3.19,3.19,0,0,0,2.4,4.7,3.83,3.83,0,0,0,.82.1c3.95.05,7.91.12,11.86.09a8.83,8.83,0,0,0,2.75-.61,1.9,1.9,0,0,0,1.39-1.72C443.2,311.18,443.17,309.8,443.17,308.37Z"/><path class="cls-2" d="M239.05,310.8c-.76,2.62.52,3.77,2.41,4,1.59.21,3.22.2,4.83.28.39,0,.78,0,1.17,0,1.52,0,2,.65,1.73,2.11a1.06,1.06,0,0,1-1.11,1c-2.84,0-5.71.31-8.5-.45a10,10,0,0,1-2.6-1.12,4.51,4.51,0,0,1-2.18-3.93c-.07-2.51-.08-5,0-7.54a4.77,4.77,0,0,1,3.46-4.66,16.55,16.55,0,0,1,4.56-.9c3.56-.13,7.14-.1,10.71,0a15.41,15.41,0,0,1,4.1.72,4.82,4.82,0,0,1,3.66,5c0,1.17,0,2.34,0,3.52,0,1.48-.41,1.89-1.91,1.9-3,0-6,0-9,0Zm18-3.49c0-.53.07-.92.07-1.3,0-1.73-.53-2.41-2.21-2.82a5.59,5.59,0,0,0-1-.13c-3.56-.05-7.12-.12-10.68-.1a8.65,8.65,0,0,0-2.6.52,2.06,2.06,0,0,0-1.56,2.28c0,.48.06,1,.09,1.55Z"/><path class="cls-2" d="M168.62,259.35h4c3.18,0,6.37-.08,9.55,0a21.33,21.33,0,0,1,4.77.72,5.07,5.07,0,0,1,4,5.44c-.1,3.52-.08,7,0,10.56,0,1.74-.8,2.19-2.25,2.13-1.27-.05-1.72-.55-1.73-1.94,0-3.13,0-6.26,0-9.39,0-.44,0-.89,0-1.34A2.47,2.47,0,0,0,185,263a7,7,0,0,0-2-.36c-4.58,0-9.16,0-13.74-.06a3.43,3.43,0,0,0-.66.19V275c0,.39,0,.79,0,1.18a2.13,2.13,0,0,1-3.35,1.73,2.1,2.1,0,0,1-.68-.89,2.06,2.06,0,0,1-.09-.83c0-6.81,0-13.63,0-20.45,0-1.49.6-2,2-2s2,.53,2.07,2C168.66,256.91,168.62,258,168.62,259.35Z"/><path class="cls-2" d="M298.72,310.94c0,2,0,3.71,0,5.42s-1,2.39-2.64,2.1a1.52,1.52,0,0,1-1.46-1.55,9.1,9.1,0,0,1,0-1.17v-19.6a2.09,2.09,0,0,1,3.24-1.9c.86.42.89,1.21.89,2,0,2.46,0,4.91,0,7.37V307c.69-.31,1.19-.5,1.66-.75q5.7-3,11.38-6.05a5.64,5.64,0,0,1,3.19-.84c.7.06,1.38.23,1.55,1s-.48,1.06-1,1.35l-11.69,6.18c-.48.25-.93.55-1.59.95.64.37,1,.63,1.47.85l11.2,5.69c.29.15.6.29.89.45.6.35,1.19.75,1,1.56s-.89.95-1.56,1a5.9,5.9,0,0,1-3.68-.83c-3.7-2-7.4-3.92-11.1-5.88C300,311.5,299.48,311.29,298.72,310.94Z"/><path class="cls-2" d="M403.36,318.44c-2.72-.19-5.45-.29-8.16-.59a7.9,7.9,0,0,1-2.78-1.07,4.4,4.4,0,0,1-2.3-3.5c0-.33-.11-.66-.11-1,0-3.62,0-7.25,0-10.88,0-1.47.53-2,1.88-2,1.72-.05,2.21.66,2.19,2-.06,3.41,0,6.81,0,10.22,0,2.09.53,2.75,2.6,3.23a7.69,7.69,0,0,0,1.65.21c3.4,0,6.81,0,10.21,0a7.12,7.12,0,0,0,1.65-.22c2.14-.48,2.54-1,2.54-3.21,0-3.34,0-6.69,0-10,0-1.65.55-2.19,2-2.21s2.05.51,2.06,2q0,5.61,0,11.21a4.88,4.88,0,0,1-3.07,4.61,12.56,12.56,0,0,1-5.2,1.08c-1.73,0-3.46,0-5.19,0Z"/><path class="cls-2" d="M154.23,259.35H158c.89,0,1.78,0,2.68,0,1.32,0,1.72.47,1.65,1.71-.06,1-.38,1.4-1.44,1.43-1.56,0-3.12,0-4.69,0h-2c0,.73-.11,1.32-.11,1.91,0,3.46,0,6.93,0,10.39,0,.45,0,.89,0,1.34a2.11,2.11,0,0,1-3.28,1.82,1.9,1.9,0,0,1-.72-1,4.53,4.53,0,0,1-.06-1.33c0-3.74,0-7.49,0-11.23v-1.8c-.74,0-1.33,0-1.92-.1-.87-.09-1.28-.67-1.24-1.66s.4-1.37,1.25-1.46c.55-.06,1.1-.06,1.85-.09,0-1.19,0-2.28.06-3.38,0-1.68.78-2.33,2.39-2.11,1.14.16,1.55.56,1.65,1.73.05.67,0,1.34,0,2S154.19,258.62,154.23,259.35Z"/><path class="cls-1" d="M418.78,70.23a27.86,27.86,0,0,1-.74,3,83,83,0,0,1-11.12,20.37,4.72,4.72,0,0,1-.85,1,3.09,3.09,0,0,0-1,3.63c.84,2.68.59,5.41.69,8.13.09,2.23,0,4.48.3,6.68a21.34,21.34,0,0,0,2.91,7.26c.32.57.63,1.14,1.13,2l-7.46-.47.65,2.58c-1.58,1.68-.88,4.05,1.42,5,.58.24,1.19.42,2.2.78-1.47.83-2.54,1.49-3.67,2.06-2.53,1.27-2.63,1.44-1.47,4,.34.76.89,1.42,1.28,2.16.18.35.42,1,.28,1.15a2,2,0,0,1-1.31.4,6.37,6.37,0,0,1-1.6-.48c-.73-.25-1.45-.54-2.08-.78-.23.13-.38.17-.41.25a10.27,10.27,0,0,1-3.08,4c-2,1.82-2.5,4.4-3,6.92-.1.46-.11.94-.2,1.79a10.79,10.79,0,0,1-.69-1.09c-.86-2.3-1.7-4.61-2.55-6.92a3.25,3.25,0,0,0-1.47-1.94,2.66,2.66,0,0,0-3.72.55c-.44.44-.84.9-1.27,1.34-.61.61-1.2,1.21-2.14.42-.21-.17-.73-.05-1.08,0a14.91,14.91,0,0,0-4.78,2.71c-1.3,1-2.58,1.93-3.85,2.88a2.86,2.86,0,0,1-.53-.32c-1-1.12-1.06-1.15-2.32-.3s-2.45,1.76-3.7,2.61c-.81.56-.83.54-1.84-.45a13,13,0,0,1,1.15-.88c1.51-1,3-1.91,4.54-2.87s1.53-1,2.86.41l6.9-4.73-4-10.3,2.87-1.69c.31.69.58,1.22.81,1.78.81,2,1.62,4,2.4,6.07a1.89,1.89,0,0,0,1.5,1.39,7.77,7.77,0,0,1,1.76.89,10,10,0,0,1,.8-1.14c1-1,1.5-1.14,2.81-.58a11.31,11.31,0,0,1,3.9,2.84,19,19,0,0,1,1.18,1.61l.47-.27c.68-2.8,1.36-5.61,2-8.41l.2,0c-.17,1.94-.35,3.87-.54,6.08a5.79,5.79,0,0,0,1.17-.87,26.36,26.36,0,0,0,1.78-2.63c1-1.78,1-1.8,2.81-.93.44.22.89.41,1.57.72a10.17,10.17,0,0,0-.29-1.26c-.32-.83-.66-1.66-1-2.47s-.43-1.58.5-2.16a1.75,1.75,0,0,0,.69-1.92c-.73-5.42-1.43-10.84-2.16-16.26-.65-4.78-2.21-9.33-3.56-13.94-.22-.75-.45-1.5-.72-2.23A2,2,0,0,0,392,96.08c-2.22.21-4.43.46-6.65.68-.89.08-1,.78-1.1,1.55l-5-1.1-.18-.3c2.1-.77,1.56-2.22,1.21-3.65a73,73,0,0,0-5.59-14.33c-1.51-3.17-3.1-6.31-4.64-9.48a29.56,29.56,0,0,1-1.4-3.22c-1.07-3.06-3.1-5.52-4.75-8.16-.23,0-.36,0-.44,0a9.37,9.37,0,0,0-2.55,1.54c-.74.84.2,1.89.2,2.87v.94l-4.37.57a11.78,11.78,0,0,0-.1,1.36c.05.85-.33,1.21-1.15,1.3-1,.11-2.06.32-3.24.52l1.31,6.24-.9.27A3.55,3.55,0,0,0,354,76.75a2.18,2.18,0,0,1,.64,1.25q1.71,8.72,3.35,17.43a14.55,14.55,0,0,1,.12,1.58l-1.39.38c-.19-1-.37-2-.52-2.88a228.86,228.86,0,0,0-5.63-24,9.64,9.64,0,0,0-1-2.28,4.93,4.93,0,0,0-1.13-1c-.77.8-.2,1.33,0,1.85.58,1.62.33,2.11-1.38,2.41-.71.13-1.45.1-2.17.2a1.27,1.27,0,0,0-1.26,1.45c.05,1.45,0,2.91.05,4.36a5.66,5.66,0,0,1-1.71,4.39c-.93.94-1.84,1.9-2.85,3l1.67,1.3-1.57,1.86a6.4,6.4,0,0,0,.49.75,1.05,1.05,0,0,1,0,1.5C337,93.75,336,97.92,334.75,102a2.06,2.06,0,0,0,.4,2.2c1.11,1.07.88,2,0,3.08a1.8,1.8,0,0,0-.17.48l2.92,4.29-1.18,2.13c-.59-1.17-1-2-1.47-2.91a19.66,19.66,0,0,0-1.19-2.22c-.25-.37-.76-.84-1.13-.82a3.51,3.51,0,0,1-3.32-2.18c-.89-1.61-1.53-3.35-2.27-5-.15-.35-.28-.71-.56-1.4-1.65,3-2.55,6.13-4.11,9-.53-.33-.91-.54-1.26-.8s-.68-.56-1.21-1c-.34.56-.66,1-1,1.55-2,3.48-3.78,7.12-6,10.41a95,95,0,0,1-8.87,11.75c-2.3,2.42-4.49,4.93-6.88,7.29a89.56,89.56,0,0,0-6.72,7.69c-4.35,5.38-8.61,10.85-12.9,16.28-.2.26-.37.54-.69,1a11.18,11.18,0,0,0,1.62.47,13.69,13.69,0,0,1,9.29,5.44A38.12,38.12,0,0,1,295,181.77c1.05,3.47,2.15,6.93,3.19,10.4.27.89.38,1.82.61,3-.66-.25-1-.37-1.35-.52s-.58-.27-1.13-.53c.67,3.17,1.36,6.09,1.89,9s1.42,5.79,1.74,8.75l-.33.22c-.42-.31-.85-.61-1.25-.94-2.95-2.48-5.88-5-8.84-7.43a27.14,27.14,0,0,0-5.95-3.72c-2.06-1-4.1-2-6.26-3.06-.17,1.44,1.57,2.17,1.06,3.75a10.94,10.94,0,0,1-1.71-.21q-10.2-3-20.37-6.08a20,20,0,0,1-6.42-3.54c-3.44-2.67-4.38-6.17-3.69-10.29.15-.88.35-1.75.48-2.64.1-.63.13-1.27.19-1.92-1.84,1.69-3.58,3.3-5.34,4.87-.11.1-.42,0-.8,0a11.87,11.87,0,0,1,.09-1.82q3.3-15.3,6.65-30.6a28.65,28.65,0,0,1,3.66-9.83c1-1.58,2.26-3.05,3.39-4.57.19-.26.34-.56.64-1-3.08-.77-6.16-.72-9.3-1.49a7.21,7.21,0,0,1,.67-.89,4.24,4.24,0,0,1,.8-.59A21.62,21.62,0,0,0,255.89,120a44.2,44.2,0,0,0,3.3-10.84l-1.68-.69c-2.73-1.13-5.65-1.78-8.16-3.44a28.21,28.21,0,0,1-5.32-4.31,51.45,51.45,0,0,1-8-10.86l-.62-1.18a4.48,4.48,0,0,1,1.12-.3c1.73,0,3.46.12,5.18.24,2.56.18,5.13.31,7.67.64a38,38,0,0,1,4.64,1.2c-1.11-1.92-3.36-2.35-4.21-4.38,3-1.19,5.94-2.34,8.31-4.75-2.56-1.14-5-2.14-7.4-3.33a27.75,27.75,0,0,1-6.6-4.26,3.07,3.07,0,0,1,2.18-1c1.27-.18,2.56-.3,3.81-.56a21.13,21.13,0,0,0,6.4-2.85C266.74,63.18,276.94,57,287.33,51c6.11-3.47,12.55-6.35,18.77-9.63,3.35-1.77,6.57-3.79,9.81-5.76,2-1.25,4.07-2.57,6-4a4.6,4.6,0,0,1,4.9-.46,18.7,18.7,0,0,1,3.06,1.71c2.73,2,5.41,4,8.1,6a88.84,88.84,0,0,0,17.77,10c1.28.56,2.53,1.18,3.79,1.77.15.07.28.22.43.25,4.38.78,8.71,1.93,13.18,2.09a4.14,4.14,0,0,0,1.36-.4,6.86,6.86,0,0,1,1.4-.49,14.6,14.6,0,0,1,7.56.89,22.85,22.85,0,0,0,4.71,1.63c4,.76,8,1.47,12.07,1.89a39.58,39.58,0,0,0,6.5-.34c.37,0,.74-.07,1.42-.14-.32.64-.5,1.08-.75,1.48q-3.82,6.1-7.68,12.19a2.74,2.74,0,0,0,.65,3.94,1.91,1.91,0,0,0,1.22.22c1.22-.13,2.43-.37,3.65-.5.41,0,1.07-.06,1.25.18.65.92,1.34.5,2.06.23,2.73-1,5.45-2,8.19-3C417.28,70.64,417.81,70.51,418.78,70.23ZM363.31,54c.21.48.34.84.52,1.17,1.43,2.53,2.84,5.06,4.31,7.56a209.87,209.87,0,0,1,11.29,22.42c1.28,2.91,2.44,5.87,3.65,8.81.69,1.71.68,1.71,2.43,1.49,1.49-.19,3-.36,4.48-.57.53-.07,1.05-.22,1.6-.35a17.06,17.06,0,0,0-1.21-5.67c-.64-1.79-1.3-3.57-1.9-5.37a20.5,20.5,0,0,1-.51-2.27c1.11-.19,1.5.48,1.82,1.09a21.46,21.46,0,0,1,1,2.48c1,2.89,2,5.79,3.08,8.67.54,1.48,1,1.72,2.52,1.49q2.66-.39,5.28-.88c1.41-.27,1.56-.51,1.26-1.94q-.58-2.88-1.26-5.72a108.34,108.34,0,0,0-5.33-17.08c-2.84-6.73-7.73-11.5-14.11-14.88a7.16,7.16,0,0,0-4-.93c-1.3.12-1.56.36-1.91,1.65a14,14,0,0,1-.5,1.33c-2.1-1-3.71-2.56-6-2.7C367.66,53.66,365.53,53.14,363.31,54Zm-99.52,49.17c5,3.63,8.68,8.64,13.89,11.92a42.21,42.21,0,0,0-3-3.23c-1-1-2.11-2-3.12-3a15.15,15.15,0,0,1-3-3.27,2.94,2.94,0,0,1,.64-.27,2.1,2.1,0,0,1,.66.08c4.68,1.34,8.45,3.78,10.92,8.2a41.83,41.83,0,0,0,5.06,6.63,4.13,4.13,0,0,0,5.32,1c.71-.34,1.42-.66,2.13-1a6,6,0,0,1,6.49.34,14.11,14.11,0,0,0,2.73,1.25,3.62,3.62,0,0,0,1,.1,3.24,3.24,0,0,0-1.16-1l-17.07-9.63a74.18,74.18,0,0,0-13.91-6.54A26.89,26.89,0,0,0,263.79,103.16Zm139.49,16.65c1-5.9,1.64-11.61.74-17.36a63,63,0,0,0-1.47-6.18c-.15-.59-.37-1.26-1.2-1.12-2.07.35-4.14.74-6.27,1.13a4.23,4.23,0,0,0,.14.8c2.73,7.32,4,15,5.12,22.65a9.23,9.23,0,0,0,.5,1.41C401.2,119.44,402.19,119.6,403.28,119.81ZM375,133.1a19.24,19.24,0,0,0,2.91,7.62A10.84,10.84,0,0,0,375,133.1Z"/><path class="cls-1" d="M317.86,125.88c.54.88.86,1.4,1.19,1.91a15.6,15.6,0,0,0,1,1.54c2.23,2.92,5.35,3.55,8.37,1.44a22.17,22.17,0,0,0,3.53-3.52c.73-.81,1.35-1.73,2.12-2.74.55.61,1,1,1.36,1.5,4.33,5,8.63,10.11,13,15.1,1.7,1.93,3.54,3.73,5.42,5.49,4.37,4.08,8.28,8.59,12.35,13.17a7.26,7.26,0,0,1-1,.63q-2.28.85-4.57,1.64A8.21,8.21,0,0,0,356,166a32.31,32.31,0,0,0-3.68,12.09c-1.22,10-2.27,20-3.81,29.9-.95,6.11-2.66,12.1-4.06,18.13a189.93,189.93,0,0,1-9.11,27.81c-2.86,7.12-4.61,14.58-6.49,22-.28,1.08-.52,2.17-.84,3.24a3,3,0,0,1-2.41,2.34,7.15,7.15,0,0,1-1.68-3.18c-6.58-22.91-12.89-45.88-17.21-69.36-1.58-8.61-3.43-17.18-5.23-25.75a50.46,50.46,0,0,0-5.35-13.49c-2.32-4.29-5.92-6.54-10.54-7.47-.65-.13-1.32-.21-2-.36-1-.24-1.21-.74-.75-1.59a10.66,10.66,0,0,1,1-1.38,80.38,80.38,0,0,1,20-18.43c2.75-1.8,5.3-3.91,7.87-6a17.5,17.5,0,0,0,4.37-5.67C316.55,127.9,317.14,127,317.86,125.88Zm37.56,34.06.08-.4c-1.51-1.69-3.5-1.94-5.65-1.58-3.42.57-6.69,3.23-7.26,5.93.4-.19.75-.32,1.05-.5,1.33-.81,2.67-1.62,4-2.47a8,8,0,0,1,5.9-1.19C354.15,159.83,354.79,159.87,355.42,159.94Zm-63,1.12a36.67,36.67,0,0,1,4.19.91,16.46,16.46,0,0,1,3.58,1.74,37.56,37.56,0,0,1,3.3,2.7C302.71,160.56,297.67,158.73,292.42,161.06Z"/><path class="cls-1" d="M371.12,164.15c-.5-.59-1-1.15-1.5-1.76-1.43-1.86-2.83-3.74-4.24-5.61a2.23,2.23,0,0,1-.5-.86,1,1,0,0,1,.27-.84.93.93,0,0,1,.86.12,3.51,3.51,0,0,1,.67,1c.65,1.1,1.24,2.25,1.95,3.31a31.5,31.5,0,0,0,2.05,2.42c.59-4.64,3-7.6,6.47-10.21,1.06,3.81-.78,7-1.38,10.29l.38.16c.33-.41.68-.81,1-1.22,1.53-2,3-4,4.59-6,.43-.55.82-1.24,1.92-1.18.14.61.31,1.29.42,2,.49,2.92.93,5.85,1.45,8.76a20.37,20.37,0,0,0,6.23,10.82,5.18,5.18,0,0,0-.2-2.29,10.07,10.07,0,0,1,2-8.65c2.18-2.83,4.17-5.81,6.24-8.72l1-1.43a6.68,6.68,0,0,1,1,.68,13.73,13.73,0,0,1,4.46,9.79,22.46,22.46,0,0,0,4.07,12,26.41,26.41,0,0,0,2.29,2.58l.32-.19c-.05-.34-.07-.69-.15-1a16.08,16.08,0,0,1,.22-8.43c1.22-4.23,2.32-8.5,3.48-12.75.09-.32.23-.62.38-1,.87.45.73,1.21.73,1.88,0,3.63,0,7.26-.07,10.89-.1,3.29-.32,6.58-.57,9.86a7.29,7.29,0,0,1-1.67,4.3c-.93,1.09-1.2,1.15-2.36.33a23,23,0,0,1-7.12-8.32c-.73-1.38-1.29-2.85-1.95-4.26a7.93,7.93,0,0,0-.58-.91,2.69,2.69,0,0,0-.21,2.22c.25,1.87.69,3.74.21,5.65a11.92,11.92,0,0,1-.46,1.78c-1.17,2.72-2.41,5.37-4.9,7.24s-5.11,4-7.6,6.05-4.85,4.12-7.25,6.22c-1.33,1.17-1.79,1.21-3.12,0-.66-.59-1.29-1.22-2.09-2-.35.46-.67.81-.92,1.21a16.64,16.64,0,0,1-7.11,6.41c-2,1-3.94,2.07-6.05,3.19-1.15-2.38.81-4.34.67-6.86a25.51,25.51,0,0,0-2.49,2.38c-1.86,2.37-3.65,4.8-5.42,7.23-1.16,1.58-2.21,3.23-3.36,4.8-.56.76-1.22,1.44-1.89,2.21a3.61,3.61,0,0,1-2-3.53c.07-2,.21-4,.45-6q1.44-11.9,3-23.76c.29-2.26.59-4.54,1-6.78a28.05,28.05,0,0,1,5.79-12.13c2.13-2.67,4.67-3.32,7.9-2.06,1.12.43,2.22.92,3.33,1.38Z"/><path class="cls-1" d="M336.78,122a5.53,5.53,0,0,1-.48-5.11,23.34,23.34,0,0,1,5.75-8.32,71,71,0,0,1,10-7.86A22.94,22.94,0,0,1,362.63,97a65.1,65.1,0,0,1,14.7.28,19.84,19.84,0,0,1,1.91.58c4.52,1.18,9.06,2.33,13.58,3.51a10.85,10.85,0,0,1,1.2.46c-.2.58-.36,1.11-.57,1.61-.94,2.26-1.91,4.52-2.85,6.79a7.6,7.6,0,0,1-1.88,2.92c-1.14,1-.83,1.94.69,2.37a12.69,12.69,0,0,0,1.57.26c-1,1.34-1.82,2.54-2.66,3.76a13.57,13.57,0,0,1-2.93,3.17c-2.55,2-5,4.11-7.45,6.24a13.13,13.13,0,0,1-4.76,2.73,69.44,69.44,0,0,1-16.7,3.36,23,23,0,0,1-7.16-.35,13,13,0,0,1-5.53-2.95,1.68,1.68,0,0,1-.46-2.22c.69-1.46,1.26-3,1.86-4.48.19-.45.33-.92.53-1.52A23.36,23.36,0,0,0,336.78,122ZM389,111.39c.5-1.54,1-3,1.42-4.37,1-3.22.82-3.63-2.36-4.79A70,70,0,0,0,370.92,98c-4.19-.4-8.36-.48-12.43.88-6,2-10.92,5.74-15.34,10.17-.07.07-.08.2-.13.37.26.45.55.94,1,1.71l-1.05-.43-.87-.38a9.67,9.67,0,0,0-2.57,3.61l4.19,1.85a46.37,46.37,0,0,1,5.22-6.1c-.79,1.5-1.71,2.9-2.45,4.39-1.68,3.37-1.52,2.26.43,5.12.82,1.2,1.58,1.21,2.5.11a2.42,2.42,0,0,0,.51-2.35l-.47-1.55a1.81,1.81,0,0,0,2.06-.91,46.47,46.47,0,0,1,3.92-4.79c4.32-4.39,9.44-5.6,15.34-3.69,5.35,1.73,10.75,3.34,16.14,5C387.53,111.14,388.19,111.22,389,111.39Zm-1.22,6.41c-.65-.51-1.24-.92-1.77-1.4a1.42,1.42,0,0,0-2-.09c-.58.37-1.2.69-1.8,1l-.39-.5,2.5-1.52c-1.63-1.08-2.78-1.85-3.95-2.6s-1.3-.76-2.22.3-2,2.39-3.06,3.56c-3.87,4.33-8.82,5.85-14.47,5.51-3.12-.18-6.23-.44-9.36-.55-2.41-.09-3.45.72-4.23,3a1.44,1.44,0,0,0,0,.5l1.26.92a12.84,12.84,0,0,0-1.37.11,1.21,1.21,0,0,0-1,1.35c0,.79.56,1.06,1.18,1.2,2.22.51,4.45,1,6.68,1.49.26.06.52.16.78.24-1.94.19-3.84-.21-5.83.11,1.25,1.8,1.7,2.09,3.44,2.31a31.71,31.71,0,0,0,7.85.11c9.28-1.12,17.24-5.15,24.39-11A13.14,13.14,0,0,0,387.8,117.8ZM369.67,114a5.74,5.74,0,0,0-7.08-5.9,6,6,0,0,0-4.49,5.75,6.47,6.47,0,0,0,4.53,6.15,4.61,4.61,0,0,0,.83.12C366.92,120.33,369.6,117.69,369.67,114ZM337,120.16c3.18,1.07,6.12,1.88,9.27,1.5-.22-3.71-3.85-6.83-7.35-6.43a1.31,1.31,0,0,0-.95.71C337.59,117.26,337.34,118.62,337,120.16ZM386.89,112a60.44,60.44,0,0,0-5.86-2.12c0,1.53.11,1.88.93,2.54a13,13,0,0,0,2.22,1.45c1.82,1,2.23.76,2.71-1.25A4.17,4.17,0,0,0,386.89,112Z"/><path class="cls-1" d="M394.78,127.88c-.16-1.06-.32-2.21-.53-3.35a1.84,1.84,0,0,0-1.75-1.71c-1-.12-2-.35-2.94-.56a9.67,9.67,0,0,1-1-.36l.09-.35,3.3.75c2.88.68,2.89.68,2.95,3.71,0,.55,0,1.11,0,1.66A.68.68,0,0,1,394.78,127.88Z"/><path class="cls-1" d="M394.49,130.37v.94h-.06v-.94Z"/><path class="cls-1" d="M70.44,291.64c-4.35,0-8.7,0-13,0a11.1,11.1,0,0,1-3.09-.67,3,3,0,0,1-2.21-2.69,21.41,21.41,0,0,1,0-4.16,3.54,3.54,0,0,1,2.81-3.19,23.36,23.36,0,0,1,5.09-.8q10.38-.14,20.75,0a21.6,21.6,0,0,1,4.79.67,3.91,3.91,0,0,1,3.24,3.94c0,1.05,0,2.11,0,3.16a3.25,3.25,0,0,1-2.69,3.22,31.27,31.27,0,0,1-5.62.68c-3.34.11-6.69,0-10,0Z"/><path class="cls-1" d="M70.55,262.17c4,0,8-.06,12,0a14,14,0,0,1,3.59.68,3.3,3.3,0,0,1,2.46,2.9,18.76,18.76,0,0,1,0,4.17,3.27,3.27,0,0,1-2.45,2.89,11.53,11.53,0,0,1-3.1.62q-12.64.07-25.28,0a10.87,10.87,0,0,1-3.26-.66,3,3,0,0,1-2.29-2.63,23.74,23.74,0,0,1,0-4.46,3.25,3.25,0,0,1,2.5-2.86,13.08,13.08,0,0,1,3.43-.65c4.13-.07,8.26,0,12.39,0Z"/><path class="cls-1" d="M70.66,121.35c3.63,0,7.26-.09,10.88,0a14.42,14.42,0,0,1,4.38,1,4.06,4.06,0,0,1,2.81,4.26c-.09,6.26,0,12.51,0,18.77,0,2.47-.75,3.79-3.11,4.56a18.53,18.53,0,0,1-5.41.95c-7,.06-14,0-20.94-.12a9.29,9.29,0,0,1-4.63-1.29A3.89,3.89,0,0,1,52.47,146c0-6.53,0-13.07,0-19.6a4,4,0,0,1,2.45-3.86,11,11,0,0,1,4.85-1.15c3.63,0,7.26,0,10.9,0Z"/><path class="cls-1" d="M207,308.09h2.74c4.57,0,9.15,0,13.72,0a12,12,0,0,1,2.8.38,2.11,2.11,0,0,1,1.65,2.07,10.35,10.35,0,0,1,0,1.67,2,2,0,0,1-1.8,2.09,9.77,9.77,0,0,1-2.15.3c-5.46,0-10.93,0-16.39,0a2.7,2.7,0,0,1-.48-.09A19.33,19.33,0,0,1,207,308.09Z"/><path class="cls-1" d="M207,304.16V298a12.91,12.91,0,0,1,1.32-.14c4.91,0,9.83,0,14.74,0a14.8,14.8,0,0,1,2.66.26,2.32,2.32,0,0,1,2.23,2.62,7.64,7.64,0,0,1-.06,1.51,2.08,2.08,0,0,1-1.8,1.74,12.17,12.17,0,0,1-2.32.29c-5.31,0-10.61,0-15.92,0A7.89,7.89,0,0,1,207,304.16Z"/><path class="cls-1" d="M472.66,303.05a8.9,8.9,0,0,1,.12,1.05c0,2.62,0,5.25,0,7.87a2.31,2.31,0,0,1-1.79,2.47,4.68,4.68,0,0,1-1.46.33c-3.95,0-7.9,0-11.85,0a5.23,5.23,0,0,1-1.92-.52,2.15,2.15,0,0,1-1.36-2.11q0-3.18,0-6.36A2.16,2.16,0,0,1,456,303.5a11.9,11.9,0,0,1,3.27-.58c4.24-.07,8.48,0,12.72,0A2.88,2.88,0,0,1,472.66,303.05Z"/><path class="cls-1" d="M382.75,314.68c-.35.17-.45.26-.55.26-4.68,0-9.36-.08-14-.15a4.74,4.74,0,0,1-1.62-.34,2.18,2.18,0,0,1-1.76-2.48c0-2.07,0-4.13,0-6.19a2.1,2.1,0,0,1,1.57-2.28,11,11,0,0,1,3.1-.57c3.34,0,6.69,0,10,.16a4.46,4.46,0,0,1,2.18.7,2.33,2.33,0,0,1,1.05,1.56C382.8,308.46,382.75,311.57,382.75,314.68Z"/><path class="cls-1" d="M198.2,267c0-.48,0-1-.07-1.46a2.08,2.08,0,0,1,1.47-2.19,6.17,6.17,0,0,1,2.1-.48c3.68,0,7.36,0,11,0a4.58,4.58,0,0,1,.83.09c2,.36,2.63,1.09,2.59,3.18,0,.28,0,.55-.06.81C214.83,267.25,199.93,267.3,198.2,267Z"/><path class="cls-1" d="M287.27,308.38a38.27,38.27,0,0,1,0,4,2.64,2.64,0,0,1-1,1.62,3.65,3.65,0,0,1-2,.71c-4.45.07-8.9,0-13.35,0a2.07,2.07,0,0,1-.49-.07A3.19,3.19,0,0,1,268,310a2.83,2.83,0,0,1,1.5-1.21,8.78,8.78,0,0,1,2.77-.53c4.68-.05,9.36,0,14,0A6.57,6.57,0,0,1,287.27,308.38Z"/><path class="cls-1" d="M443.17,308.37c0,1.43,0,2.81,0,4.19a1.9,1.9,0,0,1-1.39,1.72,8.83,8.83,0,0,1-2.75.61c-3.95,0-7.91,0-11.86-.09a3.83,3.83,0,0,1-.82-.1,3.19,3.19,0,0,1-2.4-4.7,2.83,2.83,0,0,1,1.5-1.21,8.67,8.67,0,0,1,2.76-.54c4.68-.05,9.36,0,14,0A6.24,6.24,0,0,1,443.17,308.37Z"/><path class="cls-1" d="M257,307.31H239.13c0-.58,0-1.07-.09-1.55a2.06,2.06,0,0,1,1.56-2.28,8.65,8.65,0,0,1,2.6-.52c3.56,0,7.12.05,10.68.1a5.59,5.59,0,0,1,1,.13c1.68.41,2.21,1.09,2.21,2.82C257.09,306.39,257.05,306.78,257,307.31Z"/><path class="cls-2" d="M363.31,54c2.22-.85,4.35-.33,6.49-.2,2.3.14,3.91,1.75,6,2.7a14,14,0,0,0,.5-1.33c.35-1.29.61-1.53,1.91-1.65a7.16,7.16,0,0,1,4,.93c6.38,3.38,11.27,8.15,14.11,14.88a108.34,108.34,0,0,1,5.33,17.08q.68,2.84,1.26,5.72c.3,1.43.15,1.67-1.26,1.94q-2.62.5-5.28.88c-1.56.23-2,0-2.52-1.49-1.05-2.88-2.05-5.78-3.08-8.67a21.46,21.46,0,0,0-1-2.48c-.32-.61-.71-1.28-1.82-1.09a20.5,20.5,0,0,0,.51,2.27c.6,1.8,1.26,3.58,1.9,5.37a17.06,17.06,0,0,1,1.21,5.67c-.55.13-1.07.28-1.6.35-1.49.21-3,.38-4.48.57-1.75.22-1.74.22-2.43-1.49-1.21-2.94-2.37-5.9-3.65-8.81a209.87,209.87,0,0,0-11.29-22.42c-1.47-2.5-2.88-5-4.31-7.56C363.65,54.83,363.52,54.47,363.31,54Z"/><path class="cls-2" d="M263.79,103.16a26.89,26.89,0,0,1,7.54,1.53,74.18,74.18,0,0,1,13.91,6.54l17.07,9.63a3.24,3.24,0,0,1,1.16,1,3.62,3.62,0,0,1-1-.1,14.11,14.11,0,0,1-2.73-1.25,6,6,0,0,0-6.49-.34c-.71.33-1.42.65-2.13,1a4.13,4.13,0,0,1-5.32-1,41.83,41.83,0,0,1-5.06-6.63c-2.47-4.42-6.24-6.86-10.92-8.2a2.1,2.1,0,0,0-.66-.08,2.94,2.94,0,0,0-.64.27,15.15,15.15,0,0,0,3,3.27c1,1,2.08,2,3.12,3a42.21,42.21,0,0,1,3,3.23C272.47,111.8,268.77,106.79,263.79,103.16Z"/><path class="cls-2" d="M403.28,119.81c-1.09-.21-2.08-.37-2.44,1.33a9.23,9.23,0,0,1-.5-1.41c-1.09-7.69-2.39-15.33-5.12-22.65a4.23,4.23,0,0,1-.14-.8c2.13-.39,4.2-.78,6.27-1.13.83-.14,1,.53,1.2,1.12a63,63,0,0,1,1.47,6.18C404.92,108.2,404.26,113.91,403.28,119.81Z"/><path class="cls-4" d="M375,133.1a10.84,10.84,0,0,1,2.91,7.62A19.24,19.24,0,0,1,375,133.1Z"/><path class="cls-2" d="M355.42,159.94c-.63-.07-1.27-.11-1.9-.21a8,8,0,0,0-5.9,1.19c-1.31.85-2.65,1.66-4,2.47-.3.18-.65.31-1.05.5.57-2.7,3.84-5.36,7.26-5.93,2.15-.36,4.14-.11,5.65,1.58Z"/><path class="cls-2" d="M292.42,161.06c5.25-2.33,10.29-.5,11.07,5.35a37.56,37.56,0,0,0-3.3-2.7,16.46,16.46,0,0,0-3.58-1.74A36.67,36.67,0,0,0,292.42,161.06Z"/><path class="cls-2" d="M389,111.39c-.83-.17-1.49-.25-2.11-.44-5.39-1.64-10.79-3.25-16.14-5-5.9-1.91-11-.7-15.34,3.69a46.47,46.47,0,0,0-3.92,4.79,1.81,1.81,0,0,1-2.06.91l.47,1.55a2.42,2.42,0,0,1-.51,2.35c-.92,1.1-1.68,1.09-2.5-.11-2-2.86-2.11-1.75-.43-5.12.74-1.49,1.66-2.89,2.45-4.39a46.37,46.37,0,0,0-5.22,6.1l-4.19-1.85a9.67,9.67,0,0,1,2.57-3.61l.87.38,1.05.43c-.44-.77-.73-1.26-1-1.71.05-.17.06-.3.13-.37,4.42-4.43,9.31-8.17,15.34-10.17,4.07-1.36,8.24-1.28,12.43-.88a70,70,0,0,1,17.16,4.27c3.18,1.16,3.38,1.57,2.36,4.79C390,108.44,389.52,109.85,389,111.39Z"/><path class="cls-2" d="M387.8,117.8a13.14,13.14,0,0,1-3.3,4.1c-7.15,5.81-15.11,9.84-24.39,11a31.71,31.71,0,0,1-7.85-.11c-1.74-.22-2.19-.51-3.44-2.31,2-.32,3.89.08,5.83-.11-.26-.08-.52-.18-.78-.24-2.23-.5-4.46-1-6.68-1.49-.62-.14-1.18-.41-1.18-1.2a1.21,1.21,0,0,1,1-1.35,12.84,12.84,0,0,1,1.37-.11l-1.26-.92a1.44,1.44,0,0,1,0-.5c.78-2.26,1.82-3.07,4.23-3,3.13.11,6.24.37,9.36.55,5.65.34,10.6-1.18,14.47-5.51,1-1.17,2-2.38,3.06-3.56s1-1.08,2.22-.3,2.32,1.52,3.95,2.6l-2.5,1.52.39.5c.6-.34,1.22-.66,1.8-1a1.42,1.42,0,0,1,2,.09C386.56,116.88,387.15,117.29,387.8,117.8Z"/><path class="cls-2" d="M369.67,114c-.07,3.74-2.75,6.38-6.21,6.12a4.61,4.61,0,0,1-.83-.12,6.47,6.47,0,0,1-4.53-6.15,6,6,0,0,1,4.49-5.75A5.74,5.74,0,0,1,369.67,114Zm-4.06-.41a1.77,1.77,0,0,0-1.5-1.74,2.34,2.34,0,0,0-2,2.16,1.73,1.73,0,0,0,1.62,1.6A2.09,2.09,0,0,0,365.61,113.54Z"/><path class="cls-2" d="M337,120.16c.34-1.54.59-2.9,1-4.22a1.31,1.31,0,0,1,.95-.71c3.5-.4,7.13,2.72,7.35,6.43C343.12,122,340.18,121.23,337,120.16Z"/><path class="cls-2" d="M386.89,112a4.17,4.17,0,0,1,0,.62c-.48,2-.89,2.22-2.71,1.25a13,13,0,0,1-2.22-1.45c-.82-.66-.9-1-.93-2.54A60.44,60.44,0,0,1,386.89,112Z"/><path class="cls-1" d="M365.61,113.54a2.09,2.09,0,0,1-1.84,2,1.73,1.73,0,0,1-1.62-1.6,2.34,2.34,0,0,1,2-2.16A1.77,1.77,0,0,1,365.61,113.54Z"/><path class="cls-5" d="M259.85,681.8l-26,71.08c12.39,1.49,22.13,11,23.16,22.85a9.75,9.75,0,0,1,3.37-.87c0-.12,0-.24,0-.37a12.64,12.64,0,0,1,7.6-11.42,14.06,14.06,0,0,1,5.87-1.28,15.25,15.25,0,0,1,1.66.1L282,681.8H259.85m46.62,0H284.32l7.15,88.72a8,8,0,0,1,6,6.23,10.13,10.13,0,0,1,6-2,9.81,9.81,0,0,1,9.1,5.81,22.68,22.68,0,0,1,18.47-9.24,23.36,23.36,0,0,1,8.62,1.63L306.47,681.8"/><path class="cls-6" d="M58.88,661.19,47.55,671.88v50.67L94,741.19v16.49H47.55v26.8H111l11.33-10.69V723.12L76,704.48V688h46.39v-26.8H58.88m296.59,0-8.48,8V772.12a21.22,21.22,0,0,1,5.15-.62A20.74,20.74,0,0,1,368.26,779a9.15,9.15,0,0,1,6.05-2.25,9.81,9.81,0,0,1,1.09.07,8.65,8.65,0,0,1,7.81,7.67h30.15l8.43-8V744.29h-28.4v13.39h-18V688h18v13.4h28.4V669l-8.29-7.82h-58M177.62,716.58h18V688h-18v28.59Zm-28.4-55.39V784.48h3.45a12.11,12.11,0,0,1,10.47-5.82,12.31,12.31,0,0,1,2.93.36,16.76,16.76,0,0,1,11.55-15.13V743.38h35.54L224,733.14V672l-11.41-10.76ZM519.71,688v-26.8h-74.8V784.48h74.8v-26.8h-46.4V736.23h28.17V709.44H473.31V688h46.4"/><path class="cls-5" d="M137.63,484.51a6.12,6.12,0,0,1-1.44,2.15,6.84,6.84,0,0,1-2.32,1.43,8.88,8.88,0,0,1-3.12.51h-1.54V475h1.54a8.82,8.82,0,0,1,3.09.52,6.88,6.88,0,0,1,2.31,1.42,6.25,6.25,0,0,1,1.46,2.17,7.19,7.19,0,0,1,.51,2.72,7.32,7.32,0,0,1-.49,2.73Zm3.8-11.25a13.47,13.47,0,0,0-4-2.67,12.39,12.39,0,0,0-5-1h-9.94V494h9.94a12.39,12.39,0,0,0,5-1,13.39,13.39,0,0,0,4.05-2.69,12.26,12.26,0,0,0,2.7-3.89,11.33,11.33,0,0,0,1-4.61,11.21,11.21,0,0,0-1-4.64,12.31,12.31,0,0,0-2.73-3.88ZM154,494h14.71V488.6h-8v-4.2h7.54V479H160.7V475h8v-5.36H154V494m36.58-14.88c-.55-.17-1.1-.33-1.66-.48a10.78,10.78,0,0,1-1.51-.53,3.67,3.67,0,0,1-1.08-.73,1.45,1.45,0,0,1-.41-1.07,1.79,1.79,0,0,1,.82-1.52,3.59,3.59,0,0,1,2.12-.58,6.11,6.11,0,0,1,2.13.4,8.45,8.45,0,0,1,2.19,1.25l2.68-4.95a18.36,18.36,0,0,0-4-1.47,16.94,16.94,0,0,0-4-.5,11.13,11.13,0,0,0-3.72.58,8.14,8.14,0,0,0-2.82,1.63,7.28,7.28,0,0,0-1.78,2.52,8.32,8.32,0,0,0-.63,3.29,6.58,6.58,0,0,0,.6,3,5.85,5.85,0,0,0,1.58,2,8.18,8.18,0,0,0,2.22,1.24c.84.31,1.69.6,2.56.86s1.35.45,1.87.65a5.37,5.37,0,0,1,1.25.63,2,2,0,0,1,.68.74,2,2,0,0,1,.21.95,2.1,2.1,0,0,1-.81,1.62,3.57,3.57,0,0,1-2.45.71,7.49,7.49,0,0,1-2.91-.61,12,12,0,0,1-3-1.88l-2.87,5.11a16.2,16.2,0,0,0,9.08,2.75,13.76,13.76,0,0,0,4.23-.6,9.24,9.24,0,0,0,3.16-1.68,7.08,7.08,0,0,0,1.95-2.6,8.32,8.32,0,0,0,.67-3.4,6.56,6.56,0,0,0-1.53-4.51,10.47,10.47,0,0,0-4.81-2.77M204.3,475h5.52v19h6.72V475h5.52v-5.36H204.3V475m27.1,19h6.72V469.59H231.4Zm36.71-9.47L255.7,469.59H249V494h6.72V479.06L268.11,494h6.69V469.59h-6.69V484.5m25.64.42,3-8.12,3,8.12Zm-.65-15.33L283.26,494h7.17l1.54-4.23h9.6l1.54,4.23h7.17l-9.84-24.38Zm22,5.36h5.52v19h6.72V475h5.52v-5.36H315.11V475m27.09,19h6.72V469.59H342.2Zm37.43-9.51A6.5,6.5,0,0,1,378,486.6a7.66,7.66,0,0,1-5.12,1.91,8.06,8.06,0,0,1-2.8-.5,7,7,0,0,1-3.89-3.55,6.5,6.5,0,0,1,0-5.37,6.69,6.69,0,0,1,1.58-2.13,7.18,7.18,0,0,1,2.31-1.41,8,8,0,0,1,2.79-.5A7.69,7.69,0,0,1,378,477a6.47,6.47,0,0,1,1.59,2.13,6.16,6.16,0,0,1,.59,2.69,6.09,6.09,0,0,1-.59,2.68Zm3.59-11.83a13.76,13.76,0,0,0-4.55-2.74,17.45,17.45,0,0,0-11.53,0,13.57,13.57,0,0,0-4.51,2.74,12.51,12.51,0,0,0-2.95,4.09,12.61,12.61,0,0,0,0,10.12,12.72,12.72,0,0,0,2.95,4.09,13.57,13.57,0,0,0,4.51,2.74,17.45,17.45,0,0,0,11.53,0,13.76,13.76,0,0,0,4.55-2.74,12.54,12.54,0,0,0,3-4.09,12.61,12.61,0,0,0,0-10.12A12.54,12.54,0,0,0,383.22,472.63Zm32.85,11.87-12.41-14.91h-6.72V494h6.72V479.06L416.07,494h6.69V469.59h-6.69V484.5m18.05-8.69h6.7v-6.32h-6.7Zm0,18.16h6.7v-6.32h-6.7Z"/><path class="cls-6" d="M195.12,526.51V621.2h66.31l8.49-8V596.43H221.38V586.24H251.7V561.47H221.38V551.28h48.54V526.51h-74.8m225.09,50.2h20.52V551.28H420.21V576.7Zm36.37-50.2H394V621.2h26.25V601.47h39.21l7.56-7.13v-58l-10.4-9.81Zm-162,0v86.67l8.5,8h66.3V596.43H320.79V586.24h30.32V561.47H320.79V551.28h48.55V526.51h-74.8M122,596.43h22.29V551.28H122ZM95.71,526.51V621.2H163l7.56-7.13V536.32l-10.41-9.81Z"/><path class="cls-7" d="M261.5,677h9.12V657.21h-1.8L261.5,677m36-19.75h-1.81V677h9.12l-7.31-19.75m-14.34-33.15-4.51,7.85h9l-4.5-7.85"/><path class="cls-8" d="M290,638.77l-2-3.7h-9.56l-2,3.7c-.06.2-.11.38-.16.58A47.79,47.79,0,0,0,274,653.88V673.8h4.18v5.53h10.05V673.8h4.18V653.88a47.78,47.78,0,0,0-2.24-14.53l-.17-.58"/><path class="cls-6" d="M257,856.61a19,19,0,0,1-11.4-3.73c3.65-7.77,11.08-18.19,21.22-28.37a17.18,17.18,0,0,1,8.61,14.72,16.63,16.63,0,0,1-1.75,7.41,34.45,34.45,0,0,1-8.76-5.39l5.56,9.83A18.92,18.92,0,0,1,257,856.61m-18.43-17.38c0-9.61,8.25-17.39,18.43-17.39a19.49,19.49,0,0,1,7.64,1.55c-10,8.34-17.71,18-22.29,26.38a16.75,16.75,0,0,1-3.78-10.54M276,847.57a18.85,18.85,0,0,0,2-8.34,19.49,19.49,0,0,0-9.35-16.46,143.24,143.24,0,0,1,10.85-9.57,93.94,93.94,0,0,0-12.74,8.52,21.66,21.66,0,0,0-9.71-2.25c-11.57,0-21,8.84-21,19.76a19.12,19.12,0,0,0,5.08,12.9c-4,8.17-4.71,14.75-1.18,17,3.79,2.38,12-1.94,17-9,0,0-7.64,6.5-11.84,5-2.58-.92-2.59-4.65-.46-10a22,22,0,0,0,27.11-1.88l.74,1.31c9.12-.7,36.38-1.37,36.38-1.37,0-1.24-18.05-.11-32.85-5.66m125-10.16,3.41-4.28H392.45l2.93-3.66h11.89l3.42-4.28H387l-16.32,20.44h23.72l3.42-4.28H385.89l3.14-3.94h11.9m16.48-12.22-16.32,20.44h11.84l16.33-20.44H417.41m39.45,0-8.27,10.36-2.54-10.36h-9.26l-16.32,20.44h7.84l8.19-10.27L439,845.63h9.35l16.32-20.44h-7.84m38.72,0h-19a10.17,10.17,0,0,0-8,3.75l-9.82,12.31a2.63,2.63,0,0,0,.57,3.83,3,3,0,0,0,1.74.55h19a10.16,10.16,0,0,0,8-3.76l2.38-3h2.74l3.44-4.3H482l-4.59,5.76a2.66,2.66,0,0,1-2.07,1H472a.71.71,0,0,1-.61-1.14l7.82-9.77a2.58,2.58,0,0,1,2.05-1h3.37a.73.73,0,0,1,.74.71.66.66,0,0,1-.15.43L484,832.2h11.82l2.09-2.63a2.63,2.63,0,0,0-.57-3.83,3,3,0,0,0-1.74-.55M364,830.6l-7.81,9.78a2.65,2.65,0,0,1-2.07,1h-3.36a.73.73,0,0,1-.75-.71.72.72,0,0,1,.15-.43l7.81-9.77a2.64,2.64,0,0,1,2.08-1h3.34a.75.75,0,0,1,.76.71.66.66,0,0,1-.15.43m13.23-2.67a2.83,2.83,0,0,0-2.9-2.74h-19a10.18,10.18,0,0,0-8,3.75l-9.83,12.31a2.6,2.6,0,0,0-.57,1.64,2.82,2.82,0,0,0,2.89,2.74h19a10.17,10.17,0,0,0,8-3.76l9.83-12.3a2.64,2.64,0,0,0,.58-1.64"/><path class="cls-6" d="M327.84,830.6l-1.24,1.56a2.66,2.66,0,0,1-2.07,1h-4.87l2.93-3.67h4.65a.74.74,0,0,1,.75.71.61.61,0,0,1-.15.43m-6.34,7.94L320,840.38a2.65,2.65,0,0,1-2.07,1H313.1l3.15-3.94h4.64a.74.74,0,0,1,.76.71.72.72,0,0,1-.15.42m11-2.63a10,10,0,0,0,5.75-3.52l2.25-2.82a2.63,2.63,0,0,0-.57-3.83,3,3,0,0,0-1.74-.55h-24l-16.32,20.44h24.85a10.15,10.15,0,0,0,8-3.76L333,839a2.14,2.14,0,0,0,.46-1.32,2.17,2.17,0,0,0-.94-1.77"/><path class="cls-5" d="M84.5,839.31h4.71c1.89,0,3.2-.91,3.2-2.78s-1.31-2.77-3.2-2.77H84.5v5.55Zm-1.37-6.65h6.38c2.58,0,4.27,1.43,4.27,3.87s-1.69,3.88-4.27,3.88h-5v5.81H83.13V832.66Zm12.44,3.76h1.17v2.3h0a3.83,3.83,0,0,1,3.92-2.43v1.19A3.49,3.49,0,0,0,96.84,841v5.22H95.57v-9.8m13.81,4.22a3.37,3.37,0,0,0-3.3-3.5c-2.08,0-3.22,1.71-3.42,3.5Zm-6.72,1c0,1.75,1,3.86,3.42,3.86a3.12,3.12,0,0,0,3.26-2.51h1.27a4.19,4.19,0,0,1-4.53,3.51c-3.3,0-4.69-2.39-4.69-5.18,0-2.58,1.39-5.18,4.69-5.18s4.67,2.75,4.57,5.5h-8Zm15.92-2.35c-.06-1.48-1.27-2.15-2.72-2.15-1.12,0-2.45.42-2.45,1.69,0,1.06,1.28,1.44,2.15,1.65l1.69.36c1.45.21,3,1,3,2.72,0,2.13-2.24,2.94-4.17,2.94-2.41,0-4.06-1.06-4.26-3.45H113c.1,1.61,1.37,2.45,3.06,2.45,1.19,0,2.84-.5,2.84-1.86,0-1.14-1.13-1.52-2.27-1.79l-1.63-.34c-1.65-.42-2.9-1-2.9-2.62,0-2,2.07-2.75,3.9-2.75,2.08,0,3.73,1,3.81,3.15h-1.27m10.93,1.35a3.37,3.37,0,0,0-3.3-3.5c-2.07,0-3.22,1.71-3.42,3.5Zm-6.72,1c0,1.75,1,3.86,3.42,3.86a3.12,3.12,0,0,0,3.26-2.51h1.27a4.18,4.18,0,0,1-4.53,3.51c-3.3,0-4.69-2.39-4.69-5.18,0-2.58,1.39-5.18,4.69-5.18s4.67,2.75,4.57,5.5Zm9.68-5.22h1.27v1.69h0a3.53,3.53,0,0,1,3.32-2c2.92,0,3.8,1.44,3.8,3.77v6.31h-1.26V840.1c0-1.69-.59-3-2.64-3a3.17,3.17,0,0,0-3.26,3.36v5.72h-1.27v-9.8m12.84,0h2.12v1h-2.12V844c0,.78.12,1.24,1,1.3a10.09,10.09,0,0,0,1.09-.06v1c-.39,0-.75,0-1.13,0-1.69,0-2.27-.53-2.25-2.2v-6.7h-1.82v-1h1.82v-2.94h1.26v2.94m11.42,4.22a3.37,3.37,0,0,0-3.3-3.5c-2.08,0-3.22,1.71-3.43,3.5Zm-6.73,1c0,1.75,1,3.86,3.43,3.86a3.13,3.13,0,0,0,3.26-2.51H158a4.17,4.17,0,0,1-4.52,3.51c-3.31,0-4.69-2.39-4.69-5.18,0-2.58,1.38-5.18,4.69-5.18s4.67,2.75,4.56,5.5Zm13.93,3.86c2.7,0,3.65-2.15,3.65-4.18s-1-4.18-3.64-4.18c-2.42,0-3.41,2.15-3.41,4.18S161.52,845.5,163.93,845.5Zm4.92.72h-1.17v-1.86h0a4.16,4.16,0,0,1-3.71,2.14c-3.16,0-4.66-2.41-4.66-5.18s1.5-5.18,4.66-5.18a3.73,3.73,0,0,1,3.61,2.14h0v-5.62h1.27v13.56Zm9.62-1.1h4.71c2,0,3.78-.63,3.78-2.79,0-1.73-1.38-2.62-3.78-2.62h-4.71Zm0-6.52h4.71c2.19,0,3.24-1,3.24-2.29,0-1.69-1.11-2.55-3.24-2.55h-4.71Zm-1.37-5.94h6.08c2.41,0,4.61.8,4.61,3.32a3.11,3.11,0,0,1-2.5,3v0a3.25,3.25,0,0,1,3,3.3c0,1.29-.48,3.86-5.15,3.86H177.1V832.66Zm12,3.76h1.35l3.42,8.35,3.2-8.35h1.27l-4.51,11.3c-.72,1.65-1.15,2.12-2.74,2.12a3,3,0,0,1-1-.09v-1a4.37,4.37,0,0,0,.86.1c1.13,0,1.39-.63,1.81-1.54l.45-1.12-4.15-9.76"/></g></g></svg>