<svg id="Logo" xmlns="http://www.w3.org/2000/svg" viewBox="0 0 632.87 191.96"><defs><style>.cls-1{fill:#fff;}</style></defs><title>316-L-Honeywell-Intelligrated-White - Copy</title><path class="cls-1" d="M392.6,234.29" transform="translate(-79.38 -210.07)"/><path class="cls-1" d="M202.52,304.48" transform="translate(-79.38 -210.07)"/><path class="cls-1" d="M202.52,295.54" transform="translate(-79.38 -210.07)"/><path class="cls-1" d="M359.84,273h-10.3s0,7.42.17,10.11c1,16.12,30.53,16.23,33.05-.42l12.37,0c-2.19,14.6-19.59,21.83-35.5,21.83-20.86,0-35.58-15.68-35.58-35.75s14.89-37.17,35.75-37.17l-.08,8.75c-9.68,0-9.51,11.27-9.51,11.27l-.42,12.19h10Z" transform="translate(-79.38 -210.07)"/><path class="cls-1" d="M650.56,255" transform="translate(-79.38 -210.07)"/><path class="cls-1" d="M685.55,255" transform="translate(-79.38 -210.07)"/><path class="cls-1" d="M202.1,304.5c-13.08,0-37.38-5.78-37.38-36.15,0-27.5,24.3-36.64,37.38-36.64v8.94c-8.33,0-9.73,11.07-9.73,27.62s2.66,27.39,9.73,27.39Z" transform="translate(-79.38 -210.07)"/><path class="cls-1" d="M395.79,273a50.59,50.59,0,0,0-.24-5.19c0-20.07-15.06-36.17-35.92-36.17l-.08,8.75c8.49,0,8.75,11.43,8.75,11.43l.33,12h-9V273h36" transform="translate(-79.38 -210.07)"/><rect class="cls-1" x="558.31" width="25.74" height="91.17"/><rect class="cls-1" x="593.3" width="25.74" height="91.17"/><path class="cls-1" d="M202.1,295.66c7.82,0,9.39-10.84,9.39-27.39s-1.57-27.62-9.39-27.62v-8.94c13.07,0,37.34,8.47,37.38,36.48,0,28.68-24.31,36.31-37.38,36.31Z" transform="translate(-79.38 -210.07)"/><polygon class="cls-1" points="0 0 27.92 0 27.92 37.51 49.63 37.51 49.63 0 79.06 0 79.06 91.17 49.63 91.17 49.63 50.97 28.09 50.97 28.09 91.34 0 91.34 0 0"/><path class="cls-1" d="M247.6,301.24V234.12H273v6.48s9.25-7.66,20.36-7.66c10.36,0,20,7.15,22,15.36a18.61,18.61,0,0,1,.55,4.75v48.19H290.83V257s.93-10-6.73-9.59c-6,.33-10,3.53-11.1,5.64v48.19Z" transform="translate(-79.38 -210.07)"/><path class="cls-1" d="M389.24,312.09c0,6.06,3.53,14.89,14.8,14.89,9.25,0,17.92-5.3,21.11-12.54,2.59-5.84,32.05-80.15,32.05-80.15l19.51,67.12h21l10.77-40.21,12.78,40.21h20l17.16-67.12H546.86l-9.25,35.16-12-35.16H505l-10.43,36.17L484,234.29H447.27l-12.95,32.3L422,234.29H392.6s27.23,62.24,27.08,67c-.33,11.1-8.74,16.15-9.92,16.48h.09a12.14,12.14,0,0,0,1.84-6.14,11.19,11.19,0,0,0-11.18-11.19c-6.18,0-11.18,5.09-11.27,11.77Z" transform="translate(-79.38 -210.07)"/><path class="cls-1" d="M631.63,273a50.59,50.59,0,0,0-.24-5.19c0-20.07-15.06-36.17-35.92-36.17l-.08,8.75c8.49,0,8.75,11.43,8.75,11.43l.33,12h-9V273h36" transform="translate(-79.38 -210.07)"/><path class="cls-1" d="M595.75,273H585.38s0,7.42.17,10.11c1,16.12,30.53,16.23,33.05-.42l12.37,0c-2.19,14.6-19.6,21.83-35.5,21.83-20.86,0-35.58-15.68-35.58-35.75s14.89-37.17,35.75-37.17l-.08,8.75c-9.68,0-9.51,11.27-9.51,11.27l-.42,12.19h10.12Z" transform="translate(-79.38 -210.07)"/><path class="cls-1" d="M369.36,379.74h-6.68v-14.2c0-4-2-6-8.5-6-3.79,0-10.46,1.4-10.46,7.67v12.56H337V356.68h6.3V360h.15c1.44-1.24,5.16-3.93,12-3.93,6.15,0,13.89,1.46,13.89,8Z" transform="translate(-79.38 -210.07)"/><path class="cls-1" d="M387.41,359.9v15c0,1.81,2.66,1.81,4,1.81h2.35v3c-2.42.13-4.32.31-5,.31-6.6,0-8-2.16-8-4.94V359.9h-5.39v-3.22h5.39v-6.43h6.67v6.43h6.37v3.22Z" transform="translate(-79.38 -210.07)"/><path class="cls-1" d="M434,372.51c-.23,1.1-2.05,4.37-7.06,6.3-1.82.71-4.4,1.59-10.77,1.59-11.15,0-17.75-4.89-17.75-11.55,0-7.14,5.92-12.83,19-12.83,11.46,0,17.07,5.29,17.07,13.45h-29c0,4.8,3.87,7.58,11.53,7.58,6.3,0,10-2.82,10.24-4.54Zm-6.37-6.13c-.38-3.57-3-6.87-11.08-6.87-6.14,0-11,3.3-11,6.87Z" transform="translate(-79.38 -210.07)"/><path class="cls-1" d="M449.31,379.74h-6.67V348.09h6.67Z" transform="translate(-79.38 -210.07)"/><path class="cls-1" d="M466.15,379.74h-6.67V348.09h6.67Z" transform="translate(-79.38 -210.07)"/><path class="cls-1" d="M476.32,352.5v-4.41H483v4.41ZM483,379.74h-6.67V356.68H483Z" transform="translate(-79.38 -210.07)"/><path class="cls-1" d="M525.93,377.84c0,3.31-.08,11.6-18.44,11.6-4.7,0-13.88-.75-15.17-6.88H499c1.21,3.66,7.35,3.66,8.95,3.66,11.53,0,11.3-5.38,11.3-8.11v-1h-.15v.17c-1.74,1.64-5.23,3.09-10.54,3.09-13.51,0-17.45-7.36-17.45-12.87,0-6.48,6-11.51,16.53-11.51,7.21,0,10.25,2.6,11.84,3.93h.15v-3.27h6.3Zm-17.23-.79c4.26,0,10.85-1.63,10.85-7.76,0-3.75-1.06-9.78-10.69-9.78-10.32,0-10.85,5.68-10.85,8.63C498,373.22,501.42,377.05,508.7,377.05Z" transform="translate(-79.38 -210.07)"/><path class="cls-1" d="M542,379.74h-6.68V356.68h6.3v3.84h.15A14.83,14.83,0,0,1,553,356a9.92,9.92,0,0,1,1.75.13v4h-2.51C546,360.17,542,363,542,366.34Z" transform="translate(-79.38 -210.07)"/><path class="cls-1" d="M558.73,363.69c.31-5.51,6.6-7.67,16.39-7.67,3.18,0,14.71.53,14.71,6.44v13.27c0,1,.84,1.37,2.2,1.37a18.7,18.7,0,0,0,2.2-.19v2.83a19.73,19.73,0,0,1-3.64.45c-5.92,0-6.82-1.77-7.05-3.54-2.58,1.64-6.6,3.75-14.34,3.75-7.28,0-12.44-2.69-12.44-6.65,0-1.95,1-6.44,12.06-7.23l11-.8c1.59-.09,3.49-.44,3.49-2.74s-3-3.74-9.33-3.74c-7.59,0-8.65,2.69-9.1,4.45ZM583.16,368c-1.06.48-2.73.84-11,1.45-3.26.27-8.5.84-8.5,3.75,0,2.51,2.2,4,7.21,4,6.22,0,12.29-2.34,12.29-5.42Z" transform="translate(-79.38 -210.07)"/><path class="cls-1" d="M609.33,359.9v15c0,1.81,2.66,1.81,4,1.81h2.35v3c-2.42.13-4.32.31-5,.31-6.6,0-8-2.16-8-4.94V359.9h-5.39v-3.22h5.39v-6.43h6.67v6.43h6.37v3.22Z" transform="translate(-79.38 -210.07)"/><path class="cls-1" d="M655.91,372.51c-.23,1.1-2,4.37-7.06,6.3-1.82.71-4.4,1.59-10.77,1.59-11.15,0-17.75-4.89-17.75-11.55,0-7.14,5.92-12.83,19-12.83,11.46,0,17.07,5.29,17.07,13.45h-29c0,4.8,3.87,7.58,11.53,7.58,6.3,0,10-2.82,10.24-4.54Zm-6.37-6.13c-.38-3.57-3-6.87-11.08-6.87-6.15,0-11,3.3-11,6.87Z" transform="translate(-79.38 -210.07)"/><path class="cls-1" d="M697.33,379.74H691v-3.17h-.15c-2.88,3.12-7.43,3.83-11.3,3.83-13.5,0-17.45-7.36-17.45-12.87,0-6.48,6-11.51,16.54-11.51,7.2,0,10.23,2.6,11.83,3.93l.15-.31V348.09h6.68Zm-17.6-2.69c4.25,0,10.85-1.63,10.85-7.76,0-3.75-1.07-9.78-10.7-9.78-10.32,0-10.85,5.68-10.85,8.63C669,373.22,672.45,377.05,679.73,377.05Z" transform="translate(-79.38 -210.07)"/><path class="cls-1" d="M701.11,345.65a5.57,5.57,0,1,1,5.58,5.57A5.58,5.58,0,0,1,701.11,345.65Zm9.78,0a4.21,4.21,0,1,0-4.2,4.49A4.27,4.27,0,0,0,710.89,345.65Zm-6.35-3.17h2.34c1.52,0,2.33.52,2.33,1.85a1.58,1.58,0,0,1-1.65,1.7l1.7,2.76h-1.21l-1.63-2.72h-.71v2.72h-1.17Zm1.17,2.7h1c.69,0,1.29-.1,1.29-.94s-.68-.86-1.28-.86h-1Z" transform="translate(-79.38 -210.07)"/><polygon class="cls-1" points="218.63 130.15 218.63 185.66 186.35 185.66 186.35 191.96 266.74 191.96 266.74 179.88 240.2 179.88 240.2 136.19 266.74 136.19 266.74 124.1 251.21 124.1 251.21 130.15 218.63 130.15"/><path class="cls-1" d="M249.83,388.65H276.4V347.56H249.83V334.17h80.93v7.49H298.15v54.25H265.81V402h-16Zm1.59,11.81h12.79v-6.15h32.34V340.07h32.61v-4.31H251.42V346H278v44.29H251.42v10.21Z" transform="translate(-79.38 -210.07)"/></svg>