<svg id="Layer_1" data-name="Layer 1" xmlns="http://www.w3.org/2000/svg" viewBox="0 0 468.07 204.19"><defs><style>.cls-1{fill:#fdfdfd;}.cls-2{fill:#252525;}.cls-3{fill:#242424;}.cls-4{fill:#fefefe;}.cls-5{fill:#fcfcfc;}</style></defs><title>CHCA_Nameplate</title><path class="cls-1" d="M126.36,258.36q233.19,0,466.38,0c1.35,0,1.65.3,1.65,1.65q0,100.44,0,200.88c0,1.35-.3,1.65-1.65,1.65q-232.38,0-464.76,0c-1.35,0-1.65-.3-1.65-1.65Q126.38,359.61,126.36,258.36Z" transform="translate(-126.33 -258.33)"/><path class="cls-2" d="M448,341.88c1.74,0,3.48,0,5.22,0,.86,0,1.16-.3,1.13-1.15-.05-1.61,0-3.23,0-4.85,0-2.53,0-2.63-2.58-2.61-1.34,0-1.44-.61-1.4-1.63,0-.7.32-.94,1-.93,3.06,0,6.12,0,9.18,0,1,0,1,.52,1,1.26s.06,1.37-1,1.27a5.56,5.56,0,0,0-1.08,0c-1.19.14-2,.41-2,2,.13,5.52.05,11,.05,16.56,0,2.42,0,2.52,2.4,2.62,1,0,1.64.11,1.6,1.42s-.94,1.12-1.72,1.12c-2.75,0-5.52,0-8.27,0-1,0-1.25-.33-1.23-1.25s.14-1.27,1.15-1.32c2.83-.16,2.83-.22,2.83-2.91,0-1.86-.05-3.72,0-5.58,0-1-.33-1.23-1.25-1.22-3.48.05-7,.06-10.44,0-1,0-1.34.35-1.31,1.35.07,1.91,0,3.83,0,5.75,0,2.46,0,2.54,2.59,2.61,1.14,0,1.43.38,1.4,1.45,0,.9-.37,1.12-1.18,1.11-2.82,0-5.64,0-8.46,0-1,0-1.24-.34-1.21-1.26s.13-1.24,1.15-1.31c2.48-.19,2.47-.27,2.47-2.73,0-5.4-.09-10.8,0-16.19,0-1.83-.76-2.35-2.26-2.26-1.14.06-1.41-.35-1.42-1.43,0-1.26.74-1.12,1.53-1.12,2.7,0,5.4,0,8.1,0,.95,0,1.25.32,1.23,1.25s-.12,1.28-1.15,1.32c-2.82.11-2.82.17-2.83,2.9,0,1.5.05,3,0,4.5-.05.95.3,1.26,1.23,1.23C444.38,341.84,446.18,341.88,448,341.88Z" transform="translate(-126.33 -258.33)"/><path class="cls-2" d="M203.7,326.73c-.36,3.18-.7,6.35-1.09,9.52-.43,3.52-.93,7-1.36,10.55-.39,3.17-.74,6.34-1.09,9.52,0,.4-.15.77-.61.65a5.81,5.81,0,0,0-2.75,0c-.47.1-.55-.3-.59-.69-.48-4.23-.94-8.47-1.46-12.69s-1.08-8.69-1.7-13c-.41-2.8-.65-5.42,1.46-7.81a32.36,32.36,0,0,0,3-4.77c.37-.62.68-1,1.23-.14,1.54,2.52,3.11,5,4.66,7.52A1.67,1.67,0,0,1,203.7,326.73Z" transform="translate(-126.33 -258.33)"/><path class="cls-2" d="M198.16,406.47c-1.78-2.86-3.4-5.52-5.08-8.14-1.07-1.69-.11-3.38,0-5,.23-3.47.86-6.91,1.31-10.37.6-4.68,1.18-9.37,1.77-14.05a6.5,6.5,0,0,0,0-1.08c0-1,.16-1.07,1.38-1.3,3.05-.58,2.65,1.41,2.86,3,.46,3.4.77,6.81,1.18,10.22s.92,6.78,1.3,10.18c.26,2.29.4,4.6.83,6.87a2.79,2.79,0,0,1-.7,2C201.5,401.22,199.91,403.69,198.16,406.47Z" transform="translate(-126.33 -258.33)"/><path class="cls-2" d="M232.8,356.31c2.49-.14,3.95,1.92,6,2.8a15.07,15.07,0,0,1,1.6,1.09c2.75,1.65,2.75,1.63-.08,3.25a28.7,28.7,0,0,0-3.59,2.23c-2,1.58-4.12,1.64-6.57,1.17-3.29-.64-6.68-.8-10-1.22-4.45-.54-8.89-1.14-13.33-1.71-.24,0-.48-.06-.71-.08-2.87-.2-2.84-.2-3.06-3,0-.55-.26-.85.6-.94,4.87-.54,9.73-1.16,14.59-1.78,4.45-.57,8.9-1.18,13.34-1.75A10.59,10.59,0,0,1,232.8,356.31Z" transform="translate(-126.33 -258.33)"/><path class="cls-2" d="M193.58,360a3.07,3.07,0,0,0-.23,2.15c.23,1.14-.3,1.54-1.27,1.65-4.4.5-8.81.94-13.2,1.47s-8.77,1.16-13.16,1.73c-2,.25-3.87.31-5.64-1a66.28,66.28,0,0,0-5.67-3.6c-.88-.53-.77-.82,0-1.31,2.37-1.43,4.65-3,7.05-4.37,2.1-1.19,4.32-.09,6.45.07,3.53.26,7,.85,10.54,1.28,3.29.4,6.58.74,9.86,1.15C190,359.43,191.73,359.74,193.58,360Z" transform="translate(-126.33 -258.33)"/><path class="cls-2" d="M524.16,378.27c2.08-2.5,4.31-4,7.52-3.62,2.34.31,2.85,2.18,3.25,4.18,1.24-1.11,1.93-2.5,3.26-3.31a6.64,6.64,0,0,1,4.64-.83c1.82.27,2.89,1.82,2.92,4.07,0,3.06.18,6.13,0,9.17-.15,2,.6,2.87,2.4,2.86,1.28,0,1.26.64,1.28,1.56,0,1.17-.73,1-1.44,1-5.06.13-5,.13-5.08-4.94,0-3,.29-6-.32-8.93-.42-2.06-1.56-2.71-3.22-1.44-2.54,1.95-4.59,4.27-4.36,7.82,0,.47,0,.95,0,1.43,0,2.89,0,3,2.79,3.51,1.09.21.73.87.8,1.45s-.14,1.12-1,1.11c-1.61,0-3.23-.05-4.85,0-1.16,0-1-.75-1-1.45V380.76c0-1.18.15-2.61-1.08-3.13s-2.41.38-3.44,1.3c-3.29,2.94-3.77,6.69-3.4,10.75.05.63.31.79.89.81s.92.31,1.37.31c1.34,0,.9.95,1,1.65.09.9-.51.91-1.15.91h-7c-.62,0-1.26,0-1.17-.9.07-.68-.41-1.65.95-1.65,2.13,0,2.45-1.22,2.33-3.09a63.26,63.26,0,0,1,0-7.91c.09-1.62-.42-2.22-2-1.93s-1.82-.6-1.65-1.86c0-.32.14-.6.5-.62,1.6-.11,3.1-.73,4.72-.79,1.21,0,1.79.26,1.63,1.58A16,16,0,0,0,524.16,378.27Z" transform="translate(-126.33 -258.33)"/><path class="cls-2" d="M436.69,390.28c-.67-1.74-1.36-3.47-2-5.22-.23-.65-.68-.71-1.25-.71-2.52,0-5,0-7.55,0a1.26,1.26,0,0,0-1.35.9c-.63,1.64-1.23,3.29-1.86,5,.95.59,2,.1,3,.44s1,.8,1,1.57c0,1-.75.76-1.29.76-2.64,0-5.28,0-7.91,0-.73,0-1.27,0-1.28-1s.41-1.54,1.17-1.45c1.63.21,1.94-.81,2.38-2,2.51-6.72,5.14-13.39,7.57-20.14a2.31,2.31,0,0,1,2.59-1.76c1.38,0,1.87.46,2.33,1.74,2.51,7,5.17,14,7.77,21a1.4,1.4,0,0,0,1.58,1.06c1-.07,1.67.29,1.66,1.52,0,1.38-1,1-1.64,1-2.51,0-5,0-7.55,0-.56,0-1.24.19-1.28-.79a1.29,1.29,0,0,1,1-1.55C434.67,390.34,435.64,390.71,436.69,390.28Z" transform="translate(-126.33 -258.33)"/><path class="cls-2" d="M491.52,391.55a10.94,10.94,0,0,1-4.83,2.1c-3.13.3-5.95-.5-7.4-4.39a13,13,0,0,1,.4-10.32c1.32-2.87,3.79-3.9,6.65-4.28a7.37,7.37,0,0,1,3.21.07c1.37.47,1.57,0,1.49-1.15a13.37,13.37,0,0,1,0-1.79c.13-1.75.25-3.44-2.4-2.93-.75.15-.9-.43-.83-1s-.34-1.35.76-1.49c1.34-.16,2.66-.47,4-.7s1.76.16,1.75,1.6c-.08,7.07,0,14.14-.08,21.21,0,1.65.43,2.27,2.08,2.05.7-.09,1.61-.31,1.58,1,0,1-.11,1.41-1.29,1.58s-2.36.19-3.54.27S490.93,393.44,491.52,391.55Z" transform="translate(-126.33 -258.33)"/><path class="cls-2" d="M281.88,379.74a16.69,16.69,0,0,1,3.21-3.79,5.52,5.52,0,0,1,5.33-1.15,3.47,3.47,0,0,1,2.63,3.75c0,3.24.15,6.48-.07,9.71-.13,2,.75,2.58,2.36,2.54,1.24,0,1.3.55,1.32,1.51,0,1.15-.66,1-1.4,1.05-5.1.15-5,.15-5.12-4.91-.05-3.15.41-6.33-.34-9.46a1.86,1.86,0,0,0-3.15-1c-3.6,3-5.48,6.76-4.79,11.61.22,1.51,1.5,1.07,2.18,1.16,1.23.17,1,.83,1.09,1.6.07,1-.52,1-1.25,1h-6.83c-.68,0-1.38.06-1.29-1,.06-.73-.28-1.6,1-1.58,1.72,0,2.3-.82,2.25-2.63-.14-5.63-.09-11.28,0-16.91,0-1.35-.34-1.8-1.7-1.72-.65,0-1.77.67-1.94-.8-.14-1.27.43-1.75,1.62-1.77.34,0,.67-.22,1-.25,3.85-.42,3.85-.41,3.85,3.52Z" transform="translate(-126.33 -258.33)"/><path class="cls-2" d="M266.07,366.72a26.3,26.3,0,0,1,4.14.3c2.64.61,2.67.48,2.67,3.12,0,1,0,2,0,3.06,0,.86,0,1.51-1.19,1.47-1,0-1.42-.21-1.37-1.29.05-.87-.47-1.7-.35-2.62a.61.61,0,0,0-.52-.78c-3.44-.72-8-.82-11,2.7-3.75,4.4-3.48,14.07,2,17,3.32,1.81,6.89,1.46,10.86-1.44.59-.43,1.06-1.36,1.85-.24.67,1,1.19,1.53-.18,2.71-3.56,3.06-7.69,3.38-11.91,2.89s-8.12-5.49-8.31-10.29a24.43,24.43,0,0,1,.7-8.67,10.93,10.93,0,0,1,10.88-7.95Z" transform="translate(-126.33 -258.33)"/><path class="cls-2" d="M252.72,344.26c-.17-4.25.74-8.17,4-11.17,2.82-2.62,6.41-3.24,10.07-3a25.39,25.39,0,0,1,4.73.59c.92.25,1.49.54,1.42,1.64-.08,1.44,0,2.88,0,4.32,0,.88-.23,1.33-1.21,1.28-.79,0-1.39,0-1.36-1.1,0-.81-.3-1.63-.32-2.45,0-1-.94-1-1.38-1-3.17-.12-6.39-.63-9.13,1.84a9.72,9.72,0,0,0-3,4.84,13,13,0,0,0,1.26,10.73c2.06,3.34,6.64,4.41,10.44,2.77,1.12-.49,2.15-1.23,3.24-1.8.46-.24.71-1.46,1.56-.25.62.87,1.37,1.42.21,2.48a13.81,13.81,0,0,1-13.43,2.78c-5-1.73-7.14-7-7.1-10.86Z" transform="translate(-126.33 -258.33)"/><path class="cls-2" d="M559.49,389.18c1.29-3.58,2.42-6.86,3.67-10.09.47-1.24.18-1.71-1.08-1.55s-1.69-.39-1.58-1.62c.07-.7.34-.93,1-.92,2.33,0,4.67,0,7,0,1,0,1,.53,1,1.26s.13,1.41-.94,1.27c-1.44-.18-1.87.74-2.31,1.89-2.19,5.78-3.84,11.76-6.69,17.28a9.91,9.91,0,0,1-6.7,5.52c-.65.15-1.54.68-1.75-.69-.15-.95-.85-1.93.8-2.27a6.43,6.43,0,0,0,3.83-2.41c1.25-1.58,2.32-3.06,1.23-5.39-1.86-4-3.36-8.15-5-12.24-.35-.86-.78-1.7-1.83-1.65-1.38.06-1.14-.84-1.16-1.66,0-1.07.72-.89,1.35-.9,2.16,0,4.32,0,6.48,0,1,0,1.19.41,1.19,1.29s-.22,1.26-1.2,1.28c-2,0-2,.11-1.22,2C556.86,382.66,558.11,385.76,559.49,389.18Z" transform="translate(-126.33 -258.33)"/><path class="cls-2" d="M394.2,379.16c1-1.2,1.8-2.18,2.67-3.05,1.64-1.66,3.78-1.78,5.83-1.32,1.36.31,2.1,1.49,2.33,3a78.56,78.56,0,0,1,.31,10.73c0,1.17,0,2.07,1.61,2.05.74,0,1.92.15,1.69,1.65-.12.83-.33,1.14-1.17,1.11a37.36,37.36,0,0,0-4,0c-1.13.08-1.43-.36-1.41-1.44,0-3.66,0-7.32,0-11a5.9,5.9,0,0,0-.34-2.08A2,2,0,0,0,399,377.6c-2,.89-5.41,6.22-5.17,8.33a22.07,22.07,0,0,1,.34,3.71c0,.61.24.83.85.85s1,.3,1.54.33c1.25.06.74,1,.83,1.59.12.87-.45.95-1.12.95h-7.37c-.61,0-1.3.06-1.2-.86.06-.67-.45-1.67.91-1.68,2.07,0,2.51-1.16,2.36-3.08a61.4,61.4,0,0,1,0-7.91c.08-1.59-.39-2.24-2-1.95-1.36.24-1.87-.34-1.67-1.68.07-.45.14-.75.69-.85a33.47,33.47,0,0,1,4.9-.73c1.07,0,1.34.39,1.27,1.36S394.2,377.9,394.2,379.16Z" transform="translate(-126.33 -258.33)"/><path class="cls-3" d="M346,343.1c1.37-1.61,2.11-3.13,3.62-3.93,1.81-1,3.74-1.38,5.6-.37,1.64.89,1.87,2.67,1.92,4.35.08,3,.11,6,0,9-.07,1.74.35,2.67,2.26,2.35,1.11-.19,1.46.3,1.41,1.4,0,.86-.33,1.16-1.17,1.13-1.43,0-2.88-.08-4.31,0-1.12.07-1.43-.33-1.41-1.42.06-3.72,0-7.44,0-11.15,0-1.17.17-2.49-1.12-3.1-1.48-.71-2.47.41-3.39,1.3-3,3-3.93,6.6-3.42,10.72.14,1.15.87,1.15,1.66,1.1,1-.06,1.67,0,1.63,1.38s-.9,1.14-1.69,1.15c-2.28,0-4.56,0-6.84,0-.91,0-1.26-.24-1.26-1.21s.24-1.49,1.3-1.33c1.62.25,2.05-.5,2-2-.1-3.11-.09-6.23,0-9.35,0-1.25-.31-1.72-1.6-1.61-.61.06-1.63.53-1.69-.87,0-1.14.39-1.59,1.53-1.69s2.43-.42,3.64-.63c1-.17,1.43.2,1.35,1.26S346,341.58,346,343.1Z" transform="translate(-126.33 -258.33)"/><path class="cls-3" d="M293.71,343.14c1.16-1.28,2-2.32,3-3.28a5.49,5.49,0,0,1,6.06-1.18c1.81.91,2.23,2.58,2.19,4.5-.07,3.06.05,6.12-.05,9.18-.05,1.54.46,2.25,2,2.13,1-.08,1.69-.06,1.67,1.34s-.85,1.19-1.66,1.16c-1.55-.05-3.53.65-4.52-.27s-.28-3-.34-4.49c-.12-3,.18-6.08-.35-9.11-.34-1.91-1.32-2.51-3-1.57-3.44,2-6,8.21-4.94,12,.27.92,1.11,1,1.88.92,1-.09,1.35.25,1.37,1.29s-.47,1.28-1.41,1.26c-2.27,0-4.56-.06-6.83,0-1,0-1.19-.41-1.18-1.29s.16-1.36,1.19-1.26c1.6.17,2.18-.56,2.1-2.2-.12-2.93-.13-5.88,0-8.82.07-1.58-.36-2.18-2-1.95-.87.12-1.87.24-1.69-1.27.1-.78.33-1.25,1.18-1.23,1.76,0,3.71-1.61,5.15-.22C294.28,339.45,293.71,341.41,293.71,343.14Z" transform="translate(-126.33 -258.33)"/><path class="cls-2" d="M369.37,343.3a22.93,22.93,0,0,1,3-3.51,5.27,5.27,0,0,1,5.94-1.11c1.91.77,2.3,2.51,2.26,4.42,0,3.12.07,6.25,0,9.36-.06,1.51.51,2.07,1.93,2,.87,0,1.78-.25,1.75,1.27s-.9,1.3-1.77,1.24c-1.54-.09-3.5.68-4.49-.34s-.2-2.86-.27-4.35c-.14-3.1.3-6.21-.35-9.29-.4-1.85-1.47-2.4-3.05-1.42-3.43,2.13-5.79,7.92-4.86,11.89.24,1,1.06,1,1.82,1,1.09-.09,1.45.28,1.44,1.41s-.71,1.14-1.52,1.14c-2.22,0-4.44,0-6.66,0-.93,0-1.28-.27-1.24-1.23s.09-1.44,1.15-1.31c1.8.22,2.21-.71,2.14-2.34-.11-2.76-.14-5.53,0-8.28.09-1.8-.33-2.69-2.29-2.35-1.55.28-1.46-.76-1.29-1.76a.91.91,0,0,1,.53-.64c1.68-.31,3.37-.58,5.07-.82.78-.1.83.48.83,1.06C369.36,340.53,369.37,341.71,369.37,343.3Z" transform="translate(-126.33 -258.33)"/><path class="cls-3" d="M471.39,391.81c-2.12,1.23-4.19,2.09-6.81,1.69-2.93-.44-4.59-3.56-4.49-5.77.1-2.44,2.06-4.33,4.9-4.8a31.47,31.47,0,0,1,3.89-.42c1.22,0,2.62,0,2.4-2.09s-.74-2.79-2.58-2.91a12.88,12.88,0,0,0-5.05.81c-1,.36-1.64.44-2-.78s-.08-1.54,1.07-1.93a20.76,20.76,0,0,1,8.08-.95c2,.12,3,1.37,3.33,3.29.62,3.63.24,7.28.3,10.91,0,1.21.26,1.76,1.58,1.66.63,0,1.58-.5,1.72.86s-.43,1.63-1.5,1.84a22.46,22.46,0,0,1-3.93.13C471.14,393.38,471.87,392.33,471.39,391.81Z" transform="translate(-126.33 -258.33)"/><path class="cls-2" d="M379.33,391.75c-2.44,1.35-4.73,2.43-7.5,1.64a5.63,5.63,0,0,1-3.91-5.46,4.78,4.78,0,0,1,3.78-4.7c2.13-.63,4.33-.55,6.47-1,.67-.14.86-.33.92-1,.28-3-1.34-4.31-4.62-3.69a17.68,17.68,0,0,0-3.43.81c-1,.38-1.4.1-1.59-.71s-.37-1.52.69-1.93a19.85,19.85,0,0,1,8.77-1,3.55,3.55,0,0,1,3,3.77c0,3.36.09,6.72,0,10.07-.06,1.57.35,2.25,2,2,1.33-.24,2.05.34,1.64,1.65-.51,1.64-2.14,1.17-3.25,1.14-.92,0-2.65,1.18-2.85-1.06A4.54,4.54,0,0,0,379.33,391.75Z" transform="translate(-126.33 -258.33)"/><path class="cls-2" d="M397.26,355.52c-2.52,1.48-4.94,2.43-7.73,1.52-2.42-.8-3.69-2.74-3.61-5.63a4.68,4.68,0,0,1,3.86-4.48,19.71,19.71,0,0,1,6-.72c1,.08,1.34-.22,1.36-1.28,0-2.9-1.38-4.24-4.23-3.73-1.32.24-2.6.7-3.92,1-.45.09-1.14.64-1.41-.3-.22-.77-.63-1.74.34-2.18a13.78,13.78,0,0,1,9.84-1c1.59.49,2.23,2,2.23,3.71,0,3.41.12,6.83,0,10.24-.09,1.81.72,1.92,2.09,1.85s2.05.73,1.49,1.74c-.33.61-1.09.67-1.69.73a16.39,16.39,0,0,0-3.17.36C397.12,357.78,397.58,356.36,397.26,355.52Z" transform="translate(-126.33 -258.33)"/><path class="cls-2" d="M508.84,384.36c-1.68,0-3.36.06-5,0-1.1,0-1.4.44-1.23,1.39.68,3.78,2.87,5.84,7.24,4.87a9.9,9.9,0,0,0,3.55-1.53c.39-.28,1-.9,1.45.08.26.64,1.13,1.2.22,2-3.43,3-11.13,4.25-14.3-.88-2.72-4.41-2-13.87,4.54-15.34,6.83-1.54,10.31,1.68,9.88,8.64,0,.81-.55.79-1.1.79Z" transform="translate(-126.33 -258.33)"/><path class="cls-2" d="M169.8,390.73c-.55.14-.7-.29-.55-.6.54-1.08.25-2.23.36-3.35.26-2.85,2.85-3.71,4.56-5.22,3.67-3.26,7.57-6.27,11.37-9.39,2.79-2.29,5.56-4.61,8.34-6.92.3-.25.56-.42.92-.09s.24.69-.07,1q-4.69,5.58-9.37,11.17c-3.07,3.68-6.31,7.24-9.12,11.11-1.38,1.91-3.28,1.3-4.88,2C170.89,390.65,170.28,390.35,169.8,390.73Z" transform="translate(-126.33 -258.33)"/><path class="cls-2" d="M170.64,332.88a8.33,8.33,0,0,0,3.51.36c.48,0,.64.27.93.61,4.6,5.32,9,10.8,13.4,16.3,1.85,2.31,3.79,4.54,5.7,6.81.35.4.93.84.39,1.34s-.93-.14-1.34-.48c-6.11-5.05-12.25-10.06-18.33-15.14-1.36-1.14-2.68-2.32-4.13-3.35-1.28-.91-.69-2.42-1.18-3.59-.2-.46-.09-1-.25-1.56C169,333.06,169.23,332.84,170.64,332.88Z" transform="translate(-126.33 -258.33)"/><path class="cls-2" d="M226,332.88c.69,0,1,0,1.07,1.12.36,4.22-2.53,6.16-5.21,8.33q-7.49,6.07-15,12.13c-1.47,1.19-2.91,2.41-4.36,3.63-.29.25-.54.47-.91.13s0-.62.17-.85c2-2.45,3.9-4.9,5.89-7.31,3.92-4.73,8.1-9.25,11.68-14.25C221.05,333.4,223.5,333.34,226,332.88Z" transform="translate(-126.33 -258.33)"/><path class="cls-2" d="M225.06,390.41c-2.54.33-4.35-1.05-6-3.13-4.23-5.34-8.61-10.56-12.92-15.84-1.38-1.69-2.71-3.43-4.08-5.14-.31-.38-.75-.82-.27-1.22s.92.15,1.23.4c2.42,2,4.79,4.07,7.2,6.08,3.87,3.21,7.78,6.38,11.64,9.6,1.33,1.1,2.63,2.24,3.87,3.43s.63,2.81,1.12,4.15C227.49,390.53,226.63,390.65,225.06,390.41Z" transform="translate(-126.33 -258.33)"/><path class="cls-2" d="M505.62,357.36c-.3,0-.6,0-.9,0-5.27-.34-4.77-.55-5-5.42,0-.59.06-1.15.83-1,.61.09,1.52-.47,1.72.7,0,.22.26.43.27.65.05,1.06.13,2.05,1.51,2.23,1.95.25,3.93.61,5.31-1.28.81-1.11.17-2.6-1.38-3.22-1.25-.5-2.57-.83-3.85-1.28A5,5,0,0,1,500.4,343a5.33,5.33,0,0,1,5.21-4.68c.78-.05,1.56,0,2.34,0,4.8,0,4.49.53,4.69,5.11,0,.65-.16,1.1-.88,1-.57-.09-1.37.46-1.64-.55a3.77,3.77,0,0,0-.26-.66c-.3-.73.29-1.89-1.17-2-1.66-.18-3.3-.34-4.62.9-.88.83-.54,2.39.64,3.22a14.75,14.75,0,0,0,3.74,1.54c3.55,1.26,5,3,4.53,5.72a5.88,5.88,0,0,1-6.46,4.86A9,9,0,0,0,505.62,357.36Z" transform="translate(-126.33 -258.33)"/><path class="cls-2" d="M334.44,374.64h.36c4.82,0,4.64.25,4.68,4.94,0,.63,0,1.26-.89,1.17-.7-.06-1.42.29-1.7-1-.62-2.7-1.87-3.21-4.55-2.32a2.28,2.28,0,0,0-1.87,2.06,2.19,2.19,0,0,0,1.58,2.32c1.19.5,2.42.91,3.64,1.33,3.21,1.11,4.38,2.62,4.15,5.36a5.76,5.76,0,0,1-5.13,5.12,15.76,15.76,0,0,1-6.7-.59,1.35,1.35,0,0,1-1.14-1.49c0-1-.27-2-.34-3,0-.62-.18-1.36.89-1.36.88,0,1.78,0,1.92,1.08s.12,2.24,1.34,2.41c1.56.22,3.24.54,4.72-.37a2.1,2.1,0,0,0,1.14-2.26,2.84,2.84,0,0,0-1.93-1.92c-1.33-.47-2.69-.87-4-1.43-2.64-1.14-3.88-3.33-3.36-5.77a5.47,5.47,0,0,1,5.55-4.32Z" transform="translate(-126.33 -258.33)"/><path class="cls-2" d="M452.21,374.64h.18c4.42,0,5.42,1.19,4.83,5.57-.13,1-.73,1-1.37.9s-1.37.35-1.57-.86c-.53-3.09-.82-3.16-3.95-2.75a4.52,4.52,0,0,0-3.17,2c-2.45,3.22-1.54,9.17,1.21,10.66s4.89.34,7.16-.8c.61-.3,1.13-1.11,1.65,0,.35.77,1.11,1.41-.17,2.25a10.79,10.79,0,0,1-9.23,1.74,6.53,6.53,0,0,1-4.66-4.68,13.68,13.68,0,0,1,.28-9,7.56,7.56,0,0,1,7.37-5Z" transform="translate(-126.33 -258.33)"/><path class="cls-2" d="M318.63,357.34c-6.65.74-8.89-5.92-8.19-10.57.36-2.34.93-4.65,2.9-6.41,2.71-2.44,5.88-2.12,9.09-2,2.08.09,2.57,1.2,2.31,3-.1.64,0,1.32,0,2s.28,1.44-.83,1.39c-.77,0-1.51.28-1.78-1.06-.56-2.76-.73-2.74-3.71-2.52a4.43,4.43,0,0,0-3.75,2.61,8.64,8.64,0,0,0-.4,7.66,4.86,4.86,0,0,0,6.13,2.87,8.72,8.72,0,0,0,2.72-1.24c.94-.68,1.56-.77,2.28.41.84,1.35-.1,1.67-.9,2.14C322.62,356.71,320.73,357.73,318.63,357.34Z" transform="translate(-126.33 -258.33)"/><path class="cls-2" d="M494.28,341.92c0,3.59,0,7.19,0,10.79,0,1.3.37,1.93,1.74,1.77.94-.11,1.56,0,1.57,1.29S496.85,357,496,357c-2.28,0-4.56-.05-6.84,0-1,0-1.37-.28-1.35-1.31s.28-1.38,1.23-1.23c1.76.29,2.09-.59,2.07-2.16-.08-6-.07-12,0-18,0-1.32-.2-2-1.73-1.83-.59.08-1.53.41-1.54-.85,0-.92,0-1.72,1.29-1.66a1.67,1.67,0,0,0,.5-.15c3.9-1,4.7-.42,4.7,3.45Z" transform="translate(-126.33 -258.33)"/><path class="cls-2" d="M482.76,342.06c0,3.54,0,7.08,0,10.62,0,1.26.29,2,1.7,1.8.9-.1,1.61-.05,1.61,1.25s-.65,1.3-1.58,1.28c-2.34,0-4.68-.05-7,0-1,0-1.2-.4-1.2-1.28s.2-1.41,1.19-1.26c1.71.27,2.13-.5,2.1-2.13-.08-6.12-.06-12.23,0-18.35,0-1.18-.33-1.58-1.51-1.52-.61,0-1.65.58-1.76-.8s.35-1.81,1.61-1.75c.21,0,.43-.22.65-.26,3.69-.68,4.23-.24,4.23,3.39Z" transform="translate(-126.33 -258.33)"/><path class="cls-2" d="M305.27,376.79c1.91-1.35,3.61-2.32,5.78-2.19,1.27.08,1.1.82,1.06,1.57s.36,1.82-1.08,1.71a6.67,6.67,0,0,0-2.8.37,4.12,4.12,0,0,0-3,4.11v5.57c0,2.54,0,2.65,2.5,2.86,1.17.09,1.52.39,1.49,1.55,0,1.32-.91,1-1.62,1q-3.67,0-7.37,0c-.64,0-1.53.3-1.48-.93,0-.83-.19-1.65,1.19-1.63,1.63,0,2.21-.84,2.1-2.57-.18-2.86-.11-5.75,0-8.62,0-1.26-.19-1.92-1.64-1.75-.64.07-1.62.44-1.66-.93,0-1.06.21-1.56,1.37-1.75a24.62,24.62,0,0,0,2.79-.47C304.29,374.33,305.47,374.66,305.27,376.79Z" transform="translate(-126.33 -258.33)"/><path class="cls-2" d="M406.8,347.46a34,34,0,0,1,0-3.78c.18-1.67-.29-2.5-2.1-2.16-1.31.24-1.65-.4-1.55-1.62.06-.71.34-.86,1-.92,2.61-.23,2.68-.25,2.6-2.88,0-1.37.28-1.92,1.76-1.83,1.11.07,1.56.28,1.54,1.51,0,2.83,0,2.87,3,2.84,1.1,0,1.8.05,1.72,1.48-.07,1.07-.31,1.44-1.43,1.45-3.3,0-3.3.08-3.3,3.42,0,2.22,0,4.44,0,6.66s.37,2.48,2.5,2.49a4.87,4.87,0,0,0,1.43,0c1.85-.61,1.29.89,1.57,1.7.45,1.31-.8,1-1.22,1.13-1.84.48-3.76.85-5.49-.28s-1.94-2.77-2-4.52C406.74,350.58,406.8,349,406.8,347.46Z" transform="translate(-126.33 -258.33)"/><path class="cls-2" d="M348.33,370.46a.6.6,0,0,1,.08.16c.06,1.37-.35,3.09.32,4s2.57.28,3.92.36c1.07.06.88.79.85,1.4s.33,1.42-.75,1.48h-.36c-1.24.1-2.87-.56-3.62.3s-.29,2.63-.26,4c0,1.95-.22,3.91.28,5.87.59,2.31,1.31,3,3.72,2.33,1-.28,1.52-.06,1.66.8s.47,1.67-1,1.95a17.05,17.05,0,0,1-4.61.17c-1.59-.13-2.93-2.17-2.94-4.13,0-3.23-.07-6.46,0-9.69,0-1.25-.3-1.7-1.59-1.63-.84.05-2.11.61-2.08-1.23s1.23-1.59,2.18-1.57c1.22,0,1.5-.4,1.48-1.54C345.59,370.94,345.65,370.94,348.33,370.46Z" transform="translate(-126.33 -258.33)"/><path class="cls-2" d="M321.12,382.69c0,1.92.15,3.85,0,5.75-.18,1.67.6,2.31,2,2.34,1.2,0,1.31.55,1.31,1.53,0,1.31-.86,1-1.59,1-2.22,0-4.44,0-6.66,0-.65,0-1.53.26-1.49-.95,0-.84-.18-1.63,1.19-1.62s2.22-.67,2.1-2.42c-.19-3-.1-6,0-9,0-1.17-.31-1.6-1.51-1.53-.62,0-1.61.53-1.77-.82-.14-1.19.23-1.79,1.44-1.86.23,0,.45-.14.68-.17,4.38-.58,4.38-.58,4.38,3.91Z" transform="translate(-126.33 -258.33)"/><path class="cls-3" d="M362.88,382.64a54.93,54.93,0,0,1,0,5.74c-.19,1.74.6,2.43,2.08,2.41s1.18.76,1.21,1.61c0,1-.64,1-1.31,1h-7.18c-.72,0-1.33,0-1.25-1,.06-.76-.19-1.56,1.08-1.55,1.72,0,2.33-.86,2.22-2.65-.18-2.92-.1-5.87,0-8.8,0-1.16-.32-1.58-1.51-1.52-.68,0-1.68.52-1.81-1s.68-1.53,1.61-1.74l.16-.08c4.76-1,4.76-1,4.76,3.82Z" transform="translate(-126.33 -258.33)"/><path class="cls-2" d="M282.24,346.18c0,2.22.05,4.43,0,6.65,0,1.26.43,1.78,1.67,1.65,1-.11,1.66,0,1.64,1.38s-.9,1.13-1.69,1.14c-2.27,0-4.55,0-6.83,0-.87,0-1.3-.17-1.28-1.17s.18-1.53,1.27-1.36c1.61.24,2.08-.49,2-2-.1-3-.12-6,0-9,.07-1.58-.37-2.19-2-2-.86.12-1.89.25-1.68-1.26.09-.67.21-1.2,1-1.23,1.95-.05,3.84-1.08,5.8-.33.14.05.07.67.07,1Z" transform="translate(-126.33 -258.33)"/><path class="cls-3" d="M334.08,346.23c0,2.1.07,4.2,0,6.29-.07,1.46.35,2.14,1.91,2,.84-.09,1.77-.31,1.76,1.22S336.87,357,336,357c-2.28,0-4.56,0-6.83,0-1,0-1.23-.35-1.21-1.26s.13-1.44,1.16-1.28c1.85.31,2.19-.65,2.13-2.27a81.27,81.27,0,0,1,0-8.26c.12-1.9-.31-2.82-2.37-2.44-1.45.27-1.33-.75-1.24-1.67a.85.85,0,0,1,.81-.82c1.63-.25,3.26-.51,4.89-.72.86-.1.74.58.75,1.1C334.09,341.68,334.08,344,334.08,346.23Z" transform="translate(-126.33 -258.33)"/><path class="cls-2" d="M470.88,346.2c0,2.09.09,4.2,0,6.29-.09,1.6.5,2.22,2.06,2,1.26-.19,1.72.35,1.59,1.61-.07.69-.32.93-1,.93-2.57,0-5.15,0-7.72,0-1,0-1-.51-1.05-1.25s.12-1.45,1.15-1.29c1.86.3,2.2-.65,2.14-2.27-.11-2.81-.13-5.63,0-8.44.08-1.72-.27-2.63-2.2-2.25-1.42.28-1.59-.57-1.42-1.67a.91.91,0,0,1,.81-.83c1.63-.24,3.26-.5,4.89-.72.87-.12.75.55.76,1.07Z" transform="translate(-126.33 -258.33)"/><path class="cls-2" d="M423.72,346.3c0,2.09.06,4.19,0,6.28-.05,1.34.3,2.1,1.79,1.9,1-.13,1.51.07,1.51,1.3s-.75,1.23-1.62,1.23c-2.15,0-4.31-.05-6.46,0-1,0-1.38-.27-1.35-1.31s.3-1.38,1.24-1.23c1.77.28,2.11-.61,2.06-2.17-.1-3.11-.08-6.22,0-9.33,0-1.21-.4-1.49-1.54-1.52-.69,0-1.89.78-2.09-.79s.68-1.48,1.79-1.78,2.48,0,3.68-.54c.93-.39,1,.41,1,1.13C423.71,341.75,423.72,344,423.72,346.3Z" transform="translate(-126.33 -258.33)"/><path class="cls-2" d="M233.52,377.72c-2.81.57-5.38-.3-8-.23-.54,0-2.8-3.52-2.6-4,.08-.16.35-.27.55-.34a29.37,29.37,0,0,1,3-1,1.49,1.49,0,0,1,1.65.37C229.71,374.41,231.91,375.63,233.52,377.72Z" transform="translate(-126.33 -258.33)"/><path class="cls-2" d="M162.51,377.88c2.23-2.08,4-3.83,5.89-5.44,1-.88,2.12,0,3.14.32,2.23.76,1.87.62,1,2.8-1.18,2.94-3.71,1.63-5.57,2.25C165.78,378.19,164.38,377.88,162.51,377.88Z" transform="translate(-126.33 -258.33)"/><path class="cls-2" d="M182,326.49c2.27,1.56,3.69,3.87,5.67,5.64.32.29-.66,4.42-1.06,4.63a1,1,0,0,1-.52,0,4.51,4.51,0,0,1-3.93-4.4c0-1,0-2,0-3A10.76,10.76,0,0,0,182,326.49Z" transform="translate(-126.33 -258.33)"/><path class="cls-2" d="M182.14,397.3c.46-2.61-.43-5.21.31-7.73.32-1.08,2.5-2.94,3.54-3a.78.78,0,0,1,.34.05c.74.29,1.7,4.21,1.16,4.82C185.72,393.42,183.92,395.35,182.14,397.3Z" transform="translate(-126.33 -258.33)"/><path class="cls-2" d="M214.72,397.43c-2.59-1.94-4.14-4.23-6-6.23-.88-.95.38-2.05.54-3.11.23-1.47.82-1.57,2.29-1,2.19.88,2.63,2.38,2.65,4.4C214.23,393.34,213.94,395.19,214.72,397.43Z" transform="translate(-126.33 -258.33)"/><path class="cls-2" d="M233.46,345.65c-1.56,2.25-3.9,3.57-5.67,5.47-.42.46-4.68-.56-4.73-1.11,0-.4.36-.83.49-1.27.65-2.36,2.1-3.36,4.58-2.92C229.86,346.13,231.59,345.05,233.46,345.65Z" transform="translate(-126.33 -258.33)"/><path class="cls-2" d="M214.49,326.45c-.73,2.6.18,5.24-.63,7.77-.24.78-3.11,2.73-3.87,2.6-.38-.07-.4-.33-.49-.63-.32-1.06-.69-2.11-1-3.18a1,1,0,0,1,.27-1c1.71-1.81,3.41-3.64,5.12-5.45C214,326.48,214.2,326.51,214.49,326.45Z" transform="translate(-126.33 -258.33)"/><path class="cls-2" d="M162.53,345.54c3.12-.17,5.69.41,8.3.38,1.3,0,1.2,1.71,1.86,2.56.89,1.16.47,1.53-.83,2.25-3.05,1.7-4.35-.81-6.13-2.1A33.9,33.9,0,0,1,162.53,345.54Z" transform="translate(-126.33 -258.33)"/><path class="cls-2" d="M331.7,335.43c-1.21.06-1.82-.92-1.87-2.11a1.93,1.93,0,0,1,2-2.25,2.09,2.09,0,0,1,2.26,2.17A2.12,2.12,0,0,1,331.7,335.43Z" transform="translate(-126.33 -258.33)"/><path class="cls-3" d="M468.66,331.08c1.49-.13,2,.89,2.18,2.05a2.13,2.13,0,0,1-2.13,2.29c-1.59.1-2-1.14-2-2.15S467.06,331,468.66,331.08Z" transform="translate(-126.33 -258.33)"/><path class="cls-2" d="M421.62,331.08c1.48-.23,1.93,1.05,2,2.07s-.32,2.27-1.9,2.26a2.17,2.17,0,1,1-.07-4.33Z" transform="translate(-126.33 -258.33)"/><path class="cls-2" d="M358.91,369.36c-.07-1.42.66-1.94,2.08-1.94,1.6,0,1.84,1,1.89,2.22.06,1.48-1,2-2.16,2.07C359.27,371.75,358.86,370.69,358.91,369.36Z" transform="translate(-126.33 -258.33)"/><path class="cls-3" d="M279.46,331.05c2.13,0,2.72,1,2.72,2.19a2,2,0,0,1-2.06,2.18c-1.7,0-1.86-1-1.86-2.36S278.76,331,279.46,331.05Z" transform="translate(-126.33 -258.33)"/><path class="cls-2" d="M317.16,369.36c-.1-1.43.65-1.92,2.06-1.95,1.61,0,1.83,1,1.9,2.18a1.9,1.9,0,0,1-2.1,2.11C317.72,371.71,317.08,370.74,317.16,369.36Z" transform="translate(-126.33 -258.33)"/><path class="cls-1" d="M433.29,381.44H426c1.22-3.35,2.4-6.59,3.69-10.15C431,374.83,432.29,378,433.29,381.44Z" transform="translate(-126.33 -258.33)"/><path class="cls-4" d="M491,383.61a23.87,23.87,0,0,0,0,3.05c.28,2.2-.63,3.17-4.15,4.07a4.44,4.44,0,0,1-4.47-2.47,10.05,10.05,0,0,1-.3-6.94c1.11-3.34,5-4.51,8.26-3.38.63.22.64.79.64,1.35Q491,381.45,491,383.61Z" transform="translate(-126.33 -258.33)"/><path class="cls-5" d="M471.24,386.88c0,2.18-1.24,3.38-3.93,3.93a3.64,3.64,0,0,1-3.65-1.82c-.65-1.31-.25-2.19.95-2.94,1.86-1.17,4-1,6-1.18C471.84,384.73,470.9,386.3,471.24,386.88Z" transform="translate(-126.33 -258.33)"/><path class="cls-5" d="M379,386.54c.5,2.15-.65,3-2.13,3.61-1.72.74-3.41,1-5-.27a2.56,2.56,0,0,1,1.3-4.32,27.19,27.19,0,0,1,5.05-.78C379.86,384.71,378.66,386.17,379,386.54Z" transform="translate(-126.33 -258.33)"/><path class="cls-1" d="M397,350.81c.59,2-.9,2.6-2.16,3.14-1.6.68-3.36,1.1-4.85-.29s-.91-3.81,1.48-4.44a17.5,17.5,0,0,1,3.5-.54C396.66,348.59,397.54,349,397,350.81Z" transform="translate(-126.33 -258.33)"/><path class="cls-1" d="M507.21,381.84c-1.13,0-2.27-.07-3.4,0s-1.06-.56-.8-1.28a5.26,5.26,0,0,1,7.43-2.68,3.4,3.4,0,0,1,1.47,3.2c0,.71-.43.73-.94.73h-3.76Z" transform="translate(-126.33 -258.33)"/></svg>