<?xml version="1.0" encoding="utf-8"?>
<!-- Generator: Adobe Illustrator 20.0.0, SVG Export Plug-In . SVG Version: 6.00 Build 0)  -->
<svg version="1.1" id="Layer_1" xmlns="http://www.w3.org/2000/svg" xmlns:xlink="http://www.w3.org/1999/xlink" x="0px" y="0px"
	 viewBox="0 0 313.2 66.8" style="enable-background:new 0 0 313.2 66.8;" xml:space="preserve">
<style type="text/css">
	.st0{fill:#FFFFFF;}
</style>
<title>logo</title>
<path class="st0" d="M34.6,29.8l2.9-23.2L33.4,0l-4.1,6.5l2.8,23.2C33,29.5,33.8,29.5,34.6,29.8L34.6,29.8z"/>
<path class="st0" d="M32.2,37.1l-2.9,23.2l4.1,6.5l4.1-6.5l-2.8-23.2C33.9,37.4,33,37.4,32.2,37.1z"/>
<path class="st0" d="M60.3,29.4l-23.2,2.8c0.3,0.8,0.3,1.7,0,2.5l23.2,2.9l6.5-4.1L60.3,29.4L60.3,29.4z"/>
<path class="st0" d="M29.8,32.2L6.5,29.4L0,33.4l6.5,4.1l23.2-2.8C29.5,33.9,29.5,33,29.8,32.2L29.8,32.2z"/>
<polygon class="st0" points="45.2,13.1 45.5,6.8 41.3,11.5 42.3,14.6 45.2,13.1 "/>
<polygon class="st0" points="52.2,24.5 55.3,25.5 60,21.3 53.7,21.7 52.2,24.5 "/>
<polygon class="st0" points="30.6,36.1 30.6,36.1 12.2,51.2 11.8,55.2 15.9,54.5 30.9,36.3 30.9,36.3 30.6,36.1 "/>
<polygon class="st0" points="36.2,30.7 36.3,30.8 54.7,15.7 55.1,11.7 51,12.4 36,30.5 36,30.5 36.2,30.7 "/>
<polygon class="st0" points="21.7,53.7 21.3,60 25.5,55.3 24.5,52.2 21.7,53.7 "/>
<polygon class="st0" points="14.6,42.3 11.5,41.3 6.8,45.5 13.1,45.2 14.6,42.3 "/>
<polygon class="st0" points="53.7,45.2 60,45.5 55.3,41.3 52.2,42.3 53.7,45.2 "/>
<polygon class="st0" points="42.3,52.2 41.3,55.3 45.5,60 45.2,53.7 42.3,52.2 "/>
<polygon class="st0" points="30.7,30.6 30.8,30.6 15.7,12.2 11.7,11.8 12.4,15.9 30.5,30.9 30.5,30.9 30.7,30.6 "/>
<polygon class="st0" points="36.1,36.2 36,36.3 51.2,54.7 55.1,55.1 54.5,51 36.3,36 36.3,36 36.1,36.2 "/>
<polygon class="st0" points="13.1,21.7 6.8,21.3 11.5,25.5 14.6,24.5 13.1,21.7 "/>
<polygon class="st0" points="24.5,14.6 25.5,11.5 21.3,6.8 21.7,13.1 24.5,14.6 "/>
<polygon class="st0" points="30.9,36.3 30.6,36.1 30.9,36.3 "/>
<polygon class="st0" points="36,30.5 36.2,30.7 36,30.5 "/>
<polygon class="st0" points="30.5,30.9 30.7,30.6 30.5,30.9 "/>
<polygon class="st0" points="36.3,36 36.1,36.2 36.3,36 "/>
<path class="st0" d="M145.3,56c0.6,0.9,1.6,1.3,2.6,1.3c1,0,2-0.2,3-0.5h0.1l-0.4-1.7h-0.2c-0.7,0.2-1.3,0.2-2,0.3
	c-0.6,0-1.1-0.2-1.5-0.6c-0.3-0.8-0.5-1.6-0.4-2.5v-6.7h3.6v-1.9h-3.6v-3.5l-2,0.2v0.1c0,1.5-0.1,2.7-0.1,3.2
	c-0.9,0-1.7,0.1-2.5,0.2h-0.1v1.7h2.7v7C144.5,53.7,144.7,54.9,145.3,56L145.3,56z"/>
<path class="st0" d="M114,47.5c1-1.3,2.5-2,4.1-2.1c0.2,0,0.7,0,0.9,0.1h0.2v-2.1h-0.1c-0.3,0-0.6,0-0.8,0c-1.7,0.1-3.3,0.9-4.3,2.3
	l-0.1-2.2h-0.1c-1.4,0-2.9,0.2-4.3,0.6h-0.1v1.5h2.7v9.8l-2.5,0.2V57h7.5v-1.5l-3-0.2V47.5L114,47.5z"/>
<path class="st0" d="M164.2,49.8c-1.5,0.4-2.6,1.8-2.6,3.3c-0.1,2.2,1.5,4,3.7,4.2c0.2,0,0.3,0,0.5,0c1.6,0,3.2-0.6,4.3-1.7l0.1,1.7
	h0.1c1.4,0,2.8-0.2,4.1-0.4h0.1v-1.5H172v-7c0.1-1.3-0.1-2.6-0.5-3.8c-0.5-0.9-1.7-1.4-3.3-1.4c-1.9,0.1-3.7,0.5-5.5,1.1h-0.1
	l0.4,1.7l0.2-0.1c1.4-0.5,2.9-0.8,4.5-0.9c1.3,0,1.7,0.2,2.1,0.7c0.4,0.8,0.5,1.6,0.4,2.4v0.8C168.1,49.1,166.1,49.3,164.2,49.8
	L164.2,49.8z M170,50.7v3.1c-1,1-2.4,1.6-3.8,1.6c-1.2,0.2-2.3-0.7-2.5-1.9c0-0.1,0-0.3,0-0.4c0-0.9,0.6-1.6,1.5-1.9
	C166.8,50.9,168.4,50.7,170,50.7L170,50.7z"/>
<path class="st0" d="M130.7,56.7L130.7,56.7c1.5,0.5,2.9,0.7,4.4,0.7c3,0,5-1.7,5-4.1c0-1.8-1-3-3.1-3.6l-2.1-0.7
	c-1.6-0.5-1.9-1.2-1.9-2.1s0.7-1.9,2.7-1.9c0.7,0,1.4,0.1,2.1,0.2l0.5,2.5h1.5v-0.2c0-1.2,0-2.5-0.2-3.7v-0.1h-0.1
	c-1.2-0.3-2.4-0.5-3.6-0.5c-3.4,0-5,2-5,3.9c-0.1,1.8,1.1,3.4,2.9,3.7l1.9,0.6c1.9,0.6,2.2,1.2,2.2,2.2c0,1.2-1.1,2-2.9,2
	c-0.9,0-1.7-0.2-2.6-0.4l-0.5-2.5h-1.6v0.2c0,1.2,0.1,2.5,0.2,3.7L130.7,56.7L130.7,56.7z"/>
<path class="st0" d="M153,55.5V57h7v-1.5l-2.5-0.2v-12h-0.2c-1.5,0-3,0.3-4.4,0.6h-0.1v1.5h2.7v9.8L153,55.5L153,55.5z"/>
<path class="st0" d="M224.3,45c0.7,0,1.4,0.1,2.1,0.2l0.4,2.6h1.7v-0.2c0-1.3,0-2.6-0.1-3.9v-0.1h-0.1c-1.2-0.4-2.5-0.5-3.7-0.5
	c-4.2,0-6.7,2.8-6.7,7.6c0,4.1,2.2,6.7,5.7,6.7c2,0,3.9-0.7,5.4-2l0.1-0.1l-0.8-1.5l-0.1,0.1c-1.2,1-2.7,1.5-4.2,1.5
	c-2.4,0-3.9-1.9-3.9-4.9C220,47,221.5,45.1,224.3,45L224.3,45z"/>
<path class="st0" d="M121.5,55.5V57h7v-1.5l-2.5-0.2v-12h-0.2c-1.5,0-3,0.3-4.4,0.6h-0.1v1.5h2.7v9.8L121.5,55.5L121.5,55.5z"/>
<path class="st0" d="M271.6,53.9c-1.3,1.1-2.9,1.7-4.6,1.7c-2.7,0-4.2-1.8-4.2-5v-0.2h9.5V50c0-0.4,0-0.7,0-1c0-3.9-1.8-5.9-5.2-5.9
	c-3,0-6.4,1.9-6.4,7.3c0,4.2,2.4,7,6.1,7c2.1,0,4.2-0.8,5.8-2.1l0.1-0.1l-0.8-1.5L271.6,53.9L271.6,53.9z M267,45
	c1.6-0.2,3,1,3.2,2.6c0,0.2,0,0.4,0,0.6c0,0.2,0,0.3,0,0.5h-7.4C263,46.5,264.8,44.9,267,45z"/>
<path class="st0" d="M306.7,43.6v1.6l2.5,0.2c-1.6,4.3-2.3,6.5-2.9,8.2l-0.4,1.2c-0.7-1.9-1.4-3.8-3.8-9.5l2.5-0.2v-1.6H298v1.5
	l1.9,0.2l4.7,11.6h0.3c-1.3,3-2.5,4.6-5.4,5h-0.2l0.5,1.9h0.1c3.6-0.5,5.5-2.6,7.5-8l3.8-10.5l1.9-0.2v-1.5L306.7,43.6z"/>
<path class="st0" d="M154.7,39.3c0,0.8,0.6,1.4,1.4,1.4s1.4-0.6,1.4-1.4c0-1-0.5-1.5-1.4-1.5c-0.8,0-1.4,0.6-1.4,1.4
	C154.7,39.2,154.7,39.3,154.7,39.3z"/>
<path class="st0" d="M232.6,46c1.4-0.5,2.9-0.8,4.5-0.9c1.3,0,1.7,0.2,2.1,0.7c0.4,0.8,0.5,1.6,0.4,2.4V49c-2,0-3.9,0.3-5.8,0.8
	c-1.5,0.4-2.6,1.8-2.6,3.3c-0.1,2.2,1.6,4.1,3.8,4.2c0.1,0,0.2,0,0.3,0c1.6,0,3.2-0.6,4.3-1.7l0.1,1.7h0.1c1.4,0,2.8-0.2,4.1-0.4
	h0.1v-1.5h-2.6v-7c0.1-1.3-0.1-2.6-0.5-3.8c-0.5-0.9-1.7-1.4-3.3-1.4c-1.9,0.1-3.7,0.5-5.5,1.1h-0.1l0.4,1.7L232.6,46L232.6,46z
	 M239.6,53.8c-1,1-2.4,1.6-3.8,1.6c-1.2,0.2-2.3-0.7-2.5-1.9c0-0.1,0-0.3,0-0.4c0-0.9,0.6-1.6,1.5-1.9c1.6-0.4,3.2-0.6,4.8-0.6V53.8
	L239.6,53.8z"/>
<path class="st0" d="M126,39.3c0-1-0.5-1.5-1.4-1.5c-0.8,0-1.4,0.6-1.4,1.4c0,0.1,0,0.1,0,0.2c0,0.8,0.6,1.4,1.4,1.4
	S126,40.1,126,39.3z"/>
<path class="st0" d="M256.5,36.5h-0.2c-1.5,0-3,0.3-4.5,0.7h-0.1v1.5h2.7v5.1c-0.9-0.3-1.9-0.5-2.8-0.5c-2,0-6.7,0.7-6.7,7.3
	c0,4.3,1.9,6.8,5.3,6.8c1.6,0,3.2-0.6,4.4-1.8l0.1,1.7h0.1c1.4,0,2.8-0.1,4.2-0.4h0.1v-1.5h-2.6L256.5,36.5L256.5,36.5z M254.5,53.8
	c-1,1-2.4,1.6-3.9,1.6c-2.4,0-3.5-1.7-3.5-5.1s1.6-5.1,4.7-5.1c0.9,0,1.9,0.2,2.7,0.5V53.8z"/>
<path class="st0" d="M237.4,13.4c0.8,0,1.5-0.7,1.5-1.5s-0.7-1.5-1.5-1.5c-0.8,0-1.4,0.6-1.4,1.4c0,0.1,0,0.1,0,0.2
	c-0.1,0.7,0.4,1.4,1.2,1.5C237.3,13.4,237.3,13.4,237.4,13.4L237.4,13.4z"/>
<path class="st0" d="M201.8,13.4c0.8,0,1.5-0.7,1.5-1.5s-0.7-1.5-1.5-1.5c-0.8,0-1.4,0.6-1.4,1.4c0,0.1,0,0.1,0,0.2
	c-0.1,0.7,0.4,1.4,1.2,1.5C201.7,13.4,201.7,13.4,201.8,13.4L201.8,13.4z"/>
<path class="st0" d="M94.6,27.9l-2.5,0.2v1.5h7v-1.5l-2.5-0.2V16h-0.2c-1.5,0-3,0.3-4.4,0.6h-0.1v1.5h2.7L94.6,27.9L94.6,27.9z"/>
<path class="st0" d="M134.2,13.4c0.7,0,1.4-0.5,1.4-1.2c0-0.1,0-0.1,0-0.2c0-1-0.5-1.5-1.4-1.5c-0.8,0-1.4,0.6-1.4,1.4
	c0,0.1,0,0.1,0,0.2c-0.1,0.7,0.4,1.4,1.2,1.5C134.1,13.4,134.2,13.4,134.2,13.4z"/>
<path class="st0" d="M95.2,13.4c0.7,0,1.4-0.5,1.4-1.2c0-0.1,0-0.1,0-0.2c0-1-0.5-1.5-1.4-1.5c-0.8,0-1.4,0.6-1.4,1.4
	c0,0.1,0,0.1,0,0.2c-0.1,0.7,0.4,1.4,1.2,1.5C95.1,13.4,95.1,13.4,95.2,13.4z"/>
<path class="st0" d="M133.9,27.9l-2.5,0.2v1.5h7v-1.5l-2.5-0.2V16h-0.2c-1.5,0-3,0.3-4.4,0.6h-0.1v1.5h2.7L133.9,27.9L133.9,27.9z"
	/>
<path class="st0" d="M190.9,25.1c-0.1,1.2,0.1,2.4,0.6,3.5c0.6,0.9,1.6,1.3,2.6,1.3c1,0,2-0.2,3-0.5h0.1l-0.4-1.7h-0.1
	c-0.7,0.2-1.3,0.2-2,0.3c-0.6,0-1.1-0.2-1.5-0.6c-0.3-0.8-0.5-1.6-0.4-2.5v-6.7h3.6v-1.9h-3.6v-3.5l-2,0.2v0.1
	c0,1.5-0.1,2.7-0.1,3.2c-0.9,0-1.7,0.1-2.5,0.2h-0.1v1.7h2.7L190.9,25.1L190.9,25.1z"/>
<path class="st0" d="M201.4,27.9l-2.5,0.2v1.5h7v-1.5l-2.5-0.2V16h-0.2c-1.5,0-3,0.3-4.4,0.6h-0.1v1.5h2.7L201.4,27.9L201.4,27.9z"
	/>
<path class="st0" d="M237,27.9l-2.5,0.2v1.5h7v-1.5l-2.5-0.2V16h-0.2c-1.5,0-3,0.3-4.4,0.6h-0.1v1.5h2.6V27.9L237,27.9z"/>
<path class="st0" d="M177.7,22.5c-1.5,0.4-2.6,1.8-2.6,3.3c-0.1,2.2,1.6,4.1,3.8,4.2c0.1,0,0.2,0,0.3,0c1.6,0,3.2-0.6,4.3-1.7
	l0.1,1.7h0.1c1.4,0,2.8-0.2,4.1-0.4h0.1V28h-2.6v-7c0-2.1-0.1-3.1-0.5-3.8c-0.5-0.9-1.7-1.4-3.3-1.4c-1.9,0.1-3.7,0.5-5.5,1.1h-0.1
	l0.4,1.7l0.2-0.1c1.4-0.5,2.9-0.8,4.5-0.9c1.3,0,1.7,0.2,2.1,0.7c0.4,0.8,0.5,1.6,0.4,2.4v0.8C181.6,21.6,179.6,21.9,177.7,22.5
	L177.7,22.5z M183.6,23.4v3.1c-1,1-2.4,1.6-3.8,1.6c-1.2,0.2-2.3-0.7-2.5-1.9c0-0.1,0-0.3,0-0.4c0-0.9,0.6-1.6,1.5-1.9
	C180.3,23.6,181.9,23.4,183.6,23.4L183.6,23.4z"/>
<path class="st0" d="M245.8,27.9l-2.5,0.2v1.5h6.9v-1.5l-2.5-0.2V9.2h-0.2c-1.5,0-3,0.2-4.4,0.6h-0.1v1.5h2.6L245.8,27.9L245.8,27.9
	z"/>
<path class="st0" d="M123.9,30.1c2,0,3.9-0.7,5.4-2l0.1-0.1l-0.8-1.5l-0.1,0.1c-1.2,1-2.7,1.5-4.2,1.5c-2.4,0-3.9-1.9-3.9-4.9
	c0-3.6,1.5-5.6,4.4-5.6c0.7,0,1.4,0.1,2.1,0.2l0.4,2.6h1.7v-0.2c0-1.3,0-2.6-0.1-3.9v-0.1h-0.1c-1.2-0.4-2.5-0.5-3.7-0.5
	c-4.2,0-6.7,2.8-6.7,7.6C118.2,27.6,120.4,30.2,123.9,30.1L123.9,30.1z"/>
<path class="st0" d="M254.5,27.9l-2.5,0.2v1.5h7v-1.5l-2.5-0.2V9.2h-0.2c-1.5,0-3,0.2-4.4,0.6h-0.1v1.5h2.6L254.5,27.9L254.5,27.9z"
	/>
<path class="st0" d="M261.2,29.3L261.2,29.3c1.5,0.5,2.9,0.7,4.4,0.7c3,0,5-1.7,5-4.1c0-1.8-1-3-3.1-3.6l-2.1-0.7
	c-1.6-0.5-1.9-1.2-1.9-2.1s0.7-1.9,2.7-1.9c0.7,0,1.4,0.1,2.1,0.2l0.5,2.5h1.5v-0.2c0-1.2,0-2.5-0.2-3.7v-0.1H270
	c-1.2-0.3-2.4-0.5-3.6-0.5c-3.4,0-5,2-5,3.9c-0.1,1.8,1.1,3.4,2.9,3.7l1.9,0.6c1.9,0.6,2.2,1.2,2.2,2.2c0,1.2-1.1,2-2.9,2
	c-0.9,0-1.7-0.2-2.6-0.4l-0.5-2.5H261v0.2c0,1.2,0.1,2.5,0.2,3.7L261.2,29.3L261.2,29.3z"/>
<path class="st0" d="M83,30c2.8,0,5.5-1.1,7.4-3.1l0.1-0.1l-1-1.5l-0.1,0.1c-1.6,1.6-3.8,2.4-6,2.4c-3.9,0-6.5-3.1-6.5-7.7
	c0-8,5.4-8.6,7.1-8.6c1.2,0,2.5,0.1,3.7,0.4l0.4,3.3h1.6v-0.2c0.1-1.6,0-3.2-0.1-4.8v-0.1h-0.1c-1.8-0.4-3.6-0.7-5.4-0.6
	c-6,0-9.5,3.9-9.5,10.7C74.7,26.2,78,30,83,30L83,30z"/>
<path class="st0" d="M83,57.5c2.8,0,5.5-1.1,7.4-3.1l0.1-0.1l-1-1.5L89.4,53c-1.6,1.6-3.8,2.4-6,2.4c-3.9,0-6.5-3.1-6.5-7.7
	c0-8,5.4-8.6,7.1-8.6c1.2,0,2.5,0.1,3.7,0.4l0.4,3.3h1.6v-0.2c0.1-1.6,0-3.2-0.1-4.8v-0.1h-0.1c-1.8-0.4-3.6-0.7-5.4-0.6
	c-6,0-9.5,3.9-9.5,10.7C74.7,53.7,78,57.6,83,57.5L83,57.5z"/>
<polygon class="st0" points="219.6,28.1 216.7,27.9 216.7,20.6 226.7,20.6 226.7,27.9 223.8,28.1 223.8,29.6 231.8,29.6 231.8,28.1 
	228.8,27.9 228.8,12 231.8,11.8 231.8,10.2 223.8,10.2 223.8,11.8 226.7,12 226.7,18.6 216.7,18.6 216.7,12 219.6,11.8 219.6,10.2 
	211.6,10.2 211.6,11.8 214.6,12 214.6,27.9 211.6,28.1 211.6,29.6 219.6,29.6 219.6,28.1 "/>
<path class="st0" d="M103.4,27.9l-2.5,0.2v1.5h7v-1.5l-2.5-0.2v-5.1c1.4-2.6,2.7-4.2,3.9-4.9c0.2-0.1,0.5-0.2,0.8-0.2h0.4
	c0.9,0,1,0.5,1.2,1.2c0.2,1,0.2,2,0.2,3.1v7.6h4.7v-1.5l-2.7-0.2v-6.3c0-1,0-1.7,0-2.3c0-0.3,0-0.6-0.1-0.8
	c-0.1-1.5-1.4-2.6-2.9-2.5c0,0-0.1,0-0.1,0c-1.7,0-3,0.9-4.3,2.8c-0.3,0.4-0.6,0.9-0.9,1.5l0.1-3.8v-0.5h-0.1
	c-1.5,0.1-3,0.3-4.5,0.7h-0.1v1.5h2.7v9.8L103.4,27.9z"/>
<path class="st0" d="M142.7,27.9l-2.5,0.2v1.5h7v-1.5l-2.5-0.2v-5.1c1.4-2.6,2.7-4.2,3.9-4.9c0.2-0.1,0.5-0.2,0.8-0.2h0.4
	c0.9,0,1,0.5,1.2,1.2c0.2,1,0.2,2,0.2,3.1v7.6h4.7v-1.5l-2.7-0.2v-6.3c0-1,0-1.7,0-2.3c0-0.3,0-0.6-0.1-0.8
	c-0.1-1.5-1.4-2.6-2.9-2.5c0,0-0.1,0-0.1,0c-1.7,0-3,0.9-4.3,2.8c-0.3,0.4-0.6,0.9-0.9,1.5l0.1-3.8v-0.5h-0.1
	c-1.5,0.1-3,0.3-4.5,0.7h-0.1v1.5h2.7v9.8L142.7,27.9z"/>
<path class="st0" d="M160.4,27.9l-2.5,0.2v1.5h7v-1.5l-2.5-0.2v-5.1c1.4-2.6,2.7-4.2,3.9-4.9c0.2-0.1,0.5-0.2,0.8-0.2h0.4
	c0.9,0,1,0.5,1.2,1.2c0.2,1,0.2,2,0.2,3.1v7.6h4.7v-1.5l-2.7-0.2v-6.3c0-1,0-1.7,0-2.3c0-0.3,0-0.6-0.1-0.8
	c-0.1-1.5-1.4-2.6-2.9-2.5c0,0-0.1,0-0.1,0c-1.7,0-3,0.9-4.3,2.8c-0.3,0.4-0.6,0.9-0.9,1.5l0.1-3.8v-0.5h-0.1
	c-1.5,0.1-3,0.3-4.5,0.7h-0.1v1.5h2.7v9.8L160.4,27.9z"/>
<path class="st0" d="M192.1,57v-1.5l-2.7-0.2v-6.3c0-1,0-1.7,0-2.3c0-0.3,0-0.6-0.1-0.8c-0.1-1.5-1.4-2.6-2.9-2.5c0,0-0.1,0-0.1,0
	c-1.7,0-3,0.9-4.3,2.8c-0.3,0.4-0.6,0.9-0.9,1.5l0.1-3.8v-0.5H181c-1.5,0.1-3,0.3-4.5,0.7h-0.1v1.5h2.6v9.8l-2.5,0.2V57h7v-1.5
	l-2.5-0.2v-5.1c1.4-2.6,2.7-4.2,3.9-4.9c0.2-0.1,0.5-0.2,0.8-0.2h0.4c0.9,0,1,0.5,1.2,1.2c0.2,1,0.2,2,0.2,3.1V57H192.1z"/>
<path class="st0" d="M94.5,55.3L92,55.5V57h7v-1.5l-2.5-0.2v-5.1c1.4-2.6,2.7-4.2,3.9-4.9c0.2-0.1,0.5-0.2,0.8-0.2h0.3
	c0.8,0,1,0.4,1.2,1.1v0.1c0.1,0.4,0.1,0.8,0.1,1.2c0,0.5,0,1.1,0,1.9V57h4.7v-1.5l-2.7-0.2V49c0-1,0-1.7,0-2.3c0-0.3,0-0.6-0.1-0.9
	c-0.1-0.5-0.3-1-0.6-1.5l-0.1-0.1c-0.1-0.1-0.2-0.2-0.4-0.3c-0.1-0.1-0.3-0.2-0.4-0.3c-0.1-0.1-0.3-0.1-0.4-0.2h-0.2l-0.4-0.1h-0.5
	h-0.1c-1.7,0-2.9,0.9-4.3,2.8l-0.1,0.1c-0.3,0.5-0.6,1-1,1.5v-4.2v-6.5h-0.2c-1.5,0-2.9,0.2-4.4,0.6h-0.1v1.5h2.6L94.5,55.3
	L94.5,55.3z"/>
<path class="st0" d="M295.4,49c0-1,0-1.7,0-2.3c0-0.3,0-0.6-0.1-0.8c-0.1-1.5-1.4-2.6-2.9-2.5c0,0-0.1,0-0.1,0c-1.7,0-3,0.9-4.3,2.8
	c-0.2,0.4-0.5,0.8-0.8,1.2c0-0.2,0-0.5,0-0.7s0-0.6-0.1-0.8c-0.1-1.5-1.4-2.6-2.9-2.5c0,0-0.1,0-0.1,0c-1.7,0-3,0.9-4.3,2.8
	c-0.2,0.3-0.5,0.7-0.8,1.2l0.1-3.5v-0.5H279c-1.5,0.1-3,0.3-4.5,0.7h-0.1v1.5h2.7v9.8l-2.5,0.2V57h7v-1.5l-2.5-0.2v-5.4l0,0
	c1.3-2.4,2.6-4,3.7-4.6c0.2-0.1,0.5-0.2,0.8-0.2h0.4c0.9,0,1,0.5,1.2,1.2c0.2,1,0.2,2,0.2,3.1V57h4.7v-1.5l-2.7-0.2v-5.4
	c1.3-2.4,2.5-3.9,3.7-4.6c0.2-0.1,0.5-0.2,0.8-0.2h0.4c0.9,0,1,0.5,1.2,1.2c0.2,1,0.2,2,0.2,3.1V57h4.7v-1.5l-2.7-0.2v-6.3L295.4,49
	z"/>
<path class="st0" d="M205.6,55.4l-3.2-0.2l1.9-4.7h7.5l1.8,4.7l-3.2,0.2V57h7.7v-1.6l-2.2-0.2l-6.7-17.9h-2.4L200,55.2l-2.2,0.2V57
	h7.7L205.6,55.4L205.6,55.4z M208,39.9c0.4,1.2,0.9,2.7,3.1,8.6h-6.2C207,42.8,207.6,41.2,208,39.9z"/>
</svg>
