<svg id="Layer_1" data-name="Layer 1" xmlns="http://www.w3.org/2000/svg" viewBox="0 0 583.01 97.72"><defs><style>.cls-1{fill:#fefefe;}.cls-2{fill:#231f20;}.cls-3{fill:#242021;}.cls-4{fill:#252122;}.cls-5{fill:#262223;}.cls-6{fill:#fdfdfd;}.cls-7{fill:#2c2829;}.cls-8{fill:#fcfcfc;}.cls-9{fill:#f3f3f3;}.cls-10{fill:#e3e2e3;}.cls-11{fill:#efefef;}.cls-12{fill:#e4e3e3;}.cls-13{fill:#fbfbfb;}.cls-14{fill:#e9e9e9;}.cls-15{fill:#dedddd;}.cls-16{fill:#e6e6e6;}</style></defs><title>Ethicon</title><path class="cls-1" d="M526.56,408.72H254.16a.46.46,0,0,1,.19-.52c2.07-1.75,2.82-4.17,3.4-6.67.09-.35.18-.7.28-1a3.23,3.23,0,0,0,.1-1.31c0-1,0-1.92,0-2.88.07-.67,0-1.36.08-2a5.17,5.17,0,0,1,2.13-2.44c.52-.38,1-.31,1,.51a3.11,3.11,0,0,0,0,1.71c.28,1.88,1.14,3.25,3.13,3.66a1.91,1.91,0,0,0,1.43,0,4.72,4.72,0,0,0,3.45-3.77c.24-.71-.08-1.57.6-2.15a2.16,2.16,0,0,1,1.94-.42c.49.43.35,1,.38,1.56a23.94,23.94,0,0,0,.16,4.15c.85.64,1.25.6,1.77-.35.79-1.43,1.47-2.93,2.31-4.33.06-.11.1-.22.16-.32.29-.47.51-1.21,1.13-1.07s.43.93.45,1.45c0,1.2,0,2.4,0,3.6,0,.58-.09,1.27.7,1.47a1.44,1.44,0,0,0,1.6-.79c1-1.45,2-2.91,2.89-4.4.32-.51.52-1.4,1.3-1.16s.43,1,.45,1.6c0,1.19,0,2.39,0,3.59,0,.43-.07.95.48,1.11a1,1,0,0,0,1.27-.65c.79-1.52,1.66-3,2.44-4.53.26-.5.43-1.18,1.23-1.1.43.41.32.95.34,1.45.06,1.34-.1,2.69.09,4,.5,1.15,1.46,1.27,2.38.25a25.66,25.66,0,0,0,2.41-3.42,7.71,7.71,0,0,1,.44-.72c.28-.35.5-1,1.09-.59a1.25,1.25,0,0,1,.53,1.47,8.05,8.05,0,0,1-.69,1.25c-.49,1-.32,2.29.34,2.6a2.08,2.08,0,0,0,2.5-1.12c.16-.28.29-.57.42-.86a1.5,1.5,0,0,0,0-1.31,3.1,3.1,0,0,1,2.13-3.6c.6-.17.94,0,.89.69a4,4,0,0,1-.14.83,3.94,3.94,0,0,0,0,2.1c.36,1.79,1.16,3.17,3.14,3.48a1.91,1.91,0,0,0,1.43,0c2-.5,2.95-2,3.45-3.82.24-.72,0-1.5.27-2.21.61-.68,1.22-1.61,2.23-1.25s.62,1.43.65,2.23c0,1.23,0,2.47,0,3.7,0,.43-.07.94.47,1.11a1.13,1.13,0,0,0,1.32-.57,16.61,16.61,0,0,0,1.06-2c.47-.93.9-1.87,1.41-2.77.24-.44.45-1,1.1-1,.46.33.37.84.39,1.3,0,1.23-.06,2.46.06,3.68a1.76,1.76,0,0,0,1,1.55,1.11,1.11,0,0,0,1.15,0c1.18-.68,1.65-1.87,2.37-3.07-.77,0-1,.47-1.37.7s-.69.53-.94-.1c-.25-1.78.06-3.58-.19-5.36-.69-1.45-1.71-1.6-2.68-.37a21.56,21.56,0,0,0-1.82,3.07c-.24.43-.33,1.11-1.09,1-.53-.69-.24-1.5-.31-2.26a7.2,7.2,0,0,0-.11-1.73,1.57,1.57,0,0,0-2.46-.63c-.54.33-1,.76-1.54,1.12a1.23,1.23,0,0,1-1.88-.21,2.34,2.34,0,0,0-3.24-.76.64.64,0,0,1-.47-.17,1.51,1.51,0,0,0-1.58-.17,11.82,11.82,0,0,0-4.11,2.15c-1.16.88-1.41.8-2.12-.42a20,20,0,0,0-1-1.75c-.49.09-.52.51-.67.81a47.94,47.94,0,0,1-2.8,4.74c-.24.35-.4.94-1.06.67-.48-.85-.19-1.78-.26-2.67a17,17,0,0,0-.1-2.47c-.19-.6-.48-1.11-1.18-1.17a1.61,1.61,0,0,0-1.55.91c-.62,1-1.23,2-1.82,3.07-.23.4-.35,1-1,.94-.53-.69-.24-1.5-.31-2.26a7.2,7.2,0,0,0-.11-1.73c-.76-1.24-1.78-1.32-2.58-.13-1,1.51-1.9,3.11-2.95,4.6-.25.35-.41.93-1.06.68-.46-.78-.19-1.64-.26-2.46a12.42,12.42,0,0,0-.14-2.72c-.77-1.11-1.51-1.19-2.37-.18a28.48,28.48,0,0,0-2.28,3.64c-.2.33-.35.86-.8.76s-.36-.65-.39-1a7,7,0,0,1,1.25-5.07,8.34,8.34,0,0,0,1.62-5.52,1.75,1.75,0,0,0-1-1.76,1.79,1.79,0,0,0-2.05.56,6,6,0,0,0-1.56,3.55c-.08.43,0,.87-.16,1.3-.28,1.25.06,2.53-.22,3.77a2.92,2.92,0,0,1-2.19,1.29c-.65.16-1-.29-1.36-.76a2.8,2.8,0,0,0-1.42-1.23,1.3,1.3,0,0,0-1.54.28,1.38,1.38,0,0,0-.06,1.68,2.19,2.19,0,0,0,1.68,1c1.23.21,1.47.62,1.19,1.83a2.87,2.87,0,0,1-2.71,2.43c-1.39-.05-2.3-1.13-2.53-3V392c-.14-1.22.62-2.16,1.13-3.26a2.73,2.73,0,0,0-1.84.56,20.68,20.68,0,0,0-3.14,2.37c-.35.28-.73.75-1.25.51s-.36-.83-.42-1.29a3.64,3.64,0,0,0-.16-1.27,4.87,4.87,0,0,1-.1-1.2c0-1.39,0-2.78,0-4.16a14.48,14.48,0,0,1,.29-3.08c.23-1.13-.07-1.39-1.19-1a8.85,8.85,0,0,0-4.59,3.82,9.17,9.17,0,0,0-1.41,3.9,4.83,4.83,0,0,0,0,2.36c0,1.35.75,2.54.77,3.88-.42.36-1,.23-1.47.42a2.1,2.1,0,0,1-.79,0c-.86-.22-.64-1-.84-1.58a9.67,9.67,0,0,0-.41-1.49c-.23-.5-.58-.79-1.14-.57s-.34.61-.23,1c.3,1.05,0,1.29-1.05.95a5.33,5.33,0,0,0-2.93-.31c-.53.14-1,.33-1.11.94a1.4,1.4,0,0,0,.66,1.54,5,5,0,0,0,2.13.73,5.59,5.59,0,0,0,2.34,0,.85.85,0,0,1,.52.12c.4.39.13,1,.45,1.41.65-.13.56-.7.63-1.12a1.34,1.34,0,0,1,1.06-1.14,3.82,3.82,0,0,1,4.34,1.29,1.67,1.67,0,0,1,.26,2.15,15.42,15.42,0,0,0-2,5.83,3.36,3.36,0,0,0,0,1.91c0,.9.62,1.6.76,2.45H169c-.08-.33.14-.53.35-.71,2.21-1.9,2.88-4.52,3.39-7.21a30.63,30.63,0,0,0,.25-5.5,6.19,6.19,0,0,1,.08-1.14,4.89,4.89,0,0,1,1.77-2.05,1,1,0,0,1,1-.25c.39.19.33.59.33.95a5,5,0,0,0,1.09,3.69,3.45,3.45,0,0,0,2,1.2,1.87,1.87,0,0,0,1.52-.05,4.69,4.69,0,0,0,3.42-4.56,1.93,1.93,0,0,1,2.12-1.88c.76,0,.94.48,1,1.1.05,1.27,0,2.55,0,3.83,0,.49-.16,1.15.51,1.33s1-.38,1.26-.88c.82-1.6,1.67-3.19,2.6-4.72.25-.4.48-1.16,1.24-.53a19.21,19.21,0,0,1,.15,3.79,6.15,6.15,0,0,0,.13,1.77c.68.84,1.29.89,2,.07a19.51,19.51,0,0,0,1.89-2.76c.52-.85,1.06-1.69,1.59-2.53.19-.29.41-.66.84-.54s.43.54.44.89c.05,1.39,0,2.79,0,4.18,0,.5-.13,1.12.55,1.3s1.12-.26,1.43-.83c.82-1.54,1.5-3.17,2.44-4.66.24-.37.38-.92,1-.83.45.46.3,1,.33,1.58a30.34,30.34,0,0,0,.09,3.44c.14.52.11,1.15.8,1.34a1.62,1.62,0,0,0,1.67-.68,35.54,35.54,0,0,0,2.77-4c.25-.36.43-1,1-.69a1.16,1.16,0,0,1,.54,1.63,10.86,10.86,0,0,0-.78,1.61c-.21.75-.34,1.55.48,2a1.67,1.67,0,0,0,2.06-.42,3.38,3.38,0,0,0,.85-1.29,2.22,2.22,0,0,0,0-1.68,3,3,0,0,1,2.29-3.4c.5-.09.76.11.77.61a6.17,6.17,0,0,1-.18,1.28,2,2,0,0,0,0,1.35c.27,1.91,1,3.44,3.13,3.85a2.12,2.12,0,0,0,1.45,0,4.71,4.71,0,0,0,3.43-3.63c.25-.79-.06-1.65.28-2.43a.46.46,0,0,1,.13-.2c.64-.59,1.31-1.43,2.24-1s.48,1.34.5,2.06c.05,1.28,0,2.56,0,3.83,0,.48,0,1,.62,1.17s1-.24,1.25-.71c.84-1.5,1.49-3.09,2.41-4.55.13-.2.22-.43.37-.62s.45-.6.88-.45.39.48.42.8c.08,1.27,0,2.55,0,3.83a2,2,0,0,0,.77,1.78,1,1,0,0,0,1.2.12,5.77,5.77,0,0,0,2.38-3.09c-.71,0-.95.43-1.31.69-.51.37-.86.37-1-.33-.16-1.78.13-3.58-.17-5.35-.74-1.17-1.71-1.28-2.56-.21a17.37,17.37,0,0,0-1.83,3.08,6.78,6.78,0,0,1-.45.84c-.14.23-.27.57-.58.52s-.38-.48-.4-.79c-.06-.75,0-1.51,0-2.27s0-1.59-.82-2a2,2,0,0,0-2.21.49c-.28.22-.57.43-.86.64-1,.71-1.33.68-2.25-.23-1.09-1.09-1.86-1.19-2.88-.37a1.32,1.32,0,0,0,0,1.38,2.21,2.21,0,0,0,2,1.16c1,.09,1.3.49,1.13,1.52a3,3,0,0,1-2.76,2.71,2.89,2.89,0,0,1-2.53-2.64,5.25,5.25,0,0,1,.77-4c.13-.18.36-.39.18-.63s-.44-.14-.67-.1a11,11,0,0,0-4.36,2.18c-1.33,1-1.53.92-2.31-.55a6.35,6.35,0,0,0-.92-1.6c-.45.2-.55.66-.73,1a41,41,0,0,1-2.51,4.36c-.27.42-.47,1.09-1.23.88-.47-.63-.24-1.36-.29-2.05a17.4,17.4,0,0,0-.15-3.38c-.79-1.18-1.73-1.24-2.53-.08a40.81,40.81,0,0,0-2.16,3.6c-.17.3-.32.77-.72.69s-.39-.62-.42-1c0-.83.05-1.68-.06-2.51-.09-.68-.19-1.4-1-1.55a1.51,1.51,0,0,0-1.66.91c-.82,1.42-1.77,2.76-2.61,4.16a5,5,0,0,1-.62.88c-.16.18-.32.41-.59.32s-.31-.36-.33-.59c-.1-1.12,0-2.24-.05-3.35,0-.86.16-1.92-.92-2.25s-1.62.58-2.12,1.37c-.63,1-1.23,2.05-1.81,3.1-.15.27-.35.6-.72.53s-.39-.48-.4-.79c-.06-1.75-.24-3.49,1.1-5,1.13-1.25,1.38-2.94,1.83-4.51a2.65,2.65,0,0,0,0-1.9c-.48-1.71-2.3-1.86-3.4-.28a7.44,7.44,0,0,0-1.31,4.17c0,1.11,0,2.23,0,3.35s-.6,1.47-2,1.9a1.51,1.51,0,0,1-1.91-.73c-1-1.4-2-1.59-3.07-.73a1.25,1.25,0,0,0,0,1.4,2.32,2.32,0,0,0,1.88,1.12c1.16.19,1.41.57,1.16,1.71a4.15,4.15,0,0,1-.22.68,2.62,2.62,0,0,1-2.67,1.81,2.78,2.78,0,0,1-2.27-2.18,5.5,5.5,0,0,1,.57-4.28c.14-.22.39-.42.23-.83a6,6,0,0,0-2.64,1.21c-1.09.66-1.76,1.87-3,2.29-.48-.07-.54-.48-.69-.83a3.67,3.67,0,0,1-.12-.94,3.92,3.92,0,0,0-.16-1.32,6,6,0,0,1-.1-1.4c0-1,0-2.05,0-3.07a18.54,18.54,0,0,1,.35-3.57c.15-1-.12-1.22-1.13-1a3.18,3.18,0,0,0-.57.19,10,10,0,0,0-5.56,9.32A9.84,9.84,0,0,0,168,396a2.19,2.19,0,0,1,.32,3,13.21,13.21,0,0,0-1.75,7.13c0,1,.65,1.69.68,2.6q-48.54,0-97.08,0c-.9,0-1.1-.2-1.1-1.1q0-47.76,0-95.52c0-.9.2-1.1,1.1-1.1q290.4,0,580.8,0c.9,0,1.1.2,1.1,1.1q0,47.76,0,95.52c0,.9-.2,1.1-1.1,1.1q-61.86,0-123.72,0a2.35,2.35,0,0,1-.16-1.17q0-46.73,0-93.44a6.27,6.27,0,0,0-.09-1.76,11.25,11.25,0,0,0-.08,2.06q0,45.93,0,91.88A3.55,3.55,0,0,1,526.56,408.72Z" transform="translate(-69.1 -311.02)"/><path class="cls-2" d="M258.29,400.55a28.77,28.77,0,0,1-1.44,4.71,9,9,0,0,1-2.69,3.46h-1.68a3.26,3.26,0,0,1-1-2.41,5.77,5.77,0,0,1,0-1.9,12.8,12.8,0,0,1,1.92-5.76,1.59,1.59,0,0,0-.23-2.21,2.65,2.65,0,0,0-2.43-1.21c-2,.1-2,0-2.54,1.8-.3,1-.44,1.1-1,.64-.22-.51.1-1.09-.2-1.59a.44.44,0,0,0-.49,0,9.48,9.48,0,0,1-2.38,0,5.74,5.74,0,0,1-2.1-.59,1.69,1.69,0,0,1-1-1.79,1.4,1.4,0,0,1,1.31-1.35,5.8,5.8,0,0,1,3.23.35c.33.11.67.47.93.07s-.1-.61-.32-.81c-.48-.44-.66-.86.06-1.19s1.28-.66,1.68.24a13.55,13.55,0,0,1,.56,1.91,3.62,3.62,0,0,1,0,1c0,.53.29.58.7.42l.64-.08c.46-.22,1,.13,1.44-.19a9.6,9.6,0,0,1-1-3.85,10,10,0,0,1,0-2.38c.67-3.76,2.53-6.6,6.22-8,1.52-.56,1.77-.3,1.54,1.23a9.21,9.21,0,0,0-.29,2.82,20.18,20.18,0,0,0,0,4.66l.06,1.19c.17.39-.07.84.18,1.22v1.33c2.35-1.45,3.9-3.9,7-4-.51,1.28-1.69,2.17-1.44,3.58a1.51,1.51,0,0,0,0,1.25c.08,1.57,1.1,2.82,2.31,2.83s2.54-1.65,2.5-3.09c0-1-.81-.71-1.32-.78a2.05,2.05,0,0,1-1.95-2.49c.24-1.25,1.46-1.59,2.77-.78a3.05,3.05,0,0,1,.55.46c.43.44.52,1.37,1.13,1.41a4.06,4.06,0,0,0,2.42-1c.33-1.33-.05-2.69.19-4a10.17,10.17,0,0,1,.9-3.79,4.31,4.31,0,0,1,1.56-1.71c1.25-.88,2.77.08,2.87,1.74a10.05,10.05,0,0,1-1.56,5.85c-1.43,2.36-1.62,3.13-1.25,6.09.9-1.52,1.72-3,2.62-4.41s2.12-1.56,3.12-.17c.15,1.51,0,3,.08,4.54,0,.32-.32.82.32,1q1.69-2.71,3.41-5.41c.9-1.41,2.17-1.45,3.14-.1.16,1.2,0,2.41.09,3.61,0,.25-.23.66.31.69.89-1.52,1.73-3.07,2.67-4.56.75-1.17,2.21-.9,2.94.5.15,1.54,0,3.09.08,4.64,0,.28-.29.75.29.86a28.54,28.54,0,0,0,3.66-6.45.62.62,0,0,1,.5-.43c.27,0,.36.22.46.44.31.67.68,1.33,1,2s.66,1,1.4.32a10.08,10.08,0,0,1,4.84-2.51c.44-.08,1.12-.49,1.42.33a7.26,7.26,0,0,1-.78,1.61,4.35,4.35,0,0,0-.17,3.71,2.08,2.08,0,0,0,2.1,1.46,2.06,2.06,0,0,0,1.78-1.71c.23-.8.06-1.33-.84-1.48a2.49,2.49,0,0,1-2.16-1.65,1.35,1.35,0,0,1,.29-1.64,2.1,2.1,0,0,1,3.31.43c.68,1.07,1.26.88,2,.19a8.16,8.16,0,0,1,1.27-1,2,2,0,0,1,2.86.64c.12,1.19,0,2.39.07,3.59,0,.25-.24.68.31.71.81-1.39,1.48-2.87,2.42-4.2,1.09-1.52,2.32-1.5,3.2.14.13,1.59,0,3.18.06,4.77a2.1,2.1,0,0,0,.12,1.16c.68-.19.91-.91,1.47-1.23a.73.73,0,0,1,.79-.09c.28.2.11.47,0,.73a7,7,0,0,1-2.46,3.08,2.1,2.1,0,0,1-1.19,0c-.85-.14-1.11-.78-1.27-1.5-.13-1.46,0-2.93-.07-4.4,0-.29.26-.73-.3-.86a40.28,40.28,0,0,0-2.94,5.5,2.13,2.13,0,0,1-1,1.12c-1,.43-1.6.07-1.6-1v-5.26c0-.4.05-.84-.38-1s-.65.12-.93.36-.75.56-1.13.85c-.31.76,0,1.58-.2,2.36a4.8,4.8,0,0,1-3.65,3.89,3.57,3.57,0,0,1-1.42,0c-2.19-.36-2.93-1.47-3.42-3.67a7.67,7.67,0,0,1,0-2.14c0-.49.5-1.2.2-1.35-.63-.33-1.08.4-1.58.73-1,.68-1.59,1.53-.91,2.78a2.36,2.36,0,0,1,0,1.18,4.27,4.27,0,0,1-1.12,1.9,2,2,0,0,1-2.5.26,2.25,2.25,0,0,1-.26-2.72,3.91,3.91,0,0,1,.72-1.2c.69-.7-.09-1.09-.33-1.48s-.4.12-.53.32c-.94,1.4-1.85,2.83-2.81,4.22a2.25,2.25,0,0,1-2.07,1.12c-.69,0-1-.29-1.05-1-.13-1.59,0-3.18-.07-4.76,0-.33.32-.83-.31-1a57,57,0,0,0-2.92,5.24c-.15.27-.28.55-.43.83a1.38,1.38,0,0,1-1.64.62c-.67-.11-.53-.74-.55-1.16,0-1.59,0-3.19,0-4.79,0-.25.18-.63-.2-.71s-.4.27-.55.5q-1.67,2.65-3.38,5.28a1.64,1.64,0,0,1-1.55.92c-.82-.05-1.25-.3-1.23-1.2,0-1.89,0-3.79,0-6a18.05,18.05,0,0,0-2.19,3.5c-.56.9-.95,1.9-1.46,2.83-.59,1.08-1.17,1.15-2.18.36-.22-1.69,0-3.38-.11-5.07,0-.31.33-.83-.34-.92L270,392c-.74.58-.14,1.43-.42,2.1a4.85,4.85,0,0,1-3.67,3.9,3.4,3.4,0,0,1-1.42,0c-2-.26-3.1-1.66-3.43-3.91a5.14,5.14,0,0,1,0-1.66c0-.19.11-.44,0-.56-.21-.31-.45,0-.56.11-.71.67-1.38,1.38-2.07,2.07a4.84,4.84,0,0,0,0,2.24c0,1,0,2,0,3C258.23,399.7,258.46,400.16,258.29,400.55Z" transform="translate(-69.1 -311.02)"/><path class="cls-2" d="M172.79,390.49l.06.95c.25.18-.23.77.4.72,1.22-.88,2.16-2.11,3.49-2.85a4.24,4.24,0,0,1,3.19-.87,5.67,5.67,0,0,0-1.65,4.61,3.67,3.67,0,0,0,.46,1.56,2.21,2.21,0,0,0,2.61,1.12,3.44,3.44,0,0,0,1.82-3.11c-.09-.67-.57-.45-.9-.47-1-.06-1.94-.31-2.3-1.43a2.77,2.77,0,0,1,0-1.43c.17-.93,1-.89,1.57-.86a2.7,2.7,0,0,1,2,1.17c.3.41.24,1.23,1,1.13a4.58,4.58,0,0,0,2.34-1.05c.18-.15.1-.66.11-1,0-2.26-.23-4.57.93-6.68a6.06,6.06,0,0,1,.72-1.2c1.36-1.5,2.84-1.17,3.69.82a6.05,6.05,0,0,1,0,1.9,11.82,11.82,0,0,1-2.69,5.83c-.32.36-.23.74-.24,1.12,0,1.08,0,2.16,0,3.24.41.08.42-.24.55-.47l2.23-3.83a1.81,1.81,0,0,1,2.06-1c.93.23,1.1,1.05,1.11,1.87,0,1.58,0,3.15,0,5.09,1.35-2.14,2.56-3.93,3.63-5.8a2,2,0,0,1,2.19-1.16c1.08.2,1.05,1.2,1.11,2,.1,1.13,0,2.27,0,3.67,1-1.73,1.87-3.24,2.81-4.69s2-1.4,3,0c.17,1.58,0,3.18.09,4.77,0,.32-.32.82.31,1a38.21,38.21,0,0,0,3.77-6.38c.1-.21.05-.63.49-.55.29,0,.27.32.36.54.36.78.81,1.53,1.16,2.31s.5.57,1,.15c1.83-1.55,3.81-2.8,6.4-2.77,0,.53-.31.81-.56,1.15a5,5,0,0,0-.55,4.9,2.23,2.23,0,0,0,2.73,1.38c1.18-.5,2.19-2.36,1.82-3.34-.21-.55-.69-.3-1-.29a2,2,0,0,1-2.16-1.42,3.1,3.1,0,0,1,0-1.42c.6-1.07,1.93-1.14,3.06-.22.46.36.49,1.24,1.23,1.15s1.26-.71,1.83-1.16a3.18,3.18,0,0,1,1.1-.62c1.46-.42,2.31.17,2.38,1.7,0,1.2,0,2.39,0,3.94.87-1.56,1.57-2.86,2.32-4.12.33-.55.54-1.2,1.26-1.47a1.63,1.63,0,0,1,2.27.8c.14,1.58,0,3.17.07,4.75a3,3,0,0,0,.1,1.29c.71.1.85-.59,1.22-.92s.75-.49,1-.27.11.68-.11,1c-.67,1.05-1.17,2.23-2.39,2.8a2.19,2.19,0,0,1-1.19,0,1.56,1.56,0,0,1-1.21-1.73c0-1.48,0-3,0-4.43,0-.22.1-.53-.21-.6s-.4.21-.5.41l-2.66,5.11a5.84,5.84,0,0,1-.48.8,1.44,1.44,0,0,1-1.65.34c-.44-.12-.44-.64-.44-1.08,0-1.84,0-3.67,0-5.51,0-.95-.34-1-1-.57-.48.33-.94.7-1.41,1.06-.31.83,0,1.71-.18,2.55a4.82,4.82,0,0,1-3.67,3.67,3.77,3.77,0,0,1-1.42,0c-2-.13-3.21-1.93-3.43-4.15a2.76,2.76,0,0,1,0-1.18c0-.12.09-.25.06-.35-.16-.53.6-1.24.09-1.49s-1.09.48-1.59.83c-.82.6-1.55,1.29-.84,2.45a5.14,5.14,0,0,1,0,1.66,3.2,3.2,0,0,1-1.4,1.87,1.82,1.82,0,0,1-2.08.06c-.91-.66-.69-1.56-.49-2.43a3.87,3.87,0,0,1,.47-.93c.65-1.09.66-1.08-.17-2.19-1,1.47-1.93,2.93-2.9,4.38-.2.3-.47.54-.69.82a1.65,1.65,0,0,1-1.83.55c-.69-.17-.8-.8-.87-1.41-.12-1.45,0-2.91-.07-4.37,0-.3.24-.72-.27-.88a49.9,49.9,0,0,0-2.94,5.37c-.15.28-.28.57-.45.84-.43.67-1.12.54-1.74.45s-.4-.71-.41-1.09c0-1.52,0-3,0-4.56,0-.33.21-.84-.17-1s-.56.48-.75.75c-1,1.57-2,3.2-3,4.79a1.91,1.91,0,0,1-1.93,1.13.89.89,0,0,1-.9-.75c-.15-1.58,0-3.17-.07-4.75,0-.39.12-.79-.12-1.16s-.45.09-.58.32c-1,1.74-2,3.45-2.85,5.26-.23.48-.44,1-1.14,1.07s-1.22-.1-1.2-1c0-1.55,0-3.1,0-4.66,0-.88-.24-1-1-.7s-1.51.38-1.51,1.72a4.55,4.55,0,0,1-3.71,4.7,3.4,3.4,0,0,1-1.42,0c-1.43.09-3.18-1.84-3.28-3.13-.06-.77-.6-1.56-.1-2.37a.4.4,0,0,0-.1-.54c-.2-.12-.37,0-.53.16a9.16,9.16,0,0,0-2,2,1.45,1.45,0,0,0,0,1.24,25.41,25.41,0,0,1-.84,8.09,9.74,9.74,0,0,1-3.47,5.32h-1.68c-1.65-2-1.11-4.31-.55-6.45a13.19,13.19,0,0,1,1.87-4.38c.55-.78-.46-1.37-.89-1.82a9.64,9.64,0,0,1-2.61-5.92c-.4-4.45,1.55-7.59,5.14-9.92l.11,0c.8-.33,1.73-.84,2.46-.43s0,1.29,0,1.95a15.54,15.54,0,0,0-.24,2.72,11,11,0,0,0,0,3.43l.07,1.43C172.78,389.67,172.54,390.12,172.79,390.49Z" transform="translate(-69.1 -311.02)"/><path class="cls-2" d="M526.56,408.72v-96c0-.32,0-.64,0-1s.07-.52.46-.52.52.09.5.47,0,.56,0,.84v94.65a2.26,2.26,0,0,1-.24,1.49Z" transform="translate(-69.1 -311.02)"/><path class="cls-2" d="M226.64,339.62a20.82,20.82,0,0,0,2.37-.17c.76-.08,1-.31,1-1.07-.07-3.52-.08-7-.11-10.55-.18-.38.08-.83-.18-1.21-.29-1.26-.18-2.69-1.41-3.59-.43-.87.17-.83.72-.83,2.92,0,5.83,0,8.75,0a48.79,48.79,0,0,1,5.13.08c-.17,1.07-1,1.89-1,3-.06.73-.15,1.47-.17,2.21a1.88,1.88,0,0,0-.1.94v29a1.67,1.67,0,0,0,.11.94,3.73,3.73,0,0,0,1.1,3.14c.13.11.08.44.11.66a.88.88,0,0,1-.57.13H229c-.56,0-1.13,0-.76-.84,1.71-1.1,1.61-2.94,1.67-4.57.13-3.78,0-7.57,0-11.36,0-1.52,0-1.52-1.69-1.6-.38-.25-.83,0-1.22-.18l-1.13-.07c-.4-.21-.86,0-1.27-.17l-1.37-.07c-.48-.23-1,0-1.51-.17l-1.67-.06c-.87-.3-1.78,0-2.65-.18h-3.14c-.71.18-1.47-.11-2.18.17l-1.42.06c-.47.19-1-.09-1.46.18l-1.18.07c-.38.16-.83-.08-1.21.17-1-.15-2,.32-3.05.24-.55,0-.53.29-.53.68q0,6.39.05,12.78c.18.38-.07.84.18,1.22a3.26,3.26,0,0,0,1.09,2.9c.22.17.09.44.12.66a.88.88,0,0,1-.57.13h-13.3c-.56,0-1.13,0-.76-.84,1.52-1.14,1.65-2.88,1.66-4.5q.1-14,0-28a12.05,12.05,0,0,0-.92-5,1.53,1.53,0,0,0-.69-.9c-.43-.87.17-.83.72-.83,2.92,0,5.83,0,8.75,0a48.79,48.79,0,0,1,5.13.08c-.2,1-1,1.74-1.06,2.83,0,.65-.15,1.31-.15,2-.26.46,0,1-.17,1.46,0,3.41,0,6.81-.07,10.22,0,.83.52.58,1,.6.37.26.82,0,1.2.18a10.12,10.12,0,0,0,3.1.3c.38.24.83,0,1.22.17l1.43.07c.63.28,1.31,0,1.93.18a46.7,46.7,0,0,0,6.26,0c.63-.2,1.31.1,1.94-.18l1.42-.06c.47-.19,1,.07,1.48-.17l1.16-.07C225.78,339.63,226.24,339.83,226.64,339.62Z" transform="translate(-69.1 -311.02)"/><path class="cls-2" d="M406.07,362.39l-1.2.06c-.65.19-1.34-.08-2,.17h-4.4c-.65-.24-1.34,0-2-.16a31.46,31.46,0,0,1-8.21-1.34c-4.68-1.41-9.16-3.34-12.51-7.11a16.38,16.38,0,0,1-4.3-9.38c-.2-.55.1-1.15-.18-1.7v-1.39c.28-.54,0-1.15.18-1.69.77-5.93,4-10.15,9-13.21,4.7-2.86,9.92-3.92,15.27-4.61.54-.2,1.15.1,1.68-.18h6.44c.55.27,1.15,0,1.7.18,4.75.64,9.41,1.57,13.66,3.91,5.07,2.79,8.77,6.71,10,12.57a17.57,17.57,0,0,1-6.17,17.42,30.78,30.78,0,0,1-14.4,6c-.46.08-.92.19-1.38.29S406.44,362.13,406.07,362.39Z" transform="translate(-69.1 -311.02)"/><path class="cls-2" d="M495.85,362.21c-2.4-1.58-4.8-3.13-7.18-4.72L462.3,339.8c-1.08-.73-2.18-1.44-3.28-2.13-.24-.15-.39-.65-.75-.38-.15.11-.11.51-.11.78,0,2.36,0,4.72,0,7.07l.06,12c.14.4-.06.85.16,1.24a3.63,3.63,0,0,0,1.1,3.11c.13.11.08.44.12.67a41.22,41.22,0,0,1-7.2,0c-.15-.95.82-1.51.82-2.49,0-.54.15-1.15.16-1.74.23-2.3,0-4.62.1-6.93,0-1.39-.08-2.79.07-4.18,0-3.9.05-7.79.07-11.69.23-2.07,0-4.14.1-6.21,0-1.88-.09-3.75.07-5.62l0-1a12.94,12.94,0,0,1,3.11,0c2.68,2.09,5.53,3.92,8.32,5.86Q479.1,337.78,493,347.4c.31.22.77.61,1,.52.47-.19.2-.77.2-1.17,0-5.83,0-11.67,0-17.5a16.35,16.35,0,0,0-.93-5.22c-.16-.44-.58-.64-.82-1-.11-.53,0-.85.64-.83,2.53.06,5.07-.11,7.6.09.24.69-.54.75-.73,1.19a10,10,0,0,0-1.2,4.09c-.25.38,0,.84-.18,1.22q0,6.72,0,13.44,0,10,0,19.92A7.5,7.5,0,0,1,495.85,362.21Z" transform="translate(-69.1 -311.02)"/><path class="cls-2" d="M105.15,358.81c2-.07,3.85-.47,5.16-2.16.2-.26.49-.19.76-.23a9.52,9.52,0,0,1,.15,3.28,12.35,12.35,0,0,1-.15,3.64c-.85.14-1-1-1.78-1a3.59,3.59,0,0,0-1.42-.1q-18.45,0-36.89,0c-.49,0-1.49.44-1.17-.82,1.17-.1,2-.56,2-1.89.27-.63,0-1.3.17-1.94l.07-2.16c.29-.78,0-1.61.17-2.4l.07-2.62c.28-1,0-2.1.17-3.14.15-3.69.16-7.37,0-11.06-.18-1,.11-2-.17-2.9L72.18,331c-.18-.72.1-1.48-.16-2.2L72,326.87c-.2-.64.09-1.32-.17-2,0-1.44-.43-1.81-1.9-1.88-.27-.45-.23-.76.36-.82.2,0,.4,0,.6,0H109.2a2.41,2.41,0,0,1,.71.06,3,3,0,0,1,1.26.55c.15,2.21,0,4.42.07,6.63,0,.64-.32.72-.82.67A5.91,5.91,0,0,0,105,325.9a1.53,1.53,0,0,0-.82-.1H86.24a1.37,1.37,0,0,0-.82.11c-1.34.32-1.58,1.5-1.64,2.54-.12,2.54-.11,5.09,0,7.63,0,1.85,1.39,2.87,3.76,3.07,2.93.22,5.86.06,8.8.08a16.22,16.22,0,0,0,3.55-.1,7.43,7.43,0,0,0,2.08-.44c.7-.15,1.09-.08,1,.84-.08,1.47,0,2.94,0,4.42-.41.16-.76.15-.94-.34a3.83,3.83,0,0,0-3.72-2.08c-3.63,0-7.28-.2-10.9.05-3,.21-3.72,1.05-3.69,3.68,0,3.59,0,7.19,0,10.79a2.55,2.55,0,0,0,2.6,2.77,1,1,0,0,0,.34.1h18.15A.8.8,0,0,0,105.15,358.81Z" transform="translate(-69.1 -311.02)"/><path class="cls-2" d="M354.71,330.5a.19.19,0,0,0,0,.18c-.36.31-.78.1-1.17.15a9,9,0,0,0-4.63-3.39,22.79,22.79,0,0,0-5.22-1.29c-.37-.26-.82,0-1.2-.18l-1.2-.06a32.07,32.07,0,0,0-6,0A14.94,14.94,0,0,0,321.11,338a10.62,10.62,0,0,0-.25,2.7,8.58,8.58,0,0,0,0,3,16.54,16.54,0,0,0,12.5,15.57,7.39,7.39,0,0,0,2.34.26,10.23,10.23,0,0,0,3.22,0A22.31,22.31,0,0,0,351,355.63a2.93,2.93,0,0,0,1.31-1.61c.29-.36-.09-.87.27-1.21.51,0,.65.23.65.73,0,2.76,0,5.52,0,8.28,0,1.42-1.2.86-1.66.75a17,17,0,0,0-5.27-.35c-.48.16-1-.08-1.48.16l-1.64.07c-1,.22-2.1-.12-3.12.18h-5.48c-.55-.27-1.15,0-1.7-.17a33.68,33.68,0,0,1-11-2.52,24,24,0,0,1-8.26-5.12,18.52,18.52,0,0,1-4.83-7.47,11.31,11.31,0,0,1-.48-2.24c-.2-.38.07-.83-.19-1.21a20.6,20.6,0,0,1,.82-7.61,18.77,18.77,0,0,1,8.71-10.11A36.89,36.89,0,0,1,331.93,322c.54-.2,1.15.1,1.68-.18h7.18c.62.28,1.29,0,1.92.18l1.2.06c.37.25.82,0,1.2.17l1.13.08c.4.21.86,0,1.27.17h2.66c.38-.16.83.08,1.2-.17a7.33,7.33,0,0,0,2.83-.48c.39.79,0,1.67.26,2.47,0,1,.05,2,.07,3.05C354.75,328.4,354.41,329.47,354.71,330.5Z" transform="translate(-69.1 -311.02)"/><path class="cls-2" d="M153.83,358.35a3.28,3.28,0,0,0,2.64,3.09c.37.85-.2.84-.76.84-2.72,0-5.43,0-8.15,0a68.43,68.43,0,0,1-7.16-.12c.06-.27-.12-.55.32-.75a4,4,0,0,0,2.33-2.83,1.32,1.32,0,0,0,.11-.81V337.22a1.53,1.53,0,0,0-.1-.82l-.08-4c-.18-1.06.1-2.14-.16-3.19-.54-1.45-1.06-2.93-2.85-3.3a92.31,92.31,0,0,0-9.7,0A7.41,7.41,0,0,0,125.2,328c-.22.21-.41.39-.71.26s-.16-.42-.16-.63c0-1.59,0-3.19,0-4.78,0-.8.12-1.19,1-1a6.37,6.37,0,0,0,1.31,0c1,.27,2,0,3,.17l3,.07c1.13.26,2.29,0,3.43.16l4.25.08c2.1.26,4.21,0,6.31.16h4.58c1.73-.15,3.48,0,5.22-.07a2.66,2.66,0,0,0,1.28-.11l4.06-.06c1.2-.21,2.42.11,3.62-.18l3.1-.07c1-.19,2,.1,2.92-.16l2.14,0a50,50,0,0,1,0,6.48,1.16,1.16,0,0,1-1-.34,8.47,8.47,0,0,0-4.81-2.07,32.22,32.22,0,0,0-5-.1,36.61,36.61,0,0,0-5.13.09c-2.12.1-3.23,1.13-3.31,3.52,0,.82,0,1.66,0,2.49-.29.86,0,1.77-.17,2.64l-.08,2.57c-.25.73,0,1.49-.16,2.23l-.07,2.14a.49.49,0,0,0-.1.22q0,8.21,0,16.42A.49.49,0,0,0,153.83,358.35Z" transform="translate(-69.1 -311.02)"/><path class="cls-2" d="M270.45,361.44a3.55,3.55,0,0,0,1.7-2.77,13.1,13.1,0,0,0,.31-2.68c0-8.95,0-17.91,0-26.87a18.92,18.92,0,0,0-.66-4.23A2.87,2.87,0,0,0,270.5,323c-.39-.84.18-.83.74-.83h13c.6,0,1,.14.62.83-1,.1-1.13,1-1.37,1.6a9.94,9.94,0,0,0-.56,3.35q0,14.77,0,29.56a7.22,7.22,0,0,0,.57,2.63c.23.59.55,1.24,1.38,1.27.32,1-.38.83-.93.83H271C270.38,362.29,270.26,362,270.45,361.44Z" transform="translate(-69.1 -311.02)"/><path class="cls-2" d="M359.08,392.65a50.52,50.52,0,0,0-1.48,5.25c-.82.08-1.67.51-2.38-.28L353.69,392l-.17,0v5.88a4.65,4.65,0,0,1-2.4,0c0-2.91,0-5.82,0-8.73,0-.66.14-.87.84-.88,2.78,0,2.78-.06,3.46,2.61a15.37,15.37,0,0,0,1.09,3.59c.54-1.93,1-3.65,1.48-5.38a.93.93,0,0,1,1.06-.82c2.76,0,2.74-.06,2.77,2.67,0,2.27-.14,4.54.09,6.8-.65.54-1.41.21-2.13.23-.43,0-.36-.44-.36-.74,0-1.31,0-2.63,0-3.94C359.39,393.09,359.66,392.65,359.08,392.65Z" transform="translate(-69.1 -311.02)"/><path class="cls-2" d="M439.46,397.61l-1.53-5.6h-.17v5.89a4.65,4.65,0,0,1-2.4,0c0-2.88,0-5.76,0-8.64,0-.81.24-1,1-1,2.63,0,2.63,0,3.3,2.53a18.75,18.75,0,0,0,1.17,3.48c.48-1.73,1-3.45,1.42-5.19.15-.58.35-.82,1-.82,2.8,0,2.78-.06,2.81,2.77,0,2.24-.14,4.47.09,6.7-.65.54-1.41.21-2.12.23-.44,0-.37-.44-.37-.74,0-1.31,0-2.62,0-3.93,0-.23.26-.67-.3-.68l-1.49,5.25C441,398,440.17,398.42,439.46,397.61Z" transform="translate(-69.1 -311.02)"/><path class="cls-3" d="M625.8,338.67a7.55,7.55,0,0,1-4.11,2.23,5.17,5.17,0,0,1-6.09-3.6,10.13,10.13,0,0,1-.1-6.14,6.19,6.19,0,0,1,9.49-3.33c.23.14.45.32.68.48.36-.15.22-.49.32-.72a.8.8,0,0,1,.93-.57c.46.09.32.49.32.79,0,4.43,0,8.87,0,13.31,0,2.15-1.5,3.71-3.87,4.22a11.83,11.83,0,0,1-6.48-.51,5.38,5.38,0,0,1-.55-.24.82.82,0,0,1-.38-1.21c.23-.45.62-.06.91.1a8.76,8.76,0,0,0,5.7.84c2.24-.34,3.23-1.59,3.24-3.85Z" transform="translate(-69.1 -311.02)"/><path class="cls-3" d="M612.2,395.49a7.32,7.32,0,0,1-4.24,2.36,5.21,5.21,0,0,1-6-3.72,10.43,10.43,0,0,1-.12-5.91,6.2,6.2,0,0,1,9.5-3.51c.26.17.51.36.81.57.12-.35.22-.64.33-.92a.73.73,0,0,1,.88-.45c.47.07.31.49.32.78,0,4.39,0,8.79,0,13.18a4.44,4.44,0,0,1-3.76,4.35,11.45,11.45,0,0,1-6.7-.51,4,4,0,0,1-.74-.39c-.39-.25-.29-.67-.18-1s.53-.21.8-.05a8.65,8.65,0,0,0,4.73,1c3.12-.06,4.42-1.37,4.42-4.48Z" transform="translate(-69.1 -311.02)"/><path class="cls-3" d="M582.28,329.41c1.62-1.63,3.21-2.58,5.28-2.58a4.83,4.83,0,0,1,5.06,3.73,11.06,11.06,0,0,1,0,6.27c-1.12,3.93-5.59,5.56-9.33,3.44-.3-.17-.59-.38-1.06-.68,0,1.78,0,3.39,0,5,0,.51,0,.93-.72.9s-.66-.39-.66-.86q0-8.4,0-16.8c0-.47,0-.88.66-.85s.72.37.71.87S582.28,328.71,582.28,329.41Z" transform="translate(-69.1 -311.02)"/><path class="cls-2" d="M473.3,397.86l-2.95-5-.21,0v4.93a4,4,0,0,1-2.38,0c0-2.79,0-5.59,0-8.38,0-.39-.38-1.15.34-1.16s1.78-.52,2.37.51c.75,1.3,1.51,2.6,2.25,3.91.17.3.27.64.78.78,0-1.51.07-3,0-4.42-.07-1,.57-.86,1.13-.82s1.3-.37,1.28.8c0,2.91,0,5.82,0,8.74A4.2,4.2,0,0,1,473.3,397.86Z" transform="translate(-69.1 -311.02)"/><path class="cls-3" d="M93.14,397.85c-.49-.91-1-1.82-1.5-2.71a1.16,1.16,0,0,0-1.3-.58c-.7.15-.33.7-.36,1.06-.06.74,0,1.5,0,2.25a3.31,3.31,0,0,1-2.6-.1c.23-2.78.08-5.57.07-8.36,0-.91.23-1.18,1.13-1.11,1.7.15,3.43-.21,5.11.27a2.68,2.68,0,0,1,2,2.49,2.45,2.45,0,0,1-1.35,2.79c-.59.26-.49.53-.23,1,.62,1,1.22,2,1.82,3.05A4.52,4.52,0,0,1,93.14,397.85Z" transform="translate(-69.1 -311.02)"/><path class="cls-3" d="M543.82,322a9,9,0,0,1,3.83.81c.25.12.48.29.72.43a.89.89,0,0,1,.32,1.26c-.27.49-.73.2-1.1-.08a6.41,6.41,0,0,0-5.7-.93,3.05,3.05,0,0,0-2.48,3,2.92,2.92,0,0,0,2,3.31c1.59.62,3.27,1,4.88,1.6,3,1.1,4,3.28,3.07,6.29a4.3,4.3,0,0,1-2.88,3,10.13,10.13,0,0,1-8-.6,5.2,5.2,0,0,1-.7-.45,1,1,0,0,1-.22-1.3c.33-.51.74-.1,1.09.17a7.5,7.5,0,0,0,6.93,1.12,3.38,3.38,0,0,0,2.58-3.35,3.09,3.09,0,0,0-2.2-3.45c-1.45-.55-3-.9-4.44-1.41-2.65-.92-3.71-2.42-3.56-4.86a4.78,4.78,0,0,1,4.66-4.46C543,322.05,543.42,322.05,543.82,322Z" transform="translate(-69.1 -311.02)"/><path class="cls-2" d="M395.27,388c4.18.57,5.18,5.52,3.37,8.18a5.32,5.32,0,0,1-5.84,1.9c-1.64-.44-3-2.63-2.92-4.6a6.73,6.73,0,0,1,.36-2.73,4.33,4.33,0,0,1,3.85-2.76A2.61,2.61,0,0,1,395.27,388Z" transform="translate(-69.1 -311.02)"/><path class="cls-2" d="M429.35,388c4.29.59,5.38,5.61,3.33,8.35a5,5,0,0,1-5.05,1.85c-2.33-.34-3.19-2.08-3.6-4.15a5.28,5.28,0,0,1,0-1.9c.45-2.31,1.63-3.88,4.13-4.14A2.61,2.61,0,0,1,429.35,388Z" transform="translate(-69.1 -311.02)"/><path class="cls-2" d="M113.27,388c4.14.63,5.21,5.77,3.11,8.45a5.35,5.35,0,0,1-5.27,1.65,4.51,4.51,0,0,1-3.27-4.05,7.15,7.15,0,0,1,.42-3.54,4.34,4.34,0,0,1,3.83-2.52A2.48,2.48,0,0,1,113.27,388Z" transform="translate(-69.1 -311.02)"/><path class="cls-4" d="M548.2,357.58a12.15,12.15,0,0,1,5.17-2.26c3.11-.43,4.66.85,4.67,4s0,6.23,0,9.35c0,.46.13.94-.67.95s-.78-.43-.78-1c0-3.11,0-6.23,0-9.35,0-2.1-1.12-3-3.23-2.77a10.79,10.79,0,0,0-4.68,2,1.25,1.25,0,0,0-.49,1.23c0,3,0,5.92,0,8.88,0,.41.23,1-.6,1s-.76-.47-.76-1c0-5.67,0-11.35,0-17,0-.37-.26-.95.51-1s.85.4.85,1C548.19,353.52,548.2,355.44,548.2,357.58Z" transform="translate(-69.1 -311.02)"/><path class="cls-3" d="M554.12,329.12a10,10,0,0,1,6.57-2.28c1.85.11,3,1,3.15,2.81.31,3.62.06,7.27.12,10.9,0,.66-.46.49-.83.53-.61.08-.62-.29-.62-.73q0-4.62,0-9.24c0-2.43-.86-3.23-3.3-3.05a9.73,9.73,0,0,0-4.78,2.06c-.41.29-.32.7-.32,1.08v8.88c0,.5.15,1-.72,1s-.68-.57-.68-1c0-5.64,0-11.28,0-16.91,0-.36-.39-1.05.5-1.05s.89.51.88,1.13Z" transform="translate(-69.1 -311.02)"/><path class="cls-3" d="M641,362.6c-1.48,0-3,0-4.44,0-.65,0-.87.13-.84.85.22,4.39,4.93,6.61,8.91,4.18.39-.24.85-1.13,1.33-.35s-.29,1.13-.87,1.42a8.8,8.8,0,0,1-7.07.45,4.52,4.52,0,0,1-.86-.41c-2.69-1.6-3.73-6-2.29-9.6a6.09,6.09,0,0,1,7.32-3.69c2.7.58,4.93,4.29,4.12,6.81-.15.47-.48.34-.76.34C644,362.61,642.53,362.6,641,362.6Z" transform="translate(-69.1 -311.02)"/><path class="cls-3" d="M567.38,362.6c-1.48,0-3,0-4.44,0-.7,0-.87.21-.81.9.44,4.5,5.12,6.58,9.07,4,.33-.22.74-.9,1.13-.29s0,1-.58,1.35a8.54,8.54,0,0,1-7.62.43c-2.3-1-3.15-3.06-3.41-5.4a9,9,0,0,1,.77-4.91c1.79-3.71,7-4.67,9.69-1.79,1.37,1.45,1.53,3.27,1.58,5.13,0,.6-.4.58-.82.57Z" transform="translate(-69.1 -311.02)"/><path class="cls-3" d="M575.75,339.35a6.51,6.51,0,0,1-6.14,1.71,3.81,3.81,0,0,1-3.17-3.56,3.76,3.76,0,0,1,2.56-4,11,11,0,0,1,6-.25c.73.14.77-.07.79-.67.16-3.39-.36-5-5-4.48a6.32,6.32,0,0,0-2.46.88c-.28.17-.67.55-.89.05a.9.9,0,0,1,.28-1.17c1.62-1.16,6.14-1.36,7.87-.32a3.42,3.42,0,0,1,1.59,3.16c0,3.15,0,6.31,0,9.47,0,.31.32.86-.37.92a.83.83,0,0,1-1-.89C575.79,339.94,575.77,339.71,575.75,339.35Z" transform="translate(-69.1 -311.02)"/><path class="cls-2" d="M139.93,388.32h2.38c.35,1.1-.1,2.26.25,3.35a3.86,3.86,0,0,0,.57.12c2.61.1,2.68.09,2.64-2.53,0-1.14.62-.94,1.27-.94s1.3-.2,1.27.95c-.08,2.86,0,5.73,0,8.6a3.31,3.31,0,0,1-2.6-.1,12.34,12.34,0,0,0,0-3.69.61.61,0,0,0-.21-.11c-3-.26-3-.26-3,2.78,0,.42.3,1.09-.33,1.23a4.28,4.28,0,0,1-2.13-.05c-.14,0-.16-.26-.15-.42C139.88,394.45,139.64,391.38,139.93,388.32Z" transform="translate(-69.1 -311.02)"/><path class="cls-2" d="M496.33,398.22a5.05,5.05,0,0,1-3.54-1.54c-.29-.32-.39-.42.08-.76.79-.55,1.36-1.11,2.38-.23a2.53,2.53,0,0,0,2.91.29c.32-.17.78-.38.72-.78a1,1,0,0,0-.82-.76c-.79-.15-1.59-.33-2.39-.41a2.56,2.56,0,0,1-2.53-2.12,3.45,3.45,0,0,1,0-1.43c.41-1.65,2-2.56,4.23-2.38a5.83,5.83,0,0,1,3.33,1.37c.46.39.43.6-.06,1-.8.61-1.47.87-2.32.06-.59-.56-1.42-.31-2.14-.25a.73.73,0,0,0-.6.79.63.63,0,0,0,.54.67c.69.16,1.38.31,2.08.43,2.22.38,3.06,1,3.14,2.45.1,1.75-.88,2.93-2.9,3.48-.23.06-.47.09-.71.13A3.57,3.57,0,0,1,496.33,398.22Z" transform="translate(-69.1 -311.02)"/><path class="cls-2" d="M623.1,391c-1.44,0-2.88.05-4.31,0-.92,0-1,.28-.92,1.11.66,4.49,5.08,6.39,9,3.87.35-.23.77-.89,1.15-.24s-.07,1-.66,1.33a8.59,8.59,0,0,1-7.4.49c-2.44-1-3.78-3.58-3.65-6.84.13-3.47,1.8-6.05,4.57-6.72,4.26-1,7.65,1.09,7.52,6.44,0,.62-.37.58-.79.58Z" transform="translate(-69.1 -311.02)"/><path class="cls-3" d="M537.78,390.63c0-2.54.85-4.94,3.5-6.21a6.57,6.57,0,0,1,7.12.62c2.68,2,3.35,7,1.43,10.17a6.64,6.64,0,0,1-8.55,2.23C538.58,396.09,537.78,393.68,537.78,390.63Z" transform="translate(-69.1 -311.02)"/><path class="cls-3" d="M150.25,397.77c.24-2.78.08-5.57.08-8.35,0-.89.2-1.16,1.12-1.12,2,.07,4,0,6,0a3.15,3.15,0,0,1,0,1.92c-1.12,0-2.23,0-3.35,0-.54,0-1.26-.35-1.28.8s.76.84,1.34.86a19.06,19.06,0,0,0,2.39,0c.8-.07.7.43.66.9s.29,1.1-.65,1-2,0-3,0-.69.64-.7,1.11-.28,1.16.71,1.11c1.43-.06,2.87,0,4.31,0,.33.47.11,1,.16,1.5,0,.34-.15.52-.5.51-2.39,0-4.78.06-7.18,0C150.32,398,150.29,397.85,150.25,397.77Z" transform="translate(-69.1 -311.02)"/><path class="cls-3" d="M448.82,397.77c.23-2.75.09-5.5.07-8.26,0-1,.3-1.28,1.27-1.21,1.47.1,3-.07,4.43.12a2.82,2.82,0,0,1,2.61,3,3,3,0,0,1-2.34,3.15c-.34.11-.68.18-1,.27-.77.18-1.58-.11-2.35.18a15.73,15.73,0,0,0-.06,2.83A3.31,3.31,0,0,1,448.82,397.77Z" transform="translate(-69.1 -311.02)"/><path class="cls-3" d="M621.6,367.6a11.57,11.57,0,0,1-5.18,2.07c-3,.28-4.46-1-4.46-3.95v-9.36c0-.44-.18-.95.65-.95s.8.35.8.95c0,3.16,0,6.31,0,9.47,0,2,.81,2.75,2.8,2.68a9.58,9.58,0,0,0,5.06-2c.48-.32.33-.77.33-1.18q0-4.5,0-9c0-.44-.18-.94.64-.95s.77.43.77,1c0,4,0,8,0,12,0,.41.4,1.13-.53,1.17s-.85-.56-.85-1.15Z" transform="translate(-69.1 -311.02)"/><path class="cls-2" d="M484.09,388.32h7a4.44,4.44,0,0,1,0,1.92c-1.27,0-2.54.05-3.8,0-.74,0-.81.29-.81.9s.11.85.77.82c1.19-.06,2.37,0,3.56,0a3.15,3.15,0,0,1,0,1.92c-1.15,0-2.32.08-3.46,0s-.86.51-.85,1.1-.22,1.2.81,1.14c1.39-.09,2.78,0,4.18,0,.33.47.12,1,.16,1.5s-.25.52-.62.52c-2.15,0-4.3,0-6.45,0-.38,0-.6-.13-.59-.55C484,394.44,483.8,391.38,484.09,388.32Z" transform="translate(-69.1 -311.02)"/><path class="cls-2" d="M588.44,396.08a10.18,10.18,0,0,1-6.17,2.08c-2.16-.09-3.35-1.2-3.4-3.36-.06-3.4,0-6.79,0-10.19,0-.59.19-.75.76-.75s.7.3.7.82q0,4.67,0,9.35c0,2.35.91,3.16,3.28,2.92a10.3,10.3,0,0,0,4.48-1.86c.47-.29.44-.69.44-1.13v-9.12c0-.53-.1-1,.74-1s.7.56.7,1c0,3.95,0,7.91,0,11.87,0,.41.49,1.2-.58,1.21s-.77-.71-.84-1.27C588.46,396.54,588.46,396.38,588.44,396.08Z" transform="translate(-69.1 -311.02)"/><path class="cls-3" d="M598.8,367.6a11.91,11.91,0,0,1-5.26,2.08c-3,.24-4.38-1-4.38-3.91,0-3.16,0-6.31,0-9.47,0-.51,0-.89.72-.89s.74.34.74.88q0,4.8,0,9.59c0,1.95.76,2.67,2.71,2.63a9.52,9.52,0,0,0,5.17-2c.43-.3.31-.7.31-1.07q0-4.56,0-9.11c0-.47-.14-.94.66-.93s.75.33.75.88c0,4.11,0,8.23,0,12.34,0,.39.21.94-.54.94s-.86-.32-.85-.9Z" transform="translate(-69.1 -311.02)"/><path class="cls-2" d="M602.64,329.13a10,10,0,0,1,6.36-2.29c2.14.07,3.35,1.06,3.42,3.18.1,3.48,0,7,.07,10.44,0,.58-.26.61-.72.64s-.75-.16-.74-.74c0-3.08,0-6.16,0-9.24,0-2.43-.86-3.24-3.3-3.06a9.86,9.86,0,0,0-4.78,2.06c-.43.29-.31.7-.32,1.07,0,3,0,5.92,0,8.88,0,.46.23,1-.67,1s-.76-.56-.76-1.08c0-4,0-8,0-12,0-.38-.33-1,.54-1s.9.48.89,1.1C602.63,328.37,602.64,328.65,602.64,329.13Z" transform="translate(-69.1 -311.02)"/><path class="cls-2" d="M463.93,397.87c-.32-2-1.87-1.25-3.05-1.4s-.95.87-1.28,1.44a4.76,4.76,0,0,1-2.62-.05c1.09-2.95,2.22-5.88,3.27-8.84.46-1.32,1.47-.47,2.2-.69s.8.4,1,.88c1.05,2.83,2.11,5.65,3.17,8.48C465.76,398.35,464.84,398,463.93,397.87Z" transform="translate(-69.1 -311.02)"/><path class="cls-2" d="M77,397.69c1.08-2.89,2.2-5.76,3.22-8.67.44-1.26,1.39-.5,2.09-.69s.82.27,1,.82c1.14,2.87,2,5.85,3.3,8.66a2.81,2.81,0,0,1-2.84-.18c-.22-1.78-1.6-1-2.55-1.15s-1.59.28-1.57,1.35A2.94,2.94,0,0,1,77,397.69Z" transform="translate(-69.1 -311.02)"/><path class="cls-2" d="M340,397.69c.67-1.8,1.33-3.6,2-5.39a27.85,27.85,0,0,0,1.15-3.2.85.85,0,0,1,.94-.79c1.92-.13,1.94-.12,2.62,1.7q1.45,3.92,2.92,7.82a5.14,5.14,0,0,1-2.61.14c-.41-.41-.08-1.36-.78-1.45a11,11,0,0,0-3.08,0c-.39.07-.5.81-.48,1.32C341.8,398,340.88,398.34,340,397.69Z" transform="translate(-69.1 -311.02)"/><path class="cls-2" d="M69.36,397.91c0-2.87,0-5.74,0-8.6,0-.74.12-1.06,1-1,1.23.08,2.47,0,3.7,0,1.74,0,3.08.57,3.58,2.41a5.44,5.44,0,0,1,0,1.66,3.65,3.65,0,0,1-3.19,2.46c-.79.24-1.83-.33-2.37.28s-.11,1.52-.14,2.3c0,.47-.21.65-.65.6A5.61,5.61,0,0,1,69.36,397.91Z" transform="translate(-69.1 -311.02)"/><path class="cls-2" d="M413.94,392.41c.23-1.8.93-3.37,2.73-4a4.75,4.75,0,0,1,5.18,1c.35.34,1,.92.51,1.24s-1.16,1.54-2.09.23a2.13,2.13,0,0,0-3.52.5c-.67,1.5-.46,4.32,1.31,4.66a1.69,1.69,0,0,0,1.29,0c.38-.25.92-.35,1.1-.79s.4-.42.79-.25c1.62.72,1.7,1,.34,2.17a4.81,4.81,0,0,1-4.87.89c-1.81-.59-2.55-2.15-2.76-4A4.87,4.87,0,0,1,413.94,392.41Z" transform="translate(-69.1 -311.02)"/><path class="cls-3" d="M646,395.1l4.2-10.14a4,4,0,0,1,.32-.77.89.89,0,0,1,1.18-.25c.4.16.14.55,0,.83-2.37,5.65-4.76,11.3-7.1,17a.92.92,0,0,1-1.34.55c-.57-.25,0-.7.06-1,.56-1.48,1.78-2.89,1.68-4.4s-1.14-2.85-1.77-4.27c-1.12-2.51-2.24-5-3.34-7.54-.15-.35-.64-.86-.07-1.13s1.09-.06,1.4.67c1.33,3.16,2.72,6.28,4.1,9.42A2,2,0,0,0,646,395.1Z" transform="translate(-69.1 -311.02)"/><path class="cls-3" d="M121.48,394.32l-.06,3.55a3.31,3.31,0,0,1-2.6-.1c.23-2.78.07-5.57.07-8.36,0-.89.22-1.15,1.12-1.11,1.8.07,3.6.07,5.39,0,.82,0,1,.25,1,1s-.31,1-1,.95c-1.07-.05-2.16,0-3.23,0-.87-.05-.72.49-.72,1s-.16,1.07.72,1,1.76.06,2.63,0,1.38.27,1.22,1.25a3,3,0,0,0,0,.6c-1,.36-2,.07-3,.17C122.48,394.24,122,394.07,121.48,394.32Z" transform="translate(-69.1 -311.02)"/><path class="cls-3" d="M571.47,383.76a7.81,7.81,0,0,1,3.37.67c.62.27.82.74.6,1.23s-.73.14-1.08-.07a6,6,0,0,0-4.63-.54,2.23,2.23,0,0,0-1.82,2.24,2.07,2.07,0,0,0,1.62,2.23c1.23.33,2.49.55,3.71.9,2.4.68,3.23,2.06,2.81,4.49a3.41,3.41,0,0,1-2.46,2.81,8.55,8.55,0,0,1-6.19-.35,4,4,0,0,1-.71-.43.84.84,0,0,1-.18-1.1c.24-.42.61-.12.91.08a6.1,6.1,0,0,0,5.14.87,2.59,2.59,0,0,0,2.2-2.73c0-1.31-.51-1.95-2-2.4-.92-.26-1.87-.4-2.8-.63-2.53-.64-3.53-1.89-3.29-4.07.2-1.85,1.72-3.07,4-3.2Z" transform="translate(-69.1 -311.02)"/><path class="cls-2" d="M335,392.12a35.76,35.76,0,0,0,4.27.06c.33.38.11.84.16,1.26s-.17.78-.74.76c-1,0-2,0-3,0-.62,0-.89.17-.82.81,0,.32,0,.64,0,1,0,2.39,0,2.39-2.52,2,0-2.92,0-5.83,0-8.75,0-.68.19-.87.87-.86,1.91.05,3.83.07,5.75,0,.85,0,.85.36.86,1s0,1-.87,1c-1.31-.06-2.63,0-3.95,0A2.84,2.84,0,0,0,335,392.12Z" transform="translate(-69.1 -311.02)"/><path class="cls-2" d="M401.28,397.91c0-2.92,0-5.83,0-8.75,0-.68.19-.87.87-.86,1.91.05,3.83.07,5.75,0,.85,0,.85.36.86,1s0,1-.87,1c-1.31-.06-2.63,0-3.95,0a2.84,2.84,0,0,0,0,1.82,35.76,35.76,0,0,0,4.27.06c.33.38.11.84.16,1.26s-.17.78-.74.76c-1,0-2,0-3,0-.62,0-.89.17-.82.81,0,.32,0,.64,0,1C403.8,398.35,403.8,398.35,401.28,397.91Z" transform="translate(-69.1 -311.02)"/><path class="cls-4" d="M582.24,362.93c0-1.83,0-3.67,0-5.51,0-.62-.07-1-.82-.92-.4,0-1.14.38-1.11-.57s.71-.46,1.06-.46c.67,0,.93-.16.88-.86a4.89,4.89,0,0,1,.13-1.9,3.6,3.6,0,0,1,4.62-2.08c.31.14.25.35.27.57s-.09.53-.46.52-1,0-1.44,0a1.68,1.68,0,0,0-1.67,1.44c-.45,1.91-.17,2.21,1.76,2.29.51,0,1.47-.54,1.52.44.07,1.21-1,.56-1.52.58-1.83.09-1.83,0-1.83,1.84,0,3.39,0,6.79,0,10.19,0,.48.2,1.05-.69,1.07s-.71-.53-.71-1Z" transform="translate(-69.1 -311.02)"/><path class="cls-2" d="M379,393.44l-3.46-4.95c2.8-1.18,3.65,1.07,4.78,3,1.23-1.75,2-4.08,4.79-3-.8,1.13-1.58,2.35-2.48,3.47a4.09,4.09,0,0,0-1,3.16,25.2,25.2,0,0,1,0,2.75c-.54.36-1.15.08-1.72.17s-.78-.25-.79-.84A19.68,19.68,0,0,0,379,393.44Z" transform="translate(-69.1 -311.02)"/><path class="cls-2" d="M540.48,353.56c0,1.88,0,1.88,1.85,1.88h1.2c.39,0,.7,0,.68.55s-.34.54-.73.54c-.75,0-1.52,0-2.27,0-.58,0-.75.17-.74.75,0,3.07,0,6.15,0,9.22a1.71,1.71,0,0,0,1.9,1.95c.52,0,1,0,1.56,0,.3,0,.56,0,.57.43s0,.59-.45.71c-3,.9-5-.56-5-3.66,0-2.79,0-5.59,0-8.39,0-.7-.07-1.14-.94-1-.37.05-.94.24-1-.51s.65-.54,1-.53c.67,0,.93-.15.87-.85s0-1.52,0-2.28c0-.5,0-.79.69-.79s.82.23.77.83A11.78,11.78,0,0,0,540.48,353.56Z" transform="translate(-69.1 -311.02)"/><path class="cls-3" d="M608.14,369.64c-2.9,0-3.82-.87-3.82-3.55,0-2.84,0-5.68,0-8.51,0-.81-.16-1.19-1-1.07-.42.06-.91.12-.88-.61s.56-.48.87-.44c.87.11,1.12-.22,1-1.06-.07-.67,0-1.35,0-2,0-.46-.06-.84.64-.83s.8.28.77.86.06,1.37,0,2c-.11.89.26,1.09,1.07,1s1.36,0,2,0c.41,0,.71,0,.68.55s-.23.56-.61.53h-.48c-2.68,0-2.68,0-2.68,2.76,0,2.24,0,4.48,0,6.72,0,1.92.51,2.42,2.4,2.44h1.08c.37,0,.61.07.61.52s-.16.6-.55.62Z" transform="translate(-69.1 -311.02)"/><path class="cls-3" d="M553.92,391.36c0-1.76,0-3.52,0-5.27,0-.81-.07-1.31-1.06-1.15-.32.05-.84.24-.85-.47s.38-.65.78-.58c1,.17,1.14-.34,1.13-1.2,0-2.79,1.53-4.1,4.29-3.69.4.06.78.09.78.67s-.51.47-.84.48c-2.38.08-2.88.61-2.87,2.9,0,.73.28.88.91.84s1.28,0,1.92,0c.48,0,.6.19.6.64s-.32.44-.63.45h-.36c-2.42,0-2.42,0-2.42,2.39v9.7c0,.5.07.92-.69.94s-.72-.38-.71-.89C553.93,395.19,553.92,393.27,553.92,391.36Z" transform="translate(-69.1 -311.02)"/><path class="cls-3" d="M101.34,390.48l-.06,7.43a3.7,3.7,0,0,1-2.62-.14,48,48,0,0,0,0-7.29c-.76-.35-1.62.13-2.37-.29,0-1.87,0-1.87,1.89-1.87h5.52a.71.71,0,0,1,.11.21c.16,1.8.16,1.8-1.64,1.83C101.87,390.36,101.58,390.29,101.34,390.48Z" transform="translate(-69.1 -311.02)"/><path class="cls-2" d="M131.06,390.19c.06-1.87.06-1.87,2-1.87h5.47a2.52,2.52,0,0,1,.09.82c.17,1-.28,1.39-1.25,1.21s-1.21.28-1.17,1.2c.06,1.83,0,3.67,0,5.51,0,.8-.24,1.08-1,1a3.84,3.84,0,0,0-.83,0c-.66.08-.81-.24-.81-.84,0-1.91,0-3.83,0-5.75,0-.92-.27-1.19-1.15-1.11A1.8,1.8,0,0,1,131.06,390.19Z" transform="translate(-69.1 -311.02)"/><path class="cls-2" d="M370.08,397.91c0-2.79.05-5.59,0-8.38,0-1,.21-1.39,1.23-1.22a7.86,7.86,0,0,0,1.19,0,47.52,47.52,0,0,1,.13,5.2,7.57,7.57,0,0,0,.12,2.23,5.75,5.75,0,0,0,2.37.1c1-.07,1.42.19,1.24,1.22a4.7,4.7,0,0,0,0,.84A31,31,0,0,1,370.08,397.91Z" transform="translate(-69.1 -311.02)"/><path class="cls-4" d="M628.27,357.73c1.3-1.32,2.56-2.28,4.24-2.38.42,0,1-.25,1.06.55s-.47.66-.91.68a6.06,6.06,0,0,0-4.15,2.36c-.32.35-.22.74-.22,1.12q0,4.26,0,8.52c0,.52.1,1-.74,1s-.66-.5-.66-.95c0-4.12,0-8.24,0-12.35,0-.32-.27-.84.45-.86s.91.22.93.81C628.29,356.66,628.27,357.08,628.27,357.73Z" transform="translate(-69.1 -311.02)"/><path class="cls-2" d="M595.2,386.18a6.52,6.52,0,0,1,4.34-2.4c.31,0,.76-.13.86.2s.37,1-.57,1a5.86,5.86,0,0,0-4.16,2.08,1.75,1.75,0,0,0-.48,1.41c0,2.83,0,5.67,0,8.51,0,.52.11,1-.74,1s-.7-.53-.7-1c0-4,0-8.07,0-12.1,0-.35-.32-.95.46-1s1,.4,1,1Z" transform="translate(-69.1 -311.02)"/><path class="cls-4" d="M632.6,386.14a7.19,7.19,0,0,1,3.62-2.27,6.46,6.46,0,0,1,1.07-.1c.47,0,.6.25.6.69s-.2.55-.58.54a4.61,4.61,0,0,0-2.51.69c-1.43.85-2.42,1.85-2.25,3.81.21,2.5,0,5,.06,7.55,0,.61-.06.94-.82.94s-.63-.54-.63-1c0-4,0-8.08,0-12.11,0-.39-.32-1,.55-1s.83.5.87,1C632.62,385.22,632.6,385.54,632.6,386.14Z" transform="translate(-69.1 -311.02)"/><path class="cls-5" d="M364.57,397.78c.23-2.79.11-5.59.07-8.37,0-1.08.45-1.13,1.26-1.11s1.34-.1,1.3,1.06c-.1,2.83,0,5.67,0,8.51A3.4,3.4,0,0,1,364.57,397.78Z" transform="translate(-69.1 -311.02)"/><path class="cls-5" d="M478.81,397.78c.23-2.79.11-5.59.07-8.37,0-1.08.45-1.13,1.26-1.11s1.34-.1,1.3,1.06c-.1,2.83,0,5.67,0,8.51A3.4,3.4,0,0,1,478.81,397.78Z" transform="translate(-69.1 -311.02)"/><path class="cls-6" d="M307.16,389c-.38,1.87.34,2.95,2.27,3,.89,0,.94.39.89,1.07a2.63,2.63,0,0,1-2.22,2.7,2.56,2.56,0,0,1-2.62-2.42,5,5,0,0,1,1.46-4.69Z" transform="translate(-69.1 -311.02)"/><path class="cls-5" d="M595.92,334.08c0-2.08,0-4.16,0-6.24,0-.35-.21-.85.49-.85s.9.25.9.85c0,4.2,0,8.4,0,12.6,0,.57-.26.64-.73.65s-.7-.11-.69-.65C595.94,338.32,595.92,336.2,595.92,334.08Z" transform="translate(-69.1 -311.02)"/><path class="cls-6" d="M109.91,322.26l-13.77-.06q-12.65,0-25.28,0c-.47,0-1.4-.35-1,.81-.44-.5-.44-.86.32-.94a7.85,7.85,0,0,1,.84,0h37.6C109.06,322.09,109.52,322,109.91,322.26Z" transform="translate(-69.1 -311.02)"/><path class="cls-6" d="M69.81,361.44c-.11.37-.19.73.38.75.32,0,.64,0,1,0h36.62a2.64,2.64,0,0,1,1.52.17l-38.7,0C69.93,362.4,69.26,362.41,69.81,361.44Z" transform="translate(-69.1 -311.02)"/><path class="cls-6" d="M241.67,358.35a3.17,3.17,0,0,1-.19-1.52V329.17a4.37,4.37,0,0,1,.18-1.65Q241.66,342.93,241.67,358.35Z" transform="translate(-69.1 -311.02)"/><path class="cls-6" d="M131.06,390.19a1.55,1.55,0,0,0,.23.06c.74.12,1.73-.31,2.17.21s.15,1.6.17,2.43c0,1.44.05,2.88,0,4.32,0,1.2.82.69,1.32.73s1.23.32,1.19-.76c-.07-2,0-4,0-6,0-.63.09-.92.83-.93,1.8,0,1.8-.06,1.57-1.94.55,1.77.37,2.12-1.27,2.14-.77,0-.94.32-.93,1,0,1.88-.06,3.76,0,5.63.07,1.28-.74,1-1.47,1.06s-1.52.18-1.45-1.08c.09-1.79,0-3.6,0-5.39,0-.93-.23-1.33-1.2-1.23C131.86,390.51,131.36,390.66,131.06,390.19Z" transform="translate(-69.1 -311.02)"/><path class="cls-6" d="M143.06,336.4c.06,1.11.17,2.21.17,3.32,0,5.86,0,11.72,0,17.58a1.92,1.92,0,0,1-.19,1.27Z" transform="translate(-69.1 -311.02)"/><path class="cls-6" d="M139.93,388.32c0,3,0,6-.06,9,0,.53.18.65.69.67,1.8.09,1.8.12,1.8-1.7,0-2.42,0-2.43,2.45-2.38.29,0,.65-.18.86.19-3,0-3.11,0-3.08,3,0,1.24-.68,1.11-1.45,1.09s-1.53.24-1.49-1.05c.09-2.59,0-5.19,0-7.79C139.68,389,139.58,388.59,139.93,388.32Z" transform="translate(-69.1 -311.02)"/><path class="cls-6" d="M484.09,388.32c0,3,0,5.92-.06,8.87,0,.54.09.79.71.78q3.06,0,6.12,0c.62,0,.77-.22.7-.77,0-.39-.06-.79-.09-1.18.74,1.57.44,2.14-1.15,2.14h-5.51c-.5,0-1,0-1-.7,0-2.91,0-5.83,0-8.74C483.87,388.59,484,388.46,484.09,388.32Z" transform="translate(-69.1 -311.02)"/><path class="cls-6" d="M85.42,325.91c.8-.46,1.65-.09,2.46-.1,5.26,0,10.52,0,15.78,0,.44,0,.87.06,1.3.1Z" transform="translate(-69.1 -311.02)"/><path class="cls-6" d="M105.15,358.81c-.67.06-1.34.18-2,.18-5.14,0-10.29,0-15.43,0a2.68,2.68,0,0,1-1.4-.18Z" transform="translate(-69.1 -311.02)"/><path class="cls-6" d="M140.4,362.15l15.42.06c.6,0,.81-.19.65-.77.39.51.38.94-.36.95q-7.71,0-15.43,0C140.59,362.35,140.5,362.22,140.4,362.15Z" transform="translate(-69.1 -311.02)"/><path class="cls-6" d="M153.83,358.35a2,2,0,0,1-.18-.56q0-7.92.07-15.85a1.85,1.85,0,0,1,.11-.45Z" transform="translate(-69.1 -311.02)"/><path class="cls-6" d="M284.86,323c.23-.53.13-.83-.52-.83H271c-.65,0-.75.3-.52.83-.53-.76-.15-.95.59-.95h13.06C284.82,322.08,285.46,322.1,284.86,323Z" transform="translate(-69.1 -311.02)"/><path class="cls-6" d="M270.45,361.44c-.22.59,0,.77.61.77q6.62,0,13.24,0c.58,0,.83-.18.61-.77.4.64.23,1-.53,1H271C270.22,362.4,270.05,362.08,270.45,361.44Z" transform="translate(-69.1 -311.02)"/><path class="cls-6" d="M204.72,322.29c-3.25-.2-6.5,0-9.75-.08-1.39,0-2.78,0-4.17,0-.64,0-.89.2-.68.84-.56-.65-.28-.93.44-.94,1.19,0,2.39,0,3.59,0,3.1,0,6.21,0,9.32,0C203.89,322.09,204.35,321.94,204.72,322.29Z" transform="translate(-69.1 -311.02)"/><path class="cls-6" d="M190.09,361.44c-.16.58,0,.77.65.77l14-.06c-.23.31-.57.25-.88.25h-13C190.14,362.4,189.5,362.39,190.09,361.44Z" transform="translate(-69.1 -311.02)"/><path class="cls-6" d="M242.88,322.29c-3.25-.2-6.5,0-9.75-.08-1.39,0-2.78,0-4.17,0-.64,0-.89.2-.68.84-.56-.65-.28-.93.44-.94,1.19,0,2.39,0,3.59,0,3.1,0,6.21,0,9.32,0C242.05,322.09,242.51,321.94,242.88,322.29Z" transform="translate(-69.1 -311.02)"/><path class="cls-6" d="M228.25,361.44c-.16.58.05.77.65.77l14-.06c-.23.31-.57.25-.88.25H229C228.3,362.4,227.66,362.39,228.25,361.44Z" transform="translate(-69.1 -311.02)"/><path class="cls-6" d="M332.4,397.91c2.44.16,2.43.16,2.44-2.2,0-1.84-.25-1.56,1.58-1.59h1.2c1.93,0,1.93,0,1.69-1.94.76,1.61.44,2.11-1.27,2.15-1,0-2.11-.41-2.78.2s-.21,1.75-.2,2.65-.32,1.08-1.06,1C333.46,398.08,332.87,398.38,332.4,397.91Z" transform="translate(-69.1 -311.02)"/><path class="cls-6" d="M401.28,397.91c2.44.16,2.43.16,2.44-2.2,0-1.84-.25-1.56,1.58-1.59h1.2c1.93,0,1.93,0,1.69-1.94.76,1.61.44,2.11-1.27,2.15-.95,0-2.11-.41-2.78.2s-.21,1.75-.2,2.65-.32,1.08-1.06,1C402.34,398.08,401.75,398.38,401.28,397.91Z" transform="translate(-69.1 -311.02)"/><path class="cls-6" d="M99.86,339.13a2.33,2.33,0,0,1-1.16.19H88.42a1.32,1.32,0,0,1-.91-.17Z" transform="translate(-69.1 -311.02)"/><path class="cls-7" d="M596.74,323a.9.9,0,0,1,.85,1,.89.89,0,0,1-1,.85.9.9,0,0,1-.91-1.05A.91.91,0,0,1,596.74,323Z" transform="translate(-69.1 -311.02)"/><path class="cls-6" d="M453.79,323.29c0,3.94,0,7.89-.17,11.83,0-3.68,0-7.37,0-11.05A1,1,0,0,1,453.79,323.29Z" transform="translate(-69.1 -311.02)"/><path class="cls-6" d="M453.55,346.81c0,3.7,0,7.41-.17,11.11,0-3.44,0-6.89,0-10.33A1,1,0,0,1,453.55,346.81Z" transform="translate(-69.1 -311.02)"/><path class="cls-6" d="M157.63,325.9a92.7,92.7,0,0,1,10.14,0Z" transform="translate(-69.1 -311.02)"/><path class="cls-6" d="M150.25,397.77c1.73.41,3.49.09,5.22.19.24,0,.48,0,.72,0,1.92,0,1.92,0,1.68-1.94.74,1.57.44,2.14-1.13,2.14-1.79,0-3.57,0-5.36,0C151,398.15,150.48,398.35,150.25,397.77Z" transform="translate(-69.1 -311.02)"/><path class="cls-6" d="M130.27,325.9a92.31,92.31,0,0,1,9.7,0Z" transform="translate(-69.1 -311.02)"/><path class="cls-6" d="M443.33,392.65c0-.29.11-.52.39-.94,0,1.83.06,3.48,0,5.12-.05.95.26,1.27,1.17,1.14.43-.07.88.08,1.27-.2-.68.77-1.57.43-2.31.28-.59-.13-.26-.9-.3-1.38C443.41,395.33,443.73,394,443.33,392.65Z" transform="translate(-69.1 -311.02)"/><path class="cls-6" d="M359.08,392.65c-.05-.3.12-.52.4-1,0,1.83.08,3.44,0,5-.06,1.06.26,1.44,1.3,1.27.38-.07.8.06,1.15-.2-.68.77-1.58.43-2.31.28s-.26-.9-.3-1.39C359.16,395.33,359.5,394,359.08,392.65Z" transform="translate(-69.1 -311.02)"/><path class="cls-6" d="M500.64,322.29c-2.53-.2-5.07,0-7.6-.09-.66,0-.71.33-.64.83-.25-.47-.28-.93.39-.93,2.55,0,5.11,0,7.66.06C500.52,322.16,500.58,322.24,500.64,322.29Z" transform="translate(-69.1 -311.02)"/><path class="cls-6" d="M110.42,330.11c.72.12.75-.31.75-.85,0-2.15,0-4.3,0-6.45.43,2.32.12,4.66.15,7C111.33,330.38,110.82,330.28,110.42,330.11Z" transform="translate(-69.1 -311.02)"/><path class="cls-6" d="M69.36,397.91a1,1,0,0,0,.24,0c2.17.08,2.21.08,2.18-2.09,0-.85.25-1.13,1.07-1a13.19,13.19,0,0,0,1.54,0,1.15,1.15,0,0,1-1,.18c-1.06-.14-1.46.22-1.41,1.35C72.06,398.29,71.34,398.67,69.36,397.91Z" transform="translate(-69.1 -311.02)"/><path class="cls-6" d="M372.72,395.75a5.56,5.56,0,0,1-.19-2.53c-.06-1.63,0-3.26-.06-4.9.38.31.24.73.24,1.11C372.73,391.54,372.72,393.65,372.72,395.75Z" transform="translate(-69.1 -311.02)"/><path class="cls-6" d="M452.4,362.15h7.2c-.93.52-1.93.24-2.89.22C455.28,362.34,453.81,362.7,452.4,362.15Z" transform="translate(-69.1 -311.02)"/><path class="cls-6" d="M379,393.44a8.51,8.51,0,0,1,.17,3.37c0,.9.2,1.32,1.16,1.16a11,11,0,0,1,1.29-.1c-.69.57-1.5.26-2.25.23-.48,0-.36-.54-.36-.87C379,396,379,394.7,379,393.44Z" transform="translate(-69.1 -311.02)"/><path class="cls-6" d="M111.07,363.34a53.26,53.26,0,0,0,0-6.92c.3.15.29.44.29.72v5.48C111.36,362.9,111.37,363.19,111.07,363.34Z" transform="translate(-69.1 -311.02)"/><path class="cls-6" d="M271.69,391.45c.7-.27.41.32.42.53,0,1.82,0,3.64,0,5.46-.48-1.49-.09-3-.23-4.53C271.87,392.42,272.1,391.88,271.69,391.45Z" transform="translate(-69.1 -311.02)"/><path class="cls-6" d="M173.55,328.32a46.71,46.71,0,0,0,0-6.48A20.13,20.13,0,0,1,173.55,328.32Z" transform="translate(-69.1 -311.02)"/><path class="cls-6" d="M157.71,322.33a56.38,56.38,0,0,1-6.5.18c1.67-.41,3.38-.09,5.07-.19C156.75,322.3,157.23,322.33,157.71,322.33Z" transform="translate(-69.1 -311.02)"/><path class="cls-6" d="M208.52,395c-.59.35-.3-.23-.31-.33,0-1.81-.06-3.61-.09-5.41.43,1.36.08,2.75.21,4.13C208.37,394,208.14,394.53,208.52,395Z" transform="translate(-69.1 -311.02)"/><path class="cls-6" d="M293.7,395c-.36.09-.38.09-.38-.19,0-1.77,0-3.54,0-5.31.41,1.15.08,2.35.19,3.52C293.59,393.71,293.33,394.4,293.7,395Z" transform="translate(-69.1 -311.02)"/><path class="cls-6" d="M146.63,322.5a53.13,53.13,0,0,1-6.31-.16A40.32,40.32,0,0,1,146.63,322.5Z" transform="translate(-69.1 -311.02)"/><path class="cls-6" d="M370.08,397.91h6.24c-1.53.56-3.11.14-4.66.23C371.14,398.17,370.55,398.37,370.08,397.91Z" transform="translate(-69.1 -311.02)"/><path class="cls-6" d="M290.44,391.21c.38.13.4.13.4.5,0,1.75,0,3.5,0,5.24-.4-1.4-.07-2.83-.18-4.24C290.59,392.2,290.8,391.67,290.44,391.21Z" transform="translate(-69.1 -311.02)"/><path class="cls-6" d="M237.58,395.33l-.17-6C237.82,391.29,237.51,393.32,237.58,395.33Z" transform="translate(-69.1 -311.02)"/><path class="cls-6" d="M192.72,391.28c.31,2,0,4,.19,5.91C192.47,395.23,192.84,393.25,192.72,391.28Z" transform="translate(-69.1 -311.02)"/><path class="cls-6" d="M335.25,325.91a21.08,21.08,0,0,1,6,0Z" transform="translate(-69.1 -311.02)"/><path class="cls-6" d="M280.77,394.8c-.59.42-.31-.22-.32-.3,0-1.74-.06-3.48-.08-5.21.4,1.32.08,2.67.2,4C280.61,393.8,280.39,394.34,280.77,394.8Z" transform="translate(-69.1 -311.02)"/><path class="cls-6" d="M322.8,395.46c-.45-1.37-.1-2.78-.19-4.17,0-.58,0-1.17,0-1.76C323,391.49,322.69,393.48,322.8,395.46Z" transform="translate(-69.1 -311.02)"/><path class="cls-6" d="M205.28,391.22c.35.1.36.1.36.27,0,1.66,0,3.32,0,5-.38-1.15-.08-2.34-.18-3.51C205.39,392.38,205.59,391.77,205.28,391.22Z" transform="translate(-69.1 -311.02)"/><path class="cls-6" d="M319.73,391.21c.63-.4.37.24.37.37,0,1.63,0,3.26,0,4.89-.39-1.2-.07-2.43-.18-3.64C319.87,392.29,320.09,391.72,319.73,391.21Z" transform="translate(-69.1 -311.02)"/><path class="cls-6" d="M317,393.59c-.3.17-.31.17-.32-.12l-.06-4.18c.38,1,.08,2,.18,2.93C316.85,392.68,316.65,393.18,317,393.59Z" transform="translate(-69.1 -311.02)"/><path class="cls-6" d="M287.72,393.59c-.3.17-.31.17-.32-.12,0-1.4,0-2.79-.08-4.18.42.91.09,1.87.2,2.81C287.58,392.6,287.35,393.14,287.72,393.59Z" transform="translate(-69.1 -311.02)"/><path class="cls-6" d="M257.75,388.58a12.59,12.59,0,0,1,0-4.66Z" transform="translate(-69.1 -311.02)"/><path class="cls-6" d="M121.48,394.32c1-.45,2.07-.09,3.09-.2.47-.05.94-.06,1.41-.09-.76.62-1.66.18-2.49.28A19.24,19.24,0,0,1,121.48,394.32Z" transform="translate(-69.1 -311.02)"/><path class="cls-6" d="M101.34,390.48c.12-.32.4-.19.61-.19,1.84-.07,1.84-.06,1.72-2,.67,1.72.41,2.16-1.27,2.16Z" transform="translate(-69.1 -311.02)"/><path class="cls-6" d="M272.11,385.69c-.1,1.33.25,2.69-.19,4C272,388.37,271.7,387,272.11,385.69Z" transform="translate(-69.1 -311.02)"/><path class="cls-6" d="M165.39,322.09a19.93,19.93,0,0,1-3.62.18C163,321.86,164.18,322.17,165.39,322.09Z" transform="translate(-69.1 -311.02)"/><path class="cls-6" d="M172.55,387.86a8.61,8.61,0,0,1,0-3.43C172.55,385.57,172.55,386.71,172.55,387.86Z" transform="translate(-69.1 -311.02)"/><path class="cls-6" d="M136.07,322.26a18.73,18.73,0,0,1-3.43-.16A12.34,12.34,0,0,1,136.07,322.26Z" transform="translate(-69.1 -311.02)"/><path class="cls-6" d="M142.56,391.67c-.48-1.08,0-2.24-.25-3.35C142.84,389.41,142.43,390.56,142.56,391.67Z" transform="translate(-69.1 -311.02)"/><path class="cls-6" d="M338.93,359.54a7.6,7.6,0,0,1-3.22,0Z" transform="translate(-69.1 -311.02)"/><path class="cls-6" d="M457,322.27a12.94,12.94,0,0,0-3.11,0A5.08,5.08,0,0,1,457,322.27Z" transform="translate(-69.1 -311.02)"/><path class="cls-6" d="M354.71,330.5a15,15,0,0,1-.18-3.13C354.94,328.39,354.62,329.45,354.71,330.5Z" transform="translate(-69.1 -311.02)"/><path class="cls-6" d="M340.07,362.63a16.3,16.3,0,0,1,3.12-.18C342.17,362.87,341.11,362.54,340.07,362.63Z" transform="translate(-69.1 -311.02)"/><path class="cls-6" d="M77,397.69a3.89,3.89,0,0,0,2.69.14,3.45,3.45,0,0,1-2.74.18Z" transform="translate(-69.1 -311.02)"/><path class="cls-6" d="M83.78,397.63a3.73,3.73,0,0,0,2.84.18A2.33,2.33,0,0,1,83.78,397.63Z" transform="translate(-69.1 -311.02)"/><path class="cls-6" d="M340,397.69c.86.55,1.78.21,2.68.18-.85.57-1.78.24-2.67.2C339.87,398.06,339.93,397.82,340,397.69Z" transform="translate(-69.1 -311.02)"/><path class="cls-6" d="M72.42,347.29a13.22,13.22,0,0,1-.17,3.14C72.33,349.38,72,348.32,72.42,347.29Z" transform="translate(-69.1 -311.02)"/><path class="cls-6" d="M463.93,397.87c.9,0,1.82.37,2.67-.18.11.13.17.37,0,.37C465.71,398.11,464.79,398.44,463.93,397.87Z" transform="translate(-69.1 -311.02)"/><path class="cls-6" d="M142.82,329.2a15.48,15.48,0,0,1,.16,3.19A10.36,10.36,0,0,1,142.82,329.2Z" transform="translate(-69.1 -311.02)"/><path class="cls-6" d="M129.59,322a13.88,13.88,0,0,1-3-.17A8.61,8.61,0,0,1,129.59,322Z" transform="translate(-69.1 -311.02)"/><path class="cls-6" d="M93.14,397.85a8,8,0,0,0,2.84,0A2.9,2.9,0,0,1,93.14,397.85Z" transform="translate(-69.1 -311.02)"/><path class="cls-6" d="M320.87,343.71a8.12,8.12,0,0,1,0-3C320.86,341.71,320.87,342.71,320.87,343.71Z" transform="translate(-69.1 -311.02)"/><path class="cls-6" d="M72.25,333.33a11.76,11.76,0,0,1,.17,2.9A9.41,9.41,0,0,1,72.25,333.33Z" transform="translate(-69.1 -311.02)"/><path class="cls-6" d="M171.41,321.86a13,13,0,0,1-2.92.16A9.24,9.24,0,0,1,171.41,321.86Z" transform="translate(-69.1 -311.02)"/><path class="cls-6" d="M478.81,397.78a5.4,5.4,0,0,0,2.62.09A2.36,2.36,0,0,1,478.81,397.78Z" transform="translate(-69.1 -311.02)"/><path class="cls-6" d="M495.85,362.21l2.63-.06A3.38,3.38,0,0,1,495.85,362.21Z" transform="translate(-69.1 -311.02)"/><path class="cls-6" d="M439.46,397.61c.72.68,1.58.25,2.38.29C441,398.14,440.14,398.66,439.46,397.61Z" transform="translate(-69.1 -311.02)"/><path class="cls-6" d="M355.22,397.62c.72.67,1.58.24,2.38.28C356.76,398.14,355.9,398.65,355.22,397.62Z" transform="translate(-69.1 -311.02)"/><path class="cls-6" d="M154.14,334.55a10.15,10.15,0,0,1,.17-2.64A7.82,7.82,0,0,1,154.14,334.55Z" transform="translate(-69.1 -311.02)"/><path class="cls-6" d="M87.38,397.77a5.21,5.21,0,0,0,2.6.1A2.29,2.29,0,0,1,87.38,397.77Z" transform="translate(-69.1 -311.02)"/><path class="cls-6" d="M217.45,343a9.47,9.47,0,0,1,2.65.18C219.21,343.11,218.31,343.42,217.45,343Z" transform="translate(-69.1 -311.02)"/><path class="cls-6" d="M226.38,394.31a18.11,18.11,0,0,1,.18-2.55C226.47,392.61,226.77,393.48,226.38,394.31Z" transform="translate(-69.1 -311.02)"/><path class="cls-6" d="M98.66,397.77a6.09,6.09,0,0,0,2.62.14A2.46,2.46,0,0,1,98.66,397.77Z" transform="translate(-69.1 -311.02)"/><path class="cls-6" d="M118.82,397.77a5.21,5.21,0,0,0,2.6.1A2.29,2.29,0,0,1,118.82,397.77Z" transform="translate(-69.1 -311.02)"/><path class="cls-6" d="M145.7,397.77a5.21,5.21,0,0,0,2.6.1A2.29,2.29,0,0,1,145.7,397.77Z" transform="translate(-69.1 -311.02)"/><path class="cls-6" d="M347.05,398a12,12,0,0,0,2.61-.14A2.87,2.87,0,0,1,347.05,398Z" transform="translate(-69.1 -311.02)"/><path class="cls-6" d="M364.57,397.78a5.4,5.4,0,0,0,2.62.09A2.36,2.36,0,0,1,364.57,397.78Z" transform="translate(-69.1 -311.02)"/><path class="cls-6" d="M448.82,397.77a5.21,5.21,0,0,0,2.6.1A2.29,2.29,0,0,1,448.82,397.77Z" transform="translate(-69.1 -311.02)"/><path class="cls-6" d="M457,397.86a9.2,9.2,0,0,0,2.62.05A2.74,2.74,0,0,1,457,397.86Z" transform="translate(-69.1 -311.02)"/><path class="cls-6" d="M473.3,397.86a7.57,7.57,0,0,0,2.6,0A2.53,2.53,0,0,1,473.3,397.86Z" transform="translate(-69.1 -311.02)"/><path class="cls-6" d="M72.18,353.05a8.06,8.06,0,0,1-.17,2.4A6.47,6.47,0,0,1,72.18,353.05Z" transform="translate(-69.1 -311.02)"/><path class="cls-6" d="M269.58,394.07c0-.57,0-1.14,0-1.71,0-.32.13-.41.41-.39C269.5,392.6,270,393.43,269.58,394.07Z" transform="translate(-69.1 -311.02)"/><path class="cls-6" d="M451.48,395c.76-.42,1.57-.12,2.35-.18A6.65,6.65,0,0,1,451.48,395Z" transform="translate(-69.1 -311.02)"/><path class="cls-6" d="M351.12,397.91h2.4A2.61,2.61,0,0,1,351.12,397.91Z" transform="translate(-69.1 -311.02)"/><path class="cls-6" d="M96.26,390.19c.76.3,1.63-.2,2.37.29C97.85,390.34,97,390.8,96.26,390.19Z" transform="translate(-69.1 -311.02)"/><path class="cls-6" d="M311.56,394.08c.1-.79-.23-1.61.2-2.36C311.67,392.5,312,393.32,311.56,394.08Z" transform="translate(-69.1 -311.02)"/><path class="cls-6" d="M435.36,397.91h2.4A2.61,2.61,0,0,1,435.36,397.91Z" transform="translate(-69.1 -311.02)"/><path class="cls-6" d="M244.09,396.05h2.38A3.26,3.26,0,0,1,244.09,396.05Z" transform="translate(-69.1 -311.02)"/><path class="cls-6" d="M354.46,324.32c-.09-.82-.17-1.65-.26-2.47C354.78,322.62,354.36,323.5,354.46,324.32Z" transform="translate(-69.1 -311.02)"/><path class="cls-6" d="M467.76,397.91a8.62,8.62,0,0,0,2.38,0A2.38,2.38,0,0,1,467.76,397.91Z" transform="translate(-69.1 -311.02)"/><path class="cls-6" d="M250.27,387.85v2.38A3.31,3.31,0,0,1,250.27,387.85Z" transform="translate(-69.1 -311.02)"/><path class="cls-6" d="M153.9,339.35a8,8,0,0,1,.16-2.23A5.26,5.26,0,0,1,153.9,339.35Z" transform="translate(-69.1 -311.02)"/><path class="cls-6" d="M303.06,392.17c0,.71,0,1.43,0,2.14A2.74,2.74,0,0,1,303.06,392.17Z" transform="translate(-69.1 -311.02)"/><path class="cls-6" d="M212.13,343.19a6.16,6.16,0,0,1,2.18-.17C213.61,343.39,212.86,343.12,212.13,343.19Z" transform="translate(-69.1 -311.02)"/><path class="cls-6" d="M72,328.75a7.41,7.41,0,0,1,.16,2.2C71.81,330.24,72.07,329.48,72,328.75Z" transform="translate(-69.1 -311.02)"/><path class="cls-6" d="M249.21,394.35c-.28.16-.6.36-.68-.16a11.33,11.33,0,0,1-.07-1.3C248.91,393.27,248.23,394.23,249.21,394.35Z" transform="translate(-69.1 -311.02)"/><path class="cls-6" d="M258.47,396.27c-.08-.75-.4-1.49,0-2.24Z" transform="translate(-69.1 -311.02)"/><path class="cls-6" d="M396.49,362.46l2,.16C397.82,362.57,397.13,362.82,396.49,362.46Z" transform="translate(-69.1 -311.02)"/><path class="cls-6" d="M402.88,362.62l2-.17C404.24,362.83,403.54,362.57,402.88,362.62Z" transform="translate(-69.1 -311.02)"/><path class="cls-6" d="M192.29,383.51v-1.9A2.18,2.18,0,0,1,192.29,383.51Z" transform="translate(-69.1 -311.02)"/><path class="cls-6" d="M424,392.17v1.9A2.06,2.06,0,0,1,424,392.17Z" transform="translate(-69.1 -311.02)"/><path class="cls-6" d="M251.47,404.41v1.9A2.15,2.15,0,0,1,251.47,404.41Z" transform="translate(-69.1 -311.02)"/><path class="cls-6" d="M157.43,390.24v-1.92A1.72,1.72,0,0,1,157.43,390.24Z" transform="translate(-69.1 -311.02)"/><path class="cls-6" d="M491.07,390.24a4.44,4.44,0,0,0,0-1.92A2,2,0,0,1,491.07,390.24Z" transform="translate(-69.1 -311.02)"/><path class="cls-6" d="M342.71,322a6.21,6.21,0,0,1-1.92-.18C341.43,321.92,342.1,321.65,342.71,322Z" transform="translate(-69.1 -311.02)"/><path class="cls-6" d="M71.78,324.91a5.88,5.88,0,0,1,.17,2C71.56,326.25,71.83,325.57,71.78,324.91Z" transform="translate(-69.1 -311.02)"/><path class="cls-6" d="M335,392.12a1.9,1.9,0,0,1,0-1.82Z" transform="translate(-69.1 -311.02)"/><path class="cls-6" d="M213.11,340.27a5.47,5.47,0,0,1-1.93-.18C211.83,340.16,212.5,339.88,213.11,340.27Z" transform="translate(-69.1 -311.02)"/><path class="cls-6" d="M403.92,392.12a1.9,1.9,0,0,1,0-1.82Z" transform="translate(-69.1 -311.02)"/><path class="cls-6" d="M221.31,340.09a5.3,5.3,0,0,1-1.94.18C220,339.89,220.66,340.16,221.31,340.09Z" transform="translate(-69.1 -311.02)"/><path class="cls-6" d="M71.94,357.61a5.52,5.52,0,0,1-.17,1.94C71.83,358.9,71.58,358.23,71.94,357.61Z" transform="translate(-69.1 -311.02)"/><path class="cls-6" d="M490.79,393.84v-1.92A1.72,1.72,0,0,1,490.79,393.84Z" transform="translate(-69.1 -311.02)"/><path class="cls-6" d="M413.94,392.41v1.66A1.75,1.75,0,0,1,413.94,392.41Z" transform="translate(-69.1 -311.02)"/><path class="cls-6" d="M371.47,339.85l-.18,1.69C371.35,341,371.1,340.38,371.47,339.85Z" transform="translate(-69.1 -311.02)"/><path class="cls-6" d="M247,396.08a3.34,3.34,0,0,1,.2,1.59C246.78,397.18,247,396.61,247,396.08Z" transform="translate(-69.1 -311.02)"/><path class="cls-6" d="M215.58,395.75v-1.66A1.77,1.77,0,0,1,215.58,395.75Z" transform="translate(-69.1 -311.02)"/><path class="cls-6" d="M77.58,392.39v-1.66A1.77,1.77,0,0,1,77.58,392.39Z" transform="translate(-69.1 -311.02)"/><path class="cls-6" d="M251.29,394.08c-.43.44-1,.1-1.44.19C250.29,393.91,250.81,394.15,251.29,394.08Z" transform="translate(-69.1 -311.02)"/><path class="cls-6" d="M371.29,342.93l.18,1.7C371.1,344.1,371.35,343.5,371.29,342.93Z" transform="translate(-69.1 -311.02)"/><path class="cls-6" d="M397.45,321.85a4.75,4.75,0,0,1-1.68.18C396.3,321.66,396.89,321.91,397.45,321.85Z" transform="translate(-69.1 -311.02)"/><path class="cls-6" d="M405.59,322a4.66,4.66,0,0,1-1.7-.18C404.46,321.91,405.06,321.66,405.59,322Z" transform="translate(-69.1 -311.02)"/><path class="cls-6" d="M333.61,321.85a4.75,4.75,0,0,1-1.68.18C332.46,321.66,333.05,321.91,333.61,321.85Z" transform="translate(-69.1 -311.02)"/><path class="cls-6" d="M332.89,362.46a5.16,5.16,0,0,1,1.7.17C334,362.58,333.43,362.81,332.89,362.46Z" transform="translate(-69.1 -311.02)"/><path class="cls-6" d="M261.06,392.41v1.66A1.8,1.8,0,0,1,261.06,392.41Z" transform="translate(-69.1 -311.02)"/><path class="cls-6" d="M224.21,339.86a3.25,3.25,0,0,1-1.48.17C223.18,339.68,223.71,339.9,224.21,339.86Z" transform="translate(-69.1 -311.02)"/><path class="cls-6" d="M344.83,362.38a3.54,3.54,0,0,1,1.48-.16C345.85,362.55,345.33,362.35,344.83,362.38Z" transform="translate(-69.1 -311.02)"/><path class="cls-6" d="M180,389.29v1.43A1.19,1.19,0,0,1,180,389.29Z" transform="translate(-69.1 -311.02)"/><path class="cls-6" d="M493.16,390.48l0,1.43A1.27,1.27,0,0,1,493.16,390.48Z" transform="translate(-69.1 -311.02)"/><path class="cls-6" d="M221.77,343.25a3.69,3.69,0,0,1,1.51.17C222.77,343.39,222.24,343.6,221.77,343.25Z" transform="translate(-69.1 -311.02)"/><path class="cls-6" d="M209.25,343.43a3.17,3.17,0,0,1,1.46-.18C210.26,343.6,209.74,343.38,209.25,343.43Z" transform="translate(-69.1 -311.02)"/><path class="cls-6" d="M203.34,328.55a3,3,0,0,1,.17-1.46C203.47,327.58,203.67,328.09,203.34,328.55Z" transform="translate(-69.1 -311.02)"/><path class="cls-6" d="M179.29,398h1.42A1.29,1.29,0,0,1,179.29,398Z" transform="translate(-69.1 -311.02)"/><path class="cls-6" d="M221.29,398h1.42A1.31,1.31,0,0,1,221.29,398Z" transform="translate(-69.1 -311.02)"/><path class="cls-6" d="M264.49,398h1.42A1.29,1.29,0,0,1,264.49,398Z" transform="translate(-69.1 -311.02)"/><path class="cls-6" d="M222,389.29v1.42A1.23,1.23,0,0,1,222,389.29Z" transform="translate(-69.1 -311.02)"/><path class="cls-6" d="M496.33,398.22h1.42A1.31,1.31,0,0,1,496.33,398.22Z" transform="translate(-69.1 -311.02)"/><path class="cls-6" d="M306.49,398h1.42A1.31,1.31,0,0,1,306.49,398Z" transform="translate(-69.1 -311.02)"/><path class="cls-6" d="M395.27,388h-1.18A1,1,0,0,1,395.27,388Z" transform="translate(-69.1 -311.02)"/><path class="cls-6" d="M419.35,396a1.1,1.1,0,0,1-1.29,0Z" transform="translate(-69.1 -311.02)"/><path class="cls-6" d="M209.75,340a2.42,2.42,0,0,1-1.22-.17C208.94,339.88,209.38,339.71,209.75,340Z" transform="translate(-69.1 -311.02)"/><path class="cls-6" d="M226.64,339.62a2.52,2.52,0,0,1-1.27.17C225.75,339.46,226.21,339.64,226.64,339.62Z" transform="translate(-69.1 -311.02)"/><path class="cls-6" d="M308.17,343.9a2.41,2.41,0,0,1,.19,1.21C308,344.75,308.21,344.31,308.17,343.9Z" transform="translate(-69.1 -311.02)"/><path class="cls-6" d="M353.54,330.83a2.13,2.13,0,0,0,1.17-.15C354.37,331.13,354,331,353.54,330.83Z" transform="translate(-69.1 -311.02)"/><path class="cls-6" d="M498.53,328.79a1.92,1.92,0,0,1,.18-1.22C498.67,328,498.86,328.43,498.53,328.79Z" transform="translate(-69.1 -311.02)"/><path class="cls-6" d="M217.86,392.65v1.18A1,1,0,0,1,217.86,392.65Z" transform="translate(-69.1 -311.02)"/><path class="cls-6" d="M229.69,326.62a2.21,2.21,0,0,1,.18,1.21C229.54,327.47,229.73,327,229.69,326.62Z" transform="translate(-69.1 -311.02)"/><path class="cls-6" d="M342.49,326a2.16,2.16,0,0,1,1.2.18C343.29,326.11,342.85,326.3,342.49,326Z" transform="translate(-69.1 -311.02)"/><path class="cls-6" d="M351.37,322.33a2.07,2.07,0,0,1-1.2.17C350.53,322.19,351,322.36,351.37,322.33Z" transform="translate(-69.1 -311.02)"/><path class="cls-6" d="M173.25,392.16c-.76.12-.27-.48-.4-.72Z" transform="translate(-69.1 -311.02)"/><path class="cls-6" d="M347.51,322.51a2.31,2.31,0,0,1-1.27-.17C346.67,322.36,347.12,322.18,347.51,322.51Z" transform="translate(-69.1 -311.02)"/><path class="cls-6" d="M345.11,322.26a2.25,2.25,0,0,1-1.2-.17C344.31,322.12,344.75,322,345.11,322.26Z" transform="translate(-69.1 -311.02)"/><path class="cls-6" d="M406.07,362.39a2.25,2.25,0,0,1,1.2-.18C406.91,362.54,406.47,362.35,406.07,362.39Z" transform="translate(-69.1 -311.02)"/><path class="cls-6" d="M203.51,358.59a2,2,0,0,1-.18-1.22C203.66,357.73,203.47,358.18,203.51,358.59Z" transform="translate(-69.1 -311.02)"/><path class="cls-6" d="M236.16,398h1.19A.92.92,0,0,1,236.16,398Z" transform="translate(-69.1 -311.02)"/><path class="cls-6" d="M458.38,358.37a2,2,0,0,1-.16-1.24C458.53,357.51,458.36,358,458.38,358.37Z" transform="translate(-69.1 -311.02)"/><path class="cls-6" d="M352.6,352.81l-.27,1.21C352.39,353.61,352.13,353.13,352.6,352.81Z" transform="translate(-69.1 -311.02)"/><path class="cls-6" d="M321.37,398l1.19,0A.91.91,0,0,1,321.37,398Z" transform="translate(-69.1 -311.02)"/><path class="cls-6" d="M113.27,388h-1.18A1,1,0,0,1,113.27,388Z" transform="translate(-69.1 -311.02)"/><path class="cls-6" d="M173.27,395.31c-.1-.41-.3-.83,0-1.24Z" transform="translate(-69.1 -311.02)"/><path class="cls-6" d="M263.51,393.14a1.51,1.51,0,0,1,0-1.25Z" transform="translate(-69.1 -311.02)"/><path class="cls-6" d="M172.79,390.49a2.15,2.15,0,0,1-.17-1.2C172.93,389.65,172.76,390.09,172.79,390.49Z" transform="translate(-69.1 -311.02)"/><path class="cls-6" d="M429.35,388h-1.18A1,1,0,0,1,429.35,388Z" transform="translate(-69.1 -311.02)"/><path class="cls-6" d="M205.43,339.55a2.16,2.16,0,0,1-1.2-.18C204.63,339.41,205.07,339.22,205.43,339.55Z" transform="translate(-69.1 -311.02)"/><path class="cls-6" d="M258,391a2.23,2.23,0,0,1-.18-1.22C258.13,390.14,258,390.58,258,391Z" transform="translate(-69.1 -311.02)"/><path class="cls-6" d="M227.05,343.73a2.23,2.23,0,0,1,1.22.18C227.86,343.88,227.42,344.05,227.05,343.73Z" transform="translate(-69.1 -311.02)"/><path class="cls-6" d="M102,343.61c.24.34.51.58.94.34C102.51,344.23,102.11,344.37,102,343.61Z" transform="translate(-69.1 -311.02)"/><path class="cls-6" d="M300.77,395.51v-1.18A.93.93,0,0,1,300.77,395.51Z" transform="translate(-69.1 -311.02)"/><path class="cls-6" d="M224.65,343.49a2.76,2.76,0,0,1,1.27.17C225.49,343.64,225,343.82,224.65,343.49Z" transform="translate(-69.1 -311.02)"/><path class="cls-6" d="M258.29,400.55a2.64,2.64,0,0,1,.17-1.24C258.44,399.73,258.62,400.18,258.29,400.55Z" transform="translate(-69.1 -311.02)"/><path class="cls-6" d="M206.86,343.67a2.2,2.2,0,0,1,1.21-.17C207.71,343.81,207.27,343.64,206.86,343.67Z" transform="translate(-69.1 -311.02)"/><path class="cls-6" d="M257.17,380.63a32.15,32.15,0,0,0-1.86,6.1,20.92,20.92,0,0,0,.35,7.15,2.07,2.07,0,0,1-.68,2.22C250.86,392.1,252.3,382.23,257.17,380.63Z" transform="translate(-69.1 -311.02)"/><path class="cls-6" d="M256.06,396.74c.61,3,.76,5.68-.29,8.33-.33.83-.77,1.89-1.89,1.64s-1-1.32-.95-2.2A13.68,13.68,0,0,1,256.06,396.74Z" transform="translate(-69.1 -311.02)"/><path class="cls-8" d="M274.63,387.58a16,16,0,0,1,.33-5.64c.11-.36.19-.9.69-.83s.36.62.38,1A8.72,8.72,0,0,1,274.63,387.58Z" transform="translate(-69.1 -311.02)"/><path class="cls-9" d="M246.5,394.94a4.29,4.29,0,0,1-2.57-.24c-.37-.19-.68-.48-.53-.94s.62-.46,1-.39A3.53,3.53,0,0,1,246.5,394.94Z" transform="translate(-69.1 -311.02)"/><path class="cls-10" d="M298.39,394.62c.43.85.56,1.46.1,2-.15.19-.38.12-.5-.07C297.55,395.88,298.16,395.42,298.39,394.62Z" transform="translate(-69.1 -311.02)"/><path class="cls-11" d="M310,390.88c-.75.17-1.25,0-1.54-.61a.32.32,0,0,1,.25-.45C309.38,389.78,309.63,390.31,310,390.88Z" transform="translate(-69.1 -311.02)"/><path class="cls-12" d="M267.93,390.85c-.69.15-1.2,0-1.5-.53a.37.37,0,0,1,.31-.53C267.37,389.83,267.67,390.28,267.93,390.85Z" transform="translate(-69.1 -311.02)"/><path class="cls-6" d="M171.85,380.58a1.84,1.84,0,0,1-.28,1.28,18.92,18.92,0,0,0-1.08,11.94,2.14,2.14,0,0,1-.75,2.38c-2.49-3.17-2.84-6.74-1.83-10.49C168.5,383.52,169.53,381.58,171.85,380.58Z" transform="translate(-69.1 -311.02)"/><path class="cls-6" d="M171,396.7c.44,2.71.71,5.14-.06,7.56a7.66,7.66,0,0,1-.71,1.63c-.31.51-.75,1-1.44.86s-.93-.82-1-1.49a9.36,9.36,0,0,1,.35-3.07A15.25,15.25,0,0,1,171,396.7Z" transform="translate(-69.1 -311.02)"/><path class="cls-13" d="M189.4,387.89a20.22,20.22,0,0,1,.3-5.58c.11-.46.16-1.24.76-1.2s.44.82.45,1.29A9.56,9.56,0,0,1,189.4,387.89Z" transform="translate(-69.1 -311.02)"/><path class="cls-14" d="M213.29,394.89a1.16,1.16,0,0,1,.31,1.1c0,.34,0,.83-.56.71s-.44-.51-.27-.9A1.94,1.94,0,0,1,213.29,394.89Z" transform="translate(-69.1 -311.02)"/><path class="cls-15" d="M182.78,390.9c-.69.06-1.24,0-1.5-.6a.36.36,0,0,1,.33-.51C182.24,389.83,182.55,390.28,182.78,390.9Z" transform="translate(-69.1 -311.02)"/><path class="cls-16" d="M224.81,390.88a1.16,1.16,0,0,1-1.54-.61.32.32,0,0,1,.25-.45C224.23,389.8,224.52,390.31,224.81,390.88Z" transform="translate(-69.1 -311.02)"/><path class="cls-1" d="M401,324.41c6.67.38,11.44,3.76,14.63,9.5A17.73,17.73,0,0,1,408.15,358a16.28,16.28,0,0,1-21.49-6.85c-5.81-10.21-.37-23.55,10.73-26.33A13,13,0,0,1,401,324.41Z" transform="translate(-69.1 -311.02)"/><path class="cls-1" d="M625.8,333.47v1.92a4.49,4.49,0,0,1-4.08,4.42,3.93,3.93,0,0,1-4.76-3,9,9,0,0,1,.31-6.43c1.47-3.27,6.23-3,8.27-.82a1.39,1.39,0,0,1,.26,1Z" transform="translate(-69.1 -311.02)"/><path class="cls-1" d="M612.2,390.42v1.92a4.58,4.58,0,0,1-4.16,4.38,4,4,0,0,1-4.75-3,9.61,9.61,0,0,1,0-5.67,4.15,4.15,0,0,1,3.34-3.07,5.62,5.62,0,0,1,5.28,1.58,1.23,1.23,0,0,1,.26,1Z" transform="translate(-69.1 -311.02)"/><path class="cls-1" d="M582.28,334.41v-1.79a4.82,4.82,0,0,1,4.64-4.58c2.38-.23,3.94,1,4.48,3.64a10.48,10.48,0,0,1,0,4.63,4.23,4.23,0,0,1-3.22,3.49,5.75,5.75,0,0,1-5.55-1.41,1.22,1.22,0,0,1-.3-1C582.29,336.41,582.28,335.41,582.28,334.41Z" transform="translate(-69.1 -311.02)"/><path class="cls-6" d="M91.16,392.68c-.34-.14-1,.31-1.15-.32s-.37-1.74.13-2a3.11,3.11,0,0,1,2.63,0,1.07,1.07,0,0,1,.5,1.34c-.25,1-1,1-1.81.94Z" transform="translate(-69.1 -311.02)"/><path class="cls-6" d="M392.28,393.06a4.18,4.18,0,0,1,.48-1.86,2,2,0,0,1,1.52-1.05c1.58-.23,2.66.86,2.78,2.81s-.94,3.25-2.4,3.24S392.32,394.94,392.28,393.06Z" transform="translate(-69.1 -311.02)"/><path class="cls-6" d="M426.45,393.42a3.55,3.55,0,0,1,.76-2.63,2.23,2.23,0,0,1,3.55.48,3.94,3.94,0,0,1,.3,3,2.27,2.27,0,0,1-2.17,1.9,2.17,2.17,0,0,1-2.25-1.77A7.39,7.39,0,0,1,426.45,393.42Z" transform="translate(-69.1 -311.02)"/><path class="cls-6" d="M115,393.13a3.23,3.23,0,0,1-1,2.58,2.07,2.07,0,0,1-1.2.47c-1.35.14-2.39-1-2.56-2.73s.76-3.19,2.17-3.32,2.37.8,2.57,2.4C115,392.73,115,392.93,115,393.13Z" transform="translate(-69.1 -311.02)"/><path class="cls-1" d="M640.28,361.48h-3.83c-.46,0-.73,0-.66-.63a4.81,4.81,0,0,1,6.49-4.2,4.6,4.6,0,0,1,2.63,4.43c-.09.54-.42.39-.69.39C642.91,361.49,641.59,361.48,640.28,361.48Z" transform="translate(-69.1 -311.02)"/><path class="cls-1" d="M566.69,361.48c-1.24,0-2.48,0-3.72,0-.57,0-.83-.05-.71-.78a4.75,4.75,0,0,1,4.74-4.35c3,0,4.13,2,4.31,4.56,0,.52-.26.57-.67.56Z" transform="translate(-69.1 -311.02)"/><path class="cls-1" d="M575.8,336.44c.41,1.62-.8,2.47-2.11,3.12a4.52,4.52,0,0,1-4.68-.08,2.77,2.77,0,0,1-1.11-2.75,2.58,2.58,0,0,1,1.81-2.31,11.08,11.08,0,0,1,5.66-.09c.38.07.43.31.43.6Z" transform="translate(-69.1 -311.02)"/><path class="cls-6" d="M622.5,390c-1.24,0-2.49,0-3.72,0-.83,0-.92-.28-.79-1a4.67,4.67,0,0,1,5.72-4.07,4.35,4.35,0,0,1,3.32,4.63c-.08.54-.42.39-.69.39C625.06,390,623.78,390,622.5,390Z" transform="translate(-69.1 -311.02)"/><path class="cls-1" d="M539.22,391a9,9,0,0,1,.28-2.36,5,5,0,0,1,9.63-.15,8.66,8.66,0,0,1,.11,4.49,4.78,4.78,0,0,1-5.37,4,4.88,4.88,0,0,1-4.58-4.68C539.24,391.85,539.24,391.41,539.22,391Z" transform="translate(-69.1 -311.02)"/><path class="cls-6" d="M451.4,391.39c-.3-1,.22-1.28,1.3-1.21,1.47.09,2.06.41,2.05,1.38s-.64,1.35-2.27,1.47C451.12,393.13,451.41,392.29,451.4,391.39Z" transform="translate(-69.1 -311.02)"/><path class="cls-9" d="M461.8,390.79c.38,1.22.68,2.12.92,3,.07.25.48.67,0,.79a4,4,0,0,1-1.76,0c-.47-.09-.17-.53-.1-.79C461.14,392.93,461.43,392,461.8,390.79Z" transform="translate(-69.1 -311.02)"/><path class="cls-9" d="M81.72,390.83c.39,1.22.72,2.23,1,3.25.12.38,0,.56-.41.63-1.61.24-1.81,0-1.34-1.51C81.22,392.48,81.44,391.76,81.72,390.83Z" transform="translate(-69.1 -311.02)"/><path class="cls-9" d="M344.78,390.78c.35,1.08.62,1.82.81,2.58.1.41.61,1,.09,1.24a3.28,3.28,0,0,1-1.74,0c-.43-.07-.15-.43-.08-.66C344.14,393,344.43,392,344.78,390.78Z" transform="translate(-69.1 -311.02)"/><path class="cls-8" d="M71.82,391.48c-.31-1.1.22-1.36,1.3-1.3,1.54.08,2,.35,2,1.38s-.59,1.36-2.25,1.47C71.59,393.12,71.75,392.35,71.82,391.48Z" transform="translate(-69.1 -311.02)"/></svg>