<svg id="Layer_1" data-name="Layer 1" xmlns="http://www.w3.org/2000/svg" viewBox="0 0 3455.77 2159.6"><defs><style>.cls-1{fill:none;}.cls-2{fill:#babcbe;}.cls-3{fill:#b0b0b0;}.cls-4{fill:#fff;}</style></defs><title>MonochromeBeakSquadLogo</title><path class="cls-1" d="M3455.77,2159.6H0V0H3455.77ZM1348.54,1150.54c3.3.16,5.22.41,7.13.31,16.34-.9,31.19-6.48,45.2-14.61,3.17-1.84,6.26-3.84,9.51-5.5,3.86-2,7-1.24,9.13,2.88,2.26,4.46,4.67,8.84,7,13.27,17.74,34,44.76,56.61,82,66.55,18.65,5,37.42,9.55,56,14.81,23.36,6.62,47.31,11.94,69.72,21,67.18,27.2,126.3,67.19,177.52,118.48a233.56,233.56,0,0,1,62.85,111.82c17.07,70.27,39.87,138.84,62.59,207.43,1.55,4.68,3.14,9.17,9,8.94,5.6-.21,7.75-4.67,9.35-9.14a99.08,99.08,0,0,0,4.29-14.33c10.65-55.8,28.16-109.56,48-162.66,6.76-18.12,13.09-36.47,24.33-52.4,13.64-19.32,27.35-38.63,42-57.22,35-44.52,78.7-79.28,125.86-110,33-21.52,68-39.41,103.89-55.44a186,186,0,0,0,47.64-30.83c27.84-24.59,49.38-54,66.44-86.79,2-3.84,3.7-7.85,5.95-11.54,4.39-7.21,10.86-8.45,17.74-3.58a48,48,0,0,1,4.48,4q24,21.93,47.92,43.86c2.3,2.09,4.93,3.83,7.4,5.73l1.8-1.19c-.49-3.47-.3-7.21-1.57-10.36-8.61-21.4-7.7-43.64-6.79-66,1.35-32.94,3.13-65.91,2.77-98.86-.25-22.89-3.93-45.73-5.84-68.62-2.34-27.94-5.6-55.73-14.9-82.35-5.37-15.39-11.7-30.45-17.39-45.73-4.44-12-3.14-17.25,6.58-25.45,8.64-7.3,17.83-14,26.47-21.25,15.53-13.1,25.43-30.66,36.56-47.22.64-1,.56-2.41.81-3.6-1-.34-1.69-.77-2.28-.7-26,3.17-49.56-2.93-70.44-18.81-7.95-6-15.58-12.53-23.49-18.63-6.28-4.84-8.18-11.23-6.79-18.62a38.48,38.48,0,0,1,3.86-11.27c6.92-12.53,13.72-25.18,21.47-37.2,16.81-26.06,33.62-52,44.93-81.15,5.79-14.89,11.92-29.65,17.71-44.55,10.5-27,19.93-54.4,26.1-82.79.59-2.74.77-5.58,1.39-10.16-5.47,2.87-9.22,4.89-13,6.81-9.2,4.66-18.29,9.6-27.68,13.85-14.2,6.42-29.15,9.34-44.77,7.61-2.91-.33-5.71-1.72-10.59-3.27,25.77-28.64,43.73-59.61,59-94.94-6.85,1.46-11.31,2.45-15.79,3.35-14.66,2.95-29.25,7.81-44,8.44-46.26,1.95-92.58,2.73-138.88,3.1-25.39.2-50.75-2.73-74.87-10.92-32.77-11.13-65.65-22.31-97.43-35.93-43.74-18.75-86.43-40-129.71-59.8-13.13-6-25.6-12.73-36-23-3.05-3-6.87-5.26-10.41-7.75-7.47-5.25-14.89-5.77-23.31-1.36-13.26,6.95-26.75,13.57-40.55,19.33-41.17,17.18-82.62,33.66-123.8,50.81-38.42,16-77,31.69-113.22,52.48-30.09,17.29-60.8,33.16-93.2,45.68-4.34,1.68-8.6,3.6-12.83,5.55a536.48,536.48,0,0,1-132,41.62c-16.67,2.94-33.53,6.43-50.57,2.84-6.62-1.39-13-4-21.19-6.52,6.77,11.25,12.56,21.26,18.74,31,6,9.56,12,19.21,18.87,28.23s14.76,17.51,23.31,27.53c-32.85,9.13-60.37,2.74-86-21.32,0,7.27-.52,11.78.09,16.14a154.2,154.2,0,0,0,24.2,63.94c14.07,21.44,28.35,42.77,43.28,63.63a131.9,131.9,0,0,0,21.54,23.49c15.2,13,31.31,24.84,47,37.23,9.15,7.22,18.57,14.14,27.23,21.92,15.58,14,18.19,42.37-3.73,57.08-10.24,6.87-20.17,14.2-30.59,20.79-19.94,12.61-41.41,21.44-65.11,23.78-8.86.88-17.82.85-27.37,1.26.56,2.75.73,5,1.51,7.13a63.63,63.63,0,0,0,30.16,34.63c11,5.92,22.92,8.84,35.18,10.64,3.06.45,6,1.43,10.14,2.42-2.83,8.53-5.07,15.79-7.64,22.93A1291.75,1291.75,0,0,0,1385,1000c-11,48-23.48,95.67-35.27,143.49C1349.27,1145.34,1349.08,1147.28,1348.54,1150.54ZM296.91,1652.9c-3.32,1.82-5.94,3.16-8.46,4.66-10,5.92-18.72,13.26-22.33,24.65-10.72,33.84-.85,72.75,40.77,87.55a138,138,0,0,0,45.08,7.9c44.32.43,88.66.55,133,.11a169,169,0,0,0,35.61-4.36c30.09-6.86,52.78-23.87,56.6-56.53,3.39-29-4.17-49.26-29.73-61.56-1.28-.62-2.27-1.82-3.9-3.17,3.78-2.6,7.15-4.26,9.65-6.78,5.1-5.15,11.07-10.06,14.34-16.29,20.87-39.75.53-85.89-42.63-97.73-15.19-4.17-30.75-5.75-46.46-5.79-36.33-.08-72.66-.18-109,.06-11.64.08-23.29.94-34.88,2a112.9,112.9,0,0,0-18.61,3.54c-41.19,10.82-54.27,41.79-49.71,78.22,2.14,17.08,10.14,30.86,25.67,39.52C293.52,1649.79,294.83,1651.21,296.91,1652.9ZM421.13,938.06v-.3c22.31,0,44.64.44,66.94-.14,17-.44,33.82-3.37,49.62-10.07,22-9.33,36.53-25,36.83-49.87q.83-67.39-.26-134.81C574,727.06,566.17,714,553.09,705a102.83,102.83,0,0,0-23-11.57c-16.42-5.92-33.66-7.83-51.05-7.89-38.64-.11-77.28-.18-115.91.07-9.62.07-19.42.52-28.79,2.47-11.66,2.41-23.49,5.36-34.28,10.22-20.49,9.22-32.37,25.77-32.66,48.56q-.83,64.93,0,129.89c.28,21.4,11,37.37,30,47.21a112.52,112.52,0,0,0,19.42,7.71c16.06,4.77,32.61,6.38,49.33,6.36Q393.65,938,421.13,938.06ZM313.88,1321.29c0-15.73-.49-29.74.29-43.67a21.21,21.21,0,0,1,6.18-12.93c4.16-4,9.79-7.53,15.32-8.7a173.23,173.23,0,0,1,33.55-4c39.32-.46,78.64,0,118-.27,12-.08,24.09-.27,35.83-2.23,12.37-2.06,24.93-5,36.43-9.88,22.69-9.62,34.25-27.65,34.46-52.55.05-5.33,0-10.67,0-16,.09-25.32-11.64-43.1-34.46-53.68-12.5-5.8-25.74-9.57-39.44-10.11-26.94-1.06-53.92-1.22-80.88-1.71a18.71,18.71,0,0,0-5,.42c-7.07,1.79-9.63,7.4-9.21,19.82.34,10.23,3,14.62,10.21,16a50.46,50.46,0,0,0,9,.5c18.33,0,36.67-.36,55,.18a128.15,128.15,0,0,1,27.61,3.64C543,1150.21,549,1159,549.05,1175.7v6c0,15.72-6.43,25.1-21.72,29.19a121,121,0,0,1-27.58,3.91c-20.65.6-41.32.2-62,.29-28.32.12-56.66-.21-85,.68-19.05.59-37.74,4.32-54.76,13.68-17.27,9.5-27.9,23.87-28.83,43.82-1,20.61-.81,41.28-.94,61.93-.12,17.92,4.88,23.06,23,23,94.3-.3,188.61-.14,282.92-.15,3,0,6.21.5,8.94-.39,3-1,6.62-2.68,7.93-5.15,4.29-8.06,4.21-16.87.41-25.07-3.27-7-10.42-6-16.7-6.13-2.67-.06-5.34,0-8,0H313.88ZM567.62,451.73c0,16.32,0,31.25,0,46.18,0,17.16,4.67,21.78,22,22.11,1,0,2,0,3,0,16.07-.54,20.54-5.15,20.69-21.34,0-1,0-2,0-3q0-103,0-206c0-21.41-4.43-25.63-26-24.74a40.34,40.34,0,0,0-7.92.95c-7.32,1.83-10.74,5.72-11.55,13.2a92.37,92.37,0,0,0-.21,10q0,57,0,114v11.28H314.39c-.18-3.82-.44-7.06-.45-10.31q-.06-29,0-58c0-21.33.09-42.66,0-64-.07-10.82-3.88-15.36-14.48-16.63a70,70,0,0,0-16.93.08c-9.43,1.19-12.59,4.73-13.71,14.19a103.91,103.91,0,0,0-.51,12q-.06,67,0,134c0,22.82,3.23,26.06,25.9,26.06H567.62Zm801,1375.34c4.54-4.79,9.85-8.44,12.47-13.48,9.79-18.8,4.65-46.89-21.16-54.31a105.07,105.07,0,0,0-27.46-4.11c-37.28-.46-74.57-.24-111.86-.18-11.31,0-13.36,2-13.39,13.46q-.14,58.42,0,116.85c0,10.9,2.18,13,12.79,13.06,38,.07,75.91.4,113.86-.24a100.67,100.67,0,0,0,30.15-5.58c15.13-5.12,22.48-17.32,23.36-32.89.76-13.69-4.41-24.7-17.44-31C1369.4,1828.42,1369.1,1827.68,1368.61,1827.07ZM2821.18,1787h-12.66q-35.45,0-70.9,0c-11.4,0-22.54,1.4-33.08,6.14-12.49,5.62-19,15.15-19.12,28.91s0,27.29,0,40.94c0,14.19,6.45,24.68,19.77,29.29a103.22,103.22,0,0,0,29.08,5.83c20.93.86,41.94.77,62.88,0a104,104,0,0,0,27.25-5.19c13.9-4.41,21.12-15,21.28-29.4.37-32.61.23-65.23.08-97.85,0-8.71-3.83-12-12.33-12-8.71.06-12,3.14-12.2,12C2821,1772.3,2821.18,1778.88,2821.18,1787Zm-537.46,111.43c0,4.83,0,8.13,0,11.43,0,3.67-.07,7.33.05,11,.14,4.48,1,8.68,5.75,10.68,10.56,4.43,18.77-.76,18.81-12.22q.18-47.94,0-95.89c-.1-16.66-7.45-27-23.48-31.85a99.54,99.54,0,0,0-25.43-4.32c-19.95-.62-39.94-.32-59.92-.17-10.39.07-20.54,1.76-30.1,6.12-11.22,5.11-18.33,13.54-18.75,26.06-.52,15.62-.57,31.29,0,46.91.48,12.9,7.84,21.44,19.64,26.45,10.32,4.38,21.11,5.78,32.17,5.79q34.47.06,68.92,0Zm-248.16,0q23,0,46,0a88,88,0,0,0,31.3-5.4c13.45-5,21.26-14.66,22.61-28.93a78.06,78.06,0,0,0-.58-17.87c-1.71-12.29-9.09-20.4-20.35-25.11-10.6-4.43-21.72-6.11-33.15-6.11-16.65,0-33.31.14-50-.08a130.77,130.77,0,0,1-18.86-1.59c-10.6-1.68-15.62-7.4-15.92-17.2-.34-11.08,3.58-16.25,15-18.82a75.38,75.38,0,0,1,13.85-1.4c7.65-.25,15.33.09,23-.27,6.37-.29,9.27-3.94,9.19-10.57s-2.82-9.91-9.57-10c-11-.1-22.08-.65-32.91.72-9.07,1.15-18,4.2-26.66,7.48a23.92,23.92,0,0,0-14.43,15.77c-6.44,22-3,45.84,26.42,52.9a143.28,143.28,0,0,0,28.6,3.64c19.63.64,39.3-.13,58.92.67,17.42.71,22.23,6.54,21.82,23.51-.22,8.87-2.8,13.1-11.21,15.32a76.45,76.45,0,0,1-18.7,2.39c-30.63.25-61.27.14-91.91.16-2.66,0-5.33,0-8,.07-4.72.13-7.24,2.76-8.15,7.23-1.79,8.73,1.75,13.36,10.72,13.43C2000.26,1898.47,2017.91,1898.38,2035.56,1898.38Zm-854.08-284.56h115.26c2.66,0,5.34.12,8-.1,7-.59,9.37-2.82,9.66-10s.19-14.65.07-22c-.26-15.75-7.21-25.84-22.47-30.32a106.27,106.27,0,0,0-26.46-4.2c-19.63-.62-39.29-.27-59-.17-10.38,0-20.52,1.61-30.19,5.72-12.18,5.18-19.45,14.1-19.88,27.41-.49,15-.51,30,0,44.95.44,13.25,7.44,22.48,19.79,27.4,3.69,1.47,7.51,3.28,11.36,3.55q22.86,1.61,45.78,2.22c7.12.19,8.91-2,9.09-8.81.19-7.37-1.73-9.54-9.14-9.87-4.32-.18-8.66.09-13-.08-7.63-.3-15.39-.07-22.87-1.35C1182.84,1635.63,1179.42,1630.33,1181.48,1613.82Zm531.36,205.8h-10.58c-25.64,0-51.29-.07-76.93,0-11.38,0-22.57,1.7-33.18,6-9,3.69-16.43,9.66-18.35,19.58a87.1,87.1,0,0,0-1.06,22.7c.9,12.13,8,20.58,19.27,24.37,8.72,2.94,18,5.38,27.14,5.67,24.28.77,48.62.82,72.9,0,9.42-.33,19.09-2.91,28-6.19,11.11-4.08,17.9-12.9,18.24-25.1.46-16,.36-32,0-48a25.84,25.84,0,0,0-13.78-22.9c-5.14-2.88-10.9-5.7-16.62-6.32-14.17-1.53-28.48-2-42.74-2.43-6.33-.19-9,3.14-9,9.26s2.63,9.15,9,9.38c9,.32,18,0,26.95.58a60.4,60.4,0,0,1,15.45,3.38C1711.31,1811,1714.77,1813.56,1712.84,1819.62Zm930.42,0h-10.71c-25.64,0-51.28-.06-76.92,0-11.39,0-22.58,1.65-33.21,5.94-11.38,4.59-18.73,12.71-19.86,25.24a93.31,93.31,0,0,0,.27,17.84c1.15,11.33,7.62,19.4,18,23.14,8.65,3.11,17.93,5.84,27,6.13q37.92,1.21,75.89-.06c9.08-.31,18.43-3,26.94-6.37,11.42-4.53,17.65-13.85,17.75-26.51.12-15,.16-30,0-45-.14-11.28-5.4-19.84-15.32-25.08-4.65-2.45-9.77-4.93-14.87-5.43-14.19-1.4-28.48-2-42.74-2.45-6.61-.2-9.15,2.8-9.28,9-.13,6.64,2.55,9.48,9.68,9.7,8.65.27,17.33,0,26,.5a59.61,59.61,0,0,1,14.58,2.87C2640.51,1810.47,2644.33,1812.87,2643.26,1819.62Zm-1217.37,34.2h67.2c18,0,36,.12,54-.08,8.89-.1,11.14-2.49,11.38-11.37.2-7,.16-14,0-21-.3-15.25-7.16-25.28-21.8-29.84a91.74,91.74,0,0,0-24.44-4.28c-21.3-.6-42.64-.76-63.93,0a98.6,98.6,0,0,0-27.2,5.39c-12.87,4.29-20.2,14-20.6,27.78-.44,15-.38,30,0,45,.27,9.84,4.46,18.24,13,23.47a61.11,61.11,0,0,0,15.48,6.69c16.65,4.52,33.75,2.54,50.69,2.69,3.91,0,6-2.33,6.66-6.11,1.63-8.71-1.28-12.33-10.33-12.59-2.33-.07-4.66.08-7,0-9.62-.47-19.31-.43-28.83-1.69C1429,1876.34,1421.34,1869.49,1425.89,1853.82ZM1005.81,1547c0-8,.2-14.57,0-21.17-.35-8.93-3.69-12-12.33-12.13s-12.16,3.11-12.19,12c-.13,40.66-.06,81.33,0,122,0,1.66-.15,3.52.52,4.92,1,2,2.26,4.21,4,5.32,9.07,5.62,19.41.18,20-10.34.13-2.33,0-4.67,0-7V1567c2.09-.6,3-1.09,3.93-1.09,27.33.06,54.66.07,82,.34a41.2,41.2,0,0,1,11.75,2.14c7.91,2.51,11.08,7.09,11.41,15.58.11,2.66,0,5.33,0,8,0,18.66-.08,37.33.06,56,.07,8.29,2.73,11.29,10.32,11.58,8.67.34,13.68-2.33,13.44-12.69-.5-21-.62-42,0-63,.53-18.15-9.48-28.61-23.85-32.49a126.34,126.34,0,0,0-28.47-4.26c-19-.65-38-.2-57-.2Zm776,307.74c4.51,2.09,7.46,3.3,10.28,4.78q33.12,17.46,66.19,35c6.93,3.71,14.09,6.09,22,5,4-.57,8.25-1.57,9.31-6.24s-2.48-7.19-6-9.26c-1.72-1-3.55-1.82-5.33-2.72q-33.39-16.95-66.77-33.91c-2.56-1.31-5-2.88-8.79-5.11,4-2.37,6.64-4.13,9.47-5.63,23.23-12.32,46.51-24.56,69.73-36.9,3.18-1.69,7.1-3.42,6.07-8s-5.08-5.68-9.27-6c-6.93-.58-13,1.8-19,5q-33.87,18.18-67.89,36.1c-2.82,1.49-5.8,2.64-9.94,4.5V1811c0-14.66,0-29.31,0-44,0-4.7-.18-9.43-5.32-12-10-4.92-18.94.31-19.3,11.35,0,1.34,0,2.67,0,4q0,56.46,0,112.92a62.4,62.4,0,0,0,.15,7c.64,5.72,3.08,8.2,8.74,9.21,9.86,1.77,15.51-2.58,15.71-12.52C1782,1876.8,1781.82,1866.6,1781.82,1854.7ZM2406,1899.4l.07-1c10.32,0,20.64.11,31,0,10.73-.14,21.22-1.84,31-6.43,11.59-5.42,18.12-14.54,18.25-27.46.23-22.3.2-44.61,0-66.91-.07-8.79-3.71-12-12.31-11.86-8.92.13-12.13,3.36-12.21,13.18-.15,20-.05,40-.06,59.92,0,13.14-2.4,16.23-15.14,19.15a46.08,46.08,0,0,1-9.84,1.28q-30.46.18-60.91,0a45.52,45.52,0,0,1-9.85-1.26c-12.32-2.86-15.45-6.8-15.47-19.27,0-20.31-.26-40.62.1-60.93.14-8.07-2.82-12.31-13.06-12-8.08.24-11.11,3.3-11.2,12-.21,21.64-.07,43.28,0,64.92a57.12,57.12,0,0,0,.67,5.94,26.07,26.07,0,0,0,13.7,20.86c5.15,2.87,10.88,5.74,16.6,6.37C2373.45,1897.66,2389.72,1898.3,2406,1899.4ZM920,1547c-.26-4.37-.53-7.6-.62-10.83-.12-4,.14-8-.18-12-.57-7-3-9.41-9.81-10.35-9.62-1.33-14.08,2.59-14.29,12.62-.14,6.52-.24,13-.36,20.12-4.48.2-7.77.19-11,.53-5.06.53-7.26,3.24-7.47,8.76-.23,5.87,2.22,9.31,7.38,9.89,3.52.4,7.08.37,11.45.57V1577q0,33.48,0,67c0,2.67-.41,5.5.36,7.94.72,2.28,2.31,5,4.3,6.07,9.43,5.3,19-.16,19.54-10.83.13-2.66,0-5.33,0-8,0-20.65,0-41.3,0-62,0-3.53.39-7.06.65-11.4h11.78c9.32,0,18.66.16,28-.09,6.28-.17,8.21-2.37,8.55-8.52.42-7.4-2-10-9.86-10.21-5.32-.15-10.66,0-16,0Z"/><path class="cls-2" d="M1348.54,1150.54c.54-3.26.73-5.2,1.2-7.08C1361.53,1095.64,1374,1048,1385,1000a1291.75,1291.75,0,0,1,43.32-148.48c2.57-7.14,4.81-14.4,7.64-22.93-4.1-1-7.08-2-10.14-2.42-12.26-1.8-24.18-4.72-35.18-10.64a63.63,63.63,0,0,1-30.16-34.63c-.78-2.08-1-4.38-1.51-7.13,9.55-.41,18.51-.38,27.37-1.26,23.7-2.34,45.17-11.17,65.11-23.78,10.42-6.59,20.35-13.92,30.59-20.79,21.92-14.71,19.31-43.08,3.73-57.08-8.66-7.78-18.08-14.7-27.23-21.92-15.68-12.39-31.79-24.27-47-37.23A131.9,131.9,0,0,1,1390,588.19c-14.93-20.86-29.21-42.19-43.28-63.63a154.2,154.2,0,0,1-24.2-63.94c-.61-4.36-.09-8.87-.09-16.14,25.62,24.06,53.14,30.45,86,21.32-8.55-10-16.42-18.41-23.31-27.53s-12.82-18.67-18.87-28.23c-6.18-9.77-12-19.78-18.74-31,8.19,2.56,14.57,5.13,21.19,6.52,17,3.59,33.9.1,50.57-2.84a536.48,536.48,0,0,0,132-41.62c4.23-1.95,8.49-3.87,12.83-5.55,32.4-12.52,63.11-28.39,93.2-45.68,36.17-20.79,74.8-36.47,113.22-52.48,41.18-17.15,82.63-33.63,123.8-50.81,13.8-5.76,27.29-12.38,40.55-19.33,8.42-4.41,15.84-3.89,23.31,1.36,3.54,2.49,7.36,4.74,10.41,7.75,10.38,10.26,22.85,17,36,23,43.28,19.85,86,41.05,129.71,59.8,31.78,13.62,64.66,24.8,97.43,35.93,24.12,8.19,49.48,11.12,74.87,10.92,46.3-.37,92.62-1.15,138.88-3.1,14.77-.63,29.36-5.49,44-8.44,4.48-.9,8.94-1.89,15.79-3.35-15.26,35.33-33.22,66.3-59,94.94,4.88,1.55,7.68,2.94,10.59,3.27,15.62,1.73,30.57-1.19,44.77-7.61,9.39-4.25,18.48-9.19,27.68-13.85,3.8-1.92,7.55-3.94,13-6.81-.62,4.58-.8,7.42-1.39,10.16-6.17,28.39-15.6,55.76-26.1,82.79-5.79,14.9-11.92,29.66-17.71,44.55-11.31,29.1-28.12,55.09-44.93,81.15-7.75,12-14.55,24.67-21.47,37.2a38.48,38.48,0,0,0-3.86,11.27c-1.39,7.39.51,13.78,6.79,18.62,7.91,6.1,15.54,12.58,23.49,18.63,20.88,15.88,44.44,22,70.44,18.81.59-.07,1.23.36,2.28.7-.25,1.19-.17,2.64-.81,3.6-11.13,16.56-21,34.12-36.56,47.22-8.64,7.3-17.83,13.95-26.47,21.25-9.72,8.2-11,13.49-6.58,25.45,5.69,15.28,12,30.34,17.39,45.73,9.3,26.62,12.56,54.41,14.9,82.35,1.91,22.89,5.59,45.73,5.84,68.62.36,33-1.42,65.92-2.77,98.86-.91,22.39-1.82,44.63,6.79,66,1.27,3.15,1.08,6.89,1.57,10.36l-1.8,1.19c-2.47-1.9-5.1-3.64-7.4-5.73q-24-21.87-47.92-43.86a48,48,0,0,0-4.48-4c-6.88-4.87-13.35-3.63-17.74,3.58-2.25,3.69-4,7.7-5.95,11.54-17.06,32.83-38.6,62.2-66.44,86.79a186,186,0,0,1-47.64,30.83c-35.94,16-70.87,33.92-103.89,55.44-47.16,30.73-90.85,65.49-125.86,110-14.61,18.59-28.32,37.9-42,57.22-11.24,15.93-17.57,34.28-24.33,52.4-19.81,53.1-37.32,106.86-48,162.66a99.08,99.08,0,0,1-4.29,14.33c-1.6,4.47-3.75,8.93-9.35,9.14-5.89.23-7.48-4.26-9-8.94-22.72-68.59-45.52-137.16-62.59-207.43a233.56,233.56,0,0,0-62.85-111.82c-51.22-51.29-110.34-91.28-177.52-118.48-22.41-9.08-46.36-14.4-69.72-21-18.57-5.26-37.34-9.83-56-14.81-37.26-9.94-64.28-32.53-82-66.55-2.31-4.43-4.72-8.81-7-13.27-2.09-4.12-5.27-4.85-9.13-2.88-3.25,1.66-6.34,3.66-9.51,5.5-14,8.13-28.86,13.71-45.2,14.61C1353.76,1151,1351.84,1150.7,1348.54,1150.54ZM2497.91,418.91c-5.76,1.69-8.95,2.45-12,3.55q-24.42,8.81-48.8,17.77c-4.34,1.59-8.4,4.09-12.33-1.38-1-1.44-5-1.38-7.46-1.12-7.27.79-14.47,2.21-21.75,3-2.39.25-5.53.06-7.28-1.29-8.09-6.25-9.27-14.89-3.84-23.49q22.93-36.33,45.8-72.73c1.48-2.36,2.54-5,4.47-8.79-4.05.41-6.27.7-8.5.84-12.94.8-26.06,3.31-38.77,2-24.14-2.51-48.13-6.73-72-11.26-9.64-1.83-19-5.78-28.09-9.74-14.61-6.36-29.71-6.88-45.1-5.28-2.84.3-5.53,2-8.32,2.93s-5.43,2.48-8.11,2.38c-26.7-1-52.5-7.82-78.65-12.47-.9-.16-1.65-1.07-2.53-1.49-7.53-3.55-15-7.25-22.63-10.56-37.41-16.22-73.15-35.37-106-59.75-16-11.92-32-23.9-48.34-35.48a107.89,107.89,0,0,0-18.26-10.25c-10.07-4.54-19.74-4-29.21,2.76-11.66,8.31-23.68,16.15-35.9,23.6-19.32,11.78-38.53,23.85-58.52,34.4-37.11,19.57-75.55,36.73-112,57.44-62,35.24-122.81,72.42-184.09,108.85-12.07,7.18-24.28,14.05-38.16,17-7.47,1.57-15.12,2.3-22.7,3.33-4.59.62-9.06,1.41-13,5.92,11.85,11,25.6,18.42,39.4,25.41,14.11,7.14,28.83,13.06,44.1,19.88-14.12,14.34-31.75,21.23-49.52,28.33,5,12.13,18.49,14.69,25.11,26.11-10.45-2.77-18.94-6-27.7-7.12-15.16-2-30.48-2.77-45.74-3.83-10.3-.71-20.62-1.13-30.94-1.43-2,0-4,1-6.68,1.77,1.56,3,2.64,5,3.7,7,12.51,24.2,29.77,44.83,48,64.82,9.31,10.21,20.3,18.13,31.71,25.67,15,9.89,32.39,13.82,48.67,20.53,3.25,1.35,6.52,2.67,10,4.11a264.21,264.21,0,0,1-19.72,64.7c-11.2,24.59-27,45.92-50.9,60.09a26.36,26.36,0,0,0-4.83,3.55c-1.26,1.21-2.15,2.82-3.95,5.29,18.73,4.59,37.1,4.29,55.47,8.86-1.8,2.91-2.7,4.65-3.85,6.21-6.72,9.1-13.92,17.88-20.17,27.29-11.81,17.79-17.35,38.1-21.86,58.64q-20,91.2-39.65,182.49c-.73,3.42-.38,7.07-.55,10.86,2.28.19,4.12.91,4.78.31,10.5-9.39,20.84-18.95,31.82-29-.36,3.84-.53,7.68-1.11,11.46-.8,5.26-2,10.47-2.85,15.72-4.11,24.55,1.5,45.45,22,61.36,11.72,9.08,24,16.82,38.24,21.1q60.74,18.27,121.54,36.29c3.28,1,6.87.86,10.21,1.24,3-9.42-7.37-13.75-6.33-22.36,12.88,6.33,25,12.5,37.33,18.26a163.89,163.89,0,0,1,35.5,22.17c17.67,14.67,35.14,29.57,52.72,44.34,2.37,2,4.95,3.74,7.43,5.6l2-1.3c-1.89-17.67-7.2-34.75-10.36-52.19s-7.29-35-11.29-53.91c3.28,1.55,5,2.42,6.74,3.16,2,.86,4.13,1.6,8.08,3.1-1.4-7-2.06-12.56-3.63-17.83-6.21-20.73-12.78-41.35-19.06-62.06a228.29,228.29,0,0,0-41.45-78c-14.44-17.85-32.17-29.7-55.4-32.44-3-.36-6-1.69-9.66-2.77,1.89-2.81,2.89-4.5,4.1-6,25.6-32.42,51-65,77-97.14,12.75-15.79,25.66-31.63,40.07-45.86,14.24-14,27.33-29,41-43.48,20.36-21.47,36.32-46,52.91-70.05,13.57-19.65,24.16-41.36,36.11-62.14,1.72-3,3.61-5.88,5.68-9.24,3.13,2.6,5.09,4.39,7.22,5.94s4.34,2.8,7.46,4.78c9.31-17.2,14.72-35.58,24.54-53.79,1.67,4.16,2.46,6.29,3.37,8.36,4.41,10.05,8.22,20.42,13.49,30,4,7.33,9.82,13.45,19.85,13,2.21-.1,5.22,2.71,6.74,4.94,2.8,4.1,4.79,8.76,7.06,13.21,2.65,5.17,5.24,10.37,8.79,17.39l7-12.7c-6.26-9.2-12-17.67-17.41-25.61.54-1.62.6-2.37,1-2.84,5.12-6.19,6.48-12-.14-18.42-3.56-3.42-3.95-8.23-2.43-13.09,7.52-24.09,13.16-49,29-69.58,2.31-3,2.92-5.82.23-9a38.73,38.73,0,0,1-2.9-4.45l9.35-11.09c-3.56-2.78-6.41-5-10-7.78,6-6.23,11.43-12,17-17.6a33.77,33.77,0,0,0,10.23-26.17c-.35-8.65,0-17.32-.32-26-.18-5.47,2.62-8,7.53-8.68,4.28-.58,8.67-.43,12.92-1.17,10.21-1.78,11.69-4.7,8.27-14.36-1.11-3.15-4.52-6.28.07-11.05,2.28,1.91,5.3,3.43,6.76,5.87a56.66,56.66,0,0,1,6,13.63c13.14,47.17,25.58,94.51,33.58,142.89.9,5.5,2,11,3.11,17.2l8.24-2.29c-.23-3.49-.12-6.5-.67-9.39q-9.86-52-20-104c-.53-2.69-1.81-5.95-3.85-7.49-6.35-4.78-7.6-11.18-7.76-18.26l5.32-1.57c-2.54-12.13-5.05-24.06-7.81-37.25,7.07-1.17,13.16-2.42,19.32-3.11,4.89-.55,7.18-2.67,6.88-7.72-.14-2.5.36-5.05.61-8.14l26.07-3.37v-5.61c0-5.84-5.6-12.12-1.23-17.11,3.72-4.26,10-6.28,15.23-9.21.49-.27,1.26,0,2.63,0,9.83,15.73,22,30.42,28.31,48.66a182.47,182.47,0,0,0,8.39,19.21c9.15,18.89,18.65,37.6,27.69,56.54,13.19,27.67,26.09,55.47,33.33,85.48,2.05,8.5,5.29,17.16-7.22,21.75.35.61.7,1.22,1.06,1.82,9.73,2.15,19.46,4.31,29.69,6.56.82-4.62,1.28-8.77,6.55-9.28,13.24-1.27,26.46-2.79,39.71-4,6.59-.61,10.72,2.94,12.87,8.88,1.59,4.37,3,8.83,4.27,13.3,8.06,27.47,17.38,54.62,21.24,83.15,4.37,32.32,8.52,64.68,12.88,97,.63,4.69.1,8.85-4.09,11.44-5.53,3.42-5.38,7.7-3,12.87,2.24,4.83,4.27,9.77,6.19,14.74.76,2,1,4.14,1.72,7.51-4-1.82-6.72-3-9.35-4.26-10.66-5.23-10.62-5.11-16.77,5.55A153.28,153.28,0,0,1,2353.32,839c-1.42,1.88-3.89,3-7,5.2l3.27-36.26-1.24-.21-12.21,50.18-2.81,1.58c-2.33-3.21-4.39-6.66-7-9.58A66.38,66.38,0,0,0,2303,832.93c-7.82-3.33-11-2.74-16.73,3.43a54.35,54.35,0,0,0-4.76,6.8c-4.8-2.5-7.51-4.73-10.54-5.3-5-1-7.26-3.94-8.92-8.28-4.66-12.13-9.5-24.18-14.35-36.23-1.33-3.3-2.93-6.48-4.8-10.57l-17.13,10.07c8,20.6,15.81,40.68,23.87,61.42l-41.15,28.24c-8-8.26-8-8.25-17.1-2.47s-18.06,11.34-27,17.1c-2.39,1.54-4.54,3.45-6.91,5.26,6.06,5.92,6.15,6.05,11,2.71,7.41-5.1,14.58-10.54,22-15.57s7.73-4.92,13.85,1.75c.63.68,1.63,1,3.17,2,7.55-5.66,15.23-11.45,22.94-17.2,8.82-6.58,17.7-13.13,28.5-16.17,2.08-.58,5.23-1.3,6.47-.26,5.63,4.71,9.12,1.12,12.75-2.54,2.58-2.6,5-5.37,7.56-8,7.34-7.42,13-8.15,22.19-3.31,4.82,2.55,7.07,6.81,8.82,11.6q7.54,20.64,15.21,41.23c.61,1.64,1.87,3,4.11,6.54.54-5.08.59-7.93,1.17-10.68,3.17-15,6.27-30.41,18.06-41.29,7.66-7.06,14.87-14,18.39-24,.17-.46,1.09-.67,2.46-1.46,3.77,1.43,8.06,3.12,12.41,4.67,3.12,1.11,6.28,2.62,9.5,2.82a11.81,11.81,0,0,0,7.82-2.38c.83-.71-.55-4.73-1.67-6.87-2.3-4.41-5.58-8.35-7.61-12.87-6.93-15.44-6.34-16.45,8.77-24.05,6.7-3.37,13.11-7.33,21.9-12.29-6-2.12-9.65-3.2-13.12-4.65-13.76-5.73-17.9-19.85-8.52-29.84-1.13-4.51-2.31-9.2-3.87-15.39l44.53,2.81c-3-5.46-4.85-8.86-6.73-12.25-7.61-13.72-15.25-27.68-17.4-43.33-1.8-13.11-1.22-26.55-1.74-39.84-.64-16.21.85-32.49-4.17-48.47-2.42-7.72-1.69-15.84,5.82-21.66,2.05-1.59,3.5-4,5.09-6.14a494.55,494.55,0,0,0,66.32-121.52C2495.35,431.66,2496.08,426.42,2497.91,418.91Zm-602,332c-4.26,6.93-7.81,12.06-10.7,17.54-6.74,12.81-14.78,24.71-26.1,33.78-15.31,12.28-30.53,24.83-46.89,35.59-45.82,30.15-85.89,66.3-119.17,109.92a64.21,64.21,0,0,0-5.69,8.2c-2.72,5.08-1.29,8.08,4.44,9.48,3.87.94,7.87,1.37,11.79,2.16,27.53,5.55,49,19,62.84,44.56s25.92,51.88,31.93,80.46c10.73,51.14,21.76,102.23,31.21,153.61,25.77,140,63.4,277.06,102.61,413.73,2,7,4.84,13.71,10,18.93,8.85-3,11.9-5.79,14.37-14,1.93-6.36,3.38-12.88,5-19.33,11.2-44.21,21.66-88.65,38.69-131.12,21.72-54.14,41.17-109,54.39-165.92,8.35-36,18.53-71.7,24.19-108.11,9.19-59.2,15.47-118.86,22.71-178.36,3.09-25.39,9.43-49.66,22-72.12,6.29-11.25,15.23-19.17,27.49-23.36,9.14-3.12,18.21-6.43,27.24-9.83,2-.74,3.63-2.22,6-3.74-24.26-27.3-47.6-54.19-73.69-78.57-11.19-10.45-22.19-21.21-32.29-32.7-26.16-29.78-51.77-60.05-77.62-90.1-2.34-2.72-4.81-5.32-8.11-9-4.62,6-8.27,11.52-12.66,16.35-6.68,7.34-13,15.45-21,21-18,12.55-36.65,8.83-50-8.59-2.22-2.9-4-6.12-6-9.21S1899.18,756.07,1895.93,750.86Zm317.69,228.25-1.44,2.54c-6.62-2.74-13.19-5.61-19.87-8.21-19.3-7.51-34.42-3.64-47.17,12.32-17.12,21.4-29.11,45.4-34.5,72.35-2.67,13.36-4.47,26.92-6.2,40.44q-9,70.82-17.67,141.68c-1.44,11.88-2.25,23.86-2.7,35.83-.32,8.69,2.87,16,11.64,21,4-4.59,8-8.61,11.26-13.13,6.86-9.42,13.17-19.24,20-28.66,10.6-14.51,21.27-29,32.36-43.11,3.76-4.79,8.84-8.56,14.82-14.21.87,15-10.82,26.74-4,40.89,12.55-6.64,24.11-13.22,36.06-19a99.69,99.69,0,0,0,42.44-38.25c1.46-2.36,3.37-4.46,5.47-7.2,4.77,4.52,8.53,8.27,12.48,11.79,7.89,7,10.67,6.71,18.62-.25,14.27-12.51,28.59-25,43.21-37.07,14.89-12.31,29.87-24.54,45.33-36.11,14.86-11.14,22.23-27,29.24-43.2,1.43-3.31,1.83-7.07,2.73-10.61,2.86-11.36.27-22.51-1.25-33.71-.56-4.06-2.15-8.24,1.24-13.19a49.22,49.22,0,0,1,3.49,5.38c3.9,8.46,7.29,17.17,11.6,25.41,10.33,19.76,24.09,36.73,42.48,49.64,6.93,4.87,8.53,4.56,14.08-1.94,6.32-7.39,9.27-16.26,10-25.67,1.46-19.57,2.78-39.18,3.36-58.8.63-21.64.4-43.31.46-65,0-4,.82-8.52-4.34-11.22-.91,2.36-1.79,4.16-2.3,6.06-6.92,25.36-13.5,50.81-20.76,76.07a96,96,0,0,0-1.31,50.29,58.76,58.76,0,0,1,.88,6.07l-1.92,1.12c-4.59-5.09-9.83-9.74-13.66-15.36-14.76-21.64-23.28-45.54-24.24-71.9-.85-23.14-9.91-42.52-26.61-58.4-1.58-1.51-3.61-2.53-5.82-4-2.35,3.19-4.33,5.84-6.25,8.53-12.35,17.37-24.2,35.14-37.18,52-12,15.61-16.24,32.37-12.16,51.55.88,4.16,2.26,8.59,1.17,13.67-17.15-14.07-33-41.64-37.15-64.53-3.13-17.36-5.74-34.82-8.66-52.22-.68-4.08-1.7-8.12-2.48-11.79-6.56-.33-8.92,3.77-11.5,7.05-9.25,11.78-18.23,23.78-27.35,35.66-1.92,2.5-4,4.87-6,7.29l-2.26-1c3.56-19.74,14.54-38.62,8.25-61.35-20.49,15.55-35.12,33.21-38.59,60.88-5.15-6-9.18-9.88-12.23-14.42-4.27-6.34-7.78-13.19-11.68-19.78-1.18-2-2.23-4.29-4-5.68-1.23-1-4-1.49-5.14-.74s-1.88,3.41-1.61,5c.3,1.82,1.8,3.51,3,5.1,8.39,11.19,16.78,22.38,25.29,33.48C2207.49,972.26,2210.64,975.62,2213.62,979.11Zm-204.8-251.26c18.35-1.2,35.59,3,53.33,8.81-1.23,3.54-2.06,6.35-3.15,9.05-3.62,8.95-7,18-11.14,26.72-2.67,5.58-1.36,9.46,2.77,13.24a77,77,0,0,0,33,17.61c14.11,3.74,28.5,2.81,42.75,2.08,34.14-1.75,67.06-10.14,99.58-20.06A77.59,77.59,0,0,0,2254.31,769c14.55-12.71,29.26-25.28,44.46-37.18a82.48,82.48,0,0,0,17.48-18.9c5-7.31,10.2-14.46,15.84-22.43-4.18-.67-6.86-.82-9.38-1.55-9-2.62-10.87-8-4.06-14.19,5.47-4.95,8.47-10.91,11.16-17.4,5.61-13.54,11.41-27,17.05-40.51,1.24-3,2.16-6.1,3.38-9.58a68.27,68.27,0,0,0-7.15-2.77c-27-7-54-13.9-81-20.9-3.85-1-7.52-3-11.4-3.5-29.14-4.14-58.3-4.1-87.63-1.62-23.25,2-43.81,10-63.21,22.42a422.63,422.63,0,0,0-59.59,46.88A138.14,138.14,0,0,0,2006,697.41C2001.35,708.69,2003.46,717.85,2008.82,727.85Zm346,34.94a2.85,2.85,0,0,0,.45-1.25c.1-3.31.18-6.62.11-9.93-.4-18.08-.42-18.09-17.62-22.12-6.56-1.54-13.13-3-19.7-4.48-.17.69-.34,1.38-.52,2.08a51.77,51.77,0,0,0,6.16,2.16c5.82,1.26,11.64,2.66,17.55,3.34,6.36.74,9.39,4.43,10.43,10.18C2352.86,749.57,2353.79,756.44,2354.77,762.79ZM2353,777.62h-.34v5.62h.34Z"/><path class="cls-2" d="M296.91,1652.9c-2.08-1.69-3.39-3.11-5-4-15.53-8.66-23.53-22.44-25.67-39.52-4.56-36.43,8.52-67.4,49.71-78.22a112.9,112.9,0,0,1,18.61-3.54c11.59-1,23.24-1.91,34.88-2,36.33-.24,72.66-.14,109-.06,15.71,0,31.27,1.62,46.46,5.79,43.16,11.84,63.5,58,42.63,97.73-3.27,6.23-9.24,11.14-14.34,16.29-2.5,2.52-5.87,4.18-9.65,6.78,1.63,1.35,2.62,2.55,3.9,3.17,25.56,12.3,33.12,32.57,29.73,61.56-3.82,32.66-26.51,49.67-56.6,56.53a169,169,0,0,1-35.61,4.36c-44.32.44-88.66.32-133-.11a138,138,0,0,1-45.08-7.9c-41.62-14.8-51.49-53.71-40.77-87.55,3.61-11.39,12.36-18.73,22.33-24.65C291,1656.06,293.59,1654.72,296.91,1652.9Zm123.26,86.65v1c20,0,39.94.45,59.88-.18a186.08,186.08,0,0,0,33.52-4.06c9.51-2.08,15.52-8.89,16-19.21.31-6.28.31-12.6.08-18.88-.46-12.67-7.45-20.63-19.34-23.48-9.32-2.22-19-3.93-28.54-4-41.25-.43-82.52-.49-123.77,0-10.16.13-20.44,2.35-30.39,4.77-9.49,2.32-15.7,9.16-16.77,19a127.26,127.26,0,0,0-.09,24.84c.71,7.88,5.62,13.59,13.2,16,5.95,1.92,12.22,3.87,18.38,4C368.28,1739.8,394.23,1739.55,420.17,1739.55Zm.63-175.79v0c-24.63,0-49.26-.28-73.89.18-6.85.12-13.82,1.88-20.45,3.87-8.21,2.48-14.12,8.27-14.91,17a144.78,144.78,0,0,0,.22,26.66c.77,8,6.22,13.33,13.67,15.68,6.29,2,12.94,3.89,19.44,3.93q75.39.45,150.8,0c6.18,0,12.46-1.92,18.48-3.69,8.45-2.48,13.69-8.73,14.63-17.26a112.12,112.12,0,0,0,0-24.84A19.69,19.69,0,0,0,514.11,1568c-7-2-14.24-3.94-21.41-4.09C468.74,1563.45,444.77,1563.76,420.8,1563.76Z"/><path class="cls-2" d="M421.13,938.06q-27.48,0-55,0c-16.72,0-33.27-1.59-49.33-6.36A112.52,112.52,0,0,1,297.42,924c-19.07-9.84-29.74-25.81-30-47.21q-.84-64.93,0-129.89c.29-22.79,12.17-39.34,32.66-48.56,10.79-4.86,22.62-7.81,34.28-10.22,9.37-2,19.17-2.4,28.79-2.47,38.63-.25,77.27-.18,115.91-.07,17.39.06,34.63,2,51.05,7.89a102.83,102.83,0,0,1,23,11.57c13.08,9,20.94,22,21.17,37.84q1,67.39.26,134.81c-.3,24.82-14.84,40.54-36.83,49.87-15.8,6.7-32.6,9.63-49.62,10.07-22.3.58-44.63.14-66.94.14Zm.31-214.24v0c-21.65,0-43.31-.18-65,.07a64.79,64.79,0,0,0-28.93,6.83c-9.38,4.77-14.68,12-14.64,23q.18,58.47,0,116.95c0,9.68,4.72,16.35,12.79,21.08a55.44,55.44,0,0,0,27.62,7.71c41.63.54,83.27,1.09,124.9.71a109,109,0,0,0,32.24-5.68c14.12-4.6,18.56-12.45,18.57-27.18,0-37.31-.34-74.64.19-111.95.18-13-5.55-21.26-16.78-25.45-8.29-3.09-17.31-5.46-26.09-5.79C464.77,723.27,443.1,723.82,421.44,723.82Z"/><path class="cls-2" d="M313.88,1321.29H566.79c2.66,0,5.33,0,8,0,6.28.13,13.43-.91,16.7,6.13,3.8,8.2,3.88,17-.41,25.07-1.31,2.47-5,4.18-7.93,5.15-2.73.89-5.94.39-8.94.39-94.31,0-188.62-.15-282.92.15-18.13.06-23.13-5.08-23-23,.13-20.65,0-41.32.94-61.93.93-20,11.56-34.32,28.83-43.82,17-9.36,35.71-13.09,54.76-13.68,28.3-.89,56.64-.56,85-.68,20.66-.09,41.33.31,62-.29a121,121,0,0,0,27.58-3.91c15.29-4.09,21.69-13.47,21.72-29.19v-6c0-16.7-6.1-25.49-22.32-29.62a128.15,128.15,0,0,0-27.61-3.64c-18.31-.54-36.65-.14-55-.18a50.46,50.46,0,0,1-9-.5c-7.19-1.33-9.87-5.72-10.21-16-.42-12.42,2.14-18,9.21-19.82a18.71,18.71,0,0,1,5-.42c27,.49,53.94.65,80.88,1.71,13.7.54,26.94,4.31,39.44,10.11,22.82,10.58,34.55,28.36,34.46,53.68,0,5.33,0,10.67,0,16-.21,24.9-11.77,42.93-34.46,52.55-11.5,4.88-24.06,7.82-36.43,9.88-11.74,2-23.87,2.15-35.83,2.23-39.33.25-78.65-.19-118,.27a173.23,173.23,0,0,0-33.55,4c-5.53,1.17-11.16,4.73-15.32,8.7a21.21,21.21,0,0,0-6.18,12.93C313.39,1291.55,313.88,1305.56,313.88,1321.29Z"/><path class="cls-3" d="M567.62,451.73H294.13c-22.67,0-25.89-3.24-25.9-26.06q0-67,0-134a103.91,103.91,0,0,1,.51-12c1.12-9.46,4.28-13,13.71-14.19a70,70,0,0,1,16.93-.08c10.6,1.27,14.41,5.81,14.48,16.63.13,21.33,0,42.66,0,64q0,29,0,58c0,3.25.27,6.49.45,10.31H567.62V403.08q0-57,0-114a92.37,92.37,0,0,1,.21-10c.81-7.48,4.23-11.37,11.55-13.2a40.34,40.34,0,0,1,7.92-.95c21.55-.89,26,3.33,26,24.74q0,103,0,206c0,1,0,2,0,3-.15,16.19-4.62,20.8-20.69,21.34-1,0-2,0-3,0-17.3-.33-21.93-4.95-22-22.11C567.59,483,567.62,468.05,567.62,451.73Z"/><path class="cls-2" d="M1368.61,1827.07c.49.61.79,1.35,1.32,1.6,13,6.28,18.2,17.29,17.44,31-.88,15.57-8.23,27.77-23.36,32.89a100.67,100.67,0,0,1-30.15,5.58c-37.95.64-75.9.31-113.86.24-10.61,0-12.76-2.16-12.79-13.06q-.15-58.42,0-116.85c0-11.45,2.08-13.45,13.39-13.46,37.29-.06,74.58-.28,111.86.18a105.07,105.07,0,0,1,27.46,4.11c25.81,7.42,30.95,35.51,21.16,54.31C1378.46,1818.63,1373.15,1822.28,1368.61,1827.07ZM1235,1837.71c-2,13.4-1.54,31.65.68,38.65a15.43,15.43,0,0,0,2.82.52c32.6,0,65.2,0,97.8-.14a56.81,56.81,0,0,0,12.81-1.77c7.12-1.71,10.07-5.26,10.72-12.49a67.48,67.48,0,0,0-.1-10c-.39-6.38-3.85-10.8-9.87-12.33a70.8,70.8,0,0,0-16.69-2.28c-27.27-.26-54.55-.17-81.83-.21Zm-.26-23.47a46.7,46.7,0,0,0,5.11.69c31.64,0,63.27,0,94.91-.17a68.14,68.14,0,0,0,13.84-1.71c5.56-1.2,9.79-4.38,10.75-10.41a48.67,48.67,0,0,0,.39-9c-.27-9.58-3.78-13.9-13.33-15.66a89.81,89.81,0,0,0-15.86-1.54c-29.31-.16-58.61-.12-87.92-.07a74.53,74.53,0,0,0-7.89.87Z"/><path class="cls-2" d="M2821.18,1787c0-8.08-.15-14.66,0-21.24.25-8.91,3.49-12,12.2-12,8.5-.06,12.29,3.27,12.33,12,.15,32.62.29,65.24-.08,97.85-.16,14.4-7.38,25-21.28,29.4a104,104,0,0,1-27.25,5.19c-20.94.76-41.95.85-62.88,0a103.22,103.22,0,0,1-29.08-5.83c-13.32-4.61-19.75-15.1-19.77-29.29,0-13.65-.06-27.29,0-40.94s6.63-23.29,19.12-28.91c10.54-4.74,21.68-6.13,33.08-6.14q35.46,0,70.9,0Zm-1.87,20.64a20.61,20.61,0,0,0-3.83-1c-25.28,0-50.57-.22-75.84.19a72.92,72.92,0,0,0-19.52,3.45c-6.22,1.87-9.69,6.58-9.61,13.57q.21,18.95,0,37.92c-.05,6.09,2.88,10.26,8.12,12.58,3.58,1.59,7.58,3.08,11.41,3.12,23.57.28,47.15.21,70.73,0a29.35,29.35,0,0,0,8.69-1.94c7-2.33,10.85-6.79,10.67-14.78-.34-15.63-.08-31.27-.13-46.9A60.21,60.21,0,0,0,2819.31,1807.6Z"/><path class="cls-2" d="M2283.72,1898.39h-12.33q-34.45,0-68.92,0c-11.06,0-21.85-1.41-32.17-5.79-11.8-5-19.16-13.55-19.64-26.45-.59-15.62-.54-31.29,0-46.91.42-12.52,7.53-21,18.75-26.06,9.56-4.36,19.71-6.05,30.1-6.12,20-.15,40-.45,59.92.17a99.54,99.54,0,0,1,25.43,4.32c16,4.88,23.38,15.19,23.48,31.85q.27,48,0,95.89c0,11.46-8.25,16.65-18.81,12.22-4.79-2-5.61-6.2-5.75-10.68-.12-3.66-.05-7.32-.05-11C2283.71,1906.52,2283.72,1903.22,2283.72,1898.39ZM2283,1877c0-18.55.3-37.14-.29-55.71-.1-3.24-3.29-7.39-6.23-9.3a26.73,26.73,0,0,0-13.05-4.15c-19.92-.71-39.86-1.08-59.79-.93a64.63,64.63,0,0,0-18.5,3.37c-6.19,1.93-9.59,6.46-9.4,13.59.32,12.3,0,24.61.12,36.92.08,8.63,2.34,11.9,10.44,14.82a30.68,30.68,0,0,0,9.68,2c27.91.42,55.83.63,83.74.86C2280.31,1878.53,2280.9,1878,2283,1877Z"/><path class="cls-2" d="M2035.56,1898.38c-17.65,0-35.3.09-53,0-9-.07-12.51-4.7-10.72-13.43.91-4.47,3.43-7.1,8.15-7.23,2.66-.07,5.33-.07,8-.07,30.64,0,61.28.09,91.91-.16a76.45,76.45,0,0,0,18.7-2.39c8.41-2.22,11-6.45,11.21-15.32.41-17-4.4-22.8-21.82-23.51-19.62-.8-39.29,0-58.92-.67a143.28,143.28,0,0,1-28.6-3.64c-29.43-7.06-32.86-30.89-26.42-52.9a23.92,23.92,0,0,1,14.43-15.77c8.61-3.28,17.59-6.33,26.66-7.48,10.83-1.37,21.93-.82,32.91-.72,6.75.06,9.5,3.28,9.57,10s-2.82,10.28-9.19,10.57c-7.64.36-15.32,0-23,.27a75.38,75.38,0,0,0-13.85,1.4c-11.46,2.57-15.38,7.74-15,18.82.3,9.8,5.32,15.52,15.92,17.2a130.77,130.77,0,0,0,18.86,1.59c16.64.22,33.3.1,50,.08,11.43,0,22.55,1.68,33.15,6.11,11.26,4.71,18.64,12.82,20.35,25.11a78.06,78.06,0,0,1,.58,17.87c-1.35,14.27-9.16,23.88-22.61,28.93a88,88,0,0,1-31.3,5.4Q2058.54,1898.36,2035.56,1898.38Z"/><path class="cls-2" d="M1181.48,1613.82c-2.06,16.51,1.36,21.81,16,24.33,7.48,1.28,15.24,1,22.87,1.35,4.33.17,8.67-.1,13,.08,7.41.33,9.33,2.5,9.14,9.87-.18,6.76-2,9-9.09,8.81q-22.9-.59-45.78-2.22c-3.85-.27-7.67-2.08-11.36-3.55-12.35-4.92-19.35-14.15-19.79-27.4-.5-15-.48-30,0-44.95.43-13.31,7.7-22.23,19.88-27.41,9.67-4.11,19.81-5.67,30.19-5.72,19.66-.1,39.32-.45,59,.17a106.27,106.27,0,0,1,26.46,4.2c15.26,4.48,22.21,14.57,22.47,30.32.12,7.33.22,14.67-.07,22s-2.61,9.45-9.66,10c-2.65.22-5.33.1-8,.1H1181.48Zm.75-21.5c10.33,2,99.17,1.75,106.78-.31.12-1.56.33-3.2.36-4.84.21-12.47-3.33-16.82-15.46-19a28.58,28.58,0,0,0-5-.51c-22,0-43.89-.19-65.83.08a36.38,36.38,0,0,0-12.55,2.82c-5.68,2.23-9.17,6.49-8.74,13.1C1182,1586.58,1182.1,1589.51,1182.23,1592.32Z"/><path class="cls-2" d="M1712.84,1819.62c1.93-6.06-1.53-8.61-5.27-9.92a60.4,60.4,0,0,0-15.45-3.38c-8.95-.63-18-.26-26.95-.58-6.37-.23-9-3.17-9-9.38s2.68-9.45,9-9.26c14.26.41,28.57.9,42.74,2.43,5.72.62,11.48,3.44,16.62,6.32a25.84,25.84,0,0,1,13.78,22.9c.34,16,.44,32,0,48-.34,12.2-7.13,21-18.24,25.1-8.92,3.28-18.59,5.86-28,6.19-24.28.85-48.62.8-72.9,0-9.12-.29-18.42-2.73-27.14-5.67-11.24-3.79-18.37-12.24-19.27-24.37a87.1,87.1,0,0,1,1.06-22.7c1.92-9.92,9.31-15.89,18.35-19.58,10.61-4.34,21.8-6,33.18-6,25.64-.11,51.29,0,76.93,0Zm.63,19.81a36.39,36.39,0,0,0-5.55-1c-27.91,0-55.82-.12-83.73.22a51.31,51.31,0,0,0-16.5,3.16c-3.46,1.25-7.4,4-8.94,7.22-6.19,12.71.41,25.18,14.17,28.09a14.33,14.33,0,0,0,3,.4c26.54,0,53.07.17,79.6-.22a21.75,21.75,0,0,0,11.93-4.28c2.82-2.12,5.42-6.17,5.79-9.62C1714.05,1855.6,1713.47,1847.63,1713.47,1839.43Z"/><path class="cls-2" d="M2643.26,1819.62c1.07-6.75-2.75-9.15-6.84-10.48a59.61,59.61,0,0,0-14.58-2.87c-8.63-.53-17.31-.23-26-.5-7.13-.22-9.81-3.06-9.68-9.7.13-6.18,2.67-9.18,9.28-9,14.26.43,28.55,1.05,42.74,2.45,5.1.5,10.22,3,14.87,5.43,9.92,5.24,15.18,13.8,15.32,25.08.19,15,.15,30,0,45-.1,12.66-6.33,22-17.75,26.51-8.51,3.39-17.86,6.06-26.94,6.37q-37.9,1.29-75.89.06c-9.09-.29-18.37-3-27-6.13-10.39-3.74-16.86-11.81-18-23.14a93.31,93.31,0,0,1-.27-17.84c1.13-12.53,8.48-20.65,19.86-25.24,10.63-4.29,21.82-5.9,33.21-5.94,25.64-.09,51.28,0,76.92,0Zm.14,19.75a37.42,37.42,0,0,0-5.55-.94c-27.91,0-55.82-.11-83.72.23a51,51,0,0,0-16.5,3.18c-3.45,1.26-7.38,4.09-8.91,7.27-6.13,12.81.45,25.15,14.27,28a25,25,0,0,0,4.94.6c23.57.25,47.13.68,70.7.49,5.49,0,11.15-1.74,16.39-3.61,4.46-1.58,8.15-5,8.31-10.25C2643.6,1856.14,2643.4,1847.91,2643.4,1839.37Z"/><path class="cls-2" d="M1425.89,1853.82c-4.55,15.67,3.1,22.52,14.35,24,9.52,1.26,19.21,1.22,28.83,1.69,2.33.12,4.66,0,7,0,9,.26,12,3.88,10.33,12.59-.71,3.78-2.75,6.15-6.66,6.11-16.94-.15-34,1.83-50.69-2.69a61.11,61.11,0,0,1-15.48-6.69c-8.59-5.23-12.78-13.63-13-23.47-.41-15-.47-30,0-45,.4-13.77,7.73-23.49,20.6-27.78a98.6,98.6,0,0,1,27.2-5.39c21.29-.77,42.63-.61,63.93,0a91.74,91.74,0,0,1,24.44,4.28c14.64,4.56,21.5,14.59,21.8,29.84.14,7,.18,14,0,21-.24,8.88-2.49,11.27-11.38,11.37-18,.2-36,.08-54,.08Zm107.17-20.77c.19-3.2.44-5.49.44-7.78,0-10.3-3.18-14.35-13.22-16.79a26.35,26.35,0,0,0-5.92-.79c-21.24-.29-42.48-.71-63.72-.59-5.2,0-10.55,1.42-15.53,3.08-6.21,2-9.9,6.5-9.3,13.59.24,2.9.35,5.81.55,9.28Z"/><path class="cls-2" d="M1005.81,1547h23.63c19,0,38-.45,57,.2a126.34,126.34,0,0,1,28.47,4.26c14.37,3.88,24.38,14.34,23.85,32.49-.62,21-.5,42,0,63,.24,10.36-4.77,13-13.44,12.69-7.59-.29-10.25-3.29-10.32-11.58-.14-18.67,0-37.34-.06-56,0-2.67.09-5.34,0-8-.33-8.49-3.5-13.07-11.41-15.58a41.2,41.2,0,0,0-11.75-2.14c-27.33-.27-54.66-.28-82-.34-.92,0-1.84.49-3.93,1.09v73.53c0,2.33.09,4.67,0,7-.61,10.52-10.95,16-20,10.34-1.78-1.11-3.08-3.33-4-5.32-.67-1.4-.52-3.26-.52-4.92,0-40.66-.1-81.33,0-122,0-8.91,3.6-12.1,12.19-12s12,3.2,12.33,12.13C1006,1532.39,1005.81,1539,1005.81,1547Z"/><path class="cls-2" d="M1781.82,1854.7c0,11.9.16,22.1,0,32.29-.2,9.94-5.85,14.29-15.71,12.52-5.66-1-8.1-3.49-8.74-9.21a62.4,62.4,0,0,1-.15-7q0-56.46,0-112.92c0-1.33,0-2.66,0-4,.36-11,9.29-16.27,19.3-11.35,5.14,2.52,5.3,7.25,5.32,12,.06,14.66,0,29.31,0,44v20.3c4.14-1.86,7.12-3,9.94-4.5q34-18,67.89-36.1c6-3.21,12.07-5.59,19-5,4.19.35,8.22,1.37,9.27,6s-2.89,6.34-6.07,8c-23.22,12.34-46.5,24.58-69.73,36.9-2.83,1.5-5.51,3.26-9.47,5.63,3.81,2.23,6.23,3.8,8.79,5.11q33.36,17,66.77,33.91c1.78.9,3.61,1.72,5.33,2.72,3.56,2.07,7.13,4.45,6,9.26s-5.34,5.67-9.31,6.24c-7.9,1.12-15.06-1.26-22-5q-33-17.65-66.19-35C1789.28,1858,1786.33,1856.79,1781.82,1854.7Z"/><path class="cls-2" d="M2406,1899.4c-16.23-1.1-32.5-1.74-48.65-3.53-5.72-.63-11.45-3.5-16.6-6.37a26.07,26.07,0,0,1-13.7-20.86,57.12,57.12,0,0,1-.67-5.94c-.06-21.64-.2-43.28,0-64.92.09-8.74,3.12-11.8,11.2-12,10.24-.31,13.2,3.93,13.06,12-.36,20.31-.14,40.62-.1,60.93,0,12.47,3.15,16.41,15.47,19.27a45.52,45.52,0,0,0,9.85,1.26q30.45.16,60.91,0a46.08,46.08,0,0,0,9.84-1.28c12.74-2.92,15.12-6,15.14-19.15,0-20-.09-40,.06-59.92.08-9.82,3.29-13,12.21-13.18,8.6-.13,12.24,3.07,12.31,11.86.17,22.3.2,44.61,0,66.91-.13,12.92-6.66,22-18.25,27.46-9.81,4.59-20.3,6.29-31,6.43-10.32.15-20.64,0-31,0Z"/><path class="cls-2" d="M920,1547h22.5c5.33,0,10.67-.11,16,0,7.88.23,10.28,2.81,9.86,10.21-.34,6.15-2.27,8.35-8.55,8.52-9.32.25-18.66.08-28,.09H920c-.26,4.34-.64,7.87-.65,11.4-.06,20.65,0,41.3,0,62,0,2.67.08,5.34,0,8-.52,10.67-10.11,16.13-19.54,10.83-2-1.12-3.58-3.79-4.3-6.07-.77-2.44-.36-5.27-.36-7.94q0-33.46,0-67v-10.76c-4.37-.2-7.93-.17-11.45-.57-5.16-.58-7.61-4-7.38-9.89.21-5.52,2.41-8.23,7.47-8.76,3.24-.34,6.53-.33,11-.53.12-7.07.22-13.6.36-20.12.21-10,4.67-14,14.29-12.62,6.78.94,9.24,3.36,9.81,10.35.32,4,.06,8,.18,12C919.43,1539.36,919.7,1542.59,920,1547Z"/><path class="cls-1" d="M2497.91,418.91c-1.83,7.51-2.56,12.75-4.38,17.58A494.55,494.55,0,0,1,2427.21,558c-1.59,2.13-3,4.55-5.09,6.14-7.51,5.82-8.24,13.94-5.82,21.66,5,16,3.53,32.26,4.17,48.47.52,13.29-.06,26.73,1.74,39.84,2.15,15.65,9.79,29.61,17.4,43.33,1.88,3.39,3.73,6.79,6.73,12.25l-44.53-2.81c1.56,6.19,2.74,10.88,3.87,15.39-9.38,10-5.24,24.11,8.52,29.84,3.47,1.45,7.08,2.53,13.12,4.65-8.79,5-15.2,8.92-21.9,12.29-15.11,7.6-15.7,8.61-8.77,24.05,2,4.52,5.31,8.46,7.61,12.87,1.12,2.14,2.5,6.16,1.67,6.87a11.81,11.81,0,0,1-7.82,2.38c-3.22-.2-6.38-1.71-9.5-2.82-4.35-1.55-8.64-3.24-12.41-4.67-1.37.79-2.29,1-2.46,1.46-3.52,10-10.73,16.93-18.39,24-11.79,10.88-14.89,26.28-18.06,41.29-.58,2.75-.63,5.6-1.17,10.68-2.24-3.51-3.5-4.9-4.11-6.54q-7.71-20.58-15.21-41.23c-1.75-4.79-4-9-8.82-11.6-9.18-4.84-14.85-4.11-22.19,3.31-2.57,2.6-5,5.37-7.56,8-3.63,3.66-7.12,7.25-12.75,2.54-1.24-1-4.39-.32-6.47.26-10.8,3-19.68,9.59-28.5,16.17-7.71,5.75-15.39,11.54-22.94,17.2-1.54-.93-2.54-1.27-3.17-2-6.12-6.67-6.31-6.84-13.85-1.75s-14.63,10.47-22,15.57c-4.87,3.34-5,3.21-11-2.71,2.37-1.81,4.52-3.72,6.91-5.26,9-5.76,18-11.39,27-17.1s9.13-5.79,17.1,2.47l41.15-28.24c-8.06-20.74-15.86-40.82-23.87-61.42l17.13-10.07c1.87,4.09,3.47,7.27,4.8,10.57,4.85,12,9.69,24.1,14.35,36.23,1.66,4.34,3.9,7.33,8.92,8.28,3,.57,5.74,2.8,10.54,5.3a54.35,54.35,0,0,1,4.76-6.8c5.74-6.17,8.91-6.76,16.73-3.43a66.38,66.38,0,0,1,23.26,16.93c2.65,2.92,4.71,6.37,7,9.58l2.81-1.58,12.21-50.18,1.24.21-3.27,36.26c3.1-2.24,5.57-3.32,7-5.2a153.28,153.28,0,0,0,10.62-15.66c6.15-10.66,6.11-10.78,16.77-5.55,2.63,1.29,5.33,2.44,9.35,4.26-.75-3.37-1-5.55-1.72-7.51-1.92-5-4-9.91-6.19-14.74-2.39-5.17-2.54-9.45,3-12.87,4.19-2.59,4.72-6.75,4.09-11.44-4.36-32.32-8.51-64.68-12.88-97-3.86-28.53-13.18-55.68-21.24-83.15-1.31-4.47-2.68-8.93-4.27-13.3-2.15-5.94-6.28-9.49-12.87-8.88-13.25,1.23-26.47,2.75-39.71,4-5.27.51-5.73,4.66-6.55,9.28-10.23-2.25-20-4.41-29.69-6.56-.36-.6-.71-1.21-1.06-1.82,12.51-4.59,9.27-13.25,7.22-21.75-7.24-30-20.14-57.81-33.33-85.48-9-18.94-18.54-37.65-27.69-56.54a182.47,182.47,0,0,1-8.39-19.21c-6.35-18.24-18.48-32.93-28.31-48.66-1.37,0-2.14-.23-2.63,0-5.2,2.93-11.51,4.95-15.23,9.21-4.37,5,1.23,11.27,1.23,17.11v5.61l-26.07,3.37c-.25,3.09-.75,5.64-.61,8.14.3,5.05-2,7.17-6.88,7.72-6.16.69-12.25,1.94-19.32,3.11,2.76,13.19,5.27,25.12,7.81,37.25l-5.32,1.57c.16,7.08,1.41,13.48,7.76,18.26,2,1.54,3.32,4.8,3.85,7.49q10.18,51.94,20,104c.55,2.89.44,5.9.67,9.39l-8.24,2.29c-1.13-6.24-2.21-11.7-3.11-17.2-8-48.38-20.44-95.72-33.58-142.89a56.66,56.66,0,0,0-6-13.63c-1.46-2.44-4.48-4-6.76-5.87-4.59,4.77-1.18,7.9-.07,11.05,3.42,9.66,1.94,12.58-8.27,14.36-4.25.74-8.64.59-12.92,1.17-4.91.66-7.71,3.21-7.53,8.68.29,8.66,0,17.33.32,26a33.77,33.77,0,0,1-10.23,26.17c-5.55,5.63-11,11.37-17,17.6,3.56,2.79,6.41,5,10,7.78L2023,525.2a38.73,38.73,0,0,0,2.9,4.45c2.69,3.13,2.08,5.94-.23,9-15.81,20.62-21.45,45.49-29,69.58-1.52,4.86-1.13,9.67,2.43,13.09,6.62,6.38,5.26,12.23.14,18.42-.39.47-.45,1.22-1,2.84,5.39,7.94,11.15,16.41,17.41,25.61l-7,12.7c-3.55-7-6.14-12.22-8.79-17.39-2.27-4.45-4.26-9.11-7.06-13.21-1.52-2.23-4.53-5-6.74-4.94-10,.46-15.81-5.66-19.85-13-5.27-9.58-9.08-19.95-13.49-30-.91-2.07-1.7-4.2-3.37-8.36-9.82,18.21-15.23,36.59-24.54,53.79-3.12-2-5.38-3.26-7.46-4.78s-4.09-3.34-7.22-5.94c-2.07,3.36-4,6.25-5.68,9.24-12,20.78-22.54,42.49-36.11,62.14-16.59,24-32.55,48.58-52.91,70.05-13.7,14.45-26.79,29.43-41,43.48-14.41,14.23-27.32,30.07-40.07,45.86-26,32.14-51.35,64.72-77,97.14-1.21,1.53-2.21,3.22-4.1,6,3.69,1.08,6.61,2.41,9.66,2.77,23.23,2.74,41,14.59,55.4,32.44a228.29,228.29,0,0,1,41.45,78c6.28,20.71,12.85,41.33,19.06,62.06,1.57,5.27,2.23,10.81,3.63,17.83-4-1.5-6-2.24-8.08-3.1-1.76-.74-3.46-1.61-6.74-3.16,4,18.9,8.11,36.32,11.29,53.91s8.47,34.52,10.36,52.19l-2,1.3c-2.48-1.86-5.06-3.61-7.43-5.6-17.58-14.77-35.05-29.67-52.72-44.34a163.89,163.89,0,0,0-35.5-22.17c-12.32-5.76-24.45-11.93-37.33-18.26-1,8.61,9.32,12.94,6.33,22.36-3.34-.38-6.93-.27-10.21-1.24q-60.81-18-121.54-36.29c-14.23-4.28-26.52-12-38.24-21.1-20.52-15.91-26.13-36.81-22-61.36.88-5.25,2-10.46,2.85-15.72.58-3.78.75-7.62,1.11-11.46-11,10.08-21.32,19.64-31.82,29-.66.6-2.5-.12-4.78-.31.17-3.79-.18-7.44.55-10.86q19.68-91.28,39.65-182.49c4.51-20.54,10-40.85,21.86-58.64,6.25-9.41,13.45-18.19,20.17-27.29,1.15-1.56,2-3.3,3.85-6.21-18.37-4.57-36.74-4.27-55.47-8.86,1.8-2.47,2.69-4.08,3.95-5.29a26.36,26.36,0,0,1,4.83-3.55c23.88-14.17,39.7-35.5,50.9-60.09A264.21,264.21,0,0,0,1546,650.8c-3.52-1.44-6.79-2.76-10-4.11-16.28-6.71-33.71-10.64-48.67-20.53-11.41-7.54-22.4-15.46-31.71-25.67-18.24-20-35.5-40.62-48-64.82-1.06-2-2.14-4.07-3.7-7,2.64-.73,4.68-1.82,6.68-1.77,10.32.3,20.64.72,30.94,1.43,15.26,1.06,30.58,1.86,45.74,3.83,8.76,1.13,17.25,4.35,27.7,7.12-6.62-11.42-20.07-14-25.11-26.11,17.77-7.1,35.4-14,49.52-28.33-15.27-6.82-30-12.74-44.1-19.88-13.8-7-27.55-14.38-39.4-25.41,4-4.51,8.44-5.3,13-5.92,7.58-1,15.23-1.76,22.7-3.33,13.88-2.92,26.09-9.79,38.16-17,61.28-36.43,122.13-73.61,184.09-108.85,36.43-20.71,74.87-37.87,112-57.44,20-10.55,39.2-22.62,58.52-34.4,12.22-7.45,24.24-15.29,35.9-23.6,9.47-6.76,19.14-7.3,29.21-2.76a107.89,107.89,0,0,1,18.26,10.25C1984,208.09,2000,220.07,2016.06,232c32.81,24.38,68.55,43.53,106,59.75,7.64,3.31,15.1,7,22.63,10.56.88.42,1.63,1.33,2.53,1.49,26.15,4.65,52,11.51,78.65,12.47,2.68.1,5.43-1.47,8.11-2.38s5.48-2.63,8.32-2.93c15.39-1.6,30.49-1.08,45.1,5.28,9.07,4,18.45,7.91,28.09,9.74,23.86,4.53,47.85,8.75,72,11.26,12.71,1.33,25.83-1.18,38.77-2,2.23-.14,4.45-.43,8.5-.84-1.93,3.82-3,6.43-4.47,8.79q-22.84,36.41-45.8,72.73c-5.43,8.6-4.25,17.24,3.84,23.49,1.75,1.35,4.89,1.54,7.28,1.29,7.28-.77,14.48-2.19,21.75-3,2.5-.26,6.42-.32,7.46,1.12,3.93,5.47,8,3,12.33,1.38q24.39-8.94,48.8-17.77C2489,421.36,2492.15,420.6,2497.91,418.91ZM2167,322c1.27,2.88,2,5,3.13,7,8.52,15.07,16.93,30.2,25.71,45.11,25.38,43.09,47.26,87.94,67.33,133.69,7.62,17.37,14.58,35,21.75,52.59,4.14,10.15,4.09,10.18,14.51,8.85,8.91-1.13,17.84-2.14,26.74-3.36,3.15-.44,6.23-1.36,9.55-2.11-.16-12.45-3.47-23.19-7.26-33.84s-7.73-21.26-11.3-32c-1.42-4.27-2-8.81-3.06-13.54,6.62-1.17,9,2.83,10.85,6.51a122.37,122.37,0,0,1,6,14.76c6.19,17.22,12.13,34.53,18.41,51.72,3.23,8.86,5.71,10.26,15,8.89,10.53-1.55,21-3.25,31.51-5.25,8.4-1.61,9.25-3,7.49-11.59-2.34-11.41-4.8-22.79-7.5-34.12-8.26-34.67-18-68.9-31.83-101.84-16.9-40.15-46.11-68.62-84.13-88.76-7.5-4-15.37-6.32-24-5.53-7.77.71-9.31,2.12-11.43,9.83-.66,2.4-1.73,4.69-2.95,7.91-12.53-5.64-22.11-15.28-35.86-16.09C2193,320.09,2180.28,317,2167,322ZM1573.46,615.3c29.66,21.67,51.78,51.58,82.86,71.12a245.22,245.22,0,0,0-18.17-19.25c-6.19-6.06-12.6-11.9-18.61-18.13s-13.48-11.26-17.87-19.53c2-.89,2.91-1.53,3.81-1.59a11.63,11.63,0,0,1,3.93.45c27.93,8,50.4,22.54,65.16,48.93,8,14.34,19.33,27,30.17,39.57,8.45,9.76,19.62,12,31.75,6.14,4.19-2,8.43-4,12.65-5.94,13.28-6.22,26-6.84,38.75,2,4.81,3.36,10.72,5.21,16.25,7.43,1.78.72,4,.43,6,.6a18.92,18.92,0,0,0-6.9-6.25q-50.88-28.74-101.8-57.42c-26.7-15.07-53.61-29.7-83-39C1603.87,619.88,1589.22,615.68,1573.46,615.3Zm832,99.33c5.84-35.2,9.82-69.24,4.45-103.56-2-12.44-5.64-24.62-8.77-36.86-.9-3.5-2.22-7.52-7.18-6.68-12.37,2.1-24.69,4.44-37.39,6.74a30.62,30.62,0,0,0,.81,4.78c16.31,43.66,24.09,89.25,30.55,135.14.29,2,1.38,4,3,8.4C2393.06,712.41,2399,713.41,2405.45,714.63Zm-168.8,79.3c3.06,16.29,7.89,31.77,17.38,45.4C2254.19,821.89,2248.28,806.77,2236.65,793.93Z"/><path class="cls-1" d="M1895.93,750.86c3.25,5.21,5.15,8.31,7.1,11.38s3.75,6.31,6,9.21c13.32,17.42,32,21.14,50,8.59,8-5.58,14.34-13.69,21-21,4.39-4.83,8-10.32,12.66-16.35,3.3,3.63,5.77,6.23,8.11,9,25.85,30,51.46,60.32,77.62,90.1,10.1,11.49,21.1,22.25,32.29,32.7,26.09,24.38,49.43,51.27,73.69,78.57-2.41,1.52-4.08,3-6,3.74-9,3.4-18.1,6.71-27.24,9.83-12.26,4.19-21.2,12.11-27.49,23.36-12.56,22.46-18.9,46.73-22,72.12-7.24,59.5-13.52,119.16-22.71,178.36-5.66,36.41-15.84,72.13-24.19,108.11-13.22,56.91-32.67,111.78-54.39,165.92-17,42.47-27.49,86.91-38.69,131.12-1.64,6.45-3.09,13-5,19.33-2.47,8.16-5.52,10.94-14.37,14-5.19-5.22-8-11.94-10-18.93-39.21-136.67-76.84-273.7-102.61-413.73-9.45-51.38-20.48-102.47-31.21-153.61-6-28.58-18.08-54.8-31.93-80.46s-35.31-39-62.84-44.56c-3.92-.79-7.92-1.22-11.79-2.16-5.73-1.4-7.16-4.4-4.44-9.48a64.21,64.21,0,0,1,5.69-8.2c33.28-43.62,73.35-79.77,119.17-109.92,16.36-10.76,31.58-23.31,46.89-35.59,11.32-9.07,19.36-21,26.1-33.78C1888.12,762.92,1891.67,757.79,1895.93,750.86ZM2120,954l.48-2.38c-9-10.13-20.92-11.61-33.71-9.45-20.4,3.43-39.89,19.26-43.34,35.4,2.43-1.15,4.48-1.91,6.31-3,7.94-4.83,15.9-9.63,23.69-14.7,10.84-7,22.56-9.2,35.22-7.14C2112.41,953.35,2116.23,953.6,2120,954Zm-375.78,6.65c9.23,1.94,17.39,2.89,25,5.47a96.67,96.67,0,0,1,21.31,10.33c6.69,4.32,12.45,10.08,19.71,16.12C1805.61,957.72,1775.51,946.81,1744.23,960.67Z"/><path class="cls-1" d="M2213.62,979.11c-3-3.49-6.13-6.85-8.92-10.49-8.51-11.1-16.9-22.29-25.29-33.48-1.19-1.59-2.69-3.28-3-5.1-.27-1.62.42-4.25,1.61-5s3.91-.25,5.14.74c1.73,1.39,2.78,3.68,4,5.68,3.9,6.59,7.41,13.44,11.68,19.78,3.05,4.54,7.08,8.43,12.23,14.42,3.47-27.67,18.1-45.33,38.59-60.88,6.29,22.73-4.69,41.61-8.25,61.35l2.26,1c2-2.42,4.06-4.79,6-7.29,9.12-11.88,18.1-23.88,27.35-35.66,2.58-3.28,4.94-7.38,11.5-7.05.78,3.67,1.8,7.71,2.48,11.79,2.92,17.4,5.53,34.86,8.66,52.22,4.13,22.89,20,50.46,37.15,64.53,1.09-5.08-.29-9.51-1.17-13.67-4.08-19.18.15-35.94,12.16-51.55,13-16.89,24.83-34.66,37.18-52,1.92-2.69,3.9-5.34,6.25-8.53,2.21,1.51,4.24,2.53,5.82,4,16.7,15.88,25.76,35.26,26.61,58.4,1,26.36,9.48,50.26,24.24,71.9,3.83,5.62,9.07,10.27,13.66,15.36l1.92-1.12a58.76,58.76,0,0,0-.88-6.07,96,96,0,0,1,1.31-50.29c7.26-25.26,13.84-50.71,20.76-76.07.51-1.9,1.39-3.7,2.3-6.06,5.16,2.7,4.35,7.2,4.34,11.22-.06,21.65.17,43.32-.46,65-.58,19.62-1.9,39.23-3.36,58.8-.71,9.41-3.66,18.28-10,25.67-5.55,6.5-7.15,6.81-14.08,1.94-18.39-12.91-32.15-29.88-42.48-49.64-4.31-8.24-7.7-16.95-11.6-25.41a49.22,49.22,0,0,0-3.49-5.38c-3.39,4.95-1.8,9.13-1.24,13.19,1.52,11.2,4.11,22.35,1.25,33.71-.9,3.54-1.3,7.3-2.73,10.61-7,16.22-14.38,32.06-29.24,43.2-15.46,11.57-30.44,23.8-45.33,36.11-14.62,12.1-28.94,24.56-43.21,37.07-7.95,7-10.73,7.26-18.62.25-4-3.52-7.71-7.27-12.48-11.79-2.1,2.74-4,4.84-5.47,7.2a99.69,99.69,0,0,1-42.44,38.25c-12,5.76-23.51,12.34-36.06,19-6.87-14.15,4.82-25.85,4-40.89-6,5.65-11.06,9.42-14.82,14.21-11.09,14.14-21.76,28.6-32.36,43.11-6.87,9.42-13.18,19.24-20,28.66-3.29,4.52-7.28,8.54-11.26,13.13-8.77-5-12-12.32-11.64-21,.45-12,1.26-24,2.7-35.83q8.57-70.87,17.67-141.68c1.73-13.52,3.53-27.08,6.2-40.44,5.39-26.95,17.38-50.95,34.5-72.35,12.75-16,27.87-19.83,47.17-12.32,6.68,2.6,13.25,5.47,19.87,8.21Z"/><path class="cls-1" d="M2008.82,727.85c-5.36-10-7.47-19.16-2.85-30.44a138.14,138.14,0,0,1,34.26-49.62,422.63,422.63,0,0,1,59.59-46.88c19.4-12.45,40-20.46,63.21-22.42,29.33-2.48,58.49-2.52,87.63,1.62,3.88.55,7.55,2.51,11.4,3.5,27,7,54,13.9,81,20.9a68.27,68.27,0,0,1,7.15,2.77c-1.22,3.48-2.14,6.6-3.38,9.58-5.64,13.52-11.44,27-17.05,40.51-2.69,6.49-5.69,12.45-11.16,17.4-6.81,6.15-5,11.57,4.06,14.19,2.52.73,5.2.88,9.38,1.55-5.64,8-10.85,15.12-15.84,22.43a82.48,82.48,0,0,1-17.48,18.9c-15.2,11.9-29.91,24.47-44.46,37.18a77.59,77.59,0,0,1-28.39,16.28c-32.52,9.92-65.44,18.31-99.58,20.06-14.25.73-28.64,1.66-42.75-2.08a77,77,0,0,1-33-17.61c-4.13-3.78-5.44-7.66-2.77-13.24,4.17-8.69,7.52-17.77,11.14-26.72,1.09-2.7,1.92-5.51,3.15-9.05C2044.41,730.84,2027.17,726.65,2008.82,727.85Zm311.58-63.46c3-9.16,5.79-17.59,8.48-26.06,6.09-19.21,4.91-21.66-14.08-28.54-33.23-12-67-22.1-102.37-25.5-24.95-2.39-49.87-2.83-74.14,5.25-36,12-65.1,34.26-91.49,60.68-.41.41-.44,1.21-.79,2.22,1.58,2.68,3.28,5.59,6,10.16-3.39-1.37-4.85-2-6.3-2.56-1.79-.75-3.56-1.53-5.16-2.22-8,7.65-12.47,13.94-15.33,21.5l25,11c10-13.07,19.52-25.75,31.12-36.4-4.7,9-10.21,17.33-14.64,26.22-10,20.1-9,13.47,2.6,30.51,4.89,7.17,9.42,7.21,14.86.66a14.42,14.42,0,0,0,3.06-14c-.82-2.75-1.67-5.49-2.82-9.25,6.16,1.41,9.23-1.39,12.3-5.45,7.44-9.8,14.78-19.83,23.37-28.57,25.77-26.18,56.3-33.41,91.52-22,31.94,10.34,64.14,19.91,96.25,29.71C2311.52,662.92,2315.44,663.38,2320.4,664.39Zm-7.28,38.28c-3.88-3.07-7.37-5.54-10.52-8.39-3.88-3.52-7.57-3.25-11.72-.54-3.44,2.24-7.13,4.11-10.71,6.15l-2.34-3,14.89-9.1c-9.73-6.41-16.59-11-23.54-15.48-7.22-4.63-7.79-4.52-13.25,1.79-6.1,7.06-12,14.27-18.23,21.22-23.08,25.83-52.61,34.9-86.31,32.9-18.61-1.11-37.2-2.65-55.82-3.31-14.39-.51-20.62,4.33-25.25,17.76-.3.85,0,1.92.1,3l7.52,5.47a78,78,0,0,0-8.19.72c-4.27.87-5.91,3.9-5.9,8,0,4.68,3.37,6.3,7,7.15,13.26,3.06,26.58,5.89,39.87,8.85,1.57.35,3.09,1,4.63,1.43-11.55,1.17-22.87-1.25-34.76.67,7.48,10.72,10.16,12.46,20.53,13.79,15.57,2,31.09,2.57,46.78.67,55.35-6.7,102.86-30.72,145.53-65.39A78.27,78.27,0,0,0,2313.12,702.67Zm-108.15-23c.44-23.66-20-40.69-42.19-35.17a36,36,0,0,0-26.8,34.28c-.06,16.64,11.92,32.93,27,36.69a29.24,29.24,0,0,0,4.92.75C2188.62,717.74,2204.57,702,2205,679.67Zm-194.85,37.07c19,6.39,36.49,11.21,55.32,8.94-1.35-22.16-23-40.72-43.87-38.34-2.09.24-5.16,2.35-5.68,4.19C2013.62,699.42,2012.14,707.54,2010.12,716.74Zm297.6-48.45a361.74,361.74,0,0,0-35-12.63c.2,9.08.68,11.19,5.56,15.16a82,82,0,0,0,13.25,8.65c10.83,5.78,13.28,4.53,16.14-7.51A19.3,19.3,0,0,0,2307.72,668.29Z"/><path class="cls-1" d="M2354.77,762.79c-1-6.35-1.91-13.22-3.14-20-1-5.75-4.07-9.44-10.43-10.18-5.91-.68-11.73-2.08-17.55-3.34a51.77,51.77,0,0,1-6.16-2.16c.18-.7.35-1.39.52-2.08,6.57,1.49,13.14,2.94,19.7,4.48,17.2,4,17.22,4,17.62,22.12.07,3.31,0,6.62-.11,9.93A2.85,2.85,0,0,1,2354.77,762.79Z"/><path class="cls-1" d="M2353,777.62v5.62h-.34v-5.62Z"/><path class="cls-1" d="M420.17,1739.55c-25.94,0-51.89.25-77.82-.18-6.16-.11-12.43-2.06-18.38-4-7.58-2.45-12.49-8.16-13.2-16a127.26,127.26,0,0,1,.09-24.84c1.07-9.84,7.28-16.68,16.77-19,9.95-2.42,20.23-4.64,30.39-4.77,41.25-.53,82.52-.47,123.77,0,9.54.1,19.22,1.81,28.54,4,11.89,2.85,18.88,10.81,19.34,23.48.23,6.28.23,12.6-.08,18.88-.5,10.32-6.51,17.13-16,19.21a186.08,186.08,0,0,1-33.52,4.06c-19.94.63-39.92.18-59.88.18Z"/><path class="cls-1" d="M420.8,1563.76c24,0,47.94-.31,71.9.19,7.17.15,14.45,2,21.41,4.09a19.69,19.69,0,0,1,14.66,17.29,112.12,112.12,0,0,1,0,24.84c-.94,8.53-6.18,14.78-14.63,17.26-6,1.77-12.3,3.65-18.48,3.69q-75.4.45-150.8,0c-6.5,0-13.15-1.94-19.44-3.93-7.45-2.35-12.9-7.73-13.67-15.68a144.78,144.78,0,0,1-.22-26.66c.79-8.75,6.7-14.54,14.91-17,6.63-2,13.6-3.75,20.45-3.87,24.63-.46,49.26-.18,73.89-.18Z"/><path class="cls-1" d="M421.44,723.82c21.66,0,43.33-.55,64.95.27,8.78.33,17.8,2.7,26.09,5.79,11.23,4.19,17,12.48,16.78,25.45-.53,37.31-.18,74.64-.19,111.95,0,14.73-4.45,22.58-18.57,27.18a109,109,0,0,1-32.24,5.68c-41.63.38-83.27-.17-124.9-.71a55.44,55.44,0,0,1-27.62-7.71c-8.07-4.73-12.8-11.4-12.79-21.08q0-58.47,0-116.95c0-11,5.26-18.24,14.64-23a64.79,64.79,0,0,1,28.93-6.83c21.65-.25,43.31-.07,65-.07Z"/><path class="cls-1" d="M1235,1837.71h16.34c27.28,0,54.56,0,81.83.21a70.8,70.8,0,0,1,16.69,2.28c6,1.53,9.48,6,9.87,12.33a67.48,67.48,0,0,1,.1,10c-.65,7.23-3.6,10.78-10.72,12.49a56.81,56.81,0,0,1-12.81,1.77c-32.6.17-65.2.14-97.8.14a15.43,15.43,0,0,1-2.82-.52C1233.41,1869.36,1233,1851.11,1235,1837.71Z"/><path class="cls-1" d="M1234.69,1814.24v-37a74.53,74.53,0,0,1,7.89-.87c29.31-.05,58.61-.09,87.92.07a89.81,89.81,0,0,1,15.86,1.54c9.55,1.76,13.06,6.08,13.33,15.66a48.67,48.67,0,0,1-.39,9c-1,6-5.19,9.21-10.75,10.41a68.14,68.14,0,0,1-13.84,1.71c-31.64.19-63.27.16-94.91.17A46.7,46.7,0,0,1,1234.69,1814.24Z"/><path class="cls-1" d="M2819.31,1807.6a60.21,60.21,0,0,1,.7,6.3c0,15.63-.21,31.27.13,46.9.18,8-3.63,12.45-10.67,14.78a29.35,29.35,0,0,1-8.69,1.94c-23.58.16-47.16.23-70.73,0-3.83,0-7.83-1.53-11.41-3.12-5.24-2.32-8.17-6.49-8.12-12.58q.18-19,0-37.92c-.08-7,3.39-11.7,9.61-13.57a72.92,72.92,0,0,1,19.52-3.45c25.27-.41,50.56-.21,75.84-.19A20.61,20.61,0,0,1,2819.31,1807.6Z"/><path class="cls-1" d="M2283,1877c-2.1,1-2.69,1.51-3.28,1.51-27.91-.23-55.83-.44-83.74-.86a30.68,30.68,0,0,1-9.68-2c-8.1-2.92-10.36-6.19-10.44-14.82-.12-12.31.2-24.62-.12-36.92-.19-7.13,3.21-11.66,9.4-13.59a64.63,64.63,0,0,1,18.5-3.37c19.93-.15,39.87.22,59.79.93a26.73,26.73,0,0,1,13.05,4.15c2.94,1.91,6.13,6.06,6.23,9.3C2283.3,1839.88,2283,1858.47,2283,1877Z"/><path class="cls-1" d="M1182.23,1592.32c-.13-2.81-.22-5.74-.4-8.66-.43-6.61,3.06-10.87,8.74-13.1a36.38,36.38,0,0,1,12.55-2.82c21.94-.27,43.88-.12,65.83-.08a28.58,28.58,0,0,1,5,.51c12.13,2.18,15.67,6.53,15.46,19,0,1.64-.24,3.28-.36,4.84C1281.4,1594.07,1192.56,1594.36,1182.23,1592.32Z"/><path class="cls-1" d="M1713.47,1839.43c0,8.2.58,16.17-.27,24-.37,3.45-3,7.5-5.79,9.62a21.75,21.75,0,0,1-11.93,4.28c-26.53.39-53.06.23-79.6.22a14.33,14.33,0,0,1-3-.4c-13.76-2.91-20.36-15.38-14.17-28.09,1.54-3.17,5.48-6,8.94-7.22a51.31,51.31,0,0,1,16.5-3.16c27.91-.34,55.82-.23,83.73-.22A36.39,36.39,0,0,1,1713.47,1839.43Z"/><path class="cls-1" d="M2643.4,1839.37c0,8.54.2,16.77-.07,25-.16,5.27-3.85,8.67-8.31,10.25-5.24,1.87-10.9,3.56-16.39,3.61-23.57.19-47.13-.24-70.7-.49a25,25,0,0,1-4.94-.6c-13.82-2.87-20.4-15.21-14.27-28,1.53-3.18,5.46-6,8.91-7.27a51,51,0,0,1,16.5-3.18c27.9-.34,55.81-.23,83.72-.23A37.42,37.42,0,0,1,2643.4,1839.37Z"/><path class="cls-1" d="M1533.06,1833.05h-106.7c-.2-3.47-.31-6.38-.55-9.28-.6-7.09,3.09-11.54,9.3-13.59,5-1.66,10.33-3,15.53-3.08,21.24-.12,42.48.3,63.72.59a26.35,26.35,0,0,1,5.92.79c10,2.44,13.22,6.49,13.22,16.79C1533.5,1827.56,1533.25,1829.85,1533.06,1833.05Z"/><path class="cls-2" d="M2167,322c13.24-5,26-1.93,38.73-1.17,13.75.81,23.33,10.45,35.86,16.09,1.22-3.22,2.29-5.51,2.95-7.91,2.12-7.71,3.66-9.12,11.43-9.83,8.6-.79,16.47,1.56,24,5.53,38,20.14,67.23,48.61,84.13,88.76,13.87,32.94,23.57,67.17,31.83,101.84,2.7,11.33,5.16,22.71,7.5,34.12,1.76,8.58.91,10-7.49,11.59-10.46,2-21,3.7-31.51,5.25-9.31,1.37-11.79,0-15-8.89-6.28-17.19-12.22-34.5-18.41-51.72a122.37,122.37,0,0,0-6-14.76c-1.9-3.68-4.23-7.68-10.85-6.51,1,4.73,1.64,9.27,3.06,13.54,3.57,10.74,7.5,21.35,11.3,32s7.1,21.39,7.26,33.84c-3.32.75-6.4,1.67-9.55,2.11-8.9,1.22-17.83,2.23-26.74,3.36-10.42,1.33-10.37,1.3-14.51-8.85-7.17-17.56-14.13-35.22-21.75-52.59-20.07-45.75-41.95-90.6-67.33-133.69-8.78-14.91-17.19-30-25.71-45.11C2169.06,327.06,2168.31,324.9,2167,322Z"/><path class="cls-2" d="M1573.46,615.3c15.76.38,30.41,4.58,44.94,9.18,29.4,9.3,56.31,23.93,83,39q50.89,28.72,101.8,57.42a18.92,18.92,0,0,1,6.9,6.25c-2-.17-4.19.12-6-.6-5.53-2.22-11.44-4.07-16.25-7.43-12.7-8.89-25.47-8.27-38.75-2-4.22,2-8.46,3.91-12.65,5.94-12.13,5.88-23.3,3.62-31.75-6.14-10.84-12.55-22.14-25.23-30.17-39.57-14.76-26.39-37.23-40.91-65.16-48.93a11.63,11.63,0,0,0-3.93-.45c-.9.06-1.76.7-3.81,1.59,4.39,8.27,11.87,13.31,17.87,19.53s12.42,12.07,18.61,18.13a245.22,245.22,0,0,1,18.17,19.25C1625.24,666.88,1603.12,637,1573.46,615.3Z"/><path class="cls-2" d="M2405.45,714.63c-6.5-1.22-12.39-2.22-14.55,8-1.6-4.42-2.69-6.35-3-8.4-6.46-45.89-14.24-91.48-30.55-135.14a30.62,30.62,0,0,1-.81-4.78c12.7-2.3,25-4.64,37.39-6.74,5-.84,6.28,3.18,7.18,6.68,3.13,12.24,6.82,24.42,8.77,36.86C2415.27,645.39,2411.29,679.43,2405.45,714.63Z"/><path class="cls-4" d="M2236.65,793.93c11.63,12.84,17.54,28,17.38,45.4C2244.54,825.7,2239.71,810.22,2236.65,793.93Z"/><path class="cls-2" d="M2120,954c-3.78-.42-7.6-.67-11.35-1.29-12.66-2.06-24.38.09-35.22,7.14-7.79,5.07-15.75,9.87-23.69,14.7-1.83,1.11-3.88,1.87-6.31,3,3.45-16.14,22.94-32,43.34-35.4,12.79-2.16,24.71-.68,33.71,9.45Z"/><path class="cls-2" d="M1744.23,960.67c31.28-13.86,61.38-2.95,66,31.92-7.26-6-13-11.8-19.71-16.12a96.67,96.67,0,0,0-21.31-10.33C1761.62,963.56,1753.46,962.61,1744.23,960.67Z"/><path class="cls-2" d="M2320.4,664.39c-5-1-8.88-1.47-12.6-2.6-32.11-9.8-64.31-19.37-96.25-29.71-35.22-11.41-65.75-4.18-91.52,22-8.59,8.74-15.93,18.77-23.37,28.57-3.07,4.06-6.14,6.86-12.3,5.45,1.15,3.76,2,6.5,2.82,9.25a14.42,14.42,0,0,1-3.06,14c-5.44,6.55-10,6.51-14.86-.66-11.64-17-12.63-10.41-2.6-30.51,4.43-8.89,9.94-17.24,14.64-26.22-11.6,10.65-21.12,23.33-31.12,36.4l-25-11c2.86-7.56,7.38-13.85,15.33-21.5,1.6.69,3.37,1.47,5.16,2.22,1.45.61,2.91,1.19,6.3,2.56-2.68-4.57-4.38-7.48-6-10.16.35-1,.38-1.81.79-2.22,26.39-26.42,55.52-48.71,91.49-60.68,24.27-8.08,49.19-7.64,74.14-5.25,35.36,3.4,69.14,13.45,102.37,25.5,19,6.88,20.17,9.33,14.08,28.54C2326.19,646.8,2323.38,655.23,2320.4,664.39Z"/><path class="cls-2" d="M2313.12,702.67a78.27,78.27,0,0,1-19.65,24.43c-42.67,34.67-90.18,58.69-145.53,65.39-15.69,1.9-31.21,1.33-46.78-.67-10.37-1.33-13-3.07-20.53-13.79,11.89-1.92,23.21.5,34.76-.67-1.54-.48-3.06-1.08-4.63-1.43-13.29-3-26.61-5.79-39.87-8.85-3.67-.85-7-2.47-7-7.15,0-4.14,1.63-7.17,5.9-8a78,78,0,0,1,8.19-.72l-7.52-5.47c-.05-1.07-.4-2.14-.1-3,4.63-13.43,10.86-18.27,25.25-17.76,18.62.66,37.21,2.2,55.82,3.31,33.7,2,63.23-7.07,86.31-32.9,6.21-7,12.13-14.16,18.23-21.22,5.46-6.31,6-6.42,13.25-1.79,7,4.46,13.81,9.07,23.54,15.48l-14.89,9.1,2.34,3c3.58-2,7.27-3.91,10.71-6.15,4.15-2.71,7.84-3,11.72.54C2305.75,697.13,2309.24,699.6,2313.12,702.67Z"/><path class="cls-2" d="M2205,679.67c-.4,22.32-16.35,38.07-37,36.55a29.24,29.24,0,0,1-4.92-.75c-15.12-3.76-27.1-20.05-27-36.69a36,36,0,0,1,26.8-34.28C2185,639,2205.41,656,2205,679.67Zm-24.18-2.45c-.05-5.16-4.45-10.23-9-10.34-5.36-.13-11.86,7-11.69,12.84a10.37,10.37,0,0,0,9.68,9.57C2175.08,689.48,2180.84,683.16,2180.79,677.22Z"/><path class="cls-2" d="M2010.12,716.74c2-9.2,3.5-17.32,5.77-25.21.52-1.84,3.59-3.95,5.68-4.19,20.86-2.38,42.52,16.18,43.87,38.34C2046.61,728,2029.07,723.13,2010.12,716.74Z"/><path class="cls-2" d="M2307.72,668.29a19.3,19.3,0,0,1,0,3.67c-2.86,12-5.31,13.29-16.14,7.51a82,82,0,0,1-13.25-8.65c-4.88-4-5.36-6.08-5.56-15.16A361.74,361.74,0,0,1,2307.72,668.29Z"/><path class="cls-1" d="M2180.79,677.22c.05,5.94-5.71,12.26-11,12.07a10.37,10.37,0,0,1-9.68-9.57c-.17-5.84,6.33-13,11.69-12.84C2176.34,667,2180.74,672.06,2180.79,677.22Z"/></svg>