<svg id="Layer_1" data-name="Layer 1" xmlns="http://www.w3.org/2000/svg" viewBox="0 0 594.04 238.6"><defs><style>.cls-1{fill:#fcfcfc;}.cls-2{fill:#0070ce;}.cls-3{fill:#0071ce;}.cls-4{fill:#388ad6;}.cls-5{fill:#92bce6;}.cls-6{fill:#fefefe;}.cls-7{fill:#fdfdfe;}.cls-8{fill:#fcfdfd;}</style></defs><title>PECOStackedLogoBlue</title><path class="cls-1" d="M360.24,479.8q-148,0-295.92,0c-.9,0-1.1-.2-1.1-1.1q0-118.2,0-236.4c0-.9.2-1.1,1.1-1.1q295.92,0,591.84,0c.9,0,1.1.2,1.1,1.1q0,118.2,0,236.4c0,.9-.2,1.1-1.1,1.1Q508.2,479.79,360.24,479.8Z" transform="translate(-63.22 -241.22)"/><path class="cls-2" d="M180,415.75H78.39c-1.56,0-1.56,0-1.56-1.61,0-5.12,0-10.24,0-15.36,0-1.21.36-1.42,1.48-1.41,11.91,0,23.83,0,35.75.05,1,0,1.33-.24,1.32-1.31-.06-6.56,0-13.12,0-19.68,0-1,.17-1.34,1.28-1.33,10.4,0,20.79,0,31.19.06,1.07,0,1.34-.27,1.33-1.33,0-6.8,0-13.6,0-20.4,0-1,.21-1.28,1.24-1.28q65.94,0,131.87,0c.91,0,1.22.19,1.21,1.17q0,30.66,0,61.32c0,1.17-.53,1.12-1.36,1.12Z" transform="translate(-63.22 -241.22)"/><path class="cls-2" d="M539.89,415.75q-50.86,0-101.74,0c-1.3,0-1.53-.38-1.53-1.57q.06-30.3,0-60.59c0-1.1.19-1.48,1.41-1.48q65.75.06,131.49,0c1.11,0,1.39.29,1.38,1.38,0,6.75,0,13.51-.06,20.27,0,1.15.35,1.36,1.4,1.35,10.4,0,20.8,0,31.2,0,1,0,1.27.17,1.27,1.21-.06,6.64,0,13.28-.06,19.92,0,1,.29,1.17,1.21,1.17,12,0,23.92,0,35.87,0,1,0,1.43.17,1.41,1.34q-.1,7.86,0,15.72c0,1.13-.33,1.34-1.39,1.34Q590.82,415.74,539.89,415.75Z" transform="translate(-63.22 -241.22)"/><path class="cls-3" d="M360,415.48q-30,0-60,0c-1,0-1.3-.12-1.14-1.26,1.32-10,2.56-20.06,3.82-30.09q1.85-14.79,3.69-29.6,1.74-13.8,3.5-27.58.64-5.18,1.28-10.35c.13-1.06.56-1.28,2.22-1.19,1,.05.59.78.6,1.23q.58,18,1.12,35.94.35,11,.72,21.92.35,10.73.66,21.44c0,.89.26,1.22,1.23,1.22q43,0,86,0c.92,0,1.2-.24,1.29-1.18.73-8.6,1.53-17.19,2.3-25.79q1-11.34,2-22.68c.67-7.56,1.37-15.12,2.05-22.68.26-2.79.53-5.57.75-8.36.05-.62.18-.91.89-.88,2.67.1,2.15-.43,2.32,2.16q.92,14.24,1.84,28.47.65,10.27,1.28,20.57.92,14.16,1.83,28.34c.42,6.45.79,12.91,1.25,19.37.07,1-.36,1-1.08,1q-17.62,0-35.27,0Z" transform="translate(-63.22 -241.22)"/><path class="cls-3" d="M240.32,339.11A93.78,93.78,0,0,1,248,320.29c16.84-31.31,42.91-51,76.81-60.78a124.35,124.35,0,0,1,36.61-4.67c30.27.53,57.42,9.92,80.88,29.22a113.31,113.31,0,0,1,37.28,55.62c.15.49.27,1,.43,1.6-.41-.14-.46-.41-.56-.63-8.68-18.56-21.81-33.33-38.51-45a136.74,136.74,0,0,0-53.69-22.25,144.11,144.11,0,0,0-30.53-2.51c-30.13.8-57.7,9.37-82,27.54a111.54,111.54,0,0,0-33.21,39.16l-.91,1.81C240.35,339.42,240.21,339.37,240.32,339.11Z" transform="translate(-63.22 -241.22)"/><path class="cls-3" d="M530.73,450.18l-5.88,6.76c-1,1.13-1.33,1.12-2.33,0-1.85-2.14-3.71-4.27-5.58-6.42-.41.4-.24.82-.24,1.19,0,4.16,0,8.31,0,12.47,0,.85-.24,1.1-1.08,1.06-1.39-.07-2.79,0-4.19,0-.58,0-.85-.09-.85-.77q0-11.26,0-22.55c0-.61.17-.9.8-.81h.24c3.11-.56,5.37.55,7.14,3.18a65.11,65.11,0,0,0,4.29,5c.54.66.82.56,1.32,0,2.1-2.47,4.27-4.87,6.36-7.34a2,2,0,0,1,1.84-.82c1.12.06,2.24.05,3.36,0,.7,0,.86.23.86.9q0,11.21,0,22.42c0,.62-.16.84-.8.82-1.44,0-2.88-.06-4.32,0-.84,0-1-.3-1-1,0-4.28,0-8.56,0-12.83Z" transform="translate(-63.22 -241.22)"/><path class="cls-3" d="M391.51,455.4a2.19,2.19,0,0,0,.1-1.16c0-4,0-8.08,0-12.12,0-.85.26-1.1,1.09-1.06,1.4.06,2.8,0,4.2,0,.69,0,.88.23.88.9q0,11.16,0,22.32c0,.76-.26,1-1,.91h-.12c-3,.56-5-.67-6.85-3-3.1-4-6.56-7.64-9.87-11.44-.18-.21-.37-.4-.6-.65-.33.45-.18.9-.19,1.3,0,4.24,0,8.48,0,12.72,0,.9-.23,1.18-1.13,1.13-1.36-.08-2.72,0-4.08,0-.63,0-.92-.09-.92-.83q0-11.22,0-22.43c0-.68.19-1,.87-.87h.12c3.29-.56,5.63.6,7.7,3.34,2.81,3.72,6.11,7.07,9.2,10.58C391.1,455.15,391.2,455.41,391.51,455.4Z" transform="translate(-63.22 -241.22)"/><path class="cls-3" d="M597.24,449.85c0,4.9,0,9.49,0,14.08,0,1.09-.29,1.36-1.32,1.28-1.32-.09-2.64,0-4,0-.6,0-.85-.12-.85-.79q0-11.28,0-22.55c0-.66.27-.81.86-.8,1.36,0,2.72.05,4.08,0a1.65,1.65,0,0,1,1.37.79l11.17,12.69a2.49,2.49,0,0,0,1.07.93v-1.2c0-4.08,0-8.15,0-12.23,0-.69.1-1,.9-1,1.44.07,2.88,0,4.32,0,.57,0,.86.09.86.78q0,11.32,0,22.67c0,.52-.17.7-.69.69-1.32,0-2.64,0-4,0-.6,0-.83-.41-1.13-.76l-11.65-13.38Z" transform="translate(-63.22 -241.22)"/><path class="cls-3" d="M492.62,465.5c-5,0-8.84-1.29-11.72-4.64a11.78,11.78,0,0,1,3.44-18.22,15.14,15.14,0,0,1,14.93-.14,11.36,11.36,0,0,1,6.51,11.7c-.43,5-3.36,8.31-7.91,10.23A13.27,13.27,0,0,1,492.62,465.5Z" transform="translate(-63.22 -241.22)"/><path class="cls-3" d="M354.39,465.49a13.8,13.8,0,0,1-10.53-4.07,11.82,11.82,0,0,1,2.07-18.29c5.53-3.69,14.1-3.07,18.59,1.34a11.89,11.89,0,0,1-3.5,19.68A15.17,15.17,0,0,1,354.39,465.49Z" transform="translate(-63.22 -241.22)"/><path class="cls-3" d="M278.33,453.14c0-3.63,0-7.27,0-10.91,0-.85.14-1.2,1.1-1.18,3.83.08,7.68-.07,11.51.12A12.07,12.07,0,0,1,301.29,459c-1.85,3.64-5.1,5.33-8.93,5.92-4.44.69-8.94.2-13.41.32-.82,0-.61-.57-.61-1Q278.33,458.66,278.33,453.14Z" transform="translate(-63.22 -241.22)"/><path class="cls-3" d="M437,452.65a19.4,19.4,0,0,1-4.18,6.57c-.6.59-.48.92,0,1.43,1.34,1.42,2.66,2.86,4.09,4.42a13.4,13.4,0,0,1-2.79.12c-1,0-2.08-.07-3.11,0a2.43,2.43,0,0,1-2.45-1.09c-.47-.7-.93-.7-1.68-.3A12.29,12.29,0,0,1,417,465,6.06,6.06,0,0,1,415,454.17a12.42,12.42,0,0,1,2.08-1.4c.69-.35.74-.64.29-1.25a7.76,7.76,0,0,1-1.57-3.45,5.92,5.92,0,0,1,3.87-6.67,9.28,9.28,0,0,1,6.11-.3,5.57,5.57,0,0,1,4.32,4.19,5.78,5.78,0,0,1-2,5.61,9,9,0,0,1-1,.84c-1.34,1-1.34,1-.25,2.26.53.6,1.09,1.18,1.57,1.81s.72.55,1.11,0c.58-.81,1.22-1.58,1.74-2.43a1.32,1.32,0,0,1,1.32-.77C434,452.69,435.41,452.65,437,452.65Z" transform="translate(-63.22 -241.22)"/><path class="cls-3" d="M124.68,453c0,3.72,0,7.44,0,11.16,0,.75-.15,1.05-1,1-1.4-.07-2.8-.06-4.2,0-.74,0-1-.2-.94-.94,0-2.6,0-5.2,0-7.8,0-.84-.24-1.09-1.08-1.08q-5,.06-10.08,0c-.79,0-1,.25-1,1,0,2.6,0,5.2,0,7.8,0,.8-.24,1-1,1-1.44-.06-2.88,0-4.32,0-.56,0-.76-.15-.76-.74q0-11.32,0-22.67c0-.6.24-.74.78-.73,1.48,0,3,.05,4.44,0,.71,0,.87.24.86.9,0,2.6,0,5.2,0,7.79,0,.75.14,1,1,1,3.4,0,6.79,0,10.19,0,.83,0,1-.27,1-1,0-2.56,0-5.12,0-7.68,0-.76.18-1.06,1-1q2.1.09,4.2,0c.76,0,.93.24.92,1C124.66,445.69,124.68,449.36,124.68,453Z" transform="translate(-63.22 -241.22)"/><path class="cls-3" d="M560.28,465.19c1.49-3.67,2.92-7.21,4.35-10.75,1.66-4.06,3.36-8.1,4.94-12.19a1.6,1.6,0,0,1,1.84-1.2c1.63.08,3.27,0,4.91,0,.51,0,.88,0,1.13.61q5.16,11.58,10.35,23.14c0,.06,0,.15,0,.37-2,0-3.94,0-5.92,0-.54,0-.64-.37-.79-.74-.47-1.14-1-2.28-1.43-3.42a.88.88,0,0,0-1-.66q-4.66,0-9.35,0a.91.91,0,0,0-1,.71c-.38,1.1-.86,2.15-1.22,3.25a1,1,0,0,1-1.18.87C564.07,465.16,562.24,465.19,560.28,465.19Z" transform="translate(-63.22 -241.22)"/><path class="cls-3" d="M255.45,453.1c0-3.68,0-7.36,0-11,0-.8.23-1,1-1q7.86,0,15.72,0c.88,0,1.11.32,1,1.11-.1,1.07.43,2.45-.21,3.13s-2.05.2-3.12.21c-2.47,0-5,0-7.43,0-.75,0-1,.22-.94,1a25,25,0,0,1,0,3.12c-.06.83.29,1,1,1,3,0,6,0,9,0,.93,0,1.19.27,1.1,1.14-.1,1.07.43,2.47-.2,3.14s-2.12.21-3.22.23c-2.16.05-4.32.07-6.48,0-1,0-1.3.31-1.23,1.28a23.78,23.78,0,0,1,0,3.48c-.05.83.27,1,1,1,3.24,0,6.48,0,9.72,0,.93,0,1.3.23,1.2,1.19s.32,2.39-.2,3-2,.23-3.09.24c-4.51,0-9,0-13.55,0-1,0-1.18-.29-1.17-1.21C255.48,460.38,255.45,456.73,255.45,453.1Z" transform="translate(-63.22 -241.22)"/><path class="cls-3" d="M473.64,448.26a27.12,27.12,0,0,0-4.75-2,12.55,12.55,0,0,0-7.55.15,7,7,0,0,0,.1,13.4,12.25,12.25,0,0,0,8.44-.29c1.12-.42,2.21-.94,3.29-1.44.49-.22.73-.23.72.41q0,2,0,4.08a.78.78,0,0,1-.55.8,19,19,0,0,1-15.23,1,11.86,11.86,0,0,1-1.33-21.84c5.23-2.65,10.62-2.47,16-.2a1.3,1.3,0,0,1,.9,1.45C473.59,445.27,473.64,446.7,473.64,448.26Z" transform="translate(-63.22 -241.22)"/><path class="cls-3" d="M239.59,447.28c-1.34-.49-2.57-.94-3.8-1.37a10.53,10.53,0,0,0-4.58-.66,6.05,6.05,0,0,0-1.41.26,1.86,1.86,0,0,0-1.45,1.44,1.76,1.76,0,0,0,1,1.76,14.71,14.71,0,0,0,3.06,1.36,21.58,21.58,0,0,1,5.39,2.53,6.76,6.76,0,0,1-1.1,11.78c-4.65,2.06-9.29,1.36-13.72-.95a.75.75,0,0,1-.41-.79c0-1.47,0-2.95,0-4.51a7.83,7.83,0,0,1,2,1.07,12.47,12.47,0,0,0,6.36,1.87l.6,0c1.61-.13,2.63-.79,2.81-1.8s-.4-1.94-2-2.62c-1.43-.61-2.91-1.09-4.36-1.67a12.82,12.82,0,0,1-3.54-2,6.56,6.56,0,0,1,1.18-11c3.19-1.62,6.57-1.5,9.94-.74,4.06.92,4.05,1,4,5.12Z" transform="translate(-63.22 -241.22)"/><path class="cls-3" d="M335.91,447.3c-1.65-.6-3.09-1.28-4.64-1.67a9.19,9.19,0,0,0-5-.15c-.8.23-1.52.64-1.59,1.58a1.9,1.9,0,0,0,1.2,1.78,36,36,0,0,0,4.65,1.9,17.35,17.35,0,0,1,3.41,1.73,6.55,6.55,0,0,1,3.06,6.35,6.42,6.42,0,0,1-4.19,5.68c-3.89,1.59-7.78,1.23-11.67-.19-1.72-.62-2.68-1.47-2.31-3.44a17,17,0,0,0,0-2.87c1,.59,1.92,1.12,2.82,1.6a11,11,0,0,0,6,1.45,7.29,7.29,0,0,0,1.41-.24,2.06,2.06,0,0,0,1.67-1.69,2,2,0,0,0-1.09-2,13.26,13.26,0,0,0-3.06-1.35,27.6,27.6,0,0,1-4.61-2,6.68,6.68,0,0,1-3.56-6.8c.3-3,2.17-4.72,4.89-5.6,4.12-1.34,8.12-.62,12,.94a.82.82,0,0,1,.55.92C335.9,444.56,335.91,445.84,335.91,447.3Z" transform="translate(-63.22 -241.22)"/><path class="cls-3" d="M77.16,453.09v-11c0-.52-.12-1,.73-1,3.67.05,7.35-.07,11,.08,4.34.18,7.31,3.32,7.21,7.36s-3.34,6.95-7.63,7c-1.44,0-2.88,0-4.31,0-.75,0-1,.23-1,1,0,2.51,0,5,0,7.55,0,.89-.16,1.29-1.16,1.21a30.59,30.59,0,0,0-3.83,0c-.87.05-1.16-.16-1.14-1.1C77.2,460.44,77.16,456.76,77.16,453.09Z" transform="translate(-63.22 -241.22)"/><path class="cls-3" d="M542.76,453.1c0-3.68,0-7.36,0-11,0-.77.2-1,1-1,3.36.05,6.72,0,10.08,0,4,.05,6.86,2.13,7.69,5.57,1.09,4.56-2.29,8.71-7.25,8.85-1.44,0-2.88.07-4.32,0-.94-.06-1.13.29-1.11,1.15,0,2.52,0,5,0,7.56,0,.79-.22,1-1,1q-2.1-.09-4.2,0c-.76,0-.92-.24-.91-.95C542.78,460.54,542.76,456.82,542.76,453.1Z" transform="translate(-63.22 -241.22)"/><path class="cls-3" d="M199.71,453.16c0-3.67,0-7.35,0-11,0-.84.23-1.09,1.08-1.08,3.59.06,7.19-.06,10.78.1a7,7,0,0,1,7.06,7.24c-.06,4-3.14,7-7.38,7.11-1.48,0-3,.05-4.44,0-.77,0-1,.18-1,1,.05,2.59,0,5.19,0,7.79,0,.74-.19,1-.93.94q-2.1-.09-4.2,0c-.8,0-1-.25-1-1C199.73,460.52,199.71,456.84,199.71,453.16Z" transform="translate(-63.22 -241.22)"/><path class="cls-3" d="M618.87,441.08h7c.54,0,.69.49.93.84,1.54,2.18,3.06,4.36,4.67,6.66,1.6-2.28,3.16-4.45,4.65-6.65a1.72,1.72,0,0,1,1.66-.88c2,.06,4.06,0,6.33,0l-3.88,5.23c-1.72,2.31-3.43,4.62-5.18,6.91a2.64,2.64,0,0,0-.56,1.75c0,3.08,0,6.16,0,9.23,0,.78-.19,1.05-1,1q-2.1-.09-4.2,0c-.74,0-.94-.21-.93-.94,0-3.08,0-6.16,0-9.23a2.94,2.94,0,0,0-.64-2q-3.94-5.2-7.83-10.45C619.65,442.18,619.34,441.74,618.87,441.08Z" transform="translate(-63.22 -241.22)"/><path class="cls-3" d="M142.65,453.07c0-3.6,0-7.2,0-10.79,0-1,.31-1.29,1.28-1.23a27,27,0,0,0,3.71,0c.92-.06,1.13.26,1.12,1.14,0,5.75,0,11.51,0,17.26,0,1.05.26,1.35,1.32,1.33,3.4-.07,6.8,0,10.19,0,.77,0,1.09.19,1,1-.1,1.1.45,2.54-.2,3.24s-2.12.21-3.22.21c-4.68,0-9.35,0-14,0-.89,0-1.14-.21-1.12-1.12C142.68,460.42,142.65,456.74,142.65,453.07Z" transform="translate(-63.22 -241.22)"/><path class="cls-3" d="M165,453.08c0-3.68,0-7.35,0-11,0-.8.24-1,1-1,1.32.05,2.64.07,4,0,.89-.05,1.14.22,1.13,1.12,0,5.76,0,11.51,0,17.27,0,1,.21,1.37,1.3,1.34,3.4-.07,6.79,0,10.19,0,.75,0,1.09.15,1,1-.09,1.1.33,2.55-.22,3.24s-2.1.21-3.2.22c-4.67,0-9.35,0-14,0-.87,0-1.16-.17-1.15-1.1C165,460.43,165,456.76,165,453.08Z" transform="translate(-63.22 -241.22)"/><path class="cls-3" d="M136.71,453c0,3.68,0,7.35,0,11,0,.84-.12,1.22-1.09,1.15-1.39-.09-2.79,0-4.19,0-.63,0-.81-.18-.81-.81q0-11.26,0-22.53c0-.65.24-.81.84-.8,1.43,0,2.87.05,4.31,0,.75,0,.94.22.94.95C136.69,445.68,136.71,449.36,136.71,453Z" transform="translate(-63.22 -241.22)"/><path class="cls-3" d="M313.65,453.28c0,3.64,0,7.28,0,10.92,0,.77-.21,1-1,1-1.44-.06-2.88,0-4.32,0-.64,0-.8-.2-.8-.82q0-11.2,0-22.42c0-.8.3-.92,1-.9,1.36,0,2.72.06,4.08,0,.85,0,1.08.25,1.07,1.08C313.63,445.85,313.65,449.57,313.65,453.28Z" transform="translate(-63.22 -241.22)"/><path class="cls-3" d="M193.56,453.24c0,3.63,0,7.27,0,10.91,0,.83-.2,1.1-1.05,1.06-1.4-.07-2.8,0-4.2,0-.57,0-.87-.08-.87-.77q0-11.26,0-22.54c0-.63.21-.84.83-.83,1.44,0,2.88.06,4.32,0,.83,0,1,.3,1,1C193.54,445.8,193.56,449.52,193.56,453.24Z" transform="translate(-63.22 -241.22)"/><path class="cls-4" d="M240.32,339.11l.25.27-.63,1.46A2.75,2.75,0,0,1,240.32,339.11Z" transform="translate(-63.22 -241.22)"/><path class="cls-5" d="M479.9,341.82c.53.15.48.41.42.68C479.94,342.41,480.09,342.1,479.9,341.82Z" transform="translate(-63.22 -241.22)"/><path class="cls-6" d="M492,460.48c-4.54,0-7.74-3-7.75-7.34s3.21-7.39,7.73-7.38,7.6,3,7.63,7.3S496.56,460.45,492,460.48Z" transform="translate(-63.22 -241.22)"/><path class="cls-6" d="M354.43,460.47c-4.57,0-7.72-3-7.72-7.34s3.18-7.38,7.71-7.36,7.61,3,7.62,7.3S359,460.47,354.43,460.47Z" transform="translate(-63.22 -241.22)"/><path class="cls-6" d="M284.47,453.12c0-2.2,0-4.4,0-6.6,0-.75.16-1.08,1-1a40.14,40.14,0,0,1,5,.21c3.77.69,5.9,3.5,5.82,7.72-.08,3.88-2.42,6.64-6.07,7.17a46.88,46.88,0,0,1-5,.16c-.73,0-.72-.41-.72-.93Q284.48,456.49,284.47,453.12Z" transform="translate(-63.22 -241.22)"/><path class="cls-7" d="M421.25,461.52a3.11,3.11,0,0,1-3-2.44,3.8,3.8,0,0,1,2.16-3.43.49.49,0,0,1,.61.18c1.18,1.29,2.35,2.58,3.54,3.87.34.36.27.59-.14.81A8.08,8.08,0,0,1,421.25,461.52Z" transform="translate(-63.22 -241.22)"/><path class="cls-8" d="M421,446.65a1.94,1.94,0,0,1,2.05-1.88,2.1,2.1,0,0,1,2.36,2c0,1-1.55,3-2.32,2.94C422.54,449.68,421.06,447.52,421,446.65Z" transform="translate(-63.22 -241.22)"/><path class="cls-7" d="M573.71,446.93l3.6,8.56c.19.45.24.72-.42.71-1.95,0-3.9,0-5.86,0-.56,0-.83-.11-.58-.75C571.52,452.71,572.55,450,573.71,446.93Z" transform="translate(-63.22 -241.22)"/><path class="cls-7" d="M83.25,448.25c0-2.81,0-2.82,2.83-2.73a9.64,9.64,0,0,1,1.77.23,2.34,2.34,0,0,1,2,2.46A2.38,2.38,0,0,1,88,450.8a15.69,15.69,0,0,1-4.27.24c-.45,0-.5-.29-.5-.64Z" transform="translate(-63.22 -241.22)"/><path class="cls-7" d="M548.85,448.29c0-2.9,0-2.91,2.94-2.77a9.23,9.23,0,0,1,1.66.24,2.36,2.36,0,0,1,2,2.47,2.41,2.41,0,0,1-1.88,2.58,16.2,16.2,0,0,1-4.17.24c-.53,0-.55-.34-.55-.72Z" transform="translate(-63.22 -241.22)"/><path class="cls-6" d="M205.8,448.21c0-2.74,0-2.76,2.72-2.69a9.63,9.63,0,0,1,1.77.22,2.24,2.24,0,0,1,2,2.39,2.34,2.34,0,0,1-2,2.72,18.17,18.17,0,0,1-4,.2c-.53,0-.55-.3-.54-.69C205.81,449.65,205.8,448.93,205.8,448.21Z" transform="translate(-63.22 -241.22)"/></svg>